<svg width="48" height="48" viewBox="0 0 48 48" fill="none" xmlns="http://www.w3.org/2000/svg">
  <path fill-rule="evenodd" clip-rule="evenodd" d="M24 48C10.7452 48 0 37.2548 0 24C0 10.7452 10.7452 0 24 0C37.2548 0 48 10.7452 48 24C48 37.2548 37.2548 48 24 48ZM18.4982 2.58788C14.4974 3.61284 10.9339 5.72959 8.14407 8.60186C9.80824 9.41868 11.7445 10.114 13.8878 10.648C15.0456 7.24336 16.6335 4.4557 18.4982 2.58788ZM1.9201 22.9953C2.13887 18.1052 3.94671 13.6285 6.83968 10.0692C8.71276 11.0403 10.9039 11.853 13.3277 12.4641C12.4513 15.6118 11.9225 19.1892 11.843 22.9953H1.9201ZM13.7411 22.9953C13.8213 19.3037 14.3409 15.8683 15.1812 12.8825C17.6326 13.3738 20.2816 13.6663 23.0512 13.7209V22.9953H13.7411ZM24.9488 22.9953V13.7209C27.7184 13.6663 30.3674 13.3738 32.8188 12.8825C33.6591 15.8683 34.1787 19.3037 34.2589 22.9953H24.9488ZM24.9488 11.8228C27.5281 11.7699 29.9829 11.5026 32.2475 11.0611C31.8491 9.91608 31.4009 8.85376 30.9111 7.88754C29.1042 4.32351 26.9596 2.45124 24.9488 2.004V11.8228ZM36.157 22.9953C36.0775 19.1892 35.5487 15.6118 34.6723 12.4641C37.0961 11.853 39.2872 11.0403 41.1603 10.0692C44.0533 13.6285 45.8611 18.1052 46.0799 22.9953H36.157ZM34.1122 10.648C36.2555 10.114 38.1918 9.41869 39.8559 8.60186C37.0661 5.72959 33.5026 3.61284 29.5018 2.58788C31.3665 4.4557 32.9544 7.24336 34.1122 10.648ZM15.7525 11.0611C18.0171 11.5026 20.4719 11.7699 23.0512 11.8228V2.004C21.0404 2.45124 18.8958 4.32351 17.0889 7.88754C16.5991 8.85375 16.1509 9.91607 15.7525 11.0611ZM11.8408 24.893H1.91539C2.10434 29.6481 3.79553 34.0168 6.5274 37.5376C8.43187 36.5127 10.6833 35.6553 13.1865 35.0137C12.3864 31.9636 11.9083 28.5317 11.8408 24.893ZM13.7174 36.8367C11.5313 37.393 9.56464 38.1177 7.88753 38.968C7.85332 38.9853 7.81927 39.0027 7.78537 39.0201C10.6256 42.0847 14.3238 44.3427 18.4982 45.4121C16.5403 43.4509 14.8875 40.4756 13.7174 36.8367ZM15.5759 36.4156C17.8892 35.9534 20.4047 35.6733 23.0512 35.619V45.996C21.0404 45.5488 18.8958 43.6765 17.0889 40.1125C16.5252 39.0006 16.0167 37.7615 15.5759 36.4156ZM23.0512 33.721C20.2272 33.7766 17.5285 34.0796 15.037 34.5885C14.2735 31.698 13.8067 28.4107 13.7388 24.893H23.0512V33.721ZM24.9488 35.619V45.996C26.9596 45.5488 29.1042 43.6765 30.9111 40.1125C31.4748 39.0006 31.9833 37.7615 32.4241 36.4156C30.1108 35.9534 27.5953 35.6733 24.9488 35.619ZM32.963 34.5885C30.4715 34.0797 27.7728 33.7766 24.9488 33.721V24.893H34.2612C34.1933 28.4107 33.7265 31.698 32.963 34.5885ZM34.2826 36.8367C33.1125 40.4756 31.4597 43.4509 29.5018 45.4121C33.6762 44.3427 37.3744 42.0847 40.2146 39.0201C40.1807 39.0027 40.1467 38.9853 40.1125 38.968C38.4354 38.1177 36.4687 37.393 34.2826 36.8367ZM41.4726 37.5376C39.5681 36.5127 37.3167 35.6553 34.8134 35.0137C35.6136 31.9636 36.0917 28.5317 36.1592 24.893H46.0846C45.8957 29.6481 44.2045 34.0168 41.4726 37.5376Z" fill="#1BC2EE"/>
</svg>
