<?xml version="1.0" encoding="utf-8"?>
<!-- Generator: Adobe Illustrator 19.2.1, SVG Export Plug-In . SVG Version: 6.00 Build 0)  -->
<svg version="1.1" id="natural-resources" xmlns="http://www.w3.org/2000/svg" xmlns:xlink="http://www.w3.org/1999/xlink" x="0px"
	 y="0px" viewBox="0 0 160 160" style="enable-background:new 0 0 160 160;" xml:space="preserve">
<style type="text/css">
	.st0{fill:#0093CF;}
</style>
<path class="st0" d="M123.6,87.8h1.1c4.8,0,8.5-4.4,7.7-9.2c-0.7-3.7-4.1-6.3-7.7-6.3h-2.9v-46c0-1.1,0.7-1.8,1.8-1.8h1.1
	c3.7,0,7-2.6,7.7-6.3c1.1-5.2-2.9-9.2-7.7-9.2h-2.9H37h-2.6c-4.1,0-8.1,3.3-8.1,7.4c-0.4,4.4,3.3,8.1,7.7,8.1h1.1
	c1.1,0,1.8,0.7,1.8,1.8v44.2c0,1.1-0.7,1.8-1.8,1.8h-0.7c-4.1,0-8.1,3.3-8.1,7.4c-0.4,4.4,3.3,8.1,7.7,8.1h1.1
	c1.1,0,1.8,0.7,1.8,1.8v44.2c0,1.1-0.7,1.8-1.8,1.8h-0.7c-4.1,0-8.1,3.3-8.1,7.4c-0.4,4.4,3.3,8.1,7.7,8.1H37h84.7h2.9
	c3.7,0,7-2.6,7.7-6.3c1.1-5.2-2.9-9.2-7.7-9.2h-1.1c-1.1,0-1.8-0.7-1.8-1.8V89.7C121.7,88.6,122.5,87.8,123.6,87.8z M79.4,107
	c-11.4,0-20.6-9.2-20.6-20.6c0-8.1,10.3-23.2,16.6-31.3c2.2-2.9,6.3-2.9,8.5,0c5.9,8.1,16.6,23.2,16.6,31.3
	C100,97.8,90.8,107,79.4,107z"/>
</svg>
