<?xml version="1.0" encoding="UTF-8" standalone="no"?>
<svg
   xmlns:dc="http://purl.org/dc/elements/1.1/"
   xmlns:cc="http://creativecommons.org/ns#"
   xmlns:rdf="http://www.w3.org/1999/02/22-rdf-syntax-ns#"
   xmlns:svg="http://www.w3.org/2000/svg"
   xmlns="http://www.w3.org/2000/svg"
   viewBox="0 0 98 32"
   height="32"
   width="98"
   xml:space="preserve"
   version="1.1"
   id="svg2"><title
     id="title3356">Extractive Industries Transparency Initiative Logo</title><metadata
     id="metadata8"><rdf:RDF><cc:Work
         rdf:about=""><dc:format>image/svg+xml</dc:format><dc:type
           rdf:resource="http://purl.org/dc/dcmitype/StillImage" /><dc:title>Extractive Industries Transparency Initiative Logo</dc:title></cc:Work></rdf:RDF></metadata><defs
     id="defs6" /><g
     transform="matrix(1.25,0,0,-1.25,2,30.095212)"
     id="g10"><g
       transform="scale(0.1,0.1)"
       id="g12"><path
         id="path14"
         d="m 363.75535,168.77962 c 38.45369,0.0296 76.90801,-0.0594 115.3613,0.0448 0,-58.66015 0,-117.320304 0,-175.9804558 24.73156,0 49.46311,0 74.19467,0 0,58.6277318 0,117.2554658 0,175.8831958 27.76539,-0.0255 55.45513,0.017 83.12787,0.0747 12.159,21.25017 24.318,42.50035 36.477,63.75052 -90.89766,0.0697 -181.79532,0.13938 -272.69298,0.20907 -12.15607,-21.32727 -24.31213,-42.65453 -36.4682,-63.9818"
         style="fill:#0492d2;fill-opacity:1;fill-rule:nonzero;stroke:none" /><path
         id="path16"
         d="m 231.93804,169.06375 c 12.15517,21.23256 24.31035,42.46511 36.46552,63.69767 -90.84833,0 -181.696656,0 -272.5449847,0 -0.1671236,-60.52146 -0.024237,-121.04488 -0.071798,-181.567101 0.066051,-17.464194 0.098091,-38.951075 0.1510693,-57.9614505 C 74.592481,-6.7866472 153.42348,-7.0013858 231.93799,-6.8718374 244.09317,14.360752 256.24834,35.593341 268.40351,56.82593 c -65.99187,0 -131.98375,0 -197.975622,0 2.555294,6.815689 -5.650658,24.304234 5.076192,23.12495 48.00476,0 96.00952,0 144.01427,0 11.44728,21.91569 22.89456,43.83137 34.34184,65.74706 -60.82135,-0.17801 -121.8143,-0.20516 -182.875928,-0.17193 2.375597,7.59428 -5.824483,25.76372 6.379208,23.5304 51.52484,0.003 103.04968,0.005 154.57451,0.008"
         style="fill:#231f20;fill-opacity:1;fill-rule:nonzero;stroke:none" /><path
         id="path18"
         d="m -4.0621483,56.82593 c -0.066863,-0.002 0.06584,0.25936 0,0 z"
         style="fill:#231f20;fill-opacity:1;fill-rule:nonzero;stroke:none" /><path
         id="path20"
         d="m 280.32962,-7.238304 c 24.73079,0 49.46158,0 74.19237,0 0,80.000001 0,160.000004 0,240.000004 -24.73079,0 -49.46158,0 -74.19237,0 0,-80 0,-160.000003 0,-240.000004 z"
         style="fill:#231f20;fill-opacity:1;fill-rule:nonzero;stroke:none" /><path
         id="path22"
         d="m 682.02238,-7.238304 c 24.73028,0 49.46056,0 74.19084,0 0,80.000001 0,160.000004 0,240.000004 -24.73028,0 -49.46056,0 -74.19084,0 0,-80 0,-160.000003 0,-240.000004 z"
         style="fill:#231f20;fill-opacity:1;fill-rule:nonzero;stroke:none" /></g></g></svg>