<svg fill="#85be33" id="membership-year" xmlns="http://www.w3.org/2000/svg" viewBox="0 0 1792 1792" >
<path d="M1344,960V832c0-17.3-6.3-32.3-19-45s-27.7-19-45-19h-256V512c0-17.3-6.3-32.3-19-45s-27.7-19-45-19H832
	c-17.3,0-32.3,6.3-45,19s-19,27.7-19,45v256H512c-17.3,0-32.3,6.3-45,19s-19,27.7-19,45v128c0,17.3,6.3,32.3,19,45s27.7,19,45,19
	h256v256c0,17.3,6.3,32.3,19,45s27.7,19,45,19h128c17.3,0,32.3-6.3,45-19s19-27.7,19-45v-256h256c17.3,0,32.3-6.3,45-19
	S1344,977.3,1344,960z M1664,896c0,139.3-34.3,267.8-103,385.5s-161.8,210.8-279.5,279.5s-246.2,103-385.5,103
	s-267.8-34.3-385.5-103S299.7,1399.2,231,1281.5S128,1035.3,128,896s34.3-267.8,103-385.5S392.8,299.7,510.5,231S756.7,128,896,128
	s267.8,34.3,385.5,103s210.8,161.8,279.5,279.5S1664,756.7,1664,896z"/>
</svg>
