<svg version="1.1" xmlns="http://www.w3.org/2000/svg" id="arrow" viewBox="0 0 160 160">
	<path d="M 74.868937,125.10872 115.38204,84.595616 c 1.1333,-1.133296 1.69549,-2.471835 1.69549,-4.015616 0,-1.543782 -0.56219,-2.88232 -1.69549,-4.015617 L 74.868937,36.051276 c -1.133296,-1.133296 -2.471835,-1.695483 -4.015617,-1.695483 -1.543781,0 -2.88232,0.562187 -4.015616,1.695483 L 57.73564,45.15334 c -1.133296,1.133296 -1.695482,2.471835 -1.695482,4.015616 0,1.543781 0.562186,2.88232 1.695482,4.015616 L 85.131068,80.58 57.73564,107.97543 c -1.133296,1.13329 -1.695482,2.47183 -1.695482,4.01561 0,1.54379 0.562186,2.88232 1.695482,4.01562 l 9.102064,9.10206 c 1.133296,1.1333 2.471835,1.69549 4.015616,1.69549 1.543782,0 2.882321,-0.56219 4.015617,-1.69549 z M 147.95316,80.58 c 0,12.430563 -3.0608,23.89738 -9.1913,34.40045 -6.13051,10.50306 -14.43838,18.81093 -24.94144,24.94144 -10.50307,6.1305 -21.969888,9.1913 -34.400451,9.1913 -12.430564,0 -23.89738,-3.0608 -34.400447,-9.1913 -10.503068,-6.13051 -18.810932,-14.43838 -24.94144,-24.94144 -6.130508,-10.50307 -9.1913,-21.969887 -9.1913,-34.40045 0,-12.430564 3.060792,-23.89738 9.1913,-34.400447 6.130508,-10.503068 14.438372,-18.810932 24.94144,-24.94144 10.503067,-6.130508 21.969883,-9.1913 34.400447,-9.1913 12.430563,0 23.897381,3.060792 34.400451,9.1913 10.50306,6.130508 18.81093,14.438372 24.94144,24.94144 6.1305,10.503067 9.1913,21.969883 9.1913,34.400447 z" />
</svg>