<svg viewBox="0 0 160 160"><path d="M74.868 125.108l40.514-40.513c1.133-1.133 1.695-2.47 1.695-4.015 0-1.543-.562-2.882-1.695-4.015L74.868 36.05c-1.133-1.132-2.47-1.694-4.015-1.694-1.543 0-2.882.562-4.015 1.695l-9.103 9.103c-1.133 1.133-1.695 2.47-1.695 4.015 0 1.543.562 2.882 1.695 4.015L85.13 80.58l-27.395 27.395c-1.133 1.133-1.695 2.47-1.695 4.015 0 1.543.562 2.882 1.695 4.015l9.102 9.102c1.133 1.133 2.47 1.695 4.015 1.695 1.543 0 2.882-.562 4.015-1.695zm73.085-44.528c0 12.43-3.06 23.897-9.19 34.4-6.13 10.503-14.44 18.81-24.942 24.94-10.502 6.13-21.968 9.192-34.4 9.192-12.43 0-23.896-3.06-34.4-9.19-10.502-6.13-18.81-14.44-24.94-24.942-6.13-10.503-9.19-21.97-9.19-34.4s3.06-23.897 9.19-34.4c6.13-10.503 14.438-18.81 24.94-24.94 10.504-6.13 21.97-9.192 34.4-9.192s23.898 3.06 34.4 9.19c10.504 6.13 18.81 14.44 24.942 24.942 6.13 10.503 9.19 21.97 9.19 34.4z"/></svg>
