<svg xmlns="http://www.w3.org/2000/svg" id="arrow" viewBox="0 0 160 160">
	<path d="M 74.868,125.108 115.382,84.595 c 1.133,-1.133 1.695,-2.471 1.695,-4.015 0,-1.543 -0.562,-2.882 -1.695,-4.015 L 74.868,36.051 c -1.133,-1.133 -2.471,-1.695 -4.015,-1.695 -1.543,0 -2.882,0.562 -4.015,1.695 L 57.735,45.153 c -1.133,1.133 -1.695,2.471 -1.695,4.015 0,1.543 0.562,2.882 1.695,4.015 L 85.131,80.58 57.735,107.975 c -1.133,1.133 -1.695,2.471 -1.695,4.015 0,1.543 0.562,2.882 1.695,4.015 l 9.102,9.102 c 1.133,1.133 2.471,1.695 4.015,1.695 1.543,0 2.882,-0.562 4.015,-1.695 z M 147.953,80.58 c 0,12.430 -3.060,23.897 -9.191,34.400 -6.130,10.503 -14.438,18.810 -24.941,24.941 -10.503,6.130 -21.969,9.191 -34.400,9.191 -12.430,0 -23.897,-3.060 -34.400,-9.191 -10.503,-6.130 -18.810,-14.438 -24.941,-24.941 -6.130,-10.503 -9.191,-21.969 -9.191,-34.400 0,-12.430 3.060,-23.897 9.191,-34.400 6.130,-10.503 14.438,-18.810 24.941,-24.941 10.503,-6.130 21.969,-9.191 34.400,-9.191 12.430,0 23.897,3.060 34.400,9.191 10.503,6.130 18.810,14.438 24.941,24.941 6.130,10.503 9.191,21.969 9.191,34.400 z" />
</svg>