<svg version="1.1" xmlns="http://www.w3.org/2000/svg" id="calendar_add" viewBox="0 0 160 160">
	<path d="M 21.400391 2 A 2.50025 2.50025 0 0 0 18.900391 4.5 L 18.900391 12.5 L 5.6992188 12.5 A 2.50025 2.50025 0 0 0 3.1992188 15 L 3.1992188 41.300781 L 3.1992188 149 A 2.50025 2.50025 0 0 0 5.6992188 151.5 L 105.86328 151.5 C 111.09547 154.78854 117.27731 156.69922 123.90039 156.69922 C 142.64846 156.69922 157.90039 141.44729 157.90039 122.69922 C 157.90039 109.57271 150.41853 98.167833 139.5 92.503906 L 139.5 41.300781 L 139.5 15 A 2.50025 2.50025 0 0 0 139.48828 14.75 A 2.50025 2.50025 0 0 0 137 12.5 L 123.80078 12.5 L 123.80078 4.5 A 2.50025 2.50025 0 0 0 121.30078 2 L 102.90039 2 A 2.50025 2.50025 0 0 0 100.40039 4.5 L 100.40039 12.5 L 42.300781 12.5 L 42.300781 4.5 A 2.50025 2.50025 0 0 0 39.800781 2 L 21.400391 2 z M 23.900391 7 L 37.300781 7 L 37.300781 15 L 37.300781 23 L 23.900391 23 L 23.900391 7 z M 105.40039 7 L 118.80078 7 L 118.80078 14.302734 A 2.50025 2.50025 0 0 0 118.69922 15 L 118.69922 23 L 105.40039 23 L 105.40039 7 z M 8.1992188 17.5 L 18.900391 17.5 L 18.900391 25.5 A 2.50025 2.50025 0 0 0 21.400391 28 L 39.800781 28 A 2.50025 2.50025 0 0 0 42.300781 25.5 L 42.300781 17.5 L 100.30078 17.5 L 100.30078 25.5 A 2.50025 2.50025 0 0 0 102.80078 28 L 121.19922 28 L 121.30078 28 A 2.50025 2.50025 0 0 0 123.80078 25.5 L 123.80078 17.5 L 134.5 17.5 L 134.5 38.800781 L 8.1992188 38.800781 L 8.1992188 17.5 z M 8.1992188 43.800781 L 134.5 43.800781 L 134.5 90.400391 C 131.16198 89.302146 127.60132 88.699219 123.90039 88.699219 C 122.95675 88.699219 122.02402 88.748472 121.09961 88.824219 L 121.09961 83.300781 L 121.09961 59.699219 A 2.50025 2.50025 0 0 0 118.59961 57.199219 L 95 57.199219 A 2.50025 2.50025 0 0 0 94.958984 57.201172 A 2.50025 2.50025 0 0 0 94.900391 57.199219 L 71.300781 57.199219 L 47.699219 57.199219 L 24.099609 57.199219 A 2.50025 2.50025 0 0 0 21.599609 59.699219 L 21.599609 83.300781 L 21.599609 106.90039 A 2.50025 2.50025 0 0 0 21.601562 106.94141 A 2.50025 2.50025 0 0 0 21.599609 107 L 21.599609 130.59961 A 2.50025 2.50025 0 0 0 24.099609 133.09961 L 47.699219 133.09961 L 71.300781 133.09961 L 91.533203 133.09961 C 93.174055 138.19405 95.985242 142.76628 99.650391 146.5 L 8.1992188 146.5 L 8.1992188 43.800781 z M 26.599609 62.199219 L 45.199219 62.199219 L 45.199219 80.800781 L 26.599609 80.800781 L 26.599609 62.199219 z M 50.199219 62.199219 L 68.800781 62.199219 L 68.800781 80.800781 L 50.199219 80.800781 L 50.199219 62.199219 z M 73.800781 62.199219 L 92.400391 62.199219 L 92.400391 80.800781 L 73.800781 80.800781 L 73.800781 62.199219 z M 97.5 62.199219 L 116.09961 62.199219 L 116.09961 80.800781 L 97.5 80.800781 L 97.5 62.199219 z M 26.599609 85.800781 L 45.199219 85.800781 L 45.199219 104.40039 L 26.599609 104.40039 L 26.599609 85.800781 z M 50.199219 85.800781 L 68.800781 85.800781 L 68.800781 104.40039 L 50.199219 104.40039 L 50.199219 85.800781 z M 73.800781 85.800781 L 92.400391 85.800781 L 92.400391 104.40039 L 73.800781 104.40039 L 73.800781 85.800781 z M 97.5 85.800781 L 116.09961 85.800781 L 116.09961 89.613281 C 115.87159 89.667024 115.63835 89.713164 115.41211 89.771484 C 114.86996 89.911333 114.33218 90.064836 113.80078 90.230469 C 113.26935 90.396082 112.74066 90.574944 112.2207 90.765625 C 111.70079 90.956387 111.18547 91.159885 110.67773 91.375 C 105.5073 93.565284 100.99202 97.003589 97.5 101.30469 L 97.5 85.800781 z M 123.90039 93.699219 C 128.21032 93.699219 132.25267 94.704035 135.97461 96.378906 A 2.50025 2.50025 0 0 0 136.44727 96.537109 C 146.19039 101.20596 152.90039 111.15102 152.90039 122.69922 C 152.90039 138.74509 139.94626 151.69922 123.90039 151.69922 C 117.03748 151.69922 110.74526 149.32328 105.78516 145.35547 C 105.63166 145.23173 105.47512 145.11103 105.32422 144.98438 C 105.13044 144.82279 104.94138 144.65675 104.75195 144.49023 C 104.50097 144.26848 104.2529 144.04436 104.00977 143.81445 C 103.88881 143.70049 103.76742 143.58671 103.64844 143.4707 C 103.31501 143.14461 102.98932 142.81002 102.67188 142.46875 C 102.62262 142.41587 102.57035 142.36575 102.52148 142.3125 C 101.7795 141.50296 101.08651 140.64998 100.43945 139.76172 C 100.35399 139.64427 100.27123 139.52502 100.1875 139.40625 C 99.950304 139.07019 99.721047 138.72908 99.498047 138.38281 C 99.422331 138.26506 99.345533 138.14821 99.271484 138.0293 C 99.031286 137.64418 98.800404 137.25233 98.578125 136.85547 C 98.529431 136.76838 98.477506 136.68335 98.429688 136.5957 C 98.174113 136.12808 97.933142 135.6508 97.703125 135.16797 C 97.634167 135.02296 97.570518 134.87484 97.503906 134.72852 C 97.349297 134.38944 97.200333 134.04717 97.058594 133.70117 C 96.976864 133.50139 96.89769 133.29966 96.820312 133.09766 C 96.699749 132.78325 96.584411 132.46615 96.474609 132.14648 C 96.405497 131.94514 96.336271 131.74435 96.271484 131.54102 C 96.154953 131.17541 96.049526 130.80551 95.947266 130.43359 C 95.910975 130.30164 95.870408 130.17177 95.835938 130.03906 C 95.835103 130.03585 95.834818 130.03251 95.833984 130.0293 A 2.50025 2.50025 0 0 0 95.806641 129.92578 C 95.792978 129.87698 95.784816 129.82625 95.771484 129.77734 C 95.658542 129.32492 95.554342 128.8691 95.462891 128.4082 C 95.424196 128.21351 95.392212 128.0164 95.357422 127.82031 C 95.294956 127.46749 95.237143 127.11319 95.1875 126.75586 C 95.158223 126.54574 95.132191 126.3346 95.107422 126.12305 C 95.060276 125.71894 95.02071 125.31169 94.990234 124.90234 C 94.978801 124.74949 94.966098 124.59687 94.957031 124.44336 C 94.923129 123.86619 94.900391 123.28575 94.900391 122.69922 C 94.900391 122.19833 94.912571 121.69963 94.9375 121.20508 C 94.9375 121.20508 94.9375 121.20312 94.9375 121.20312 C 94.937733 121.19851 94.939218 121.19407 94.939453 121.18945 C 94.964442 120.69894 94.999903 120.2122 95.048828 119.72852 C 95.246421 117.77591 95.637288 115.87997 96.201172 114.0625 C 96.34193 113.60868 96.494162 113.16068 96.65625 112.7168 C 97.143328 111.38355 97.725793 110.09418 98.394531 108.86133 C 98.467346 108.72707 98.548185 108.59781 98.623047 108.46484 A 2.50025 2.50025 0 0 0 98.767578 108.24609 C 102.99901 100.88708 110.35648 95.638625 119.01953 94.164062 A 2.50025 2.50025 0 0 0 119.50391 94.029297 C 120.45572 93.885262 121.42411 93.785888 122.4043 93.736328 C 122.89949 93.711335 123.39885 93.699219 123.90039 93.699219 z M 123.86328 104.66406 A 2.50025 2.50025 0 0 0 121.40039 107.19922 L 121.40039 120.40039 L 108.09961 120.40039 A 2.50025 2.50025 0 1 0 108.09961 125.40039 L 121.40039 125.40039 L 121.40039 138.69922 A 2.50025 2.50025 0 1 0 126.40039 138.69922 L 126.40039 125.40039 L 139.69922 125.40039 A 2.50025 2.50025 0 1 0 139.69922 120.40039 L 126.40039 120.40039 L 126.40039 107.19922 A 2.50025 2.50025 0 0 0 123.86328 104.66406 z M 26.599609 109.5 L 45.199219 109.5 L 45.199219 128.09961 L 26.599609 128.09961 L 26.599609 109.5 z M 50.199219 109.5 L 68.800781 109.5 L 68.800781 128.09961 L 50.199219 128.09961 L 50.199219 109.5 z M 73.800781 109.5 L 92.5 109.5 L 92.5 109.66992 C 92.314288 110.11592 92.1338 110.56422 91.966797 111.01953 C 91.775618 111.54059 91.59764 112.06704 91.431641 112.59961 C 91.265843 113.13163 91.112613 113.66814 90.972656 114.21094 C 90.692489 115.29705 90.465341 116.40239 90.292969 117.52734 C 90.206843 118.08956 90.134306 118.65572 90.076172 119.22656 C 90.076172 119.22656 90.076172 119.22852 90.076172 119.22852 C 90.018135 119.79873 89.974705 120.37306 89.945312 120.95117 C 89.944983 120.95765 89.945638 120.96423 89.945312 120.9707 C 89.944972 120.97727 89.943696 120.98366 89.943359 120.99023 C 89.91516 121.55677 89.900391 122.1258 89.900391 122.69922 C 89.900391 123.18339 89.914279 123.66297 89.9375 124.13867 C 89.941673 124.23658 89.940296 124.33592 89.945312 124.43359 C 90.007975 125.67407 90.141273 126.89731 90.333984 128.09961 L 73.800781 128.09961 L 73.800781 109.5 z " />
</svg>