<svg xmlns="http://www.w3.org/2000/svg" id="calendar_add" viewBox="0 0 160 160">
	<path d="M 21.400 2 A 2.500 2.500 0 0 0 18.900 4.5 L 18.900 12.5 L 5.699 12.5 A 2.500 2.500 0 0 0 3.199 15 L 3.199 41.300 L 3.199 149 A 2.500 2.500 0 0 0 5.699 151.5 L 105.863 151.5 C 111.095 154.788 117.277 156.699 123.900 156.699 C 142.648 156.699 157.900 141.447 157.900 122.699 C 157.900 109.572 150.418 98.167 139.5 92.503 L 139.5 41.300 L 139.5 15 A 2.500 2.500 0 0 0 139.488 14.75 A 2.500 2.500 0 0 0 137 12.5 L 123.800 12.5 L 123.800 4.5 A 2.500 2.500 0 0 0 121.300 2 L 102.900 2 A 2.500 2.500 0 0 0 100.400 4.5 L 100.400 12.5 L 42.300 12.5 L 42.300 4.5 A 2.500 2.500 0 0 0 39.800 2 L 21.400 2 z M 23.900 7 L 37.300 7 L 37.300 15 L 37.300 23 L 23.900 23 L 23.900 7 z M 105.400 7 L 118.800 7 L 118.800 14.302 A 2.500 2.500 0 0 0 118.699 15 L 118.699 23 L 105.400 23 L 105.400 7 z M 8.199 17.5 L 18.900 17.5 L 18.900 25.5 A 2.500 2.500 0 0 0 21.400 28 L 39.800 28 A 2.500 2.500 0 0 0 42.300 25.5 L 42.300 17.5 L 100.300 17.5 L 100.300 25.5 A 2.500 2.500 0 0 0 102.800 28 L 121.199 28 L 121.300 28 A 2.500 2.500 0 0 0 123.800 25.5 L 123.800 17.5 L 134.5 17.5 L 134.5 38.800 L 8.199 38.800 L 8.199 17.5 z M 8.199 43.800 L 134.5 43.800 L 134.5 90.400 C 131.161 89.302 127.601 88.699 123.900 88.699 C 122.956 88.699 122.024 88.748 121.099 88.824 L 121.099 83.300 L 121.099 59.699 A 2.500 2.500 0 0 0 118.599 57.199 L 95 57.199 A 2.500 2.500 0 0 0 94.958 57.201 A 2.500 2.500 0 0 0 94.900 57.199 L 71.300 57.199 L 47.699 57.199 L 24.099 57.199 A 2.500 2.500 0 0 0 21.599 59.699 L 21.599 83.300 L 21.599 106.900 A 2.500 2.500 0 0 0 21.601 106.941 A 2.500 2.500 0 0 0 21.599 107 L 21.599 130.599 A 2.500 2.500 0 0 0 24.099 133.099 L 47.699 133.099 L 71.300 133.099 L 91.533 133.099 C 93.174 138.194 95.985 142.766 99.650 146.5 L 8.199 146.5 L 8.199 43.800 z M 26.599 62.199 L 45.199 62.199 L 45.199 80.800 L 26.599 80.800 L 26.599 62.199 z M 50.199 62.199 L 68.800 62.199 L 68.800 80.800 L 50.199 80.800 L 50.199 62.199 z M 73.800 62.199 L 92.400 62.199 L 92.400 80.800 L 73.800 80.800 L 73.800 62.199 z M 97.5 62.199 L 116.099 62.199 L 116.099 80.800 L 97.5 80.800 L 97.5 62.199 z M 26.599 85.800 L 45.199 85.800 L 45.199 104.400 L 26.599 104.400 L 26.599 85.800 z M 50.199 85.800 L 68.800 85.800 L 68.800 104.400 L 50.199 104.400 L 50.199 85.800 z M 73.800 85.800 L 92.400 85.800 L 92.400 104.400 L 73.800 104.400 L 73.800 85.800 z M 97.5 85.800 L 116.099 85.800 L 116.099 89.613 C 115.871 89.667 115.638 89.713 115.412 89.771 C 114.869 89.911 114.332 90.064 113.800 90.230 C 113.269 90.396 112.740 90.574 112.220 90.765 C 111.700 90.956 111.185 91.159 110.677 91.375 C 105.507 93.565 100.992 97.003 97.5 101.304 L 97.5 85.800 z M 123.900 93.699 C 128.210 93.699 132.252 94.704 135.974 96.378 A 2.500 2.500 0 0 0 136.447 96.537 C 146.190 101.205 152.900 111.151 152.900 122.699 C 152.900 138.745 139.946 151.699 123.900 151.699 C 117.037 151.699 110.745 149.323 105.785 145.355 C 105.631 145.231 105.475 145.111 105.324 144.984 C 105.130 144.822 104.941 144.656 104.751 144.490 C 104.500 144.268 104.252 144.044 104.009 143.814 C 103.888 143.700 103.767 143.586 103.648 143.470 C 103.315 143.144 102.989 142.810 102.671 142.468 C 102.622 142.415 102.570 142.365 102.521 142.312 C 101.779 141.502 101.086 140.649 100.439 139.761 C 100.353 139.644 100.271 139.525 100.187 139.406 C 99.950 139.070 99.721 138.729 99.498 138.382 C 99.422 138.265 99.345 138.148 99.271 138.029 C 99.031 137.644 98.800 137.252 98.578 136.855 C 98.529 136.768 98.477 136.683 98.429 136.595 C 98.174 136.128 97.933 135.650 97.703 135.167 C 97.634 135.022 97.570 134.874 97.503 134.728 C 97.349 134.389 97.200 134.047 97.058 133.701 C 96.976 133.501 96.897 133.299 96.820 133.097 C 96.699 132.783 96.584 132.466 96.474 132.146 C 96.405 131.945 96.336 131.744 96.271 131.541 C 96.154 131.175 96.049 130.805 95.947 130.433 C 95.910 130.301 95.870 130.171 95.835 130.039 C 95.835 130.035 95.834 130.032 95.833 130.029 A 2.500 2.500 0 0 0 95.806 129.925 C 95.792 129.876 95.784 129.826 95.771 129.777 C 95.658 129.324 95.554 128.869 95.462 128.408 C 95.424 128.213 95.392 128.016 95.357 127.820 C 95.294 127.467 95.237 127.113 95.187 126.755 C 95.158 126.545 95.132 126.334 95.107 126.123 C 95.060 125.718 95.020 125.311 94.990 124.902 C 94.978 124.749 94.966 124.596 94.957 124.443 C 94.923 123.866 94.900 123.285 94.900 122.699 C 94.900 122.198 94.912 121.699 94.937 121.205 C 94.937 121.205 94.937 121.203 94.937 121.203 C 94.937 121.198 94.939 121.194 94.939 121.189 C 94.964 120.698 94.999 120.212 95.048 119.728 C 95.246 117.775 95.637 115.879 96.201 114.062 C 96.341 113.608 96.494 113.160 96.656 112.716 C 97.143 111.383 97.725 110.094 98.394 108.861 C 98.467 108.727 98.548 108.597 98.623 108.464 A 2.500 2.500 0 0 0 98.767 108.246 C 102.999 100.887 110.356 95.638 119.019 94.164 A 2.500 2.500 0 0 0 119.503 94.029 C 120.455 93.885 121.424 93.785 122.404 93.736 C 122.899 93.711 123.398 93.699 123.900 93.699 z M 123.863 104.664 A 2.500 2.500 0 0 0 121.400 107.199 L 121.400 120.400 L 108.099 120.400 A 2.500 2.500 0 1 0 108.099 125.400 L 121.400 125.400 L 121.400 138.699 A 2.500 2.500 0 1 0 126.400 138.699 L 126.400 125.400 L 139.699 125.400 A 2.500 2.500 0 1 0 139.699 120.400 L 126.400 120.400 L 126.400 107.199 A 2.500 2.500 0 0 0 123.863 104.664 z M 26.599 109.5 L 45.199 109.5 L 45.199 128.099 L 26.599 128.099 L 26.599 109.5 z M 50.199 109.5 L 68.800 109.5 L 68.800 128.099 L 50.199 128.099 L 50.199 109.5 z M 73.800 109.5 L 92.5 109.5 L 92.5 109.669 C 92.314 110.115 92.133 110.564 91.966 111.019 C 91.775 111.540 91.597 112.067 91.431 112.599 C 91.265 113.131 91.112 113.668 90.972 114.210 C 90.692 115.297 90.465 116.402 90.292 117.527 C 90.206 118.089 90.134 118.655 90.076 119.226 C 90.076 119.226 90.076 119.228 90.076 119.228 C 90.018 119.798 89.974 120.373 89.945 120.951 C 89.944 120.957 89.945 120.964 89.945 120.970 C 89.944 120.977 89.943 120.983 89.943 120.990 C 89.915 121.556 89.900 122.125 89.900 122.699 C 89.900 123.183 89.914 123.662 89.937 124.138 C 89.941 124.236 89.940 124.335 89.945 124.433 C 90.007 125.674 90.141 126.897 90.333 128.099 L 73.800 128.099 L 73.800 109.5 z " />
</svg>