<svg version="1.1" xmlns="http://www.w3.org/2000/svg" id="globe_wireframe" viewBox="0 0 160 160">
	<path d="m 43.5,1.9003906 c -6.664879,0 -12.099609,5.4347307 -12.099609,12.0996094 0,6.664879 5.43473,12.099609 12.099609,12.099609 6.664879,0 12.099609,-5.43473 12.099609,-12.099609 0,-6.6648787 -5.43473,-12.0996094 -12.099609,-12.0996094 z m 0,3 c 5.043558,0 9.099609,4.056051 9.099609,9.0996094 0,5.043558 -4.056051,9.099609 -9.099609,9.099609 -5.043558,0 -9.099609,-4.056051 -9.099609,-9.099609 0,-5.0435584 4.056051,-9.0996094 9.099609,-9.0996094 z" />
	<path d="M 39.699219,7.1992188 C 37.618304,7.1992187 35.900391,8.9190849 35.900391,11 c 0,2.080915 1.717913,3.800781 3.798828,3.800781 C 41.780134,14.800781 43.5,13.080915 43.5,11 43.5,8.9190849 41.780134,7.1992187 39.699219,7.1992188 Z m 0,3.0000002 C 40.158813,10.199219 40.5,10.540405 40.5,11 c 0,0.459595 -0.341187,0.800781 -0.800781,0.800781 -0.459595,0 -0.798828,-0.341186 -0.798828,-0.800781 0,-0.459595 0.339233,-0.800781 0.798828,-0.800781 z" />
	<path d="M 43.476562,23.078125 A 1.50015,1.50015 0 0 0 42,24.599609 l 0,21.800782 a 1.50015,1.50015 0 1 0 3,0 l 0,-21.800782 a 1.50015,1.50015 0 0 0 -1.523438,-1.521484 z" />
	<path d="M 69.300781 24.199219 C 32.039328 24.199219 1.8007812 54.437765 1.8007812 91.699219 C 1.8007814 128.96067 32.039328 159.19922 69.300781 159.19922 C 106.56223 159.19922 136.80078 128.96067 136.80078 91.699219 C 136.80078 54.437765 106.56223 24.199219 69.300781 24.199219 z M 69.300781 27.199219 C 80.662873 27.199219 91.32917 30.142093 100.59766 35.292969 C 91.70019 38.565303 83.592802 44.343016 78.28125 52.25 C 77.217427 53.853443 79.361409 60.801892 76.869141 57.78125 C 77.159242 50.626751 69.539291 51.008571 64.863281 52.896484 C 59.633183 52.039922 57.252235 58.551501 60.541016 62.078125 C 63.639551 64.606863 66.129858 66.364637 70.199219 65.800781 C 68.441269 70.22211 75.25741 70.597363 75.746094 74.525391 C 78.335876 80.625654 84.164769 75.867416 88.208984 76.175781 C 91.696995 78.784372 97.137635 77.822987 99.351562 81.988281 C 102.71661 86.538756 104.65869 92.572908 109.98633 95.310547 C 112.29351 99.242954 109.63082 103.9673 108.43164 107.91016 C 107.41095 112.41269 102.67907 114.39588 100.55664 118.37891 C 95.595818 126.2438 88.244626 133.00611 79.259766 135.78906 C 74.18264 133.496 81.558947 127.88716 81.722656 124.14062 C 83.776591 119.13858 85.148586 111.96635 80.023438 108.29688 C 74.26412 103.44558 71.103357 94.916245 74.181641 87.78125 C 75.863151 82.615506 68.830579 80.680399 70.027344 75.197266 C 69.13856 69.365948 62.35424 68.615657 57.630859 67.945312 C 50.071304 67.637115 44.97119 61.316725 41.585938 55.210938 C 38.448625 49.707876 36.083186 43.81688 33.466797 38.060547 C 43.71475 31.20347 56.036088 27.199219 69.300781 27.199219 z M 103.79297 37.199219 C 121.82685 48.631635 133.80078 68.752544 133.80078 91.699219 C 133.80078 127.33935 104.94091 156.19922 69.300781 156.19922 C 33.660648 156.19922 4.8007813 127.33935 4.8007812 91.699219 C 4.8007812 70.476027 15.036546 51.66043 30.841797 39.908203 C 31.651955 42.093122 33.541348 44.581213 33.939453 46.496094 C 37.765607 54.636324 41.560204 63.752585 49.554688 68.654297 C 54.602877 71.843253 61.347569 70.176431 66.173828 73.677734 C 68.070753 77.533953 67.114879 82.803096 71.371094 85.109375 C 70.757021 89.753361 68.904088 94.852368 70.884766 99.646484 C 72.247646 104.95074 76.292996 108.7809 79.908203 112.57031 C 81.930463 118.28188 78.476072 124.09337 76.099609 129.15234 C 72.600994 132.55657 74.625836 139.63872 80.091797 138.7168 C 89.712392 135.65765 97.685843 128.55797 103.01367 120.09766 C 104.78328 116.45087 109.09224 114.75712 110.46094 111.01953 C 112.21365 105.88293 115.2676 100.20887 113.19336 94.744141 C 110.29078 91.489231 106.39759 88.970042 104.60156 84.632812 C 102.32972 81.221602 100.30308 76.247027 95.652344 75.945312 C 90.73772 73.684595 85.563865 71.541245 80.675781 74.873047 C 77.512577 73.20618 77.17077 68.567128 73.123047 67.523438 C 74.177366 64.893537 71.661686 61.900163 68.259766 62.376953 C 67.481947 59.183121 61.636104 63.038772 62.099609 57.947266 C 62.555733 54.446085 68.455699 56.440919 70.878906 54.505859 C 76.153573 54.461029 71.85453 64.952307 78.951172 61.535156 C 83.952411 59.163277 78.421157 52.581836 83.802734 50.042969 C 88.946355 43.764691 96.293549 39.818211 103.79297 37.199219 z " />
</svg>