<svg version="1.1" xmlns="http://www.w3.org/2000/svg" id="information" viewBox="0 0 160 160">
	<path class="st0" d="M80.4,3.5c42.3,0,76.6,34.4,76.6,76.6s-34.4,76.6-76.6,76.6S3.7,122.4,3.7,80.1S38.1,3.5,80.4,3.5 M80.4,1.5 C36.9,1.5,1.7,36.7,1.7,80.1s35.2,78.6,78.6,78.6S159,123.6,159,80.1S123.8,1.5,80.4,1.5L80.4,1.5z"/>
	<path class="st1" d="M74.1,72.2c1.1-2.8-0.3-4.2-1.6-4.2c-5.8,0-13.4,13.7-16.2,13.7c-1.1,0-2-1.1-2-2c0-2.8,6.9-9.4,9-11.5 c6.3-6,14.5-10.5,23.6-10.5c6.8,0,14,4.1,8.3,19.3l-11.3,30.6c-0.9,2.4-2.7,6.3-2.7,8.8c0,1.1,0.6,2.2,1.9,2.2 c4.7,0,13.4-13.4,15.6-13.4c0.8,0,1.9,0.9,1.9,2.4c0,4.6-18.4,24-34.3,24c-5.7,0-9.6-2.7-9.6-8.6c0-7.5,5.3-20.4,6.4-23.1L74.1,72.2 z M82.6,41.2c0-6.9,6-12.6,12.9-12.6c6.3,0,10.8,4.2,10.8,10.7c0,7.2-6,12.6-13,12.6C86.9,51.9,82.6,47.7,82.6,41.2z"/>
</svg>