<svg viewBox="0 0 160 160">
	<path d="M 140.853 1.171 C 140.315 1.187 139.776 1.230 139.240 1.300 L 17.5 1.300 C 8.113 1.042 0.779 10.284 2 19.335 C 2.053 47.613 1.892 75.897 2.080 104.171 C 2.770 113.169 11.855 119.246 20.458 118.099 L 55.386 118.099 C 63.157 126.619 70.722 135.364 78.619 143.746 C 81.828 145.227 83.377 140.789 85.433 139.187 L 104.414 118.099 C 117.566 118.047 130.724 118.205 143.873 118.019 C 152.870 117.329 158.947 108.244 157.800 99.640 C 157.731 71.464 157.939 43.279 157.697 15.109 C 156.928 6.717 148.921 0.930 140.853 1.171 z M 80.380 6.292 C 101.341 6.286 122.301 6.290 143.259 6.355 C 149.777 6.888 153.715 13.598 152.800 19.695 C 152.763 47.682 152.874 75.674 152.746 103.660 C 152.233 110.237 145.429 114.022 139.341 113.099 L 109.275 113.099 C 111.485 110.515 114.652 108.565 116.273 105.583 C 116.942 102.759 112.778 101.463 111.441 103.919 C 100.202 114.543 90.360 126.489 79.898 137.863 C 69.057 126.128 58.963 113.659 47.162 102.875 C 44.538 101.307 41.969 105.503 44.541 107.173 L 50.523 113.099 C 38.822 112.961 27.085 113.379 15.408 112.882 C 9.310 111.786 6.205 105.367 7 99.640 C 7.036 71.674 6.926 43.703 7.054 15.740 C 7.530 10.553 12.278 6.227 17.5 6.300 C 38.459 6.319 59.420 6.299 80.380 6.292 z M 33.099 35 A 2.500 2.500 0 1 0 33.099 40 L 72.099 40 A 2.500 2.500 0 1 0 72.099 35 L 33.099 35 z M 33.099 55.800 A 2.500 2.500 0 1 0 33.099 60.800 L 121.5 60.800 A 2.500 2.500 0 1 0 121.5 55.800 L 33.099 55.800 z M 33.099 76.599 A 2.500 2.500 0 1 0 33.099 81.599 L 121.5 81.599 A 2.500 2.500 0 1 0 121.5 76.599 L 33.099 76.599 z " />
</svg>