<svg viewBox="0 0 160 160"><path d="M140.853 1.17c-.538.017-1.077.06-1.613.13H17.5C8.113 1.042.78 10.284 2 19.335c.053 28.278-.108 56.562.08 84.836.69 9 9.775 15.076 18.378 13.93h34.928c7.77 8.52 15.336 17.264 23.233 25.646 3.208 1.48 4.757-2.957 6.813-4.56l18.98-21.087c13.153-.053 26.31.105 39.46-.08 8.997-.69 15.074-9.776 13.927-18.38-.07-28.176.14-56.36-.103-84.53-.77-8.393-8.776-14.18-16.844-13.94zM80.38 6.293c20.96-.006 41.92-.002 62.88.063 6.517.533 10.455 7.243 9.54 13.34-.037 27.987.074 55.98-.054 83.965-.513 6.577-7.317 10.362-13.405 9.44h-30.065c2.21-2.585 5.377-4.535 6.998-7.517.67-2.824-3.495-4.12-4.832-1.664-11.238 10.623-21.08 22.57-31.542 33.943-10.84-11.735-20.935-24.204-32.736-34.988-2.624-1.568-5.193 2.628-2.62 4.298l5.98 5.926c-11.7-.14-23.437.28-35.114-.218C9.31 111.786 6.205 105.367 7 99.64c.036-27.966-.074-55.937.054-83.9.476-5.187 5.224-9.513 10.446-9.44 20.96.02 41.92 0 62.88-.008zM33.1 35a2.5 2.5 0 1 0 0 5h39a2.5 2.5 0 1 0 0-5h-39zm0 20.8a2.5 2.5 0 1 0 0 5h88.4a2.5 2.5 0 1 0 0-5H33.1zm0 20.8a2.5 2.5 0 1 0 0 5h88.4a2.5 2.5 0 1 0 0-5H33.1z"/></svg>