<svg viewBox="0 0 160 160"><path d="M80 3.5c42.3 0 76.6 34.4 76.6 76.6s-34.4 76.6-76.6 76.6S3.3 122.4 3.3 80.1 37.7 3.5 80 3.5m0-2C36.5 1.5 1.3 36.7 1.3 80.1s35.2 78.6 78.6 78.6 78.6-35.2 78.6-78.6S123.4 1.5 80 1.5z"/><path d="M66.1 94.6v-5.8c0-4.4.9-8.2 2.7-11.3 1.8-3.1 5-6 9.7-8.9 3.7-2.3 6.3-4.4 7.9-6.3 1.6-1.9 2.4-4 2.4-6.4 0-1.9-.9-3.4-2.6-4.5-1.7-1.1-4-1.7-6.7-1.7-6.8 0-14.9 2.4-24 7.3L46 38.5c11.3-6.4 23.1-9.7 35.4-9.7 10.1 0 18 2.2 23.8 6.7 5.8 4.4 8.6 10.5 8.6 18.2 0 5.5-1.3 10.2-3.8 14.2-2.6 4-6.7 7.8-12.3 11.4-4.8 3.1-7.7 5.3-8.9 6.8-1.2 1.4-1.8 3.1-1.8 5.1v3.5H66.1zm-2.9 23.8c0-4.2 1.2-7.4 3.6-9.7 2.4-2.3 6-3.4 10.7-3.4 4.5 0 8 1.1 10.4 3.4 2.4 2.3 3.6 5.5 3.6 9.6s-1.3 7.3-3.8 9.6-6 3.4-10.3 3.4c-4.5 0-8-1.1-10.5-3.4-2.4-2.1-3.7-5.3-3.7-9.5z"/></svg>