<svg viewBox="0 0 160 160"><path d="M1.9 1.8v156.7h156.7V1.8H1.9zM119 61.5c0 .8.1 1.6.1 2.4 0 24.8-18.9 53.4-53.4 53.4-10.6 0-20.5-3.1-28.8-8.4 1.5.2 3 .3 4.5.3 8.8 0 16.9-3 23.3-8-8.2-.2-15.2-5.6-17.5-13 1.1.2 2.3.3 3.5.3 1.7 0 3.4-.2 4.9-.7-8.6-1.7-15.1-9.3-15.1-18.4v-.2c2.5 1.4 5.4 2.3 8.5 2.4-5-3.4-8.4-9.1-8.4-15.6 0-3.4.9-6.7 2.5-9.4C52.4 57.7 66.3 65.2 81.9 66c-.3-1.4-.5-2.8-.5-4.3 0-10.4 8.4-18.8 18.8-18.8 5.4 0 10.3 2.3 13.7 5.9 4.3-.8 8.3-2.4 11.9-4.6-1.4 4.4-4.4 8.1-8.3 10.4 3.8-.5 7.4-1.5 10.8-3-2.5 3.9-5.7 7.2-9.3 9.9z"/></svg>