<svg viewBox="0 0 160 160"><path d="M80.8 4.4C38.5 4.4 4.3 38.7 4.3 80.9s34.3 76.5 76.5 76.5 76.5-34.3 76.5-76.5S123 4.4 80.8 4.4zm0 136.6c-33.2 0-60.1-26.9-60.1-60.1s26.9-60 60.1-60 60.1 26.9 60.1 60c-.1 33.2-27 60.1-60.1 60.1zm-8.5-77.3c0 1.5.5 2.9 1.4 4.2s2.3 2.3 4.1 3.1V56.3c-1.7.6-3 1.5-4 2.9s-1.5 2.9-1.5 4.5zm8.5-37.1c-30 0-54.3 24.3-54.3 54.3s24.3 54.3 54.3 54.3 54.3-24.3 54.3-54.3-24.3-54.3-54.3-54.3zm16.1 78c-3.1 3.5-7.4 5.7-13 6.5v8h-6.2v-7.8c-4.9-.6-8.9-2.4-12-5.5s-5-7.4-5.9-13L71 91.6c.5 2.3 1.3 4.2 2.6 5.9 1.3 1.6 2.6 2.8 4.2 3.6V83.2c-5.6-1.6-9.7-4-12.3-7.2-2.6-3.2-3.9-7.1-3.9-11.7 0-4.7 1.5-8.6 4.4-11.7 2.9-3.2 6.9-5 11.7-5.5v-4.2H84V47c4.5.5 8.1 2.1 10.8 4.6 2.7 2.5 4.4 6 5.1 10.2l-10.8 1.4c-.7-3.4-2.4-5.6-5.1-6.8v16.7c6.8 1.9 11.5 4.2 13.9 7.2 2.5 2.9 3.7 6.7 3.7 11.3 0 5.1-1.6 9.5-4.7 13zM84 85v16.6c2.1-.4 3.9-1.4 5.2-3 1.3-1.6 2-3.4 2-5.6 0-1.9-.6-3.5-1.7-4.9-1.1-1.3-3-2.3-5.5-3.1z"/></svg>