<?xml version="1.0" encoding="utf-8"?>
<!-- Generator: Adobe Illustrator 19.2.1, SVG Export Plug-In . SVG Version: 6.00 Build 0)  -->
<svg version="1.1" id="Layer_1" xmlns="http://www.w3.org/2000/svg" xmlns:xlink="http://www.w3.org/1999/xlink" x="0px" y="0px"
	 viewBox="0 0 160 160" style="enable-background:new 0 0 160 160;" xml:space="preserve">
<style type="text/css">
	.st0{fill:none;stroke:#4B4A4A;stroke-width:4;stroke-linecap:round;stroke-linejoin:round;stroke-miterlimit:10;}
</style>
<g>
	<g>
		<g>
			<path class="st0" d="M4,82.1v18.7c0,3.2,2.6,5.7,5.7,5.7h89.1"/>
			<path class="st0" d="M141.6,42.7V8.9c0-3.2-2.6-5.7-5.7-5.7H9.7C6.5,3.2,4,5.7,4,8.9v73.2h85.6"/>
		</g>
		<rect x="55.3" y="106.6" class="st0" width="34.2" height="34.9"/>
		<line class="st0" x1="46.1" y1="141.4" x2="98.7" y2="141.4"/>
		<g>
			<g>
				<circle class="st0" cx="127.4" cy="79" r="21.1"/>
				<g>
					<g>
						<path class="st0" d="M131.4,72.3c0,0-7.3-2.9-8.7,2.1c-1.2,4.4,10.5,6,9.9,9.8c-0.7,4.3-8,3.6-10.6,3.1"/>
					</g>
					<line class="st0" x1="127.4" y1="71.5" x2="127.4" y2="66.9"/>
					<line class="st0" x1="127.4" y1="87.6" x2="127.4" y2="92"/>
				</g>
			</g>
			<circle class="st0" cx="127.4" cy="79" r="29.2"/>
		</g>
		<g>
			<polyline class="st0" points="62.6,35.1 71.7,44.4 62.6,53.3 			"/>
			<line class="st0" x1="71.7" y1="44.4" x2="4" y2="44.4"/>
		</g>
		<g>
			<polyline class="st0" points="38.9,55.3 48,64.6 38.9,73.5 			"/>
			<line class="st0" x1="48" y1="64.6" x2="4" y2="64.6"/>
		</g>
		<g>
			<polyline class="st0" points="83,12.7 92.1,21.9 83,30.9 			"/>
			<line class="st0" x1="92.1" y1="21.9" x2="4" y2="21.9"/>
		</g>
	</g>
	<g>
		<line class="st0" x1="130.1" y1="10.9" x2="130.1" y2="28.4"/>
		<line class="st0" x1="122.1" y1="10.9" x2="122.1" y2="19.7"/>
		<line class="st0" x1="114.6" y1="10.9" x2="114.6" y2="25.7"/>
	</g>
</g>
</svg>
