<?xml version="1.0" encoding="utf-8"?>
<!-- Generator: Adobe Illustrator 19.2.1, SVG Export Plug-In . SVG Version: 6.00 Build 0)  -->
<svg version="1.1" id="Layer_1" xmlns="http://www.w3.org/2000/svg" xmlns:xlink="http://www.w3.org/1999/xlink" x="0px" y="0px"
	 viewBox="0 0 160 160" style="enable-background:new 0 0 160 160;" xml:space="preserve">
<style type="text/css">
	.st0{fill:#ffffff;}
</style>
<g>
	<path class="st0" d="M1.7,1.8v156.7h156.7V1.8H1.7z M123.3,83.3c0,7-0.9,14-0.9,14s-0.8,6-3.5,8.6c-3.3,3.5-7,3.5-8.7,3.7
		c-12.1,0.9-30.4,0.9-30.4,0.9s-22.6-0.2-29.5-0.9c-1.9-0.4-6.3-0.3-9.6-3.7c-2.6-2.6-3.4-8.6-3.4-8.6s-0.9-7-0.9-14v-6.6
		c0-7,0.9-14,0.9-14s0.8-6,3.4-8.6c3.3-3.5,7-3.5,8.7-3.7c12.1-0.9,30.4-0.9,30.4-0.9h0c0,0,18.2,0,30.4,0.9
		c1.7,0.2,5.4,0.2,8.7,3.7c2.6,2.6,3.5,8.6,3.5,8.6s0.9,7,0.9,14V83.3z M71,91.3l23.4-12.1L71,66.9L71,91.3z"/>
</g>
</svg>
