<?xml version="1.0" encoding="utf-8"?>
<!-- Generator: Adobe Illustrator 19.2.1, SVG Export Plug-In . SVG Version: 6.00 Build 0)  -->
<svg version="1.1" id="Layer_1" xmlns="http://www.w3.org/2000/svg" xmlns:xlink="http://www.w3.org/1999/xlink" x="0px" y="0px"
	 viewBox="0 0 160 160" style="enable-background:new 0 0 160 160;" xml:space="preserve">
<style type="text/css">
	.st0{fill:#ffffff;}
</style>
<g>
	<path class="st0" d="M1.1,1.6v156.6h156.6V1.6H1.1z M69.1,116.2H53.9V63h15.2V116.2z M61.5,57.3c-5.2,0-9.5-4.2-9.5-9.5
		s4.2-9.5,9.5-9.5c5.3,0,9.5,4.2,9.5,9.5S66.7,57.3,61.5,57.3z M122.2,116.2H107V83.9c0-1.5-0.5-3.4-2.6-4.6
		c-7.2-3.2-12.6,2.9-12.6,2.9v34H76.7V63h15.2v2.3c6-2.7,14.3-2.5,20,0.7c6,3.4,10.4,10.9,10.4,17.8V116.2z"/>
</g>
</svg>
