<?xml version="1.0" encoding="utf-8"?>
<!-- Generator: Adobe Illustrator 19.2.1, SVG Export Plug-In . SVG Version: 6.00 Build 0)  -->
<svg version="1.1" id="Layer_1" xmlns="http://www.w3.org/2000/svg" xmlns:xlink="http://www.w3.org/1999/xlink" x="0px" y="0px"
	 viewBox="0 0 160 160" style="enable-background:new 0 0 160 160;" xml:space="preserve">
<style type="text/css">
	.st0{fill:#4C4C4C;}
	.st1{fill:#FFFFFF;stroke:#4C4C4C;stroke-width:6;stroke-miterlimit:10;}
	.st2{fill:#FFFFFF;stroke:#4C4C4C;stroke-width:2;stroke-miterlimit:10;}
</style>
<path class="st0" d="M150.7,108.6c-3.3-1-6.9,0.8-7.9,4.2l-1.3,4.2C112,70.1,40,57.8,10.2,70.2c-3.2,1.3-4.7,5-3.4,8.2
	c1.3,3.2,5,4.7,8.2,3.4c25.2-10.4,88.2,0.6,114.7,40.1l-2.6-0.8c-3.3-1-6.9,0.8-7.9,4.2c-1,3.3,0.8,6.9,4.2,7.9l18.1,5.6
	c3.3,1,6.9-0.8,7.9-4.2l5.6-18.1C155.9,113.2,154.1,109.6,150.7,108.6z"/>
<path class="st0" d="M150.7,33c-3.3,1-6.9-0.8-7.9-4.2l-1.3-4.2C112,71.5,40,83.8,10.2,71.4c-3.2-1.3-4.7-5-3.4-8.2
	c1.3-3.2,5-4.7,8.2-3.4c25.2,10.4,88.2-0.6,114.7-40.1l-2.6,0.8c-3.3,1-6.9-0.8-7.9-4.2c-1-3.3,0.8-6.9,4.2-7.9l18.1-5.6
	c3.3-1,6.9,0.8,7.9,4.2l5.6,18.1C155.9,28.4,154.1,32,150.7,33z"/>
<path class="st0" d="M15.5,65.1h122.6l-4.4-5.5c-2.2-2.7-1.7-6.7,1-8.9c2.7-2.2,6.7-1.7,8.9,1l12.6,15.8c1.8,2.3,1.8,5.6,0,7.9
	l-12.6,15.8c-1.2,1.6-3.1,2.4-4.9,2.4c-1.4,0-2.8-0.4-3.9-1.4c-2.7-2.2-3.2-6.2-1-8.9l4.4-5.5H15.5c-3.5,0-6.3-2.8-6.3-6.3
	C9.1,68,12,65.1,15.5,65.1z"/>
<circle class="st1" cx="33.9" cy="70.2" r="29"/>
<g>
	<g>
		<path class="st2" d="M34.4,82.5c-9,0-16.3-1.9-16.3-3.8l0,4.4c0,1.9,7.3,3.8,16.3,3.8s16.3-1.9,16.3-3.8v-4.4
			C50.7,80.7,43.4,82.5,34.4,82.5z"/>
	</g>
	<line class="st2" x1="21.3" y1="80.9" x2="21.3" y2="85.3"/>
	<line class="st2" x1="47.6" y1="85.3" x2="47.6" y2="80.9"/>
	<line class="st2" x1="24.4" y1="81.7" x2="24.4" y2="86.1"/>
	<line class="st2" x1="44.5" y1="86.1" x2="44.5" y2="81.7"/>
	<line class="st2" x1="27.5" y1="82.2" x2="27.5" y2="86.5"/>
	<line class="st2" x1="41.3" y1="86.5" x2="41.3" y2="82.2"/>
	<line class="st2" x1="30.7" y1="82.4" x2="30.7" y2="86.8"/>
	<line class="st2" x1="38.2" y1="86.8" x2="38.2" y2="82.4"/>
	<line class="st2" x1="34.4" y1="82.5" x2="34.4" y2="86.9"/>
	<g>
		<path class="st2" d="M32.6,75.6c-9,0-16.3-1.9-16.3-3.8l0,4.4c0,1.9,7.3,3.8,16.3,3.8s16.3-1.9,16.3-3.8v-4.4
			C48.9,73.8,41.6,75.6,32.6,75.6z"/>
	</g>
	<line class="st2" x1="19.4" y1="74" x2="19.4" y2="78.4"/>
	<line class="st2" x1="45.7" y1="78.4" x2="45.7" y2="74"/>
	<line class="st2" x1="22.5" y1="74.8" x2="22.5" y2="79.2"/>
	<line class="st2" x1="42.6" y1="79.2" x2="42.6" y2="74.8"/>
	<line class="st2" x1="25.7" y1="75.3" x2="25.7" y2="79.7"/>
	<line class="st2" x1="39.4" y1="79.7" x2="39.4" y2="75.3"/>
	<line class="st2" x1="28.8" y1="75.5" x2="28.8" y2="79.9"/>
	<line class="st2" x1="36.3" y1="79.9" x2="36.3" y2="75.5"/>
	<line class="st2" x1="32.6" y1="75.6" x2="32.6" y2="80"/>
	<g>
		<path class="st2" d="M36.3,68.7c-9,0-16.3-1.9-16.3-3.8l0,4.4c0,1.9,7.3,3.8,16.3,3.8s16.3-1.9,16.3-3.8V65
			C52.6,66.9,45.3,68.7,36.3,68.7z"/>
	</g>
	<line class="st2" x1="23.1" y1="67.1" x2="23.1" y2="71.5"/>
	<line class="st2" x1="49.5" y1="71.5" x2="49.5" y2="67.1"/>
	<line class="st2" x1="26.3" y1="67.9" x2="26.3" y2="72.3"/>
	<line class="st2" x1="46.3" y1="72.3" x2="46.3" y2="67.9"/>
	<line class="st2" x1="29.4" y1="68.4" x2="29.4" y2="72.8"/>
	<line class="st2" x1="43.2" y1="72.8" x2="43.2" y2="68.4"/>
	<line class="st2" x1="32.6" y1="68.6" x2="32.6" y2="73"/>
	<line class="st2" x1="40.1" y1="73" x2="40.1" y2="68.6"/>
	<line class="st2" x1="36.3" y1="68.7" x2="36.3" y2="73.1"/>
	<path class="st2" d="M48.9,57.5c0,1.9-7.3,3.7-16.3,3.7s-16.3-1.8-16.3-3.7s7.3-3.2,16.3-3.2S48.9,55.6,48.9,57.5z"/>
	<g>
		<path class="st2" d="M32.6,61.2c-9,0-16.3-1.9-16.3-3.8l0,4.4c0,1.9,7.3,3.8,16.3,3.8s16.3-1.9,16.3-3.8v-4.4
			C48.9,59.4,41.6,61.2,32.6,61.2z"/>
	</g>
	<line class="st2" x1="19.4" y1="59.6" x2="19.4" y2="64"/>
	<line class="st2" x1="45.7" y1="64" x2="45.7" y2="59.6"/>
	<line class="st2" x1="22.5" y1="60.4" x2="22.5" y2="64.8"/>
	<line class="st2" x1="42.6" y1="64.8" x2="42.6" y2="60.4"/>
	<line class="st2" x1="25.7" y1="60.8" x2="25.7" y2="65.2"/>
	<line class="st2" x1="39.4" y1="65.2" x2="39.4" y2="60.8"/>
	<line class="st2" x1="28.8" y1="61.1" x2="28.8" y2="65.5"/>
	<line class="st2" x1="36.3" y1="65.5" x2="36.3" y2="61.1"/>
	<line class="st2" x1="32.6" y1="61.2" x2="32.6" y2="65.6"/>
	<path class="st2" d="M48.4,77.1c-1.8,1.6-8.2,2.9-15.8,2.9c-6,0-11.2-0.8-14-1.9c-0.3,0.2-0.4,0.5-0.4,0.7c0,1.9,7.3,3.7,16.3,3.7
		s16.3-1.8,16.3-3.7C50.7,78.2,49.9,77.6,48.4,77.1z"/>
	<path class="st2" d="M36.3,73.1c-8.3,0-15.1-1.6-16.2-3.3c-2.4,0.6-3.9,1.3-3.9,2.1c0,1.9,7.3,3.7,16.3,3.7s16.3-1.8,16.3-3.7
		c0-0.1,0-0.2,0-0.2C45.8,72.6,41.3,73.1,36.3,73.1z"/>
	<path class="st2" d="M48.2,62.8c-2,1.5-8.2,2.8-15.7,2.8c-4.8,0-9.1-0.5-12.1-1.3c-0.3,0.2-0.4,0.5-0.4,0.8c0,1.9,7.3,3.7,16.3,3.7
		s16.3-1.8,16.3-3.7C52.6,64.2,50.9,63.4,48.2,62.8z"/>
</g>
</svg>
