<?xml version="1.0" encoding="utf-8"?>
<!-- Generator: Adobe Illustrator 19.2.1, SVG Export Plug-In . SVG Version: 6.00 Build 0)  -->
<svg version="1.1" id="Layer_1" xmlns="http://www.w3.org/2000/svg" xmlns:xlink="http://www.w3.org/1999/xlink" x="0px" y="0px"
	 viewBox="0 0 160 160" style="enable-background:new 0 0 160 160;" xml:space="preserve">
<style type="text/css">
	.st0{fill:none;stroke:#4C4D4C;stroke-width:5;stroke-linecap:round;stroke-linejoin:round;stroke-miterlimit:10;}
</style>
<g>
	<polyline class="st0" points="87.7,32.3 103.1,32.3 103.1,145.1 20.4,145.1 20.4,32.3 35.4,32.3 	"/>
	<g>
		<path class="st0" d="M80.8,21.2v12.1c0,2.7-2.8,4.9-6.3,4.9H49.1c-3.5,0-6.3-2.2-6.3-4.9V21.2H4.5V155h113.8V21.2H80.8z"/>
		<path class="st0" d="M74.4,16h-4.6c0.4-1,0.6-2.1,0.6-3.2c0-4.8-3.9-8.7-8.7-8.7C56.9,4.1,53,8,53,12.8c0,1.1,0.2,2.2,0.6,3.2
			h-4.6c-3.5,0-6.3,2.2-6.3,4.9v0.2v12.1c0,2.7,2.8,4.9,6.3,4.9h25.4c3.5,0,6.3-2.2,6.3-4.9V21.2V21C80.8,18.3,77.9,16,74.4,16z"/>
	</g>
	<rect x="32.5" y="51.7" class="st0" width="58.4" height="30.6"/>
	<line class="st0" x1="41.1" y1="97.7" x2="90.9" y2="97.7"/>
	<line class="st0" x1="32.5" y1="107.5" x2="90.9" y2="107.5"/>
	<line class="st0" x1="32.5" y1="117" x2="90.9" y2="117"/>
	<line class="st0" x1="32.5" y1="127.3" x2="90.9" y2="127.3"/>
</g>
</svg>
