<?xml version="1.0" encoding="utf-8"?>
<!-- Generator: Adobe Illustrator 19.2.1, SVG Export Plug-In . SVG Version: 6.00 Build 0)  -->
<svg version="1.1" id="Layer_1" xmlns="http://www.w3.org/2000/svg" xmlns:xlink="http://www.w3.org/1999/xlink" x="0px" y="0px"
	 viewBox="0 0 160 160" style="enable-background:new 0 0 160 160;" xml:space="preserve">
<style type="text/css">
	.st0{fill:none;stroke:#4C4D4C;stroke-width:5;stroke-linecap:round;stroke-linejoin:round;stroke-miterlimit:10;}
	.st1{fill:#4C4D4C;}
	.st2{fill:#FFFFFF;stroke:#4C4D4C;stroke-width:5;stroke-linecap:round;stroke-linejoin:round;stroke-miterlimit:10;}
</style>
<circle class="st0" cx="80.2" cy="72.5" r="69.5"/>
<path class="st1" d="M115.9,13.8c0.3-0.1,0.5-0.3,0.8-0.4C106.1,6.8,93.6,3,80.2,3C65.6,3,51.9,7.6,40.7,15.4
	c0.1,0.3,0.1,0.6,0.3,0.8c4.7,10.2,10.8,27.6,21.3,31.5c5.1,1.9,9.7,1.2,14.5,3.6c0.5,0.3,1.3,0.8,1.6,1.3c2.4,3.6,1,8.8,3.5,10.1
	c1.9,1,3,3.1,2.2,5.1c-3.3,8.2-0.5,17.6,7.3,24c5.5,4.5,0.9,15-3.7,23.2c-1.6,2.9,1.3,6.3,4.5,5.2c5-1.8,9.2-4.4,14-8.5
	c7-6,8.5-12.5,15.4-17.6c0.1-0.1,0.1-0.1,0.2-0.2c1.8-5.2,7.3-16.5,1.7-19.4c-5.2-2.7-7.1-10.5-12.2-15.8c-0.6-0.6-1.4-0.9-2.2-1
	c-6.2-0.8-9-5.5-13.1-2.4c-3.1,2.3-6.6,0.9-7.7-2.8c-0.4-1.2-1-2.3-3.2-3c-1.7-0.5-2.5-2.5-1.9-4.1c0,0,0,0,0-0.1
	c0.8-2.2-3.8-1.9-6.2-1.5c-0.7,0.1,1.6-2.6,0.8-2.1c-2.9,1.7-6.5-1.2-6.3-4.6c0.2-3.4,0.8-3.2,6.6-3.9c6.3-2.9,9.3-0.8,9.1,6.4
	c3.9,0.6,5.2-1.1,4.1-5.1c-0.3-1.2-0.1-2.5,0.7-3.4C99,21.6,105,17.5,115.9,13.8z"/>
<path class="st2" d="M127.1,92.2c-1,4.1-2.9,8.4-3.8,11.1c0,0.1-0.1,0.2-0.2,0.2c-7.6,5.6-9.3,12.8-16.9,19.4
	c-5.3,4.6-9.9,7.4-15.4,9.4c-3.5,1.2-6.7-2.5-4.9-5.7c5.1-9,10.1-20.6,4-25.5c-2.2-1.8-4-3.9-5.5-6c-1.1,0-2.2,0-3.4,0
	c-28.2,0-54.4-3-76-8.2c3.5,38.9,36.2,69.4,76,69.4c39.8,0,72.5-30.5,76-69.4C147.8,89,137.8,90.8,127.1,92.2z"/>
</svg>
