<?xml version="1.0" encoding="utf-8"?>
<!-- Generator: Adobe Illustrator 19.2.1, SVG Export Plug-In . SVG Version: 6.00 Build 0)  -->
<svg version="1.1" id="Layer_1" xmlns="http://www.w3.org/2000/svg" xmlns:xlink="http://www.w3.org/1999/xlink" x="0px" y="0px"
	 viewBox="0 0 160 160" style="enable-background:new 0 0 160 160;" xml:space="preserve">
<style type="text/css">
	.st0{fill-rule:evenodd;clip-rule:evenodd;fill:#4B4A4A;}
</style>
<path class="st0" d="M80,158.8c-43.6,0-78.9-35.3-78.9-78.9C1.1,36.3,36.4,1,80,1c43.6,0,78.9,35.3,78.9,78.9
	C158.9,123.4,123.6,158.8,80,158.8z M119.1,76.4c0-3.4-2.7-6.1-6.1-6.1H88.7V46.1c0-3.4-2.7-6.1-6.1-6.1h-6.1
	c-3.4,0-6.1,2.7-6.1,6.1v24.3H46.2c-3.4,0-6.1,2.7-6.1,6.1v6.1c0,3.4,2.7,6.1,6.1,6.1h24.3v24.3c0,3.4,2.7,6.1,6.1,6.1h6.1
	c3.4,0,6.1-2.7,6.1-6.1V88.6H113c3.4,0,6.1-2.7,6.1-6.1V76.4z"/>
</svg>
