<?xml version="1.0" encoding="utf-8"?>
<!-- Generator: Adobe Illustrator 19.2.1, SVG Export Plug-In . SVG Version: 6.00 Build 0)  -->
<svg version="1.1" id="Layer_1" xmlns="http://www.w3.org/2000/svg" xmlns:xlink="http://www.w3.org/1999/xlink" x="0px" y="0px"
	 viewBox="0 0 160 160" style="enable-background:new 0 0 160 160;" xml:space="preserve">
<style type="text/css">
	.st0{fill:#424243;}
</style>
<path class="st0" d="M41,55.3v50.5l24-25.2L41,55.3z M84.7,91.7c-1.2,1.3-2.8,2-4.5,2c-1.7,0-3.3-0.7-4.5-2l-6.3-6.6l-24,25.2H115
	L91,85.1L84.7,91.7z M119.3,105.8V55.3l-24,25.3L119.3,105.8z M1.7,2.2V159h156.8V2.2H1.7z M125.4,114.7c0,0.5-0.2,1.1-0.6,1.5
	c-0.4,0.4-0.9,0.6-1.4,0.6H36.9c-0.5,0-1-0.2-1.4-0.6c-0.4-0.4-0.6-0.9-0.6-1.5V46.5c0-0.5,0.2-1.1,0.6-1.5c0.4-0.4,0.9-0.6,1.4-0.6
	h86.5c0.5,0,1,0.2,1.4,0.6c0.4,0.4,0.6,0.9,0.6,1.5V114.7z M80.2,87.4c0.2,0,0.1,0,0.1,0l34.7-36.5H45.3l34.7,36.5
	C80.1,87.4,80,87.3,80.2,87.4z"/>
<path class="st0" d="M341.7,1.5v156.8h156.7V1.5H341.7z M439.9,100.7c-8.1,8.4-18.7,19.9-19.8,26.6c-1.1-6.7-11.7-18.2-19.8-26.6
	c-11.7-12.1-39.7-32.5-18.8-51c19.9-16.6,38.6,1.6,38.6,1.6s18.7-18.3,38.6-1.6C479.6,68.2,451.7,88.6,439.9,100.7z"/>
<path class="st0" d="M171.7,1.5v156.8h156.7V1.5H171.7z M279,124.7L250.2,111l-28.8,13.7l4-31.9l-21.8-23.5l31.3-6.1L250.2,35
	l15.4,28.2l31.3,6.1l-21.8,23.5L279,124.7z"/>
</svg>
