<?xml version="1.0" encoding="utf-8"?>
<!-- Generator: Adobe Illustrator 19.2.1, SVG Export Plug-In . SVG Version: 6.00 Build 0)  -->
<svg version="1.1" id="Layer_1" xmlns="http://www.w3.org/2000/svg" xmlns:xlink="http://www.w3.org/1999/xlink" x="0px" y="0px"
	 viewBox="0 0 160 160" style="enable-background:new 0 0 160 160;" xml:space="preserve">
<style type="text/css">
	.st0{fill:none;stroke:#4B4A4A;stroke-width:4;stroke-linecap:round;stroke-linejoin:round;stroke-miterlimit:10;}
</style>
<circle class="st0" cx="124.7" cy="98.1" r="31.4"/>
<line class="st0" x1="124.7" y1="82.4" x2="124.7" y2="113.8"/>
<line class="st0" x1="140.4" y1="98.1" x2="109" y2="98.1"/>
<path class="st0" d="M4.4,4l65.4,57.8c4.3,3.8,11.2,3.8,15.5,0L150.8,4H4.4z"/>
<path class="st0" d="M93.3,98.1c0-17.3,14-31.4,31.4-31.4c10.9,0,20.5,5.6,26.1,14V4H4.4v101.9h89.9
	C93.7,103.4,93.3,100.8,93.3,98.1z"/>
<path class="st0" d="M64.5,56.9c-17,15.2-60,49-60,49h89.9c-0.6-2.5-1-5.1-1-7.8c0-11.4,6.1-21.3,15.1-26.8L90.8,56.9"/>
</svg>
