<?xml version="1.0" encoding="utf-8"?>
<!-- Generator: Adobe Illustrator 19.2.1, SVG Export Plug-In . SVG Version: 6.00 Build 0)  -->
<svg version="1.1" id="Layer_1" xmlns="http://www.w3.org/2000/svg" xmlns:xlink="http://www.w3.org/1999/xlink" x="0px" y="0px"
	 viewBox="0 0 160 160" style="enable-background:new 0 0 160 160;" xml:space="preserve">
<style type="text/css">
	.st0{fill:none;stroke:#4C4D4C;stroke-width:5;stroke-linecap:round;stroke-linejoin:round;stroke-miterlimit:10;}
</style>
<g>
	<g>
		<polygon class="st0" points="39.1,38.9 39.1,4 4.2,38.9 		"/>
		<polyline class="st0" points="118.2,23 118.2,4 39.1,4 4.2,38.9 4.2,156 118.2,156 118.2,137 		"/>
	</g>
	<g>
		<path class="st0" d="M118.2,29.9c-19.2,0-34.8,15.6-34.8,34.8c0,16.3,11.2,30,26.4,33.8c2.7,0.7,5.5,1.1,8.4,1.1
			c2.2,0,4.3-0.2,6.3-0.6c16.2-3,28.5-17.2,28.5-34.2C153.1,45.5,137.5,29.9,118.2,29.9z"/>
		<path class="st0" d="M109.8,98.5v31.7h14.8V98.9c-2.1,0.4-4.2,0.6-6.3,0.6C115.3,99.5,112.5,99.1,109.8,98.5z"/>
	</g>
	<circle class="st0" cx="118.2" cy="64.7" r="24.5"/>
	<path class="st0" d="M106.9,61.5c0-5.7,4.6-10.3,10.3-10.3"/>
	<rect x="21.7" y="61.5" class="st0" width="43.8" height="36.9"/>
	<line class="st0" x1="40.3" y1="119.1" x2="98.4" y2="119.1"/>
	<line class="st0" x1="21.7" y1="137.4" x2="98.4" y2="137.4"/>
	<line class="st0" x1="21.7" y1="127.9" x2="98.4" y2="127.9"/>
	<line class="st0" x1="52.5" y1="18.5" x2="71.5" y2="18.5"/>
	<line class="st0" x1="52.5" y1="27.9" x2="86.2" y2="27.9"/>
</g>
</svg>
