<?xml version="1.0" encoding="utf-8"?>
<!-- Generator: Adobe Illustrator 19.2.1, SVG Export Plug-In . SVG Version: 6.00 Build 0)  -->
<svg version="1.1" id="Layer_1" xmlns="http://www.w3.org/2000/svg" xmlns:xlink="http://www.w3.org/1999/xlink" x="0px" y="0px"
	 viewBox="0 0 160 160" style="enable-background:new 0 0 160 160;" xml:space="preserve">
<style type="text/css">
	.st0{fill:none;stroke:#4B4A4A;stroke-width:4;stroke-linecap:round;stroke-linejoin:round;stroke-miterlimit:10;}
</style>
<circle class="st0" cx="37.1" cy="119.5" r="34.1"/>
<line class="st0" x1="36.9" y1="102.5" x2="36.9" y2="136.6"/>
<line class="st0" x1="54.2" y1="119.5" x2="20.1" y2="119.5"/>
<path class="st0" d="M88.3,105.1c0,0,12.4,12.3,31.3,14.2"/>
<path class="st0" d="M57,73.8c0,0-15.1-12.4-17.1-31.3"/>
<path class="st0" d="M155.1,117.7c-5.4-10.2-25.3-21.9-25.3-21.9c-4.5-2.6-9.9-2.9-12.5,1.7c0,0-6.5,7.8-8.1,8.9
	c-7.5,5.1-14.5,4.9-21.5-2.1L71.3,88L55,71.7c-7-7-7.2-14-2.1-21.5c1.1-1.6,8.9-8.1,8.9-8.1c4.6-2.6,4.3-8,1.7-12.5
	c0,0-11.7-19.9-21.9-25.3c-4.3-2.3-9.7-1.5-13.1,2l-7.2,7.2C-1.7,36.3,9.6,62.1,32.5,85l0.6,0.6c1.3-0.2,2.6-0.3,4-0.3
	c18.9,0,34.1,15.3,34.1,34.1c0,1.4-0.1,2.7-0.3,4l3.3,3.3c22.9,22.9,48.7,34.2,71.6,11.3l7.2-7.2
	C156.6,127.4,157.4,122.1,155.1,117.7z"/>
</svg>
