<?xml version="1.0" encoding="utf-8"?>
<!-- Generator: Adobe Illustrator 19.2.1, SVG Export Plug-In . SVG Version: 6.00 Build 0)  -->
<svg version="1.1" id="Layer_1" xmlns="http://www.w3.org/2000/svg" xmlns:xlink="http://www.w3.org/1999/xlink" x="0px" y="0px"
	 viewBox="0 0 160 160" style="enable-background:new 0 0 160 160;" xml:space="preserve">
<style type="text/css">
	.st0{fill:none;stroke:#4B4A4A;stroke-width:4;stroke-linecap:round;stroke-linejoin:round;stroke-miterlimit:10;}
	.st1{fill:#4B4A4A;}
</style>
<g>
	<ellipse class="st0" cx="133.2" cy="97.1" rx="23.3" ry="14.7"/>
	<path class="st0" d="M133.2,141.2c12.8,0,23.3-6.6,23.3-14.7v9.8c0,8.1-10.4,14.7-23.3,14.7s-23.3-6.6-23.3-14.7v-9.8
		C110,134.6,120.4,141.2,133.2,141.2z"/>
	<path class="st0" d="M133.2,131.4c12.8,0,23.3-6.6,23.3-14.7v9.8c0,8.1-10.4,14.7-23.3,14.7s-23.3-6.6-23.3-14.7v-9.8
		C110,124.8,120.4,131.4,133.2,131.4z"/>
	<path class="st0" d="M133.2,121.6c12.8,0,23.3-6.6,23.3-14.7v9.8c0,8.1-10.4,14.7-23.3,14.7s-23.3-6.6-23.3-14.7v-9.8
		C110,115,120.4,121.6,133.2,121.6z"/>
	<path class="st0" d="M133.2,111.8c12.8,0,23.3-6.6,23.3-14.7v9.8c0,8.1-10.4,14.7-23.3,14.7S110,115,110,106.9v-9.8
		C110,105.3,120.4,111.8,133.2,111.8z"/>
	<ellipse class="st0" cx="101.4" cy="67.8" rx="23.3" ry="14.7"/>
	<path class="st0" d="M101.4,141.2c3.3,0,6.5-0.4,9.3-1.2c1.1,2.7,3.4,5.2,6.6,7c-4.2,2.5-9.7,4-15.9,4c-12.8,0-23.3-6.6-23.3-14.7
		v-9.8C78.2,134.6,88.6,141.2,101.4,141.2z"/>
	<path class="st0" d="M101.4,131.4c3,0,5.9-0.4,8.6-1v5.9c0,1.3,0.3,2.5,0.8,3.7c-2.9,0.8-6,1.2-9.3,1.2c-12.8,0-23.3-6.6-23.3-14.7
		v-9.8C78.2,124.8,88.6,131.4,101.4,131.4z"/>
	<path class="st0" d="M101.4,121.6c3,0,5.9-0.4,8.6-1v5.9v3.9c-2.7,0.7-5.5,1-8.6,1c-12.8,0-23.3-6.6-23.3-14.7v-9.8
		C78.2,115,88.6,121.6,101.4,121.6z"/>
	<path class="st0" d="M101.4,111.8c3,0,5.9-0.4,8.6-1v5.9v3.9c-2.7,0.7-5.5,1-8.6,1c-12.8,0-23.3-6.6-23.3-14.7v-9.8
		C78.2,105.3,88.6,111.8,101.4,111.8z"/>
	<path class="st0" d="M101.4,102c3,0,5.9-0.4,8.6-1v5.9v3.9c-2.7,0.7-5.5,1-8.6,1c-12.8,0-23.3-6.6-23.3-14.7v-9.8
		C78.2,95.5,88.6,102,101.4,102z"/>
	<g>
		<path class="st0" d="M101.4,92.2c4,0,7.8-0.7,11.1-1.8c-1.6,2-2.6,4.3-2.6,6.7v3.9c-2.7,0.7-5.5,1-8.6,1
			c-12.8,0-23.3-6.6-23.3-14.7v-9.8C78.2,85.7,88.6,92.2,101.4,92.2z"/>
	</g>
	<path class="st0" d="M101.4,82.5c12.8,0,23.3-6.6,23.3-14.7v9.8c0,2.4-0.9,4.7-2.6,6.7c-4.1,1.4-7.4,3.6-9.6,6.2
		c-3.3,1.1-7.1,1.8-11.1,1.8c-12.8,0-23.3-6.6-23.3-14.7v-9.8C78.2,75.9,88.6,82.5,101.4,82.5z"/>
</g>
<polyline class="st0" points="78.6,8.4 78.6,42.7 112.8,42.7 "/>
<g>
	<polyline class="st0" points="112.8,42.7 78.6,8.4 2.7,8.4 2.7,150.4 81,150.4 	"/>
</g>
<path class="st1" d="M57.4,37.5c0-2.6-2-4.8-4.5-5.2c1.6-2,1.4-5-0.4-6.8c-1.9-1.9-4.8-2-6.8-0.4c-0.3-2.5-2.5-4.5-5.2-4.5
	c-2.6,0-4.8,2-5.2,4.5c-2-1.6-5-1.4-6.8,0.4c-1.9,1.9-2,4.8-0.4,6.8c-2.6,0.3-4.5,2.5-4.5,5.2c0,2.6,2,4.8,4.5,5.2
	c-1.6,2-1.4,5,0.4,6.8c1.9,1.9,4.8,2,6.8,0.4c0.3,2.6,2.5,4.5,5.2,4.5c2.6,0,4.8-2,5.2-4.5c2.1,1.6,5,1.4,6.8-0.4
	c1.9-1.9,2-4.8,0.4-6.8C55.4,42.3,57.4,40.1,57.4,37.5z M40.4,45.3c-4.4,0-7.9-3.5-7.9-7.9s3.5-7.9,7.9-7.9s7.9,3.5,7.9,7.9
	S44.8,45.3,40.4,45.3z M40.1,61.2l-4.3-4.3h-5l0.2,28.9l9.2-9.2l9.2,9.2l0.2-28.9h-5L40.1,61.2z"/>
</svg>
