<?xml version="1.0" standalone="no"?>
<!DOCTYPE svg PUBLIC "-//W3C//DTD SVG 20010904//EN"
 "http://www.w3.org/TR/2001/REC-SVG-20010904/DTD/svg10.dtd">
<svg version="1.0" xmlns="http://www.w3.org/2000/svg"
 width="506.000000pt" height="604.000000pt" viewBox="0 0 506.000000 604.000000"
 preserveAspectRatio="xMidYMid meet">
<metadata>
Created by potrace 1.14, written by Peter Selinger 2001-2017
</metadata>
<g transform="translate(0.000000,604.000000) scale(0.100000,-0.100000)"
fill="#000000" stroke="none">
<path d="M665 6030 c-36 -14 -66 -57 -72 -99 -5 -37 2 -54 91 -210 53 -93 96
-173 96 -177 0 -5 -31 -29 -68 -54 -91 -61 -228 -176 -281 -236 -101 -113
-157 -238 -148 -329 4 -40 166 -485 184 -505 2 -2 23 18 46 45 125 149 321
329 487 446 50 35 94 65 99 67 5 1 32 -39 61 -90 l53 -93 -28 -20 c-227 -162
-415 -334 -550 -500 -293 -360 -479 -795 -540 -1260 -21 -158 -21 -462 0 -620
92 -700 477 -1336 1046 -1725 68 -47 89 -66 84 -78 -3 -9 -55 -103 -116 -208
-76 -133 -109 -201 -109 -223 0 -102 117 -159 190 -93 17 15 79 113 139 217
83 146 113 190 127 188 11 0 78 -26 149 -56 607 -259 1303 -259 1910 0 72 30
138 56 149 56 14 2 44 -42 127 -188 60 -104 122 -202 139 -217 73 -66 190 -9
190 93 0 22 -33 90 -109 223 -61 105 -113 199 -116 208 -5 12 10 27 57 59 513
344 898 907 1032 1510 45 205 51 270 51 554 0 238 -3 285 -23 398 -48 268
-129 508 -248 737 -192 368 -442 648 -829 925 l-28 20 53 93 c29 50 54 92 57
92 10 0 130 -86 225 -162 106 -84 280 -252 361 -347 26 -30 48 -53 50 -50 18
20 180 465 184 504 10 94 -49 220 -157 338 -57 62 -216 194 -292 242 -27 17
-48 34 -48 39 0 4 43 84 96 177 90 158 96 172 91 212 -9 66 -80 119 -140 103
-47 -11 -76 -48 -167 -209 l-94 -164 -110 53 c-227 109 -441 159 -572 135 -37
-6 -83 -20 -103 -31 -51 -26 -54 -29 -348 -396 l-33 -41 92 -17 c132 -24 333
-81 462 -131 147 -57 286 -122 286 -133 0 -12 -90 -171 -100 -177 -4 -2 -58
19 -120 46 -655 292 -1385 292 -2040 0 -62 -27 -116 -48 -120 -46 -10 6 -100
165 -100 177 0 11 139 76 286 133 129 50 330 107 462 131 84 15 91 18 79 33
-8 9 -81 99 -162 200 -96 119 -164 193 -192 211 -139 89 -408 48 -723 -110
l-76 -38 -94 166 c-69 120 -105 173 -129 189 -35 24 -71 28 -106 13z m2145
-1214 c255 -32 446 -89 677 -202 653 -318 1092 -932 1183 -1654 16 -128 13
-408 -5 -540 -67 -475 -289 -912 -633 -1241 -326 -313 -707 -501 -1167 -575
-152 -25 -458 -25 -610 0 -459 74 -841 262 -1164 571 -297 286 -515 667 -601
1055 -53 239 -67 544 -35 766 88 608 416 1131 929 1479 121 82 367 202 507
249 116 38 312 82 429 95 122 14 367 12 490 -3z"/>
<path d="M2452 4459 c-46 -23 -72 -55 -90 -108 -9 -24 -12 -239 -12 -762 l0
-729 -724 0 c-488 0 -734 -3 -753 -11 -34 -13 -80 -55 -99 -91 -18 -35 -18
-121 0 -156 19 -36 65 -78 99 -91 19 -8 296 -11 860 -11 788 0 834 1 872 19
46 21 79 54 94 94 8 19 11 301 11 880 0 791 -1 854 -18 886 -45 89 -152 125
-240 80z"/>
</g>
</svg>
