<?xml version="1.0" encoding="utf-8"?>
<!-- Generator: Adobe Illustrator 19.2.1, SVG Export Plug-In . SVG Version: 6.00 Build 0)  -->
<svg version="1.1" id="natural-resources" xmlns="http://www.w3.org/2000/svg" xmlns:xlink="http://www.w3.org/1999/xlink" x="0px"
	 y="0px" viewBox="0 0 160 160" style="enable-background:new 0 0 160 160;" xml:space="preserve">
<style type="text/css">
	.st0{fill:#0093CF;}
</style>
<path class="st0" d="M71.9,15.6c3.3,1.3,7,3,10.3,4.3c0.7,0.3,1.7,0.3,2.7,0.3c4.3-0.3,8.6-1.7,12.3-3.7c1.3-0.7,2.3-0.7,3.7,0.3
	c0.3,0.3,1,0.7,1.3,1c2,1.7,4.7,3,6,5.6c0.7,1.3,2,2,3.3,2.3c0.7,0,1.3,0.3,2,0.7c4,1.7,6,5.3,7.6,8.6c1.3,2.7-0.7,5.6-3.7,5.6H39
	c-1.7,0-2.3-2-1.3-3c3-3,7.6-7.6,10.3-10.3c0.3-0.3,1-1,1-1.3c-0.3-3.3,2.7-4,4.3-5.3c2-1.3,3.7-3,6.3-2.3c3.3,1,5.6-1,8-2.7
	C69.2,15.3,70.5,15,71.9,15.6z"/>
<circle class="st0" cx="100.4" cy="133.9" r="9"/>
<circle class="st0" cx="58.6" cy="133.9" r="9"/>
<path class="st0" d="M141.6,50.9H17.4c-1,0-1.7,0.7-1.7,1.7v15c0,1,0.7,1.7,1.7,1.7h4c1,0,2,0.7,2.3,1.7L40,112.7
	c0.7,1.7,2,2.7,4,2.7h70.8c1.7,0,3.3-1,4-2.7L135,70.8c0.3-1,1.3-1.7,2.3-1.7h4c1,0,1.7-0.7,1.7-1.7v-15
	C143.3,51.5,142.3,50.9,141.6,50.9z M56.2,102c0,2-1.7,3.7-3.7,3.7c-2,0-3.7-1.7-3.7-3.7V73.8c0-2,1.7-3.7,3.7-3.7
	c2,0,3.7,1.7,3.7,3.7V102z M74.2,102c0,2-1.7,3.7-3.7,3.7c-2,0-3.7-1.7-3.7-3.7V73.8c0-2,1.7-3.7,3.7-3.7c2,0,3.7,1.7,3.7,3.7V102z
	 M91.8,102c0,2-1.7,3.7-3.7,3.7c-2,0-3.7-1.7-3.7-3.7V73.8c0-2,1.7-3.7,3.7-3.7c2,0,3.7,1.7,3.7,3.7V102z M109.7,102
	c0,2-1.7,3.7-3.7,3.7s-3.7-1.7-3.7-3.7V73.8c0-2,1.7-3.7,3.7-3.7s3.7,1.7,3.7,3.7V102z"/>
</svg>
