<svg width="120" height="74" viewBox="0 0 120 74" fill="none" xmlns="http://www.w3.org/2000/svg">
<g clip-path="url(#clip0)">
<path d="M1.56213 52.4508V54.5912H5.55259V55.6176H1.56213V57.9001H5.98027V58.9266H0.44342V51.4243H5.98072V52.4508H1.56213Z" fill="white"/>
<path d="M11.1462 58.9265L9.60022 56.8516L8.04348 58.9265H6.83698L8.99787 56.044L6.92701 53.2803H8.15467L9.60202 55.2242L11.0597 53.2803H12.2658L10.2008 56.0328L12.3617 58.9265H11.1462Z" fill="white"/>
<path d="M16.4854 58.6549C16.1654 58.9123 15.7676 59.0545 15.3563 59.0585C15.1543 59.0641 14.9534 59.0276 14.7663 58.9515C14.5792 58.8754 14.4102 58.7613 14.2699 58.6164C14.1296 58.4716 14.0211 58.2991 13.9515 58.1102C13.8818 57.9212 13.8525 57.7199 13.8653 57.519V54.2006H13.0099V53.2831H13.8653V51.7324H14.9277V53.2831H16.2653V54.2006H14.9277V57.4446C14.9205 57.5272 14.9298 57.6104 14.9553 57.6894C14.9807 57.7683 15.0216 57.8414 15.0757 57.9044C15.1299 57.9675 15.196 58.0191 15.2704 58.0563C15.3448 58.0935 15.4259 58.1156 15.5089 58.1213C15.7218 58.1273 15.9291 58.0533 16.0897 57.9141L16.4854 58.6549Z" fill="white"/>
<path d="M20.8392 53.1491V54.0886C19.666 54.0886 18.8327 54.733 18.7341 55.7155V58.9263H17.6487V53.2801H18.7341V54.3617C18.9308 53.9794 19.234 53.6616 19.6073 53.4466C19.9807 53.2315 20.4084 53.1282 20.8392 53.1491V53.1491Z" fill="white"/>
<path d="M26.6502 55.5082V58.9262H25.5868V58.1509C25.3636 58.4361 25.0773 58.6663 24.7502 58.8235C24.4231 58.9806 24.0641 59.0606 23.701 59.0571C22.4954 59.0571 21.6072 58.3585 21.6072 57.2558C21.6072 56.1307 22.6268 55.3769 23.8766 55.3769C24.4596 55.3873 25.0371 55.4907 25.5873 55.6831V55.5082C25.6086 55.3118 25.5856 55.1132 25.52 54.9267C25.4544 54.7403 25.3479 54.5708 25.2082 54.4306C25.0684 54.2904 24.8991 54.183 24.7124 54.1163C24.5257 54.0496 24.3265 54.0252 24.1291 54.045C23.5662 54.075 23.0182 54.2356 22.5287 54.5141L22.1339 53.7172C22.7958 53.3633 23.5317 53.1687 24.2826 53.149C24.6003 53.1229 24.9198 53.1659 25.219 53.2753C25.5183 53.3846 25.79 53.5575 26.0153 53.7821C26.2407 54.0066 26.4142 54.2773 26.5238 54.5754C26.6334 54.8735 26.6766 55.1919 26.6502 55.5082V55.5082ZM25.5868 57.1571V56.4033C25.0852 56.2547 24.5642 56.1812 24.0409 56.1854C23.2846 56.1854 22.6485 56.6109 22.6485 57.2226C22.6485 57.8343 23.1968 58.2056 23.909 58.2056C24.6113 58.2065 25.4009 57.8562 25.5868 57.1571V57.1571Z" fill="white"/>
<path d="M27.912 56.0988C27.9254 55.3153 28.2461 54.5681 28.8054 54.017C29.3647 53.4659 30.1182 53.1547 30.9049 53.1499C31.2928 53.1515 31.6766 53.2296 32.0341 53.3796C32.3915 53.5296 32.7157 53.7486 32.9879 54.0239L32.2532 54.7006C32.0829 54.5088 31.8737 54.3552 31.6394 54.2498C31.4052 54.1445 31.1511 54.0898 30.8941 54.0894C30.3772 54.1195 29.8915 54.3456 29.5368 54.7212C29.182 55.0968 28.9851 55.5935 28.9865 56.1093C28.9879 56.625 29.1874 57.1206 29.5442 57.4944C29.901 57.8681 30.3879 58.0916 30.9049 58.119C31.1669 58.1159 31.4254 58.0579 31.6634 57.9487C31.9015 57.8395 32.1138 57.6817 32.2865 57.4854L33.0208 58.1517C32.746 58.4379 32.4159 58.6657 32.0505 58.8215C31.685 58.9772 31.2916 59.0577 30.8941 59.058C30.1081 59.0486 29.3567 58.7342 28.7998 58.1816C28.2429 57.629 27.9244 56.8817 27.912 56.0988V56.0988Z" fill="white"/>
<path d="M37.2322 58.6549C36.9123 58.9123 36.5144 59.0545 36.1032 59.0585C35.9012 59.0641 35.7002 59.0276 35.5132 58.9515C35.3261 58.8754 35.157 58.7613 35.0167 58.6164C34.8764 58.4716 34.768 58.2991 34.6983 58.1102C34.6287 57.9212 34.5993 57.7199 34.6122 57.519V54.2006H33.7568V53.2831H34.6122V51.7324H35.6755V53.2831H37.013V54.2006H35.6755V57.4446C35.6682 57.5272 35.6775 57.6104 35.7029 57.6894C35.7283 57.7684 35.7692 57.8415 35.8233 57.9046C35.8775 57.9676 35.9437 58.0192 36.0181 58.0564C36.0925 58.0936 36.1736 58.1157 36.2567 58.1213C36.4695 58.1273 36.6768 58.0533 36.8374 57.9141L37.2322 58.6549Z" fill="white"/>
<path d="M38.2195 51.6859C38.2195 51.5134 38.2883 51.348 38.4107 51.2261C38.5331 51.1042 38.6992 51.0356 38.8723 51.0356C39.0454 51.0356 39.2114 51.1042 39.3339 51.2261C39.4563 51.348 39.5251 51.5134 39.5251 51.6859C39.5251 51.8583 39.4563 52.0237 39.3339 52.1457C39.2114 52.2676 39.0454 52.3361 38.8723 52.3361C38.6992 52.3361 38.5331 52.2676 38.4107 52.1457C38.2883 52.0237 38.2195 51.8583 38.2195 51.6859V51.6859ZM38.3294 53.2801H39.4148V58.9263H38.3294V53.2801Z" fill="white"/>
<path d="M40.4353 53.2803H41.6085L43.3737 57.6704L45.1056 53.2803H46.2788L43.8887 58.9265H42.869L40.4353 53.2803Z" fill="white"/>
<path d="M51.1678 57.4849L51.848 58.184C51.2191 58.7477 50.4026 59.059 49.5566 59.0575C49.1677 59.0586 48.7826 58.982 48.4239 58.8323C48.0652 58.6826 47.7404 58.4628 47.4684 58.1859C47.1965 57.9089 46.9831 57.5805 46.8408 57.2201C46.6984 56.8596 46.6301 56.4743 46.6398 56.0871C46.6257 55.7076 46.6883 55.3292 46.8239 54.9744C46.9595 54.6195 47.1654 54.2954 47.4292 54.0213C47.6931 53.7473 48.0096 53.5289 48.3599 53.3791C48.7102 53.2293 49.0871 53.1512 49.4683 53.1494C51.2006 53.1494 52.1987 54.4602 52.1987 56.4804H47.7365C47.7808 56.9262 47.9911 57.3393 48.3258 57.6384C48.6606 57.9376 49.0956 58.1012 49.5453 58.097C50.1425 58.0945 50.7188 57.8771 51.1678 57.4849V57.4849ZM47.7464 55.6176H51.1453C51.1279 55.2024 50.9464 54.811 50.6403 54.5287C50.3342 54.2464 49.9284 54.0962 49.5115 54.1109C49.085 54.1091 48.6721 54.2604 48.3485 54.5371C48.0248 54.8138 47.812 55.1974 47.7491 55.6176H47.7464Z" fill="white"/>
<path d="M56.6421 51.4243H57.7495V58.9266H56.6421V51.4243Z" fill="white"/>
<path d="M64.3826 55.334V58.9264H63.3192V55.5183C63.3358 55.3373 63.3144 55.1548 63.2565 54.9824C63.1985 54.81 63.1051 54.6515 62.9823 54.517C62.8596 54.3825 62.7101 54.2749 62.5433 54.201C62.3765 54.1271 62.1962 54.0886 62.0137 54.0878C61.6558 54.0682 61.3027 54.1761 61.0174 54.3922C60.7322 54.6083 60.5335 54.9185 60.4569 55.2672V58.9255H59.372V53.2802H60.4569V54.0999C60.6522 53.8036 60.9194 53.5612 61.2336 53.395C61.5479 53.2289 61.8992 53.1443 62.255 53.1492C62.5422 53.1412 62.8279 53.1928 63.0941 53.3006C63.3602 53.4085 63.601 53.5702 63.801 53.7757C64.0011 53.9811 64.1561 54.2257 64.2562 54.494C64.3563 54.7622 64.3993 55.0483 64.3826 55.334V55.334Z" fill="white"/>
<path d="M71.3812 51.2934V58.9266H70.3066V57.9441C70.0983 58.2901 69.8021 58.5753 69.4478 58.7708C69.0936 58.9663 68.6938 59.0652 68.2889 59.0576C66.7983 59.0576 65.6778 57.8347 65.6778 56.0979C65.6778 54.3723 66.7965 53.149 68.2889 53.149C68.6925 53.1417 69.0911 53.2397 69.4451 53.4332C69.799 53.6267 70.096 53.909 70.3066 54.2521V51.2925L71.3812 51.2934ZM70.3048 56.0992C70.3048 54.9199 69.5701 54.0898 68.5491 54.0898C67.5078 54.0898 66.7731 54.9199 66.7731 56.0992C66.7731 57.2786 67.5078 58.1194 68.5491 58.1194C69.5701 58.1172 70.3048 57.2777 70.3048 56.0992Z" fill="white"/>
<path d="M78.0016 53.2803V58.9265H76.9185V58.1077C76.723 58.4044 76.4555 58.6472 76.1407 58.8134C75.8259 58.9797 75.474 59.0641 75.1177 59.0588C74.8306 59.067 74.5449 59.0156 74.2787 58.9079C74.0126 58.8002 73.7719 58.6385 73.5719 58.4331C73.3718 58.2277 73.2169 57.9831 73.1169 57.7148C73.0169 57.4466 72.9741 57.1606 72.991 56.8749V53.2816H74.0544V56.6897C74.0378 56.8708 74.0592 57.0533 74.1172 57.2256C74.1751 57.398 74.2685 57.5565 74.3913 57.691C74.514 57.8255 74.6635 57.9332 74.8303 58.0071C74.9971 58.0809 75.1774 58.1195 75.3599 58.1202C75.7178 58.14 76.0711 58.0322 76.3563 57.8161C76.6416 57.6 76.8403 57.2897 76.9167 56.9408V53.2821L78.0016 53.2803Z" fill="white"/>
<path d="M79.2095 58.2167L79.7249 57.4418C80.2743 57.8691 80.9465 58.1101 81.6432 58.1297C82.2789 58.1297 82.7178 57.8346 82.7178 57.3979C82.7178 56.8736 82.1366 56.71 81.4347 56.5131C80.1292 56.1544 79.4832 55.7817 79.4832 54.8642C79.4724 53.8265 80.3385 53.1494 81.5446 53.1494C82.2913 53.1624 83.0184 53.3899 83.6384 53.8046L83.1563 54.6023C82.6767 54.2853 82.1196 54.1041 81.5446 54.0781C80.985 54.0781 80.547 54.318 80.547 54.744C80.547 55.1808 80.8977 55.3122 81.8525 55.6068C82.7844 55.8795 83.782 56.1858 83.782 57.3109C83.782 58.3808 82.8722 59.0598 81.6333 59.0598C80.7539 59.0541 79.9013 58.7575 79.2095 58.2167V58.2167Z" fill="white"/>
<path d="M88.0908 58.6549C87.7707 58.9122 87.3729 59.0544 86.9617 59.0585C86.7597 59.0641 86.5587 59.0276 86.3716 58.9515C86.1845 58.8754 86.0154 58.7613 85.8751 58.6164C85.7347 58.4716 85.6263 58.2992 85.5566 58.1102C85.4868 57.9213 85.4574 57.7199 85.4702 57.519V54.2006H84.6149V53.2831H85.4702V51.7324H86.534V53.2831H87.8711V54.2006H86.534V57.4446C86.5268 57.5272 86.5361 57.6104 86.5615 57.6894C86.5869 57.7683 86.6279 57.8414 86.682 57.9044C86.7361 57.9674 86.8023 58.0191 86.8767 58.0563C86.9511 58.0935 87.0322 58.1156 87.1152 58.1213C87.328 58.1273 87.5353 58.0533 87.6959 57.9141L88.0908 58.6549Z" fill="white"/>
<path d="M92.4441 53.1491V54.0886C91.2709 54.0886 90.4371 54.733 90.339 55.7155V58.9263H89.2536V53.2801H90.339V54.3617C90.5356 53.9793 90.8388 53.6616 91.2122 53.4465C91.5856 53.2314 92.0133 53.1282 92.4441 53.1491Z" fill="white"/>
<path d="M93.3872 51.6859C93.3872 51.5134 93.456 51.348 93.5784 51.2261C93.7008 51.1042 93.8669 51.0356 94.04 51.0356C94.2131 51.0356 94.3791 51.1042 94.5016 51.2261C94.624 51.348 94.6928 51.5134 94.6928 51.6859C94.6928 51.8583 94.624 52.0237 94.5016 52.1457C94.3791 52.2676 94.2131 52.3361 94.04 52.3361C93.8669 52.3361 93.7008 52.2676 93.5784 52.1457C93.456 52.0237 93.3872 51.8583 93.3872 51.6859V51.6859ZM93.4971 53.2801H94.5825V58.9263H93.4971V53.2801Z" fill="white"/>
<path d="M100.373 57.4849L101.053 58.184C100.425 58.7477 99.608 59.059 98.762 59.0575C98.3731 59.0586 97.988 58.982 97.6293 58.8323C97.2707 58.6826 96.9458 58.4628 96.6739 58.1859C96.4019 57.9089 96.1885 57.5805 96.0462 57.2201C95.9039 56.8596 95.8355 56.4743 95.8452 56.0871C95.8311 55.7076 95.8937 55.3292 96.0293 54.9744C96.1649 54.6195 96.3708 54.2954 96.6347 54.0213C96.8985 53.7473 97.215 53.5289 97.5653 53.3791C97.9156 53.2293 98.2925 53.1512 98.6737 53.1494C100.406 53.1494 101.404 54.4602 101.404 56.4804H96.9419C96.9863 56.9262 97.1965 57.3393 97.5313 57.6384C97.866 57.9376 98.301 58.1012 98.7507 58.097C99.348 58.0945 99.9242 57.8771 100.373 57.4849V57.4849ZM96.9518 55.6176H100.351C100.333 55.2024 100.152 54.811 99.8457 54.5287C99.5396 54.2464 99.1338 54.0962 98.717 54.1109C98.29 54.1085 97.8764 54.2595 97.5522 54.5362C97.228 54.813 97.0148 55.1969 96.9518 55.6176V55.6176Z" fill="white"/>
<path d="M102.292 58.2167L102.807 57.4418C103.356 57.8691 104.029 58.1101 104.726 58.1297C105.361 58.1297 105.8 57.8346 105.8 57.3979C105.8 56.8736 105.219 56.71 104.517 56.5131C103.212 56.1544 102.566 55.7817 102.566 54.8642C102.555 53.8265 103.421 53.1494 104.627 53.1494C105.373 53.1623 106.1 53.3898 106.72 53.8046L106.238 54.6023C105.759 54.2852 105.202 54.104 104.627 54.0781C104.068 54.0781 103.629 54.318 103.629 54.744C103.629 55.1808 103.98 55.3122 104.935 55.6068C105.866 55.8795 106.864 56.1858 106.864 57.3109C106.864 58.3808 105.954 59.0598 104.715 59.0598C103.836 59.054 102.983 58.7574 102.292 58.2167V58.2167Z" fill="white"/>
<path d="M2.53772 65.5576H0.0715942V64.5293H6.12255V65.5558H3.64653V72.032H2.53772V65.5576Z" fill="white"/>
<path d="M10.5969 66.2571V67.1966C9.42375 67.1966 8.59046 67.8405 8.49186 68.8235V72.0343H7.40646V66.3881H8.49006V67.4692C8.68699 67.0867 8.9905 66.7689 9.3642 66.5539C9.7379 66.339 10.1659 66.2359 10.5969 66.2571V66.2571Z" fill="white"/>
<path d="M16.4084 68.6162V72.0342H15.3451V71.2584C15.1219 71.5438 14.8356 71.7741 14.5086 71.9313C14.1815 72.0886 13.8224 72.1686 13.4592 72.1651C12.2536 72.1651 11.3654 71.466 11.3654 70.3633C11.3654 69.2382 12.3851 68.4848 13.6348 68.4848C14.2178 68.4951 14.7953 68.5984 15.3455 68.7906V68.6162C15.3669 68.4198 15.344 68.221 15.2784 68.0346C15.2128 67.8481 15.1063 67.6785 14.9666 67.5382C14.8269 67.398 14.6575 67.2906 14.4708 67.2238C14.284 67.1571 14.0847 67.1327 13.8874 67.1525C13.3244 67.1825 12.7763 67.3433 12.287 67.622L11.8921 66.8252C12.5539 66.471 13.2899 66.2765 14.0409 66.257C14.3585 66.2307 14.6781 66.2738 14.9774 66.3831C15.2766 66.4924 15.5484 66.6653 15.7737 66.8898C15.9991 67.1144 16.1726 67.3852 16.2822 67.6833C16.3918 67.9814 16.4349 68.2998 16.4084 68.6162ZM15.3451 70.2646V69.5113C14.8435 69.3623 14.3225 69.2887 13.7991 69.2929C13.0428 69.2929 12.4067 69.7189 12.4067 70.3306C12.4067 70.9422 12.955 71.3131 13.6672 71.3131C14.3695 71.3131 15.1591 70.9637 15.3451 70.2646Z" fill="white"/>
<path d="M22.9861 68.441V72.0338H21.9241V68.6257C21.9407 68.4447 21.9193 68.2622 21.8613 68.0898C21.8033 67.9174 21.71 67.7589 21.5872 67.6244C21.4644 67.4899 21.3149 67.3823 21.1482 67.3084C20.9814 67.2345 20.801 67.196 20.6185 67.1952C20.2607 67.1755 19.9075 67.2834 19.6222 67.4995C19.337 67.7156 19.1383 68.0258 19.0618 68.3746V72.0329H17.9773V66.3876H19.0627V67.2069C19.258 66.9107 19.5252 66.6684 19.8395 66.5023C20.1538 66.3362 20.505 66.2517 20.8607 66.2567C21.1478 66.2486 21.4334 66.3002 21.6994 66.408C21.9654 66.5158 22.206 66.6776 22.4059 66.883C22.6058 67.0884 22.7606 67.333 22.8604 67.6012C22.9603 67.8694 23.0031 68.1554 22.9861 68.441V68.441Z" fill="white"/>
<path d="M24.1732 71.3241L24.6887 70.5483C25.2379 70.976 25.9101 71.2173 26.6069 71.2367C27.2426 71.2367 27.6815 70.9416 27.6815 70.5053C27.6815 69.9811 27.1003 69.817 26.3985 69.6205C25.0929 69.2618 24.4474 68.8887 24.4474 67.9712C24.4361 66.934 25.3027 66.2568 26.5083 66.2568C27.2551 66.2695 27.9823 66.497 28.6022 66.912L28.1182 67.7093C27.6386 67.3923 27.0815 67.2111 26.5065 67.1851C25.947 67.1851 25.5089 67.425 25.5089 67.8515C25.5089 68.2878 25.8596 68.4192 26.8145 68.7138C27.7464 68.9869 28.744 69.2927 28.744 70.4179C28.744 71.4883 27.8341 72.1667 26.5952 72.1667C25.7165 72.1608 24.8646 71.8644 24.1732 71.3241V71.3241Z" fill="white"/>
<path d="M35.7624 69.2052C35.7624 70.9415 34.6441 72.1648 33.1513 72.1648C32.7465 72.1724 32.3468 72.0733 31.9927 71.8777C31.6386 71.6821 31.3425 71.3969 31.1345 71.0509V73.9119H30.0612V66.3877H31.1345V67.3599C31.345 67.0168 31.6419 66.7345 31.9958 66.541C32.3496 66.3475 32.7481 66.2495 33.1518 66.2567C34.6459 66.2567 35.7624 67.4796 35.7624 69.2052ZM34.6662 69.2052C34.6662 68.0258 33.9315 67.1962 32.8897 67.1962C31.8705 67.1962 31.134 68.0258 31.134 69.2052C31.134 70.3845 31.8687 71.2258 32.8897 71.2258C33.9315 71.2258 34.6662 70.3845 34.6662 69.2052Z" fill="white"/>
<path d="M41.826 68.6162V72.0342H40.7631V71.2584C40.5398 71.5438 40.2534 71.7741 39.9263 71.9313C39.5991 72.0886 39.24 72.1686 38.8768 72.1651C37.6712 72.1651 36.783 71.466 36.783 70.3633C36.783 69.2382 37.8026 68.4848 39.0524 68.4848C39.6353 68.4953 40.2129 68.5985 40.7631 68.7907V68.6162C40.7844 68.4198 40.7614 68.221 40.6958 68.0346C40.6301 67.8481 40.5236 67.6785 40.3838 67.5383C40.2441 67.398 40.0746 67.2906 39.8879 67.2239C39.7012 67.1572 39.5018 67.1328 39.3045 67.1525C38.7415 67.1824 38.1934 67.3432 37.704 67.6221L37.3092 66.8252C37.971 66.471 38.707 66.2764 39.458 66.257C39.7757 66.2307 40.0953 66.2737 40.3946 66.3829C40.6939 66.4922 40.9658 66.6651 41.1911 66.8897C41.4165 67.1142 41.5901 67.385 41.6997 67.6832C41.8094 67.9814 41.8524 68.2998 41.826 68.6162V68.6162ZM40.7631 70.2647V69.5113C40.2614 69.3624 39.7402 69.2888 39.2167 69.2929C38.4604 69.2929 37.8242 69.7189 37.8242 70.3306C37.8242 70.9423 38.3726 71.3131 39.0848 71.3131C39.7871 71.3131 40.5767 70.9638 40.7631 70.2647V70.2647Z" fill="white"/>
<path d="M46.6402 66.257V67.1965C45.4675 67.1965 44.6338 67.8405 44.5356 68.8234V72.0342H43.4498V66.388H44.5356V67.4692C44.7323 67.0869 45.0354 66.7693 45.4087 66.5543C45.782 66.3394 46.2096 66.2361 46.6402 66.257V66.257Z" fill="white"/>
<path d="M51.9255 70.5923L52.6052 71.2909C51.9767 71.855 51.1602 72.1664 50.3142 72.1649C49.9254 72.166 49.5402 72.0894 49.1816 71.9397C48.8229 71.79 48.498 71.5702 48.2261 71.2933C47.9542 71.0164 47.7408 70.688 47.5985 70.3275C47.4561 69.967 47.3878 69.5818 47.3975 69.1945C47.3833 68.815 47.4459 68.4366 47.5814 68.0817C47.717 67.7268 47.9229 67.4027 48.1868 67.1286C48.4507 66.8546 48.7672 66.6361 49.1175 66.4864C49.4678 66.3366 49.8448 66.2586 50.226 66.2568C51.9583 66.2568 52.9564 67.5676 52.9564 69.5878H48.4941C48.539 70.0332 48.7495 70.4457 49.0842 70.7444C49.4189 71.0431 49.8536 71.2064 50.303 71.2022C50.8999 71.2003 51.4761 70.9837 51.9255 70.5923V70.5923ZM48.504 68.725H51.9029C51.8856 68.3098 51.7041 67.9183 51.398 67.6359C51.0919 67.3536 50.6861 67.2033 50.2692 67.2178C49.8423 67.2158 49.429 67.367 49.105 67.6438C48.781 67.9206 48.5679 68.3045 48.5049 68.725H48.504Z" fill="white"/>
<path d="M59.2284 68.4411V72.0339H58.165V68.6258C58.1816 68.4448 58.1603 68.2623 58.1023 68.0899C58.0443 67.9175 57.9509 67.759 57.8282 67.6245C57.7054 67.49 57.5559 67.3823 57.3891 67.3085C57.2224 67.2346 57.042 67.196 56.8595 67.1953C56.5016 67.1756 56.1484 67.2834 55.8632 67.4995C55.5779 67.7157 55.3792 68.0259 55.3027 68.3747V72.033H54.2173V66.3877H55.3027V67.207C55.4981 66.9108 55.7652 66.6684 56.0795 66.5023C56.3938 66.3362 56.7451 66.2518 57.1008 66.2567C57.3881 66.2484 57.6739 66.2997 57.9402 66.4074C58.2065 66.5151 58.4473 66.6768 58.6474 66.8822C58.8476 67.0877 59.0026 67.3324 59.1026 67.6008C59.2026 67.8691 59.2454 68.1553 59.2284 68.4411V68.4411Z" fill="white"/>
<path d="M60.4795 69.2053C60.4929 68.4218 60.8135 67.6747 61.3728 67.1237C61.9321 66.5726 62.6857 66.2615 63.4723 66.2568C63.8602 66.2585 64.2439 66.3366 64.6014 66.4865C64.9588 66.6364 65.283 66.8552 65.5553 67.1304L64.8206 67.8075C64.6504 67.6157 64.4412 67.462 64.2069 67.3566C63.9726 67.2513 63.7186 67.1966 63.4615 67.1963C62.9446 67.2264 62.4589 67.4525 62.1042 67.8281C61.7494 68.2038 61.5525 68.7005 61.5539 69.2162C61.5553 69.7319 61.7548 70.2276 62.1116 70.6013C62.4684 70.9751 62.9553 71.1986 63.4723 71.2259C63.7343 71.2229 63.9927 71.1649 64.2307 71.0557C64.4686 70.9465 64.6808 70.7886 64.8535 70.5923L65.5882 71.2582C65.3134 71.5444 64.9834 71.7723 64.6179 71.9281C64.2524 72.084 63.859 72.1645 63.4615 72.1649C62.6754 72.1555 61.9241 71.8409 61.3672 71.2882C60.8103 70.7355 60.4918 69.9882 60.4795 69.2053V69.2053Z" fill="white"/>
<path d="M66.6749 73.759L66.9162 72.9294C67.1288 73.0431 67.3661 73.103 67.6073 73.1039C67.766 73.1173 67.9251 73.0829 68.0638 73.005C68.2026 72.9271 68.3146 72.8093 68.3852 72.6671L68.6706 72.0666L66.2365 66.3877H67.3988L69.2185 70.8433L70.94 66.3877H72.0691L69.5692 72.5469C69.164 73.5626 68.5608 73.9886 67.7495 73.9998C67.3775 74.0029 67.0098 73.9205 66.6749 73.759V73.759Z" fill="white"/>
<path d="M76.4683 64.5293H77.5758V72.032H76.4683V64.5293Z" fill="white"/>
<path d="M84.2079 68.441V72.0338H83.1441V68.6258C83.1607 68.4447 83.1393 68.2622 83.0814 68.0898C83.0234 67.9174 82.93 67.759 82.8072 67.6244C82.6845 67.4899 82.535 67.3823 82.3682 67.3084C82.2014 67.2345 82.0211 67.196 81.8386 67.1953C81.4807 67.1755 81.1275 67.2834 80.8422 67.4995C80.557 67.7156 80.3583 68.0259 80.2818 68.3746V72.0329H79.1969V66.3876H80.2818V67.2069C80.4772 66.9107 80.7443 66.6684 81.0586 66.5023C81.3729 66.3362 81.7241 66.2517 82.0799 66.2567C82.3671 66.2486 82.6528 66.3001 82.919 66.4079C83.1852 66.5157 83.4259 66.6774 83.626 66.8828C83.8261 67.0882 83.9812 67.3327 84.0814 67.601C84.1815 67.8692 84.2246 68.1553 84.2079 68.441V68.441Z" fill="white"/>
<path d="M85.6449 64.7933C85.6449 64.6208 85.7137 64.4555 85.8361 64.3335C85.9585 64.2116 86.1245 64.1431 86.2977 64.1431C86.4708 64.1431 86.6368 64.2116 86.7592 64.3335C86.8817 64.4555 86.9504 64.6208 86.9504 64.7933C86.9504 64.9658 86.8817 65.1311 86.7592 65.2531C86.6368 65.375 86.4708 65.4435 86.2977 65.4435C86.1245 65.4435 85.9585 65.375 85.8361 65.2531C85.7137 65.1311 85.6449 64.9658 85.6449 64.7933ZM85.7547 66.3879H86.8397V72.0341H85.7547V66.3879Z" fill="white"/>
<path d="M91.4563 71.7608C91.1365 72.0184 90.7386 72.1606 90.3273 72.1644C90.1253 72.1699 89.9243 72.1334 89.7372 72.0573C89.5502 71.9811 89.3811 71.8669 89.2408 71.722C89.1005 71.5771 88.9921 71.4047 88.9224 71.2157C88.8528 71.0267 88.8234 70.8254 88.8363 70.6245V67.3061H87.9809V66.3886H88.8363V64.8379H89.8996V66.3886H91.2371V67.3061H89.8996V70.5491C89.8923 70.6318 89.9016 70.7151 89.927 70.7941C89.9523 70.8732 89.9933 70.9464 90.0474 71.0095C90.1015 71.0726 90.1677 71.1243 90.2421 71.1616C90.3165 71.1989 90.3977 71.221 90.4808 71.2267C90.6937 71.2329 90.9011 71.1587 91.0615 71.0191L91.4563 71.7608Z" fill="white"/>
<path d="M92.4441 64.7933C92.4441 64.6208 92.5128 64.4555 92.6353 64.3335C92.7577 64.2116 92.9237 64.1431 93.0968 64.1431C93.27 64.1431 93.436 64.2116 93.5584 64.3335C93.6808 64.4555 93.7496 64.6208 93.7496 64.7933C93.7496 64.9658 93.6808 65.1311 93.5584 65.2531C93.436 65.375 93.27 65.4435 93.0968 65.4435C92.9237 65.4435 92.7577 65.375 92.6353 65.2531C92.5128 65.1311 92.4441 64.9658 92.4441 64.7933ZM92.5539 66.3879H93.6389V72.0341H92.5539V66.3879Z" fill="white"/>
<path d="M99.9541 68.6162V72.0342H98.8907V71.2584C98.6676 71.5438 98.3813 71.7741 98.0542 71.9314C97.7272 72.0886 97.3681 72.1686 97.0049 72.1651C95.7993 72.1651 94.9111 71.466 94.9111 70.3633C94.9111 69.2382 95.9307 68.4848 97.1805 68.4848C97.7634 68.4951 98.341 68.5984 98.8912 68.7906V68.6162C98.9125 68.4198 98.8896 68.2211 98.8241 68.0347C98.7585 67.8482 98.6521 67.6787 98.5124 67.5384C98.3727 67.3982 98.2034 67.2908 98.0167 67.224C97.8301 67.1572 97.6308 67.1328 97.4335 67.1525C96.8704 67.1824 96.3221 67.3432 95.8326 67.622L95.4378 66.8252C96.0996 66.471 96.8355 66.2765 97.5865 66.257C97.9042 66.2307 98.2238 66.2738 98.523 66.3831C98.8223 66.4924 99.0941 66.6653 99.3194 66.8898C99.5447 67.1144 99.7183 67.3852 99.8279 67.6833C99.9375 67.9814 99.9805 68.2998 99.9541 68.6162ZM98.8907 70.2646V69.5113C98.3892 69.3623 97.8681 69.2887 97.3448 69.2929C96.5889 69.2929 95.9523 69.7189 95.9523 70.3306C95.9523 70.9422 96.5007 71.3131 97.2129 71.3131C97.9152 71.3131 98.7048 70.9638 98.8907 70.2646Z" fill="white"/>
<path d="M104.571 71.7608C104.251 72.0183 103.853 72.1605 103.442 72.1644C103.24 72.1699 103.039 72.1334 102.852 72.0573C102.665 71.9811 102.495 71.8669 102.355 71.722C102.215 71.5771 102.106 71.4047 102.037 71.2157C101.967 71.0267 101.938 70.8254 101.951 70.6245V67.3061H101.095V66.3886H101.951V64.8379H103.014V66.3886H104.351V67.3061H103.014V70.5491C103.007 70.6318 103.016 70.7151 103.041 70.7941C103.067 70.8732 103.108 70.9464 103.162 71.0095C103.216 71.0726 103.282 71.1243 103.357 71.1616C103.431 71.1989 103.512 71.221 103.595 71.2267C103.808 71.2328 104.015 71.1586 104.176 71.0191L104.571 71.7608Z" fill="white"/>
<path d="M105.558 64.7933C105.558 64.6208 105.627 64.4555 105.749 64.3335C105.872 64.2116 106.038 64.1431 106.211 64.1431C106.384 64.1431 106.55 64.2116 106.672 64.3335C106.795 64.4555 106.864 64.6208 106.864 64.7933C106.864 64.9658 106.795 65.1311 106.672 65.2531C106.55 65.375 106.384 65.4435 106.211 65.4435C106.038 65.4435 105.872 65.375 105.749 65.2531C105.627 65.1311 105.558 64.9658 105.558 64.7933ZM105.668 66.3879H106.753V72.0341H105.668V66.3879Z" fill="white"/>
<path d="M107.775 66.3877H108.948L110.714 70.7779L112.445 66.3877H113.619L111.229 72.0339H110.209L107.775 66.3877Z" fill="white"/>
<path d="M118.499 70.5922L119.178 71.2908C118.55 71.855 117.733 72.1664 116.887 72.1648C116.498 72.1661 116.112 72.0896 115.754 71.9399C115.395 71.7902 115.07 71.5703 114.797 71.2932C114.525 71.0161 114.312 70.6875 114.17 70.3268C114.027 69.966 113.959 69.5805 113.969 69.1931C113.955 68.8136 114.017 68.4352 114.153 68.0802C114.288 67.7253 114.494 67.4012 114.758 67.1272C115.022 66.8531 115.339 66.6347 115.689 66.4849C116.039 66.3352 116.416 66.2571 116.797 66.2554C118.53 66.2554 119.528 67.5661 119.528 69.5863H115.065C115.11 70.0318 115.32 70.4444 115.655 70.7432C115.99 71.0419 116.425 71.2051 116.874 71.2007C117.472 71.1997 118.049 70.9836 118.499 70.5922V70.5922ZM115.077 68.7249H118.476C118.459 68.3097 118.277 67.9182 117.971 67.6358C117.665 67.3534 117.259 67.2031 116.842 67.2177C116.416 67.2156 116.002 67.3669 115.678 67.6437C115.354 67.9205 115.141 68.3043 115.078 68.7249H115.077Z" fill="white"/>
<path d="M31.1228 0H0V9.91441H31.1228V0Z" fill="white"/>
<path d="M25.1893 16.7295V25.8919H11.4973V34.0511H31.1228V43.966H0V16.7295H25.1893Z" fill="white"/>
<path d="M54.2066 0H42.7097V9.91441H54.2066V0Z" fill="white"/>
<path d="M54.2066 16.73H42.7097V43.9665H54.2066V16.73Z" fill="white"/>
<path d="M96.9162 0H65.7935V9.91441H96.9162V0Z" fill="white"/>
<path d="M87.103 16.73H75.6062V43.9665H87.103V16.73Z" fill="white"/>
<path d="M120 0H108.503V9.91441H120V0Z" fill="white"/>
<path d="M120 16.73H108.503V43.9665H120V16.73Z" fill="white"/>
</g>
<defs>
<clipPath id="clip0">
<rect width="120" height="74" fill="white"/>
</clipPath>
</defs>
</svg>
