<svg xmlns:svg="http://www.w3.org/2000/svg" xmlns="http://www.w3.org/2000/svg">
<symbol id="arrow" viewBox="0 0 160 160"><path d="M 74.868,125.108 115.382,84.595 c 1.133,-1.133 1.695,-2.471 1.695,-4.015 0,-1.543 -0.562,-2.882 -1.695,-4.015 L 74.868,36.051 c -1.133,-1.133 -2.471,-1.695 -4.015,-1.695 -1.543,0 -2.882,0.562 -4.015,1.695 L 57.735,45.153 c -1.133,1.133 -1.695,2.471 -1.695,4.015 0,1.543 0.562,2.882 1.695,4.015 L 85.131,80.58 57.735,107.975 c -1.133,1.133 -1.695,2.471 -1.695,4.015 0,1.543 0.562,2.882 1.695,4.015 l 9.102,9.102 c 1.133,1.133 2.471,1.695 4.015,1.695 1.543,0 2.882,-0.562 4.015,-1.695 z M 147.953,80.58 c 0,12.430 -3.060,23.897 -9.191,34.400 -6.130,10.503 -14.438,18.810 -24.941,24.941 -10.503,6.130 -21.969,9.191 -34.400,9.191 -12.430,0 -23.897,-3.060 -34.400,-9.191 -10.503,-6.130 -18.810,-14.438 -24.941,-24.941 -6.130,-10.503 -9.191,-21.969 -9.191,-34.400 0,-12.430 3.060,-23.897 9.191,-34.400 6.130,-10.503 14.438,-18.810 24.941,-24.941 10.503,-6.130 21.969,-9.191 34.400,-9.191 12.430,0 23.897,3.060 34.400,9.191 10.503,6.130 18.810,14.438 24.941,24.941 6.130,10.503 9.191,21.969 9.191,34.400 z" /></symbol><symbol id="calendar_add" viewBox="0 0 160 160"><path d="M 21.400 2 A 2.500 2.500 0 0 0 18.900 4.5 L 18.900 12.5 L 5.699 12.5 A 2.500 2.500 0 0 0 3.199 15 L 3.199 41.300 L 3.199 149 A 2.500 2.500 0 0 0 5.699 151.5 L 105.863 151.5 C 111.095 154.788 117.277 156.699 123.900 156.699 C 142.648 156.699 157.900 141.447 157.900 122.699 C 157.900 109.572 150.418 98.167 139.5 92.503 L 139.5 41.300 L 139.5 15 A 2.500 2.500 0 0 0 139.488 14.75 A 2.500 2.500 0 0 0 137 12.5 L 123.800 12.5 L 123.800 4.5 A 2.500 2.500 0 0 0 121.300 2 L 102.900 2 A 2.500 2.500 0 0 0 100.400 4.5 L 100.400 12.5 L 42.300 12.5 L 42.300 4.5 A 2.500 2.500 0 0 0 39.800 2 L 21.400 2 z M 23.900 7 L 37.300 7 L 37.300 15 L 37.300 23 L 23.900 23 L 23.900 7 z M 105.400 7 L 118.800 7 L 118.800 14.302 A 2.500 2.500 0 0 0 118.699 15 L 118.699 23 L 105.400 23 L 105.400 7 z M 8.199 17.5 L 18.900 17.5 L 18.900 25.5 A 2.500 2.500 0 0 0 21.400 28 L 39.800 28 A 2.500 2.500 0 0 0 42.300 25.5 L 42.300 17.5 L 100.300 17.5 L 100.300 25.5 A 2.500 2.500 0 0 0 102.800 28 L 121.199 28 L 121.300 28 A 2.500 2.500 0 0 0 123.800 25.5 L 123.800 17.5 L 134.5 17.5 L 134.5 38.800 L 8.199 38.800 L 8.199 17.5 z M 8.199 43.800 L 134.5 43.800 L 134.5 90.400 C 131.161 89.302 127.601 88.699 123.900 88.699 C 122.956 88.699 122.024 88.748 121.099 88.824 L 121.099 83.300 L 121.099 59.699 A 2.500 2.500 0 0 0 118.599 57.199 L 95 57.199 A 2.500 2.500 0 0 0 94.958 57.201 A 2.500 2.500 0 0 0 94.900 57.199 L 71.300 57.199 L 47.699 57.199 L 24.099 57.199 A 2.500 2.500 0 0 0 21.599 59.699 L 21.599 83.300 L 21.599 106.900 A 2.500 2.500 0 0 0 21.601 106.941 A 2.500 2.500 0 0 0 21.599 107 L 21.599 130.599 A 2.500 2.500 0 0 0 24.099 133.099 L 47.699 133.099 L 71.300 133.099 L 91.533 133.099 C 93.174 138.194 95.985 142.766 99.650 146.5 L 8.199 146.5 L 8.199 43.800 z M 26.599 62.199 L 45.199 62.199 L 45.199 80.800 L 26.599 80.800 L 26.599 62.199 z M 50.199 62.199 L 68.800 62.199 L 68.800 80.800 L 50.199 80.800 L 50.199 62.199 z M 73.800 62.199 L 92.400 62.199 L 92.400 80.800 L 73.800 80.800 L 73.800 62.199 z M 97.5 62.199 L 116.099 62.199 L 116.099 80.800 L 97.5 80.800 L 97.5 62.199 z M 26.599 85.800 L 45.199 85.800 L 45.199 104.400 L 26.599 104.400 L 26.599 85.800 z M 50.199 85.800 L 68.800 85.800 L 68.800 104.400 L 50.199 104.400 L 50.199 85.800 z M 73.800 85.800 L 92.400 85.800 L 92.400 104.400 L 73.800 104.400 L 73.800 85.800 z M 97.5 85.800 L 116.099 85.800 L 116.099 89.613 C 115.871 89.667 115.638 89.713 115.412 89.771 C 114.869 89.911 114.332 90.064 113.800 90.230 C 113.269 90.396 112.740 90.574 112.220 90.765 C 111.700 90.956 111.185 91.159 110.677 91.375 C 105.507 93.565 100.992 97.003 97.5 101.304 L 97.5 85.800 z M 123.900 93.699 C 128.210 93.699 132.252 94.704 135.974 96.378 A 2.500 2.500 0 0 0 136.447 96.537 C 146.190 101.205 152.900 111.151 152.900 122.699 C 152.900 138.745 139.946 151.699 123.900 151.699 C 117.037 151.699 110.745 149.323 105.785 145.355 C 105.631 145.231 105.475 145.111 105.324 144.984 C 105.130 144.822 104.941 144.656 104.751 144.490 C 104.500 144.268 104.252 144.044 104.009 143.814 C 103.888 143.700 103.767 143.586 103.648 143.470 C 103.315 143.144 102.989 142.810 102.671 142.468 C 102.622 142.415 102.570 142.365 102.521 142.312 C 101.779 141.502 101.086 140.649 100.439 139.761 C 100.353 139.644 100.271 139.525 100.187 139.406 C 99.950 139.070 99.721 138.729 99.498 138.382 C 99.422 138.265 99.345 138.148 99.271 138.029 C 99.031 137.644 98.800 137.252 98.578 136.855 C 98.529 136.768 98.477 136.683 98.429 136.595 C 98.174 136.128 97.933 135.650 97.703 135.167 C 97.634 135.022 97.570 134.874 97.503 134.728 C 97.349 134.389 97.200 134.047 97.058 133.701 C 96.976 133.501 96.897 133.299 96.820 133.097 C 96.699 132.783 96.584 132.466 96.474 132.146 C 96.405 131.945 96.336 131.744 96.271 131.541 C 96.154 131.175 96.049 130.805 95.947 130.433 C 95.910 130.301 95.870 130.171 95.835 130.039 C 95.835 130.035 95.834 130.032 95.833 130.029 A 2.500 2.500 0 0 0 95.806 129.925 C 95.792 129.876 95.784 129.826 95.771 129.777 C 95.658 129.324 95.554 128.869 95.462 128.408 C 95.424 128.213 95.392 128.016 95.357 127.820 C 95.294 127.467 95.237 127.113 95.187 126.755 C 95.158 126.545 95.132 126.334 95.107 126.123 C 95.060 125.718 95.020 125.311 94.990 124.902 C 94.978 124.749 94.966 124.596 94.957 124.443 C 94.923 123.866 94.900 123.285 94.900 122.699 C 94.900 122.198 94.912 121.699 94.937 121.205 C 94.937 121.205 94.937 121.203 94.937 121.203 C 94.937 121.198 94.939 121.194 94.939 121.189 C 94.964 120.698 94.999 120.212 95.048 119.728 C 95.246 117.775 95.637 115.879 96.201 114.062 C 96.341 113.608 96.494 113.160 96.656 112.716 C 97.143 111.383 97.725 110.094 98.394 108.861 C 98.467 108.727 98.548 108.597 98.623 108.464 A 2.500 2.500 0 0 0 98.767 108.246 C 102.999 100.887 110.356 95.638 119.019 94.164 A 2.500 2.500 0 0 0 119.503 94.029 C 120.455 93.885 121.424 93.785 122.404 93.736 C 122.899 93.711 123.398 93.699 123.900 93.699 z M 123.863 104.664 A 2.500 2.500 0 0 0 121.400 107.199 L 121.400 120.400 L 108.099 120.400 A 2.500 2.500 0 1 0 108.099 125.400 L 121.400 125.400 L 121.400 138.699 A 2.500 2.500 0 1 0 126.400 138.699 L 126.400 125.400 L 139.699 125.400 A 2.500 2.500 0 1 0 139.699 120.400 L 126.400 120.400 L 126.400 107.199 A 2.500 2.500 0 0 0 123.863 104.664 z M 26.599 109.5 L 45.199 109.5 L 45.199 128.099 L 26.599 128.099 L 26.599 109.5 z M 50.199 109.5 L 68.800 109.5 L 68.800 128.099 L 50.199 128.099 L 50.199 109.5 z M 73.800 109.5 L 92.5 109.5 L 92.5 109.669 C 92.314 110.115 92.133 110.564 91.966 111.019 C 91.775 111.540 91.597 112.067 91.431 112.599 C 91.265 113.131 91.112 113.668 90.972 114.210 C 90.692 115.297 90.465 116.402 90.292 117.527 C 90.206 118.089 90.134 118.655 90.076 119.226 C 90.076 119.226 90.076 119.228 90.076 119.228 C 90.018 119.798 89.974 120.373 89.945 120.951 C 89.944 120.957 89.945 120.964 89.945 120.970 C 89.944 120.977 89.943 120.983 89.943 120.990 C 89.915 121.556 89.900 122.125 89.900 122.699 C 89.900 123.183 89.914 123.662 89.937 124.138 C 89.941 124.236 89.940 124.335 89.945 124.433 C 90.007 125.674 90.141 126.897 90.333 128.099 L 73.800 128.099 L 73.800 109.5 z " /></symbol><symbol id="facebook" viewBox="0 0 160 160"><path d="M1.7,1.5v156.7h156.7V1.5H1.7z M108.9,47.2l-9.9,0c-7.7,0-9.2,3.7-9.2,9.1v11.9h18.4l-2.4,18.6h-16v47.8H70.6 V86.8H54.5V68.2h16.1V54.4c0-15.9,9.7-24.6,24-24.6c6.8,0,12.7,0.5,14.4,0.7V47.2z"/></symbol><symbol id="globe_wireframe" viewBox="0 0 160 160"><path d="m 43.5,1.900 c -6.664,0 -12.099,5.434 -12.099,12.099 0,6.664 5.434,12.099 12.099,12.099 6.664,0 12.099,-5.434 12.099,-12.099 0,-6.664 -5.434,-12.099 -12.099,-12.099 z m 0,3 c 5.043,0 9.099,4.056 9.099,9.099 0,5.043 -4.056,9.099 -9.099,9.099 -5.043,0 -9.099,-4.056 -9.099,-9.099 0,-5.043 4.056,-9.099 9.099,-9.099 z" /><path d="M 39.699,7.199 C 37.618,7.199 35.900,8.919 35.900,11 c 0,2.080 1.717,3.800 3.798,3.800 C 41.780,14.800 43.5,13.080 43.5,11 43.5,8.919 41.780,7.199 39.699,7.199 Z m 0,3.000 C 40.158,10.199 40.5,10.540 40.5,11 c 0,0.459 -0.341,0.800 -0.800,0.800 -0.459,0 -0.798,-0.341 -0.798,-0.800 0,-0.459 0.339,-0.800 0.798,-0.800 z" /><path d="M 43.476,23.078 A 1.500,1.500 0 0 0 42,24.599 l 0,21.800 a 1.500,1.500 0 1 0 3,0 l 0,-21.800 a 1.500,1.500 0 0 0 -1.523,-1.521 z" /><path d="M 69.300 24.199 C 32.039 24.199 1.800 54.437 1.800 91.699 C 1.800 128.960 32.039 159.199 69.300 159.199 C 106.562 159.199 136.800 128.960 136.800 91.699 C 136.800 54.437 106.562 24.199 69.300 24.199 z M 69.300 27.199 C 80.662 27.199 91.329 30.142 100.597 35.292 C 91.700 38.565 83.592 44.343 78.281 52.25 C 77.217 53.853 79.361 60.801 76.869 57.781 C 77.159 50.626 69.539 51.008 64.863 52.896 C 59.633 52.039 57.252 58.551 60.541 62.078 C 63.639 64.606 66.129 66.364 70.199 65.800 C 68.441 70.222 75.257 70.597 75.746 74.525 C 78.335 80.625 84.164 75.867 88.208 76.175 C 91.696 78.784 97.137 77.822 99.351 81.988 C 102.716 86.538 104.658 92.572 109.986 95.310 C 112.293 99.242 109.630 103.967 108.431 107.910 C 107.410 112.412 102.679 114.395 100.556 118.378 C 95.595 126.243 88.244 133.006 79.259 135.789 C 74.182 133.496 81.558 127.887 81.722 124.140 C 83.776 119.138 85.148 111.966 80.023 108.296 C 74.264 103.445 71.103 94.916 74.181 87.781 C 75.863 82.615 68.830 80.680 70.027 75.197 C 69.138 69.365 62.354 68.615 57.630 67.945 C 50.071 67.637 44.971 61.316 41.585 55.210 C 38.448 49.707 36.083 43.816 33.466 38.060 C 43.714 31.203 56.036 27.199 69.300 27.199 z M 103.792 37.199 C 121.826 48.631 133.800 68.752 133.800 91.699 C 133.800 127.339 104.940 156.199 69.300 156.199 C 33.660 156.199 4.800 127.339 4.800 91.699 C 4.800 70.476 15.036 51.660 30.841 39.908 C 31.651 42.093 33.541 44.581 33.939 46.496 C 37.765 54.636 41.560 63.752 49.554 68.654 C 54.602 71.843 61.347 70.176 66.173 73.677 C 68.070 77.533 67.114 82.803 71.371 85.109 C 70.757 89.753 68.904 94.852 70.884 99.646 C 72.247 104.950 76.292 108.780 79.908 112.570 C 81.930 118.281 78.476 124.093 76.099 129.152 C 72.600 132.556 74.625 139.638 80.091 138.716 C 89.712 135.657 97.685 128.557 103.013 120.097 C 104.783 116.450 109.092 114.757 110.460 111.019 C 112.213 105.882 115.267 100.208 113.193 94.744 C 110.290 91.489 106.397 88.970 104.601 84.632 C 102.329 81.221 100.303 76.247 95.652 75.945 C 90.737 73.684 85.563 71.541 80.675 74.873 C 77.512 73.206 77.170 68.567 73.123 67.523 C 74.177 64.893 71.661 61.900 68.259 62.376 C 67.481 59.183 61.636 63.038 62.099 57.947 C 62.555 54.446 68.455 56.440 70.878 54.505 C 76.153 54.461 71.854 64.952 78.951 61.535 C 83.952 59.163 78.421 52.581 83.802 50.042 C 88.946 43.764 96.293 39.818 103.792 37.199 z " /></symbol><symbol id="information" viewBox="0 0 160 160"><path class="st0" d="M80.4,3.5c42.3,0,76.6,34.4,76.6,76.6s-34.4,76.6-76.6,76.6S3.7,122.4,3.7,80.1S38.1,3.5,80.4,3.5 M80.4,1.5 C36.9,1.5,1.7,36.7,1.7,80.1s35.2,78.6,78.6,78.6S159,123.6,159,80.1S123.8,1.5,80.4,1.5L80.4,1.5z"/><path class="st1" d="M74.1,72.2c1.1-2.8-0.3-4.2-1.6-4.2c-5.8,0-13.4,13.7-16.2,13.7c-1.1,0-2-1.1-2-2c0-2.8,6.9-9.4,9-11.5 c6.3-6,14.5-10.5,23.6-10.5c6.8,0,14,4.1,8.3,19.3l-11.3,30.6c-0.9,2.4-2.7,6.3-2.7,8.8c0,1.1,0.6,2.2,1.9,2.2 c4.7,0,13.4-13.4,15.6-13.4c0.8,0,1.9,0.9,1.9,2.4c0,4.6-18.4,24-34.3,24c-5.7,0-9.6-2.7-9.6-8.6c0-7.5,5.3-20.4,6.4-23.1L74.1,72.2 z M82.6,41.2c0-6.9,6-12.6,12.9-12.6c6.3,0,10.8,4.2,10.8,10.7c0,7.2-6,12.6-13,12.6C86.9,51.9,82.6,47.7,82.6,41.2z"/></symbol><symbol id="linkedin" viewBox="0 0 160 160"><path d="M1.1,1.6v156.6h156.6V1.6H1.1z M69.1,116.2H53.9V63h15.2V116.2z M61.5,57.3c-5.2,0-9.5-4.2-9.5-9.5 s4.2-9.5,9.5-9.5c5.3,0,9.5,4.2,9.5,9.5S66.7,57.3,61.5,57.3z M122.2,116.2H107V83.9c0-1.5-0.5-3.4-2.6-4.6 c-7.2-3.2-12.6,2.9-12.6,2.9v34H76.7V63h15.2v2.3c6-2.7,14.3-2.5,20,0.7c6,3.4,10.4,10.9,10.4,17.8V116.2z"/></symbol><symbol id="message" viewBox="0 0 160 160"><path d="M 140.853 1.171 C 140.315 1.187 139.776 1.230 139.240 1.300 L 17.5 1.300 C 8.113 1.042 0.779 10.284 2 19.335 C 2.053 47.613 1.892 75.897 2.080 104.171 C 2.770 113.169 11.855 119.246 20.458 118.099 L 55.386 118.099 C 63.157 126.619 70.722 135.364 78.619 143.746 C 81.828 145.227 83.377 140.789 85.433 139.187 L 104.414 118.099 C 117.566 118.047 130.724 118.205 143.873 118.019 C 152.870 117.329 158.947 108.244 157.800 99.640 C 157.731 71.464 157.939 43.279 157.697 15.109 C 156.928 6.717 148.921 0.930 140.853 1.171 z M 80.380 6.292 C 101.341 6.286 122.301 6.290 143.259 6.355 C 149.777 6.888 153.715 13.598 152.800 19.695 C 152.763 47.682 152.874 75.674 152.746 103.660 C 152.233 110.237 145.429 114.022 139.341 113.099 L 109.275 113.099 C 111.485 110.515 114.652 108.565 116.273 105.583 C 116.942 102.759 112.778 101.463 111.441 103.919 C 100.202 114.543 90.360 126.489 79.898 137.863 C 69.057 126.128 58.963 113.659 47.162 102.875 C 44.538 101.307 41.969 105.503 44.541 107.173 L 50.523 113.099 C 38.822 112.961 27.085 113.379 15.408 112.882 C 9.310 111.786 6.205 105.367 7 99.640 C 7.036 71.674 6.926 43.703 7.054 15.740 C 7.530 10.553 12.278 6.227 17.5 6.300 C 38.459 6.319 59.420 6.299 80.380 6.292 z M 33.099 35 A 2.500 2.500 0 1 0 33.099 40 L 72.099 40 A 2.500 2.500 0 1 0 72.099 35 L 33.099 35 z M 33.099 55.800 A 2.500 2.500 0 1 0 33.099 60.800 L 121.5 60.800 A 2.500 2.500 0 1 0 121.5 55.800 L 33.099 55.800 z M 33.099 76.599 A 2.500 2.500 0 1 0 33.099 81.599 L 121.5 81.599 A 2.500 2.500 0 1 0 121.5 76.599 L 33.099 76.599 z " /></symbol><symbol id="question" viewBox="0 0 160 160"><path d="M80,3.5c42.3,0,76.6,34.4,76.6,76.6s-34.4,76.6-76.6,76.6S3.3,122.4,3.3,80.1S37.7,3.5,80,3.5 M80,1.5 C36.5,1.5,1.3,36.7,1.3,80.1s35.2,78.6,78.6,78.6s78.6-35.2,78.6-78.6S123.4,1.5,80,1.5L80,1.5z"/><path d="M66.1,94.6v-5.8c0-4.4,0.9-8.2,2.7-11.3c1.8-3.1,5-6,9.7-8.9c3.7-2.3,6.3-4.4,7.9-6.3c1.6-1.9,2.4-4,2.4-6.4 c0-1.9-0.9-3.4-2.6-4.5c-1.7-1.1-4-1.7-6.7-1.7c-6.8,0-14.9,2.4-24,7.3L46,38.5c11.3-6.4,23.1-9.7,35.4-9.7c10.1,0,18,2.2,23.8,6.7 c5.8,4.4,8.6,10.5,8.6,18.2c0,5.5-1.3,10.2-3.8,14.2c-2.6,4-6.7,7.8-12.3,11.4c-4.8,3.1-7.7,5.3-8.9,6.8c-1.2,1.4-1.8,3.1-1.8,5.1 v3.5H66.1z M63.2,118.4c0-4.2,1.2-7.4,3.6-9.7c2.4-2.3,6-3.4,10.7-3.4c4.5,0,8,1.1,10.4,3.4c2.4,2.3,3.6,5.5,3.6,9.6 c0,4.1-1.3,7.3-3.8,9.6c-2.5,2.3-6,3.4-10.3,3.4c-4.5,0-8-1.1-10.5-3.4C64.5,125.8,63.2,122.6,63.2,118.4z"/></symbol><symbol id="search" viewBox="0 0 160 160"><path d="M155.3,137.2l-36.9-38.7c6.3-9.9,10-21.6,10-34.1c0-35-28.4-63.5-63.5-63.5c-35,0-63.4,28.4-63.4,63.5 c0,35,28.4,63.4,63.4,63.4c13.7,0,26.4-4.4,36.8-11.7l36.1,37.9c4.6,4.8,12.3,5,17.1,0.4C159.8,149.7,159.9,142.1,155.3,137.2z M20.9,64.4c0-24.3,19.7-44,44-44c24.3,0,44,19.7,44,44c0,24.3-19.7,44-44,44C40.6,108.4,20.9,88.7,20.9,64.4z"/></symbol><symbol id="twitter" viewBox="0 0 160 160"><path d="M1.9,1.8v156.7h156.7V1.8H1.9z M119,61.5c0,0.8,0.1,1.6,0.1,2.4c0,24.8-18.9,53.4-53.4,53.4 c-10.6,0-20.5-3.1-28.8-8.4c1.5,0.2,3,0.3,4.5,0.3c8.8,0,16.9-3,23.3-8c-8.2-0.2-15.2-5.6-17.5-13c1.1,0.2,2.3,0.3,3.5,0.3 c1.7,0,3.4-0.2,4.9-0.7c-8.6-1.7-15.1-9.3-15.1-18.4v-0.2c2.5,1.4,5.4,2.3,8.5,2.4c-5-3.4-8.4-9.1-8.4-15.6c0-3.4,0.9-6.7,2.5-9.4 C52.4,57.7,66.3,65.2,81.9,66c-0.3-1.4-0.5-2.8-0.5-4.3c0-10.4,8.4-18.8,18.8-18.8c5.4,0,10.3,2.3,13.7,5.9 c4.3-0.8,8.3-2.4,11.9-4.6c-1.4,4.4-4.4,8.1-8.3,10.4c3.8-0.5,7.4-1.5,10.8-3C125.8,55.5,122.6,58.8,119,61.5z"/></symbol><symbol id="youtube" viewBox="0 0 160 160"><path d="M1.7,1.8v156.7h156.7V1.8H1.7z M123.3,83.3c0,7-0.9,14-0.9,14s-0.8,6-3.5,8.6c-3.3,3.5-7,3.5-8.7,3.7 c-12.1,0.9-30.4,0.9-30.4,0.9s-22.6-0.2-29.5-0.9c-1.9-0.4-6.3-0.3-9.6-3.7c-2.6-2.6-3.4-8.6-3.4-8.6s-0.9-7-0.9-14v-6.6 c0-7,0.9-14,0.9-14s0.8-6,3.4-8.6c3.3-3.5,7-3.5,8.7-3.7c12.1-0.9,30.4-0.9,30.4-0.9h0c0,0,18.2,0,30.4,0.9 c1.7,0.2,5.4,0.2,8.7,3.7c2.6,2.6,3.5,8.6,3.5,8.6s0.9,7,0.9,14V83.3z M71,91.3l23.4-12.1L71,66.9L71,91.3z"/></symbol></svg>
