<svg xmlns:svg="http://www.w3.org/2000/svg" xmlns="http://www.w3.org/2000/svg">
<symbol id="arrow" viewBox="0 0 160 160"><path d="M74.868 125.108l40.514-40.513c1.133-1.133 1.695-2.47 1.695-4.015 0-1.543-.562-2.882-1.695-4.015L74.868 36.05c-1.133-1.132-2.47-1.694-4.015-1.694-1.543 0-2.882.562-4.015 1.695l-9.103 9.103c-1.133 1.133-1.695 2.47-1.695 4.015 0 1.543.562 2.882 1.695 4.015L85.13 80.58l-27.395 27.395c-1.133 1.133-1.695 2.47-1.695 4.015 0 1.543.562 2.882 1.695 4.015l9.102 9.102c1.133 1.133 2.47 1.695 4.015 1.695 1.543 0 2.882-.562 4.015-1.695zm73.085-44.528c0 12.43-3.06 23.897-9.19 34.4-6.13 10.503-14.44 18.81-24.942 24.94-10.502 6.13-21.968 9.192-34.4 9.192-12.43 0-23.896-3.06-34.4-9.19-10.502-6.13-18.81-14.44-24.94-24.942-6.13-10.503-9.19-21.97-9.19-34.4s3.06-23.897 9.19-34.4c6.13-10.503 14.438-18.81 24.94-24.94 10.504-6.13 21.97-9.192 34.4-9.192s23.898 3.06 34.4 9.19c10.504 6.13 18.81 14.44 24.942 24.942 6.13 10.503 9.19 21.97 9.19 34.4z"/></symbol><symbol id="barchart" viewBox="0 0 160 160"><path d="M145.4 19h-39.9v126.5h39.9V19zm-44.2 44.8H61.3v81.7h39.9V63.8zM57 103.2H17.1v42.4H57v-42.4zM10.3 42.7H5v4.9h5.3v-4.9zm0-12.2H5v4.9h5.3v-4.9zm0-12.1H5v4.9h5.3v-4.9zm0-12.2H5v4.9h5.3V6.2zm0 48.6H5v4.9h5.3v-4.9zm0 60.8H5v4.9h5.3v-4.9zm0 24.3H5v4.9h5.3v-4.9zm0-12.1H5v4.9h5.3v-4.9zM5 152.1v4.9h146.6v-4.9H5zm5.3-60.8H5v4.9h5.3v-4.9zm0-12.2H5V84h5.3v-4.9zm0-12.1H5v4.9h5.3V67zm0 36.5H5v4.9h5.3v-4.9z"/></symbol><symbol id="checkmark_stat" viewBox="0 0 160 160"><path d="M80 158.8c-43.6 0-78.9-35.3-78.9-78.9S36.4 1 80 1s78.9 35.3 78.9 78.9-35.3 78.9-78.9 78.9zm44-106.6l-7.9-7.9c-1.4-1.4-3.8-1.4-5.2 0l-47 47.1-22.4-22.5c-1.4-1.4-3.8-1.4-5.2 0l-7.9 7.8c-1.4 1.4-1.4 3.8 0 5.2L53.3 107s0 .1.1.1l5.4 5.4 1.3 1.3 1.2 1.2c1.4 1.4 3.8 1.4 5.2 0L124 57.4c1.5-1.4 1.5-3.7 0-5.2z"/></symbol><symbol id="download" viewBox="0 0 160 160"><path d="M 60.462 0.464 A 2.500 2.500 0 0 0 58 3 L 58 99.064 L 35.367 76.431 A 2.500 2.500 0 1 0 31.832 79.966 L 60.400 108.535 L 61.716 107.218 A 2.500 2.500 0 0 0 62.675 106.259 L 89.068 79.867 A 2.500 2.500 0 0 0 87.25 75.576 A 2.500 2.500 0 0 0 85.533 76.332 L 63 98.865 L 63 3 A 2.500 2.500 0 0 0 60.462 0.464 z M 4.099 43.5 A 2.500 2.500 0 0 0 1.599 46 L 1.599 156.099 A 2.500 2.500 0 0 0 4.099 158.599 L 116.900 158.599 A 2.500 2.500 0 0 0 119.400 156.099 L 119.400 46 A 2.500 2.500 0 0 0 116.900 43.5 L 79.300 43.5 A 2.500 2.500 0 1 0 79.300 48.5 L 114.400 48.5 L 114.400 153.599 L 6.599 153.599 L 6.599 48.5 L 41.699 48.5 A 2.500 2.500 0 1 0 41.699 43.5 L 4.099 43.5 z " /></symbol><symbol id="email" viewBox="0 0 160 160"><path d="m 130.199,7.964 0,16.994 c -6.395,0.129 -11.367,1.437 -14.767,2.910 -1.364,0.591 -2.480,1.191 -3.375,1.730 l -110.156,0 0,2.5 0,0.201 0,2.199 0,71.300 0,2.099 0,2.798 2.798,0 106.400,0 0.701,0 2.699,0 0,-2.798 0,-2.099 0,-54.746 c -1.380,0.827 -1.133,0.675 0,0 2.522,-1.442 4.973,-2.338 7.210,-2.890 4.089,-1.009 6.770,-0.867 8.488,-0.660 l 0,17.25 28.332,-28.457 z m 5,12.070 16.269,16.269 -16.269,16.339 0,-9.310 -1.910,-0.462 c 0,0 -5.581,-1.335 -12.775,0.439 -5.718,1.410 -12.541,5.008 -18.664,12.318 0.502,-5.647 2.619,-13.519 10.824,-20.382 0.388,-0.318 0.835,-0.625 1.169,-0.863 0.771,-0.518 1.953,-1.224 3.574,-1.925 3.240,-1.403 8.222,-2.795 15.197,-2.558 l 2.583,0.087 0,-2.585 z m -124.400,14.564 94.802,0 -36.058,36.546 0.017,0.017 -9.683,9.722 c -0.915,0.863 -2.543,0.863 -3.457,-0.002 l -9.623,-9.679 0.060,-0.058 z M 6.900,38.162 39.667,71.125 6.900,102.652 Z M 97.742,49.957 c -1.931,7.680 -0.794,13.724 -0.794,13.724 l 1.259,6.414 3.341,-5.617 C 104.069,60.240 109.5,54.658 109.5,54.658 l 0,0 0,47.994 -32.804,-31.564 z m -24.576,24.675 32.287,31.066 -94.507,0 32.248,-31.027 9.759,9.816 0.027,0.027 c 2.885,2.733 7.454,2.733 10.339,0 l 0.025,-0.025 z" /></symbol><symbol id="facebook" viewBox="0 0 160 160"><path d="M1.7,1.5v156.7h156.7V1.5H1.7z M108.9,47.2l-9.9,0c-7.7,0-9.2,3.7-9.2,9.1v11.9h18.4l-2.4,18.6h-16v47.8H70.6 V86.8H54.5V68.2h16.1V54.4c0-15.9,9.7-24.6,24-24.6c6.8,0,12.7,0.5,14.4,0.7V47.2z"/></symbol><symbol id="heart" viewBox="0 0 160 160"><path d="M1 1.5v156.8h156.7V1.5H1zm98.2 99.2c-8.1 8.4-18.7 19.9-19.8 26.6-1.1-6.7-11.7-18.2-19.8-26.6C48 88.6 20 68.2 40.8 49.7c19.9-16.6 38.6 1.6 38.6 1.6S98.1 33 118 49.7c20.9 18.5-7.1 38.9-18.8 51z"/></symbol><symbol id="information" viewBox="0 0 160 160"><path d="M80.4,3.5c42.3,0,76.6,34.4,76.6,76.6s-34.4,76.6-76.6,76.6S3.7,122.4,3.7,80.1S38.1,3.5,80.4,3.5 M80.4,1.5 C36.9,1.5,1.7,36.7,1.7,80.1s35.2,78.6,78.6,78.6S159,123.6,159,80.1S123.8,1.5,80.4,1.5L80.4,1.5z"/><path d="M74.1,72.2c1.1-2.8-0.3-4.2-1.6-4.2c-5.8,0-13.4,13.7-16.2,13.7c-1.1,0-2-1.1-2-2c0-2.8,6.9-9.4,9-11.5 c6.3-6,14.5-10.5,23.6-10.5c6.8,0,14,4.1,8.3,19.3l-11.3,30.6c-0.9,2.4-2.7,6.3-2.7,8.8c0,1.1,0.6,2.2,1.9,2.2 c4.7,0,13.4-13.4,15.6-13.4c0.8,0,1.9,0.9,1.9,2.4c0,4.6-18.4,24-34.3,24c-5.7,0-9.6-2.7-9.6-8.6c0-7.5,5.3-20.4,6.4-23.1L74.1,72.2 z M82.6,41.2c0-6.9,6-12.6,12.9-12.6c6.3,0,10.8,4.2,10.8,10.7c0,7.2-6,12.6-13,12.6C86.9,51.9,82.6,47.7,82.6,41.2z"/></symbol><symbol id="key_doc" viewBox="0 0 160 160"><path d="M38.6 66.3a2.5 2.5 0 1 0 0 5h64.7a2.5 2.5 0 1 0 0-5H38.6zM38.6 45.6a2.5 2.5 0 1 0 0 5h25.9a2.5 2.5 0 1 0 0-5H38.6zM38.6 87a2.5 2.5 0 1 0 0 5h64.7a2.5 2.5 0 1 0 0-5H38.6zM38.6 107.7a2.5 2.5 0 1 0 0 5h64.7a2.5 2.5 0 1 0 0-5H38.6zM38.6 128.4a2.5 2.5 0 1 0 0 5h64.7a2.5 2.5 0 1 0 0-5H38.6z"/><path d="M15.4 14.5v142.1h111.1V52.163l-.733-.732L88.835 14.5H15.4zm5 5h66.363L121.5 54.234V151.6H20.4V19.5z"/><path d="M87.76 14.464A2.5 2.5 0 0 0 85.3 17v38.7H124a2.5 2.5 0 1 0 0-5H90.3V17a2.5 2.5 0 0 0-2.54-2.535z"/><path d="M2.5 1.6v142.1h17.9V19.5h66.363L113.6 46.335V1.6H2.5zm5 5h101.1v27.665L88.834 14.5H15.4v124.2H7.5V6.6z"/></symbol><symbol id="linkedin" viewBox="0 0 160 160"><path d="M1.1 1.6v156.6h156.6V1.6H1.1zm68 114.6H53.9V63h15.2v53.2zm-7.6-58.9c-5.2 0-9.5-4.2-9.5-9.5s4.2-9.5 9.5-9.5 9.5 4.2 9.5 9.5-4.3 9.5-9.5 9.5zm60.7 58.9H107V83.9c0-1.5-.5-3.4-2.6-4.6-7.2-3.2-12.6 2.9-12.6 2.9v34H76.7V63h15.2v2.3c6-2.7 14.3-2.5 20 .7 6 3.4 10.4 10.9 10.4 17.8v32.4z"/></symbol><symbol id="map" viewBox="0 0 160 160"><path d="M142,109.5l-15.8-15.8c8.3-9.4,13.4-21.7,13.4-35.3c0-29.5-23.9-53.4-53.4-53.4c-13.5,0-25.9,5.1-35.3,13.4 L35.2,2.7c-1.3-1.3-3.4-1.3-4.7,0c-1.3,1.3-1.3,3.4,0,4.7l4,4c-25,27.5-24.3,70.1,2.2,96.7c13.7,13.7,31.6,20.5,49.6,20.5v23.4h-20 c-1.8,0-3.3,1.5-3.3,3.3c0,1.8,1.5,3.3,3.3,3.3H113c1.9,0,3.3-1.5,3.3-3.3c0-1.8-1.5-3.3-3.3-3.3h-20v-23.7 c14.6-1.4,28.8-7.4,40.4-17.9l4,4c0.7,0.7,1.5,1,2.4,1c0.9,0,1.7-0.3,2.4-1C143.3,112.9,143.3,110.8,142,109.5z M41.4,103.3 C17.5,79.4,16.8,41,39.2,16.1l7.1,7.1c-8.3,9.4-13.4,21.7-13.4,35.3c0,29.5,23.9,53.4,53.4,53.4c13.5,0,25.9-5.1,35.3-13.4l7.1,7.1 C103.8,127.9,65.4,127.2,41.4,103.3z" /></symbol><symbol id="member" viewBox="0 0 160 160"><path d="M80,158.8c-43.6,0-78.9-35.3-78.9-78.9C1.1,36.3,36.4,1,80,1c43.6,0,78.9,35.3,78.9,78.9 C158.9,123.4,123.6,158.8,80,158.8z M119.1,76.4c0-3.4-2.7-6.1-6.1-6.1H88.7V46.1c0-3.4-2.7-6.1-6.1-6.1h-6.1 c-3.4,0-6.1,2.7-6.1,6.1v24.3H46.2c-3.4,0-6.1,2.7-6.1,6.1v6.1c0,3.4,2.7,6.1,6.1,6.1h24.3v24.3c0,3.4,2.7,6.1,6.1,6.1h6.1 c3.4,0,6.1-2.7,6.1-6.1V88.6H113c3.4,0,6.1-2.7,6.1-6.1V76.4z"/></symbol><symbol id="message" viewBox="0 0 160 160"><path d="M140.853 1.17c-.538.017-1.077.06-1.613.13H17.5C8.113 1.042.78 10.284 2 19.335c.053 28.278-.108 56.562.08 84.836.69 9 9.775 15.076 18.378 13.93h34.928c7.77 8.52 15.336 17.264 23.233 25.646 3.208 1.48 4.757-2.957 6.813-4.56l18.98-21.087c13.153-.053 26.31.105 39.46-.08 8.997-.69 15.074-9.776 13.927-18.38-.07-28.176.14-56.36-.103-84.53-.77-8.393-8.776-14.18-16.844-13.94zM80.38 6.293c20.96-.006 41.92-.002 62.88.063 6.517.533 10.455 7.243 9.54 13.34-.037 27.987.074 55.98-.054 83.965-.513 6.577-7.317 10.362-13.405 9.44h-30.065c2.21-2.585 5.377-4.535 6.998-7.517.67-2.824-3.495-4.12-4.832-1.664-11.238 10.623-21.08 22.57-31.542 33.943-10.84-11.735-20.935-24.204-32.736-34.988-2.624-1.568-5.193 2.628-2.62 4.298l5.98 5.926c-11.7-.14-23.437.28-35.114-.218C9.31 111.786 6.205 105.367 7 99.64c.036-27.966-.074-55.937.054-83.9.476-5.187 5.224-9.513 10.446-9.44 20.96.02 41.92 0 62.88-.008zM33.1 35a2.5 2.5 0 1 0 0 5h39a2.5 2.5 0 1 0 0-5h-39zm0 20.8a2.5 2.5 0 1 0 0 5h88.4a2.5 2.5 0 1 0 0-5H33.1zm0 20.8a2.5 2.5 0 1 0 0 5h88.4a2.5 2.5 0 1 0 0-5H33.1z"/></symbol><symbol id="question" viewBox="0 0 160 160"><path d="M80 3.5c42.3 0 76.6 34.4 76.6 76.6s-34.4 76.6-76.6 76.6S3.3 122.4 3.3 80.1 37.7 3.5 80 3.5m0-2C36.5 1.5 1.3 36.7 1.3 80.1s35.2 78.6 78.6 78.6 78.6-35.2 78.6-78.6S123.4 1.5 80 1.5z"/><path d="M66.1 94.6v-5.8c0-4.4.9-8.2 2.7-11.3 1.8-3.1 5-6 9.7-8.9 3.7-2.3 6.3-4.4 7.9-6.3 1.6-1.9 2.4-4 2.4-6.4 0-1.9-.9-3.4-2.6-4.5-1.7-1.1-4-1.7-6.7-1.7-6.8 0-14.9 2.4-24 7.3L46 38.5c11.3-6.4 23.1-9.7 35.4-9.7 10.1 0 18 2.2 23.8 6.7 5.8 4.4 8.6 10.5 8.6 18.2 0 5.5-1.3 10.2-3.8 14.2-2.6 4-6.7 7.8-12.3 11.4-4.8 3.1-7.7 5.3-8.9 6.8-1.2 1.4-1.8 3.1-1.8 5.1v3.5H66.1zm-2.9 23.8c0-4.2 1.2-7.4 3.6-9.7 2.4-2.3 6-3.4 10.7-3.4 4.5 0 8 1.1 10.4 3.4 2.4 2.3 3.6 5.5 3.6 9.6s-1.3 7.3-3.8 9.6-6 3.4-10.3 3.4c-4.5 0-8-1.1-10.5-3.4-2.4-2.1-3.7-5.3-3.7-9.5z"/></symbol><symbol id="search" viewBox="0 0 160 160"><path d="M155.3 137.2l-36.9-38.7c6.3-9.9 10-21.6 10-34.1 0-35-28.4-63.5-63.5-63.5-35 0-63.4 28.4-63.4 63.5 0 35 28.4 63.4 63.4 63.4 13.7 0 26.4-4.4 36.8-11.7l36.1 37.9c4.6 4.8 12.3 5 17.1.4 4.9-4.7 5-12.3.4-17.2zM20.9 64.4c0-24.3 19.7-44 44-44s44 19.7 44 44-19.7 44-44 44-44-19.7-44-44z"/></symbol><symbol id="star" viewBox="0 0 160 160"><path d="M2.3 1.5v156.8H159V1.5H2.3zm107.2 123.2L80.7 111l-28.8 13.7 4-31.9L34 69.2l31.3-6.1L80.7 35l15.4 28.2 31.3 6.1-21.8 23.5 3.9 31.9z"/></symbol><symbol id="status" viewBox="0 0 160 160"><path d="M80 158.8c-43.6 0-78.9-35.3-78.9-78.9S36.4 1 80 1s78.9 35.3 78.9 78.9-35.3 78.9-78.9 78.9zm44-106.6l-7.9-7.9c-1.4-1.4-3.8-1.4-5.2 0l-47 47.1-22.4-22.5c-1.4-1.4-3.8-1.4-5.2 0l-7.9 7.8c-1.4 1.4-1.4 3.8 0 5.2L53.3 107s0 .1.1.1l5.4 5.4 1.3 1.3 1.2 1.2c1.4 1.4 3.8 1.4 5.2 0L124 57.4c1.5-1.4 1.5-3.7 0-5.2z"/></symbol><symbol id="twitter" viewBox="0 0 160 160"><path d="M1.9 1.8v156.7h156.7V1.8H1.9zM119 61.5c0 .8.1 1.6.1 2.4 0 24.8-18.9 53.4-53.4 53.4-10.6 0-20.5-3.1-28.8-8.4 1.5.2 3 .3 4.5.3 8.8 0 16.9-3 23.3-8-8.2-.2-15.2-5.6-17.5-13 1.1.2 2.3.3 3.5.3 1.7 0 3.4-.2 4.9-.7-8.6-1.7-15.1-9.3-15.1-18.4v-.2c2.5 1.4 5.4 2.3 8.5 2.4-5-3.4-8.4-9.1-8.4-15.6 0-3.4.9-6.7 2.5-9.4C52.4 57.7 66.3 65.2 81.9 66c-.3-1.4-.5-2.8-.5-4.3 0-10.4 8.4-18.8 18.8-18.8 5.4 0 10.3 2.3 13.7 5.9 4.3-.8 8.3-2.4 11.9-4.6-1.4 4.4-4.4 8.1-8.3 10.4 3.8-.5 7.4-1.5 10.8-3-2.5 3.9-5.7 7.2-9.3 9.9z"/></symbol><symbol id="usd_currency" viewBox="0 0 160 160"><path d="M80.8 4.4C38.5 4.4 4.3 38.7 4.3 80.9s34.3 76.5 76.5 76.5 76.5-34.3 76.5-76.5S123 4.4 80.8 4.4zm0 136.6c-33.2 0-60.1-26.9-60.1-60.1s26.9-60 60.1-60 60.1 26.9 60.1 60c-.1 33.2-27 60.1-60.1 60.1zm-8.5-77.3c0 1.5.5 2.9 1.4 4.2s2.3 2.3 4.1 3.1V56.3c-1.7.6-3 1.5-4 2.9s-1.5 2.9-1.5 4.5zm8.5-37.1c-30 0-54.3 24.3-54.3 54.3s24.3 54.3 54.3 54.3 54.3-24.3 54.3-54.3-24.3-54.3-54.3-54.3zm16.1 78c-3.1 3.5-7.4 5.7-13 6.5v8h-6.2v-7.8c-4.9-.6-8.9-2.4-12-5.5s-5-7.4-5.9-13L71 91.6c.5 2.3 1.3 4.2 2.6 5.9 1.3 1.6 2.6 2.8 4.2 3.6V83.2c-5.6-1.6-9.7-4-12.3-7.2-2.6-3.2-3.9-7.1-3.9-11.7 0-4.7 1.5-8.6 4.4-11.7 2.9-3.2 6.9-5 11.7-5.5v-4.2H84V47c4.5.5 8.1 2.1 10.8 4.6 2.7 2.5 4.4 6 5.1 10.2l-10.8 1.4c-.7-3.4-2.4-5.6-5.1-6.8v16.7c6.8 1.9 11.5 4.2 13.9 7.2 2.5 2.9 3.7 6.7 3.7 11.3 0 5.1-1.6 9.5-4.7 13zM84 85v16.6c2.1-.4 3.9-1.4 5.2-3 1.3-1.6 2-3.4 2-5.6 0-1.9-.6-3.5-1.7-4.9-1.1-1.3-3-2.3-5.5-3.1z"/></symbol><symbol id="youtube" viewBox="0 0 160 160"><path d="M1.7 1.8v156.7h156.7V1.8H1.7zm121.6 81.5c0 7-.9 14-.9 14s-.8 6-3.5 8.6c-3.3 3.5-7 3.5-8.7 3.7-12.1.9-30.4.9-30.4.9s-22.6-.2-29.5-.9c-1.9-.4-6.3-.3-9.6-3.7-2.6-2.6-3.4-8.6-3.4-8.6s-.9-7-.9-14v-6.6c0-7 .9-14 .9-14s.8-6 3.4-8.6c3.3-3.5 7-3.5 8.7-3.7 12.1-.9 30.4-.9 30.4-.9s18.2 0 30.4.9c1.7.2 5.4.2 8.7 3.7 2.6 2.6 3.5 8.6 3.5 8.6s.9 7 .9 14v6.6zm-52.3 8l23.4-12.1L71 66.9v24.4z"/></symbol></svg>
