<svg xmlns:svg="http://www.w3.org/2000/svg" xmlns="http://www.w3.org/2000/svg">
<symbol id="calendar_add" viewBox="0 0 160 160"><path d="M 21.400391 2 A 2.50025 2.50025 0 0 0 18.900391 4.5 L 18.900391 12.5 L 5.6992188 12.5 A 2.50025 2.50025 0 0 0 3.1992188 15 L 3.1992188 41.300781 L 3.1992188 149 A 2.50025 2.50025 0 0 0 5.6992188 151.5 L 105.86328 151.5 C 111.09547 154.78854 117.27731 156.69922 123.90039 156.69922 C 142.64846 156.69922 157.90039 141.44729 157.90039 122.69922 C 157.90039 109.57271 150.41853 98.167833 139.5 92.503906 L 139.5 41.300781 L 139.5 15 A 2.50025 2.50025 0 0 0 139.48828 14.75 A 2.50025 2.50025 0 0 0 137 12.5 L 123.80078 12.5 L 123.80078 4.5 A 2.50025 2.50025 0 0 0 121.30078 2 L 102.90039 2 A 2.50025 2.50025 0 0 0 100.40039 4.5 L 100.40039 12.5 L 42.300781 12.5 L 42.300781 4.5 A 2.50025 2.50025 0 0 0 39.800781 2 L 21.400391 2 z M 23.900391 7 L 37.300781 7 L 37.300781 15 L 37.300781 23 L 23.900391 23 L 23.900391 7 z M 105.40039 7 L 118.80078 7 L 118.80078 14.302734 A 2.50025 2.50025 0 0 0 118.69922 15 L 118.69922 23 L 105.40039 23 L 105.40039 7 z M 8.1992188 17.5 L 18.900391 17.5 L 18.900391 25.5 A 2.50025 2.50025 0 0 0 21.400391 28 L 39.800781 28 A 2.50025 2.50025 0 0 0 42.300781 25.5 L 42.300781 17.5 L 100.30078 17.5 L 100.30078 25.5 A 2.50025 2.50025 0 0 0 102.80078 28 L 121.19922 28 L 121.30078 28 A 2.50025 2.50025 0 0 0 123.80078 25.5 L 123.80078 17.5 L 134.5 17.5 L 134.5 38.800781 L 8.1992188 38.800781 L 8.1992188 17.5 z M 8.1992188 43.800781 L 134.5 43.800781 L 134.5 90.400391 C 131.16198 89.302146 127.60132 88.699219 123.90039 88.699219 C 122.95675 88.699219 122.02402 88.748472 121.09961 88.824219 L 121.09961 83.300781 L 121.09961 59.699219 A 2.50025 2.50025 0 0 0 118.59961 57.199219 L 95 57.199219 A 2.50025 2.50025 0 0 0 94.958984 57.201172 A 2.50025 2.50025 0 0 0 94.900391 57.199219 L 71.300781 57.199219 L 47.699219 57.199219 L 24.099609 57.199219 A 2.50025 2.50025 0 0 0 21.599609 59.699219 L 21.599609 83.300781 L 21.599609 106.90039 A 2.50025 2.50025 0 0 0 21.601562 106.94141 A 2.50025 2.50025 0 0 0 21.599609 107 L 21.599609 130.59961 A 2.50025 2.50025 0 0 0 24.099609 133.09961 L 47.699219 133.09961 L 71.300781 133.09961 L 91.533203 133.09961 C 93.174055 138.19405 95.985242 142.76628 99.650391 146.5 L 8.1992188 146.5 L 8.1992188 43.800781 z M 26.599609 62.199219 L 45.199219 62.199219 L 45.199219 80.800781 L 26.599609 80.800781 L 26.599609 62.199219 z M 50.199219 62.199219 L 68.800781 62.199219 L 68.800781 80.800781 L 50.199219 80.800781 L 50.199219 62.199219 z M 73.800781 62.199219 L 92.400391 62.199219 L 92.400391 80.800781 L 73.800781 80.800781 L 73.800781 62.199219 z M 97.5 62.199219 L 116.09961 62.199219 L 116.09961 80.800781 L 97.5 80.800781 L 97.5 62.199219 z M 26.599609 85.800781 L 45.199219 85.800781 L 45.199219 104.40039 L 26.599609 104.40039 L 26.599609 85.800781 z M 50.199219 85.800781 L 68.800781 85.800781 L 68.800781 104.40039 L 50.199219 104.40039 L 50.199219 85.800781 z M 73.800781 85.800781 L 92.400391 85.800781 L 92.400391 104.40039 L 73.800781 104.40039 L 73.800781 85.800781 z M 97.5 85.800781 L 116.09961 85.800781 L 116.09961 89.613281 C 115.87159 89.667024 115.63835 89.713164 115.41211 89.771484 C 114.86996 89.911333 114.33218 90.064836 113.80078 90.230469 C 113.26935 90.396082 112.74066 90.574944 112.2207 90.765625 C 111.70079 90.956387 111.18547 91.159885 110.67773 91.375 C 105.5073 93.565284 100.99202 97.003589 97.5 101.30469 L 97.5 85.800781 z M 123.90039 93.699219 C 128.21032 93.699219 132.25267 94.704035 135.97461 96.378906 A 2.50025 2.50025 0 0 0 136.44727 96.537109 C 146.19039 101.20596 152.90039 111.15102 152.90039 122.69922 C 152.90039 138.74509 139.94626 151.69922 123.90039 151.69922 C 117.03748 151.69922 110.74526 149.32328 105.78516 145.35547 C 105.63166 145.23173 105.47512 145.11103 105.32422 144.98438 C 105.13044 144.82279 104.94138 144.65675 104.75195 144.49023 C 104.50097 144.26848 104.2529 144.04436 104.00977 143.81445 C 103.88881 143.70049 103.76742 143.58671 103.64844 143.4707 C 103.31501 143.14461 102.98932 142.81002 102.67188 142.46875 C 102.62262 142.41587 102.57035 142.36575 102.52148 142.3125 C 101.7795 141.50296 101.08651 140.64998 100.43945 139.76172 C 100.35399 139.64427 100.27123 139.52502 100.1875 139.40625 C 99.950304 139.07019 99.721047 138.72908 99.498047 138.38281 C 99.422331 138.26506 99.345533 138.14821 99.271484 138.0293 C 99.031286 137.64418 98.800404 137.25233 98.578125 136.85547 C 98.529431 136.76838 98.477506 136.68335 98.429688 136.5957 C 98.174113 136.12808 97.933142 135.6508 97.703125 135.16797 C 97.634167 135.02296 97.570518 134.87484 97.503906 134.72852 C 97.349297 134.38944 97.200333 134.04717 97.058594 133.70117 C 96.976864 133.50139 96.89769 133.29966 96.820312 133.09766 C 96.699749 132.78325 96.584411 132.46615 96.474609 132.14648 C 96.405497 131.94514 96.336271 131.74435 96.271484 131.54102 C 96.154953 131.17541 96.049526 130.80551 95.947266 130.43359 C 95.910975 130.30164 95.870408 130.17177 95.835938 130.03906 C 95.835103 130.03585 95.834818 130.03251 95.833984 130.0293 A 2.50025 2.50025 0 0 0 95.806641 129.92578 C 95.792978 129.87698 95.784816 129.82625 95.771484 129.77734 C 95.658542 129.32492 95.554342 128.8691 95.462891 128.4082 C 95.424196 128.21351 95.392212 128.0164 95.357422 127.82031 C 95.294956 127.46749 95.237143 127.11319 95.1875 126.75586 C 95.158223 126.54574 95.132191 126.3346 95.107422 126.12305 C 95.060276 125.71894 95.02071 125.31169 94.990234 124.90234 C 94.978801 124.74949 94.966098 124.59687 94.957031 124.44336 C 94.923129 123.86619 94.900391 123.28575 94.900391 122.69922 C 94.900391 122.19833 94.912571 121.69963 94.9375 121.20508 C 94.9375 121.20508 94.9375 121.20312 94.9375 121.20312 C 94.937733 121.19851 94.939218 121.19407 94.939453 121.18945 C 94.964442 120.69894 94.999903 120.2122 95.048828 119.72852 C 95.246421 117.77591 95.637288 115.87997 96.201172 114.0625 C 96.34193 113.60868 96.494162 113.16068 96.65625 112.7168 C 97.143328 111.38355 97.725793 110.09418 98.394531 108.86133 C 98.467346 108.72707 98.548185 108.59781 98.623047 108.46484 A 2.50025 2.50025 0 0 0 98.767578 108.24609 C 102.99901 100.88708 110.35648 95.638625 119.01953 94.164062 A 2.50025 2.50025 0 0 0 119.50391 94.029297 C 120.45572 93.885262 121.42411 93.785888 122.4043 93.736328 C 122.89949 93.711335 123.39885 93.699219 123.90039 93.699219 z M 123.86328 104.66406 A 2.50025 2.50025 0 0 0 121.40039 107.19922 L 121.40039 120.40039 L 108.09961 120.40039 A 2.50025 2.50025 0 1 0 108.09961 125.40039 L 121.40039 125.40039 L 121.40039 138.69922 A 2.50025 2.50025 0 1 0 126.40039 138.69922 L 126.40039 125.40039 L 139.69922 125.40039 A 2.50025 2.50025 0 1 0 139.69922 120.40039 L 126.40039 120.40039 L 126.40039 107.19922 A 2.50025 2.50025 0 0 0 123.86328 104.66406 z M 26.599609 109.5 L 45.199219 109.5 L 45.199219 128.09961 L 26.599609 128.09961 L 26.599609 109.5 z M 50.199219 109.5 L 68.800781 109.5 L 68.800781 128.09961 L 50.199219 128.09961 L 50.199219 109.5 z M 73.800781 109.5 L 92.5 109.5 L 92.5 109.66992 C 92.314288 110.11592 92.1338 110.56422 91.966797 111.01953 C 91.775618 111.54059 91.59764 112.06704 91.431641 112.59961 C 91.265843 113.13163 91.112613 113.66814 90.972656 114.21094 C 90.692489 115.29705 90.465341 116.40239 90.292969 117.52734 C 90.206843 118.08956 90.134306 118.65572 90.076172 119.22656 C 90.076172 119.22656 90.076172 119.22852 90.076172 119.22852 C 90.018135 119.79873 89.974705 120.37306 89.945312 120.95117 C 89.944983 120.95765 89.945638 120.96423 89.945312 120.9707 C 89.944972 120.97727 89.943696 120.98366 89.943359 120.99023 C 89.91516 121.55677 89.900391 122.1258 89.900391 122.69922 C 89.900391 123.18339 89.914279 123.66297 89.9375 124.13867 C 89.941673 124.23658 89.940296 124.33592 89.945312 124.43359 C 90.007975 125.67407 90.141273 126.89731 90.333984 128.09961 L 73.800781 128.09961 L 73.800781 109.5 z " /></symbol><symbol id="facebook" viewBox="0 0 160 160"><path d="M1.7,1.5v156.7h156.7V1.5H1.7z M108.9,47.2l-9.9,0c-7.7,0-9.2,3.7-9.2,9.1v11.9h18.4l-2.4,18.6h-16v47.8H70.6 V86.8H54.5V68.2h16.1V54.4c0-15.9,9.7-24.6,24-24.6c6.8,0,12.7,0.5,14.4,0.7V47.2z"/></symbol><symbol id="globe_wireframe" viewBox="0 0 160 160"><path d="m 43.5,1.9003906 c -6.664879,0 -12.099609,5.4347307 -12.099609,12.0996094 0,6.664879 5.43473,12.099609 12.099609,12.099609 6.664879,0 12.099609,-5.43473 12.099609,-12.099609 0,-6.6648787 -5.43473,-12.0996094 -12.099609,-12.0996094 z m 0,3 c 5.043558,0 9.099609,4.056051 9.099609,9.0996094 0,5.043558 -4.056051,9.099609 -9.099609,9.099609 -5.043558,0 -9.099609,-4.056051 -9.099609,-9.099609 0,-5.0435584 4.056051,-9.0996094 9.099609,-9.0996094 z" /><path d="M 39.699219,7.1992188 C 37.618304,7.1992187 35.900391,8.9190849 35.900391,11 c 0,2.080915 1.717913,3.800781 3.798828,3.800781 C 41.780134,14.800781 43.5,13.080915 43.5,11 43.5,8.9190849 41.780134,7.1992187 39.699219,7.1992188 Z m 0,3.0000002 C 40.158813,10.199219 40.5,10.540405 40.5,11 c 0,0.459595 -0.341187,0.800781 -0.800781,0.800781 -0.459595,0 -0.798828,-0.341186 -0.798828,-0.800781 0,-0.459595 0.339233,-0.800781 0.798828,-0.800781 z" /><path d="M 43.476562,23.078125 A 1.50015,1.50015 0 0 0 42,24.599609 l 0,21.800782 a 1.50015,1.50015 0 1 0 3,0 l 0,-21.800782 a 1.50015,1.50015 0 0 0 -1.523438,-1.521484 z" /><path d="M 69.300781 24.199219 C 32.039328 24.199219 1.8007812 54.437765 1.8007812 91.699219 C 1.8007814 128.96067 32.039328 159.19922 69.300781 159.19922 C 106.56223 159.19922 136.80078 128.96067 136.80078 91.699219 C 136.80078 54.437765 106.56223 24.199219 69.300781 24.199219 z M 69.300781 27.199219 C 80.662873 27.199219 91.32917 30.142093 100.59766 35.292969 C 91.70019 38.565303 83.592802 44.343016 78.28125 52.25 C 77.217427 53.853443 79.361409 60.801892 76.869141 57.78125 C 77.159242 50.626751 69.539291 51.008571 64.863281 52.896484 C 59.633183 52.039922 57.252235 58.551501 60.541016 62.078125 C 63.639551 64.606863 66.129858 66.364637 70.199219 65.800781 C 68.441269 70.22211 75.25741 70.597363 75.746094 74.525391 C 78.335876 80.625654 84.164769 75.867416 88.208984 76.175781 C 91.696995 78.784372 97.137635 77.822987 99.351562 81.988281 C 102.71661 86.538756 104.65869 92.572908 109.98633 95.310547 C 112.29351 99.242954 109.63082 103.9673 108.43164 107.91016 C 107.41095 112.41269 102.67907 114.39588 100.55664 118.37891 C 95.595818 126.2438 88.244626 133.00611 79.259766 135.78906 C 74.18264 133.496 81.558947 127.88716 81.722656 124.14062 C 83.776591 119.13858 85.148586 111.96635 80.023438 108.29688 C 74.26412 103.44558 71.103357 94.916245 74.181641 87.78125 C 75.863151 82.615506 68.830579 80.680399 70.027344 75.197266 C 69.13856 69.365948 62.35424 68.615657 57.630859 67.945312 C 50.071304 67.637115 44.97119 61.316725 41.585938 55.210938 C 38.448625 49.707876 36.083186 43.81688 33.466797 38.060547 C 43.71475 31.20347 56.036088 27.199219 69.300781 27.199219 z M 103.79297 37.199219 C 121.82685 48.631635 133.80078 68.752544 133.80078 91.699219 C 133.80078 127.33935 104.94091 156.19922 69.300781 156.19922 C 33.660648 156.19922 4.8007813 127.33935 4.8007812 91.699219 C 4.8007812 70.476027 15.036546 51.66043 30.841797 39.908203 C 31.651955 42.093122 33.541348 44.581213 33.939453 46.496094 C 37.765607 54.636324 41.560204 63.752585 49.554688 68.654297 C 54.602877 71.843253 61.347569 70.176431 66.173828 73.677734 C 68.070753 77.533953 67.114879 82.803096 71.371094 85.109375 C 70.757021 89.753361 68.904088 94.852368 70.884766 99.646484 C 72.247646 104.95074 76.292996 108.7809 79.908203 112.57031 C 81.930463 118.28188 78.476072 124.09337 76.099609 129.15234 C 72.600994 132.55657 74.625836 139.63872 80.091797 138.7168 C 89.712392 135.65765 97.685843 128.55797 103.01367 120.09766 C 104.78328 116.45087 109.09224 114.75712 110.46094 111.01953 C 112.21365 105.88293 115.2676 100.20887 113.19336 94.744141 C 110.29078 91.489231 106.39759 88.970042 104.60156 84.632812 C 102.32972 81.221602 100.30308 76.247027 95.652344 75.945312 C 90.73772 73.684595 85.563865 71.541245 80.675781 74.873047 C 77.512577 73.20618 77.17077 68.567128 73.123047 67.523438 C 74.177366 64.893537 71.661686 61.900163 68.259766 62.376953 C 67.481947 59.183121 61.636104 63.038772 62.099609 57.947266 C 62.555733 54.446085 68.455699 56.440919 70.878906 54.505859 C 76.153573 54.461029 71.85453 64.952307 78.951172 61.535156 C 83.952411 59.163277 78.421157 52.581836 83.802734 50.042969 C 88.946355 43.764691 96.293549 39.818211 103.79297 37.199219 z " /></symbol><symbol id="information" viewBox="0 0 160 160"><path class="st0" d="M80.4,3.5c42.3,0,76.6,34.4,76.6,76.6s-34.4,76.6-76.6,76.6S3.7,122.4,3.7,80.1S38.1,3.5,80.4,3.5 M80.4,1.5 C36.9,1.5,1.7,36.7,1.7,80.1s35.2,78.6,78.6,78.6S159,123.6,159,80.1S123.8,1.5,80.4,1.5L80.4,1.5z"/><path class="st1" d="M74.1,72.2c1.1-2.8-0.3-4.2-1.6-4.2c-5.8,0-13.4,13.7-16.2,13.7c-1.1,0-2-1.1-2-2c0-2.8,6.9-9.4,9-11.5 c6.3-6,14.5-10.5,23.6-10.5c6.8,0,14,4.1,8.3,19.3l-11.3,30.6c-0.9,2.4-2.7,6.3-2.7,8.8c0,1.1,0.6,2.2,1.9,2.2 c4.7,0,13.4-13.4,15.6-13.4c0.8,0,1.9,0.9,1.9,2.4c0,4.6-18.4,24-34.3,24c-5.7,0-9.6-2.7-9.6-8.6c0-7.5,5.3-20.4,6.4-23.1L74.1,72.2 z M82.6,41.2c0-6.9,6-12.6,12.9-12.6c6.3,0,10.8,4.2,10.8,10.7c0,7.2-6,12.6-13,12.6C86.9,51.9,82.6,47.7,82.6,41.2z"/></symbol><symbol id="linkedin" viewBox="0 0 160 160"><path d="M1.1,1.6v156.6h156.6V1.6H1.1z M69.1,116.2H53.9V63h15.2V116.2z M61.5,57.3c-5.2,0-9.5-4.2-9.5-9.5 s4.2-9.5,9.5-9.5c5.3,0,9.5,4.2,9.5,9.5S66.7,57.3,61.5,57.3z M122.2,116.2H107V83.9c0-1.5-0.5-3.4-2.6-4.6 c-7.2-3.2-12.6,2.9-12.6,2.9v34H76.7V63h15.2v2.3c6-2.7,14.3-2.5,20,0.7c6,3.4,10.4,10.9,10.4,17.8V116.2z"/></symbol><symbol id="question" viewBox="0 0 160 160"><path d="M80,3.5c42.3,0,76.6,34.4,76.6,76.6s-34.4,76.6-76.6,76.6S3.3,122.4,3.3,80.1S37.7,3.5,80,3.5 M80,1.5 C36.5,1.5,1.3,36.7,1.3,80.1s35.2,78.6,78.6,78.6s78.6-35.2,78.6-78.6S123.4,1.5,80,1.5L80,1.5z"/><path d="M66.1,94.6v-5.8c0-4.4,0.9-8.2,2.7-11.3c1.8-3.1,5-6,9.7-8.9c3.7-2.3,6.3-4.4,7.9-6.3c1.6-1.9,2.4-4,2.4-6.4 c0-1.9-0.9-3.4-2.6-4.5c-1.7-1.1-4-1.7-6.7-1.7c-6.8,0-14.9,2.4-24,7.3L46,38.5c11.3-6.4,23.1-9.7,35.4-9.7c10.1,0,18,2.2,23.8,6.7 c5.8,4.4,8.6,10.5,8.6,18.2c0,5.5-1.3,10.2-3.8,14.2c-2.6,4-6.7,7.8-12.3,11.4c-4.8,3.1-7.7,5.3-8.9,6.8c-1.2,1.4-1.8,3.1-1.8,5.1 v3.5H66.1z M63.2,118.4c0-4.2,1.2-7.4,3.6-9.7c2.4-2.3,6-3.4,10.7-3.4c4.5,0,8,1.1,10.4,3.4c2.4,2.3,3.6,5.5,3.6,9.6 c0,4.1-1.3,7.3-3.8,9.6c-2.5,2.3-6,3.4-10.3,3.4c-4.5,0-8-1.1-10.5-3.4C64.5,125.8,63.2,122.6,63.2,118.4z"/></symbol><symbol id="search" viewBox="0 0 160 160"><path d="M155.3,137.2l-36.9-38.7c6.3-9.9,10-21.6,10-34.1c0-35-28.4-63.5-63.5-63.5c-35,0-63.4,28.4-63.4,63.5 c0,35,28.4,63.4,63.4,63.4c13.7,0,26.4-4.4,36.8-11.7l36.1,37.9c4.6,4.8,12.3,5,17.1,0.4C159.8,149.7,159.9,142.1,155.3,137.2z M20.9,64.4c0-24.3,19.7-44,44-44c24.3,0,44,19.7,44,44c0,24.3-19.7,44-44,44C40.6,108.4,20.9,88.7,20.9,64.4z"/></symbol><symbol id="twitter" viewBox="0 0 160 160"><path d="M1.9,1.8v156.7h156.7V1.8H1.9z M119,61.5c0,0.8,0.1,1.6,0.1,2.4c0,24.8-18.9,53.4-53.4,53.4 c-10.6,0-20.5-3.1-28.8-8.4c1.5,0.2,3,0.3,4.5,0.3c8.8,0,16.9-3,23.3-8c-8.2-0.2-15.2-5.6-17.5-13c1.1,0.2,2.3,0.3,3.5,0.3 c1.7,0,3.4-0.2,4.9-0.7c-8.6-1.7-15.1-9.3-15.1-18.4v-0.2c2.5,1.4,5.4,2.3,8.5,2.4c-5-3.4-8.4-9.1-8.4-15.6c0-3.4,0.9-6.7,2.5-9.4 C52.4,57.7,66.3,65.2,81.9,66c-0.3-1.4-0.5-2.8-0.5-4.3c0-10.4,8.4-18.8,18.8-18.8c5.4,0,10.3,2.3,13.7,5.9 c4.3-0.8,8.3-2.4,11.9-4.6c-1.4,4.4-4.4,8.1-8.3,10.4c3.8-0.5,7.4-1.5,10.8-3C125.8,55.5,122.6,58.8,119,61.5z"/></symbol><symbol id="youtube" viewBox="0 0 160 160"><path d="M1.7,1.8v156.7h156.7V1.8H1.7z M123.3,83.3c0,7-0.9,14-0.9,14s-0.8,6-3.5,8.6c-3.3,3.5-7,3.5-8.7,3.7 c-12.1,0.9-30.4,0.9-30.4,0.9s-22.6-0.2-29.5-0.9c-1.9-0.4-6.3-0.3-9.6-3.7c-2.6-2.6-3.4-8.6-3.4-8.6s-0.9-7-0.9-14v-6.6 c0-7,0.9-14,0.9-14s0.8-6,3.4-8.6c3.3-3.5,7-3.5,8.7-3.7c12.1-0.9,30.4-0.9,30.4-0.9h0c0,0,18.2,0,30.4,0.9 c1.7,0.2,5.4,0.2,8.7,3.7c2.6,2.6,3.5,8.6,3.5,8.6s0.9,7,0.9,14V83.3z M71,91.3l23.4-12.1L71,66.9L71,91.3z"/></symbol></svg>
