<svg xmlns:svg="http://www.w3.org/2000/svg" xmlns="http://www.w3.org/2000/svg">
<symbol id="facebook" viewBox="0 0 160 160"><path d="M1.7,1.5v156.7h156.7V1.5H1.7z M108.9,47.2l-9.9,0c-7.7,0-9.2,3.7-9.2,9.1v11.9h18.4l-2.4,18.6h-16v47.8H70.6 V86.8H54.5V68.2h16.1V54.4c0-15.9,9.7-24.6,24-24.6c6.8,0,12.7,0.5,14.4,0.7V47.2z"/></symbol><symbol id="linkedin" viewBox="0 0 160 160"><path d="M1.1,1.6v156.6h156.6V1.6H1.1z M69.1,116.2H53.9V63h15.2V116.2z M61.5,57.3c-5.2,0-9.5-4.2-9.5-9.5 s4.2-9.5,9.5-9.5c5.3,0,9.5,4.2,9.5,9.5S66.7,57.3,61.5,57.3z M122.2,116.2H107V83.9c0-1.5-0.5-3.4-2.6-4.6 c-7.2-3.2-12.6,2.9-12.6,2.9v34H76.7V63h15.2v2.3c6-2.7,14.3-2.5,20,0.7c6,3.4,10.4,10.9,10.4,17.8V116.2z"/></symbol><symbol id="twitter" viewBox="0 0 160 160"><path d="M1.9,1.8v156.7h156.7V1.8H1.9z M119,61.5c0,0.8,0.1,1.6,0.1,2.4c0,24.8-18.9,53.4-53.4,53.4 c-10.6,0-20.5-3.1-28.8-8.4c1.5,0.2,3,0.3,4.5,0.3c8.8,0,16.9-3,23.3-8c-8.2-0.2-15.2-5.6-17.5-13c1.1,0.2,2.3,0.3,3.5,0.3 c1.7,0,3.4-0.2,4.9-0.7c-8.6-1.7-15.1-9.3-15.1-18.4v-0.2c2.5,1.4,5.4,2.3,8.5,2.4c-5-3.4-8.4-9.1-8.4-15.6c0-3.4,0.9-6.7,2.5-9.4 C52.4,57.7,66.3,65.2,81.9,66c-0.3-1.4-0.5-2.8-0.5-4.3c0-10.4,8.4-18.8,18.8-18.8c5.4,0,10.3,2.3,13.7,5.9 c4.3-0.8,8.3-2.4,11.9-4.6c-1.4,4.4-4.4,8.1-8.3,10.4c3.8-0.5,7.4-1.5,10.8-3C125.8,55.5,122.6,58.8,119,61.5z"/></symbol><symbol id="youtube" viewBox="0 0 160 160"><path d="M1.7,1.8v156.7h156.7V1.8H1.7z M123.3,83.3c0,7-0.9,14-0.9,14s-0.8,6-3.5,8.6c-3.3,3.5-7,3.5-8.7,3.7 c-12.1,0.9-30.4,0.9-30.4,0.9s-22.6-0.2-29.5-0.9c-1.9-0.4-6.3-0.3-9.6-3.7c-2.6-2.6-3.4-8.6-3.4-8.6s-0.9-7-0.9-14v-6.6 c0-7,0.9-14,0.9-14s0.8-6,3.4-8.6c3.3-3.5,7-3.5,8.7-3.7c12.1-0.9,30.4-0.9,30.4-0.9h0c0,0,18.2,0,30.4,0.9 c1.7,0.2,5.4,0.2,8.7,3.7c2.6,2.6,3.5,8.6,3.5,8.6s0.9,7,0.9,14V83.3z M71,91.3l23.4-12.1L71,66.9L71,91.3z"/></symbol></svg>
