<svg id="usdcurrency" fill="#9de1fd" xmlns="http://www.w3.org/2000/svg" viewBox="0 0 160 160">
<path d="M80.8,4.4C38.5,4.4,4.3,38.7,4.3,80.9s34.3,76.5,76.5,76.5s76.5-34.3,76.5-76.5S123,4.4,80.8,4.4z M80.8,141
	c-33.2,0-60.1-26.9-60.1-60.1s26.9-60,60.1-60s60.1,26.9,60.1,60C140.8,114.1,113.9,141,80.8,141z M72.3,63.7c0,1.5,0.5,2.9,1.4,4.2
	s2.3,2.3,4.1,3.1V56.3c-1.7,0.6-3,1.5-4,2.9C72.8,60.6,72.3,62.1,72.3,63.7z M80.8,26.6c-30,0-54.3,24.3-54.3,54.3
	s24.3,54.3,54.3,54.3s54.3-24.3,54.3-54.3S110.8,26.6,80.8,26.6z M96.9,104.6c-3.1,3.5-7.4,5.7-13,6.5v8h-6.2v-7.8
	c-4.9-0.6-8.9-2.4-12-5.5s-5-7.4-5.9-13L71,91.6c0.5,2.3,1.3,4.2,2.6,5.9c1.3,1.6,2.6,2.8,4.2,3.6V83.2c-5.6-1.6-9.7-4-12.3-7.2
	c-2.6-3.2-3.9-7.1-3.9-11.7c0-4.7,1.5-8.6,4.4-11.7c2.9-3.2,6.9-5,11.7-5.5v-4.2H84V47c4.5,0.5,8.1,2.1,10.8,4.6
	c2.7,2.5,4.4,6,5.1,10.2l-10.8,1.4c-0.7-3.4-2.4-5.6-5.1-6.8v16.7c6.8,1.9,11.5,4.2,13.9,7.2c2.5,2.9,3.7,6.7,3.7,11.3
	C101.6,96.7,100,101.1,96.9,104.6z M84,85v16.6c2.1-0.4,3.9-1.4,5.2-3c1.3-1.6,2-3.4,2-5.6c0-1.9-0.6-3.5-1.7-4.9
	C88.4,86.8,86.5,85.8,84,85z"/>
</svg>
