<svg id="checkmark" xmlns="http://www.w3.org/2000/svg" viewBox="0 0 160 160">
<style type="text/css">
	.st0{fill-rule:evenodd;clip-rule:evenodd;fill:#4B4A4A;}
</style>
<path class="st0" d="M80,158.8c-43.6,0-78.9-35.3-78.9-78.9S36.4,1,80,1s78.9,35.3,78.9,78.9S123.6,158.8,80,158.8z M124,52.2
	l-7.9-7.9c-1.4-1.4-3.8-1.4-5.2,0L63.9,91.4L41.5,68.9c-1.4-1.4-3.8-1.4-5.2,0l-7.9,7.8c-1.4,1.4-1.4,3.8,0,5.2L53.3,107
	c0,0,0,0.1,0.1,0.1l5.4,5.4l1.3,1.3l0,0l1.2,1.2c1.4,1.4,3.8,1.4,5.2,0L124,57.4C125.5,56,125.5,53.7,124,52.2z"/>
</svg>
