<?xml version="1.0" encoding="utf-8"?>
<!-- Generator: Adobe Illustrator 19.2.1, SVG Export Plug-In . SVG Version: 6.00 Build 0)  -->
<svg version="1.1" id="natural-resources" xmlns="http://www.w3.org/2000/svg" xmlns:xlink="http://www.w3.org/1999/xlink" x="0px"
	 y="0px" viewBox="0 0 160 160" style="enable-background:new 0 0 160 160;" xml:space="preserve">
<style type="text/css">
	.st0{fill:#FFFFFF;}
</style>
<path class="st0" d="M135.8,21.7c-0.8,0-1.5-0.4-2-1c-1.8-2.5-4.7-4-7.8-4c-1.6,0-3.2,0.4-4.9,0.8c-0.7,0.2-1.3,0.3-2,0.4
	c-5.4,1.1-10.9,0.9-16.2,0.7l-8.4-0.3c-2.2-0.1-2.4-0.2-5.8-1.4c-1.3-0.5-1.9-1.9-1.5-3.2c0.5-1.3,1.9-1.9,3.2-1.5
	c2.9,1.1,2.9,1.1,4.2,1.1l8.4,0.3c5,0.2,10.2,0.3,15-0.7c0.6-0.1,1.2-0.3,1.9-0.4c1.9-0.4,3.9-0.9,6-0.9c0,0,0,0,0.1,0
	c4.6,0,9.1,2.3,11.8,6.1c0.8,1.1,0.6,2.7-0.6,3.5C136.8,21.5,136.3,21.7,135.8,21.7z"/>
<path class="st0" d="M145.9,65.9V25.4c0-0.8-0.6-1.4-1.4-1.4H129c-0.8,0-1.4,0.6-1.4,1.4V65c0,1-1.1,1.7-2,1.3L97,52.2
	c-0.9-0.5-2,0.2-2,1.3v9.7c0,1-1.1,1.7-2,1.3L68.1,52.2c-0.9-0.5-2,0.2-2,1.3v47.7c0,0.8,0.6,1.4,1.4,1.4h68.8h8.3h9
	c1.3,0,2.4-1.1,2.4-2.4V70.6c0-1.3-1.1-2.4-2.4-2.4h-5.3C146.9,68.2,145.9,67.2,145.9,65.9z M95.6,85.9c0,0.8-0.6,1.4-1.4,1.4H77
	c-0.8,0-1.4-0.6-1.4-1.4V74.8c0-0.8,0.6-1.4,1.4-1.4h17.2c0.8,0,1.4,0.6,1.4,1.4V85.9z M126.2,85.9c0,0.8-0.6,1.4-1.4,1.4h-17.2
	c-0.8,0-1.4-0.6-1.4-1.4V74.8c0-0.8,0.6-1.4,1.4-1.4h17.2c0.8,0,1.4,0.6,1.4,1.4C126.2,74.8,126.2,85.9,126.2,85.9z"/>
<path class="st0" d="M72.3,86.2L72.3,86.2L72.3,86.2L56,86.1c-0.3,0-0.6-0.3-0.7-0.6l-5.6-54.1c-0.2-1.8-1.5-3-3.1-3H31.5
	c-1.6,0-2.9,1.3-3.1,3.1l-5.6,54c0,0.3-0.3,0.6-0.7,0.6h-16l0,0h-1c-1.7,0-3.1,1.5-3.1,3.4v9.6c0,1.9,1.4,3.4,3.1,3.4h67.1
	c1.8,0,3.2-1.6,3.2-3.6v-9.1C75.5,87.8,74.1,86.2,72.3,86.2z M48.4,58l1.4,13.1c0.1,0.5-0.5,0.9-1,0.7l-14.7-7.2
	c-0.5-0.2-0.5-1,0-1.2l13.3-5.9C47.8,57.2,48.3,57.5,48.4,58z M46.1,35.8l1.4,13.6c0.1,0.6-0.6,0.9-1,0.6l-11.3-7.9
	c-0.4-0.3-0.4-0.9,0-1.1l9.9-5.7C45.5,35,46,35.3,46.1,35.8z M32.4,33.1c0-0.3,0.3-0.6,0.7-0.6h6.1c0.7,0,0.9,0.9,0.3,1.2L33,37.5
	c-0.5,0.3-1-0.1-1-0.6L32.4,33.1z M31.1,45.5c0.1-0.5,0.6-0.8,1-0.5l11.8,8.3c0.4,0.3,0.4,0.9-0.1,1.1l-13.3,5.9
	c-0.5,0.2-1-0.2-0.9-0.7L31.1,45.5z M27.2,82.5l1.6-15c0-0.5,0.5-0.7,1-0.5l15.5,7.6c0.5,0.2,0.5,1,0,1.2l-17,7.4
	C27.7,83.4,27.2,83,27.2,82.5z M50.5,86.1H35.1c-0.7,0-0.9-1-0.3-1.3l14.8-6.4c0.4-0.2,0.9,0.1,0.9,0.5l0.7,6.4
	C51.2,85.7,50.9,86.1,50.5,86.1z"/>
<path class="st0" d="M38.3,3.2c0.1,0,0.2,0,0.2,0.1c0,0.5,0.2,1.9,0.3,2.3C39.1,7,39.9,8.2,41,9.1c1.5,1.3,2.9,2.5,4,4.1
	c1.3,1.9,2.2,3.9,2.1,6.2c-0.2,2.7-1.6,4.7-4,6c-0.1,0.1-0.2,0-0.4,0.1c0-0.2-0.1-0.3,0-0.5c0.4-1.5,0.2-2.9-0.5-4.2
	c-0.1-0.2-0.2-0.3-0.3-0.4c-0.2-0.2-0.5-0.2-0.6,0c-0.4,0.7-0.9,1.1-1.6,1.3c-0.4,0.1-0.5,0-0.6-0.4c-0.1-1-1.1-2.4-1.7-3.3
	c-0.1-0.2-0.4-0.1-0.4,0.2c0,0.9-0.5,1.6-1.1,2.3c-1.3,1.3-2,2.9-1.7,4.8c0,0.1,0,0.1,0,0.2c0,0,0,0.1-0.1,0.1
	c-0.7-0.2-1.3-0.6-1.8-1.1c-1.5-1.4-1.8-3.2-1.3-5.1c0.3-1.1,0.8-2.1,1.3-3.2c0.6-1.2,0.5-1.9-0.7-2.6c-0.2-0.2-0.5-0.3-0.8-0.5
	c-0.2-0.2-0.3-0.5,0-0.7c1-0.7,2.1-0.9,3.3-0.8c0.3,0,0.5-0.2,0.4-0.5c-0.1-0.5-0.2-1-0.3-1.5c-0.2-2,0.3-4.2,2.1-5.5
	C36.6,3.8,37.8,3.4,38.3,3.2z"/>
<path class="st0" d="M30.7,128H31c1.3,0,2.3-1.2,2.1-2.5c-0.2-1-1.1-1.7-2.1-1.7h-0.8v-12.5c0-0.3,0.2-0.5,0.5-0.5H31
	c1,0,1.9-0.7,2.1-1.7c0.3-1.4-0.8-2.5-2.1-2.5h-0.8h-23H6.5c-1.1,0-2.2,0.9-2.2,2c-0.1,1.2,0.9,2.2,2.1,2.2h0.3
	c0.3,0,0.5,0.2,0.5,0.5v12c0,0.3-0.2,0.5-0.5,0.5H6.5c-1.1,0-2.2,0.9-2.2,2C4.2,127,5.2,128,6.4,128h0.3c0.3,0,0.5,0.2,0.5,0.5v12
	c0,0.3-0.2,0.5-0.5,0.5H6.5c-1.1,0-2.2,0.9-2.2,2c-0.1,1.2,0.9,2.2,2.1,2.2h0.8h23H31c1,0,1.9-0.7,2.1-1.7c0.3-1.4-0.8-2.5-2.1-2.5
	h-0.3c-0.3,0-0.5-0.2-0.5-0.5v-12C30.2,128.2,30.4,128,30.7,128z M18.7,133.2c-3.1,0-5.6-2.5-5.6-5.6c0-2.2,2.8-6.3,4.5-8.5
	c0.6-0.8,1.7-0.8,2.3,0c1.6,2.2,4.5,6.3,4.5,8.5C24.3,130.7,21.8,133.2,18.7,133.2z"/>
<path class="st0" d="M68.6,106.5c1,0.4,2.1,0.9,3.1,1.3c0.2,0.1,0.5,0.1,0.8,0.1c1.3-0.1,2.6-0.5,3.7-1.1c0.4-0.2,0.7-0.2,1.1,0.1
	c0.1,0.1,0.3,0.2,0.4,0.3c0.6,0.5,1.4,0.9,1.8,1.7c0.2,0.4,0.6,0.6,1,0.7c0.2,0,0.4,0.1,0.6,0.2c1.2,0.5,1.8,1.6,2.3,2.6
	c0.4,0.8-0.2,1.7-1.1,1.7H58.7c-0.5,0-0.7-0.6-0.4-0.9c0.9-0.9,2.3-2.3,3.1-3.1c0.1-0.1,0.3-0.3,0.3-0.4c-0.1-1,0.8-1.2,1.3-1.6
	c0.6-0.4,1.1-0.9,1.9-0.7c1,0.3,1.7-0.3,2.4-0.8C67.8,106.4,68.2,106.3,68.6,106.5z"/>
<circle class="st0" cx="77.2" cy="142.1" r="2.7"/>
<circle class="st0" cx="64.6" cy="142.1" r="2.7"/>
<path class="st0" d="M89.6,117.1H52.2c-0.3,0-0.5,0.2-0.5,0.5v4.5c0,0.3,0.2,0.5,0.5,0.5h1.2c0.3,0,0.6,0.2,0.7,0.5l4.9,12.6
	c0.2,0.5,0.6,0.8,1.2,0.8h21.3c0.5,0,1-0.3,1.2-0.8l4.9-12.6c0.1-0.3,0.4-0.5,0.7-0.5h1.2c0.3,0,0.5-0.2,0.5-0.5v-4.5
	C90.1,117.3,89.8,117.1,89.6,117.1z M63.9,132.5c0,0.6-0.5,1.1-1.1,1.1s-1.1-0.5-1.1-1.1V124c0-0.6,0.5-1.1,1.1-1.1s1.1,0.5,1.1,1.1
	V132.5z M69.3,132.5c0,0.6-0.5,1.1-1.1,1.1s-1.1-0.5-1.1-1.1V124c0-0.6,0.5-1.1,1.1-1.1s1.1,0.5,1.1,1.1V132.5z M74.6,132.5
	c0,0.6-0.5,1.1-1.1,1.1s-1.1-0.5-1.1-1.1V124c0-0.6,0.5-1.1,1.1-1.1s1.1,0.5,1.1,1.1V132.5z M80,132.5c0,0.6-0.5,1.1-1.1,1.1
	s-1.1-0.5-1.1-1.1V124c0-0.6,0.5-1.1,1.1-1.1s1.1,0.5,1.1,1.1V132.5z"/>
<path class="st0" d="M152.2,123.7l-12.3-15.1h-24.7l-12.3,15.1l24.7,21.8L152.2,123.7z M146,124.1v0.2L133,135l3.9-10.7L146,124.1z
	 M137.9,112l-1.6,10.2l-6.5-3.2L137.9,112z M109,124.2V124l9.1,0.3L122,135L109,124.2z M118.6,122.2L117,112l8.1,7L118.6,122.2z"/>
</svg>
