<svg id="contracts" xmlns="http://www.w3.org/2000/svg" viewBox="0 0 160 160">
<style type="text/css">
	.st0{fill:none;stroke:#0093cf;stroke-width:4;stroke-linecap:round;stroke-linejoin:round;stroke-miterlimit:10;}
</style>
<path class="st0" d="M125.7,156.2H8.4c-2.7,0-4.7-2.6-4-5.2L31,78c0.5-1.8,2.1-3,4-3h117.3c2.7,0,4,2.6,4,5.2l-26.6,73
	C129.1,155,127.5,156.2,125.7,156.2z"/>
<line class="st0" x1="48.8" y1="43.6" x2="76" y2="43.6"/>
<line class="st0" x1="48.8" y1="25.2" x2="75" y2="25.2"/>
<line class="st0" x1="48.8" y1="61.9" x2="111.7" y2="61.9"/>
<path class="st0" d="M136,51.4H130V75h10.5V56C140.5,53.5,138.5,51.4,136,51.4z"/>
<path class="st0" d="M14.7,33.1H8.8c-2.5,0-4.5,2-4.5,4.5v112c0.2,0,0.4,0,0.5,0l9.9-27.1V33.1z"/>
<path class="st0" d="M31,78c0.5-1.8,2.1-3,4-3h5.2H130V43.6V4.2H90.7H30.5v75.4L31,78z"/>
<polygon class="st0" points="30.5,79.6 30.5,9.5 22.6,9.5 22.6,101.2 "/>
<polygon class="st0" points="22.6,101.2 22.6,14.7 14.7,14.7 14.7,122.7 "/>
<polygon class="st0" points="117.2,40 107.2,32.5 97.2,40 97.2,5 117.2,5 "/>
</svg>
