<svg id="beneficial-ownershipv3" xmlns="http://www.w3.org/2000/svg" viewBox="0 0 160 160">
<style type="text/css">
	.st0{fill:none;stroke:#0093CF;stroke-width:8;stroke-linecap:round;stroke-linejoin:round;stroke-miterlimit:10;}
</style>
<circle class="st0" cx="63.3" cy="63.3" r="59.3"/>
<path class="st0" d="M109.2,100.8c-2.5,3.1-5.3,5.9-8.4,8.4l46.6,46.6l8.4-8.4L109.2,100.8z"/>
<path class="st0" d="M97,80.5l-12.8-6.4c-1.7-0.8-2.7-2.5-2.7-4.4v-5c0.4-0.4,0.8-0.9,1.2-1.6c1.8-2.5,3.1-5.2,4-8
	c1.6-0.5,2.9-2,2.9-3.8v-5.4c0-1.2-0.5-2.2-1.3-3v-7.8c0,0,1.6-12.1-14.8-12.1C57,23,58.6,35.1,58.6,35.1v7.8
	c-0.8,0.7-1.3,1.8-1.3,3v5.4c0,1.4,0.7,2.7,1.9,3.4c1.3,5.9,4.9,10.1,4.9,10.1v4.9c0,1.8-1,3.4-2.6,4.3l-12,6.5
	C46,82.4,43.9,86,43.9,90v4.4H103v-4.1C103,86.1,100.7,82.4,97,80.5z"/>
<path class="st0" d="M49.4,80.5l8-4.4c0,0,0-0.1,0.1,0l3.9-2.1c1.6-1,2.6-2.6,2.6-4.4v-4.9c0,0-1.4-1.7-2.8-4.5l0,0l0,0
	c-0.2-0.4-0.4-0.7-0.5-1.1c0-0.1,0-0.1-0.1-0.2c-0.2-0.4-0.4-0.8-0.5-1.3v-0.1c-0.1-0.4-0.3-0.8-0.4-1.2c0-0.1-0.1-0.2-0.1-0.3
	c-0.1-0.5-0.3-0.9-0.4-1.4c-1.1-0.7-1.9-2-1.9-3.4v-5.4c0-1.2,0.5-2.2,1.3-3v-7.6c-1.9-1.5-4.8-2.9-9.4-2.9
	c-12.9,0-13.4,10.8-13.4,10.8v6.7c-0.7,0.6-1.3,1.6-1.3,2.6V57c0,1.2,0.6,2.3,1.6,2.9c1.2,5.1,5.1,8.7,5.1,8.7V73
	c0,1.5-0.8,3-2.2,3.7l-9,5.7c-3,1.6-4.9,4.8-4.9,8.2v3.8h18.8V90C43.8,86,46,82.3,49.4,80.5z"/>
</svg>
