<svg id="comtrading" xmlns="http://www.w3.org/2000/svg" viewBox="0 0 160 160">
<style type="text/css">
	.st0{fill:none;stroke:#4C4D4C;stroke-width:5;stroke-linecap:round;stroke-linejoin:round;stroke-miterlimit:10;}
</style>
	<rect x="29.2" y="82.9" class="st0" width="27.4" height="55"/>
	<rect x="71.4" y="64.6" class="st0" width="27.4" height="73.2"/>
	<rect x="112" y="46.4" class="st0" width="27.4" height="91.4"/>
	<polyline class="st0" points="156.2,137.8 10.5,137.8 10.5,10.3 	"/>
		<circle class="st0" cx="42.9" cy="46.3" r="6.6"/>
		<circle class="st0" cx="85.1" cy="35.2" r="6.6"/>
		<circle class="st0" cx="125.7" cy="10.5" r="6.6"/>
		<line class="st0" x1="48.8" y1="44.8" x2="78.5" y2="37"/>
		<line class="st0" x1="90.7" y1="31.8" x2="120" y2="13.9"/>
	<line class="st0" x1="4.2" y1="10.3" x2="16.9" y2="10.3"/>
	<line class="st0" x1="156.2" y1="131.5" x2="156.2" y2="144.2"/>
	<line class="st0" x1="112" y1="59" x2="125.7" y2="59"/>
	<line class="st0" x1="112" y1="76.4" x2="125.7" y2="76.4"/>
	<line class="st0" x1="112" y1="91.7" x2="125.7" y2="91.7"/>
	<line class="st0" x1="112" y1="109.2" x2="125.7" y2="109.2"/>
	<line class="st0" x1="112.2" y1="126.1" x2="125.9" y2="126.1"/>
	<line class="st0" x1="71.5" y1="76.4" x2="85.2" y2="76.4"/>
	<line class="st0" x1="71.5" y1="89.4" x2="85.2" y2="89.4"/>
	<line class="st0" x1="71.5" y1="100.7" x2="85.2" y2="100.7"/>
	<line class="st0" x1="71.5" y1="113.6" x2="85.2" y2="113.6"/>
	<line class="st0" x1="71.8" y1="126.1" x2="85.5" y2="126.1"/>
	<line class="st0" x1="29.3" y1="94.1" x2="43" y2="94.1"/>
	<line class="st0" x1="29.3" y1="106.1" x2="43" y2="106.1"/>
	<line class="st0" x1="29.3" y1="116.6" x2="43" y2="116.6"/>
	<line class="st0" x1="29.3" y1="128.6" x2="43" y2="128.6"/>
</svg>
