<svg id="govsystem" xmlns="http://www.w3.org/2000/svg" viewBox="0 0 160 160">
<style type="text/css">
	.st0{fill:none;stroke:#0093cf;stroke-width:6;stroke-linecap:round;stroke-miterlimit:10;}
	.st1{fill:#0093cf;}
	.st2{fill:#FFFFFF;}
</style>
<path class="st0" d="M150.1,69.3h-11c-5.7,0-8.5-6.9-4.5-10.9l7.7-7.7c1.5-1.5,1.5-4,0-5.5l-9.9-9.9c-1.5-1.5-4-1.5-5.5,0l-7.7,7.7
	c-4,4-10.9,1.2-10.9-4.5v-11c0-2.1-1.7-3.9-3.9-3.9h-14c-2.1,0-3.9,1.7-3.9,3.9v11c0,5.7-6.9,8.5-10.9,4.5l-7.7-7.7
	c-1.5-1.5-4-1.5-5.5,0l-9.9,9.9c-1.5,1.5-1.5,4,0,5.5l7.7,7.7c4,4,1.2,10.9-4.5,10.9h-11c-2.1,0-3.9,1.7-3.9,3.9v14
	c0,2.1,1.7,3.9,3.9,3.9h11c5.7,0,8.5,6.9,4.5,10.9l-7.7,7.7c-1.5,1.5-1.5,4,0,5.5l9.9,9.9c1.5,1.5,4,1.5,5.5,0l7.7-7.7
	c4-4,10.9-1.2,10.9,4.5v11c0,2.1,1.7,3.9,3.9,3.9h14c2.1,0,3.9-1.7,3.9-3.9v-11c0-5.7,6.9-8.5,10.9-4.5l7.7,7.7c1.5,1.5,4,1.5,5.5,0
	l9.9-9.9c1.5-1.5,1.5-4,0-5.5l-7.7-7.7c-4-4-1.2-10.9,4.5-10.9h11c2.1,0,3.9-1.7,3.9-3.9v-14C154,71,152.3,69.3,150.1,69.3z"/>
<circle class="st0" cx="97.6" cy="80.1" r="17.3"/>
	<path class="st1" d="M51.7,117c-2.7,0-5.2-1-7.1-2.9c-1.9-1.9-2.9-4.4-2.9-7.1s1-5.2,2.9-7.1l9.6-9.6H17.5c-5.5,0-10-4.5-10-10
		c0-5.5,4.5-10,10-10h36.7l-9.6-9.6c-1.9-1.9-2.9-4.4-2.9-7.1s1-5.2,2.9-7.1c1.9-1.9,4.4-2.9,7.1-2.9s5.2,1,7.1,2.9l26.9,26.9
		l0.1,0.1c0.3,0.4,0.6,0.8,0.9,1.2c0.2,0.3,0.3,0.5,0.5,0.8c0.2,0.3,0.3,0.6,0.5,0.9c0.1,0.3,0.2,0.6,0.3,1c0.1,0.3,0.2,0.6,0.2,0.9
		c0.3,1.3,0.3,2.6,0,3.9c-0.1,0.3-0.1,0.6-0.2,0.9c-0.1,0.4-0.2,0.7-0.3,1c-0.1,0.3-0.3,0.6-0.5,0.9c-0.1,0.3-0.3,0.6-0.5,0.8
		c-0.4,0.6-0.8,1.1-1.2,1.5l-26.6,26.6C56.9,116,54.4,117,51.7,117z"/>
	<path class="st2" d="M51.7,48.8c1.3,0,2.6,0.5,3.5,1.5l26.6,26.6c0,0,0,0,0,0c0.2,0.2,0.4,0.5,0.6,0.7c0.1,0.1,0.1,0.3,0.2,0.4
		c0.1,0.2,0.2,0.3,0.2,0.5c0.1,0.2,0.1,0.3,0.2,0.5c0,0.1,0.1,0.3,0.1,0.4c0.1,0.6,0.1,1.3,0,2c0,0.1-0.1,0.3-0.1,0.4
		c-0.1,0.2-0.1,0.3-0.2,0.5c-0.1,0.2-0.2,0.3-0.2,0.5c-0.1,0.1-0.1,0.3-0.2,0.4c-0.2,0.3-0.4,0.5-0.6,0.8l-26.6,26.6
		c-1,1-2.3,1.5-3.5,1.5c-1.3,0-2.6-0.5-3.5-1.5c-2-2-2-5.1,0-7.1l18.1-18.1H17.5c-2.8,0-5-2.2-5-5c0-2.8,2.2-5,5-5h48.8L48.2,57.3
		c-2-2-2-5.1,0-7.1C49.2,49.2,50.5,48.8,51.7,48.8 M51.7,38.8c-4,0-7.8,1.6-10.6,4.4c-5.9,5.9-5.9,15.4,0,21.2l1,1H17.5
		c-8.3,0-15,6.7-15,15s6.7,15,15,15h24.6l-1,1c-2.8,2.8-4.4,6.6-4.4,10.6c0,4,1.6,7.8,4.4,10.6c2.8,2.8,6.6,4.4,10.6,4.4
		c4,0,7.8-1.6,10.6-4.4L89,91c0.7-0.7,1.3-1.5,1.9-2.3c0.3-0.5,0.6-1,0.7-1.2c0.2-0.3,0.4-0.8,0.7-1.4c0.3-0.6,0.4-1.2,0.5-1.5
		c0.1-0.3,0.2-0.8,0.4-1.3c0.4-1.9,0.4-3.9,0-5.9c-0.1-0.5-0.2-1-0.3-1.3c-0.1-0.3-0.2-0.9-0.5-1.5c-0.3-0.6-0.5-1.1-0.7-1.4
		c-0.1-0.3-0.4-0.7-0.7-1.2c-0.4-0.7-0.9-1.3-1.5-1.9c-0.1-0.1-0.2-0.3-0.4-0.4L62.3,43.1C59.5,40.3,55.7,38.8,51.7,38.8L51.7,38.8z
		"/>
</svg>
