<svg id="license1" xmlns="http://www.w3.org/2000/svg" viewBox="0 0 160 160">
<style type="text/css">
	.st0{fill:none;stroke:#0093cf;stroke-width:4;stroke-linecap:round;stroke-linejoin:round;stroke-miterlimit:10;}
	.st1{fill:#0093cf;}
</style>
<polygon class="st0" points="111,36.4 77.5,3 3.5,3 3.5,141.5 111,141.5 "/>
<polyline class="st0" points="77.5,3 77.5,36.4 111,36.4 "/>
<line class="st0" x1="48.9" y1="53.2" x2="87.1" y2="53.2"/>
<polyline class="st0" points="41.7,46 29.8,55.5 25,50.8 "/>
<line class="st0" x1="48.9" y1="79.4" x2="87.1" y2="79.4"/>
<polyline class="st0" points="41.7,72.3 29.8,81.8 25,77 "/>
<line class="st0" x1="48.9" y1="105.7" x2="87.1" y2="105.7"/>
<polyline class="st0" points="41.7,98.5 29.8,108.1 25,103.3 "/>
<path class="st1" d="M129.6,124.6c-8.5-19.8-21.1-41-21.1-41c-17.4,18.4-23.8,37.6-24.7,42.8c-3.8,29.6,22.5,31.1,22.5,31.1
	s1.8,0.2,3.9,0C136.7,153.1,131.8,130.5,129.6,124.6z M100.5,123.4c-0.7-0.1-1.3-0.2-1.3-0.2s-8.8-1.9-5.9-11.7
	c0.6-1.7,3.8-7.8,10.6-13c0,0,3.1,7.8,4.8,14.9C109.2,115.5,109.6,123.4,100.5,123.4z"/>
</svg>
