<svg version="1.1" id="taxmap" xmlns="http://www.w3.org/2000/svg" xmlns:xlink="http://www.w3.org/1999/xlink" x="0px" y="0px"
	 viewBox="0 0 160 160" style="enable-background:new 0 0 160 160;" xml:space="preserve">
<style type="text/css">
	.st0{fill:none;stroke:#ffffff;stroke-width:5;stroke-linecap:round;stroke-miterlimit:10;}
</style>
<path class="st0" d="M100.9,120.2L100.9,120.2c0-7.5,5.9-13.6,13.2-13.6c7.2,0,13.1,6.1,13.1,13.6"/>
<path class="st0" d="M77.1,118.9v-5.1h12.2c0.7-2.8,1.8-5.4,3.2-7.8l-8.7-9l9.5-9.7l9,9.3c1.7-0.9,3.5-1.7,5.4-2.2V80.8h13.4v13.6
	c2.3,0.6,4.5,1.6,6.5,2.8l9.6-9.9l9.4,9.8l-9.8,10c1,1.9,1.8,3.9,2.4,6.1h14.1v11H18.2"/>
<path class="st0" d="M127.2,120.2c0-7.5-5.9-13.5-13.1-13.6c-7.3,0-13.1,6-13.2,13.5l0,0"/>
<line class="st0" x1="80.1" y1="39.1" x2="113.4" y2="39.1"/>
<line class="st0" x1="79.7" y1="38.8" x2="79.7" y2="5.5"/>
<polyline class="st0" points="115.4,69.4 115.4,37.1 82.1,3.8 4.1,3.8 4.1,154.3 115.4,154.3 115.4,134.7 "/>
<rect x="18.2" y="42.7" class="st0" width="43.2" height="36.4"/>
<line class="st0" x1="50.6" y1="113.4" x2="18.7" y2="113.4"/>
<line class="st0" x1="60.9" y1="91.5" x2="18.7" y2="91.5"/>
<line class="st0" x1="60.9" y1="102.9" x2="18.7" y2="102.9"/>
</svg>
