<?xml version="1.0" encoding="utf-8"?>
<!-- Generator: Adobe Illustrator 19.2.1, SVG Export Plug-In . SVG Version: 6.00 Build 0)  -->
<svg version="1.1" id="learn-more" xmlns="http://www.w3.org/2000/svg" xmlns:xlink="http://www.w3.org/1999/xlink" x="0px" y="0px"
	 viewBox="0 0 1792 1792" style="enable-background:new 0 0 1792 1792;" xml:space="preserve">
<style type="text/css">
	.st0{fill:#0093CF;}
</style>
<path class="st0" d="M839,1401l454-454c12.7-12.7,19-27.7,19-45s-6.3-32.3-19-45L839,403c-12.7-12.7-27.7-19-45-19s-32.3,6.3-45,19
	L647,505c-12.7,12.7-19,27.7-19,45s6.3,32.3,19,45l307,307l-307,307c-12.7,12.7-19,27.7-19,45s6.3,32.3,19,45l102,102
	c12.7,12.7,27.7,19,45,19S826.3,1413.7,839,1401z M1658,902c0,139.3-34.3,267.8-103,385.5s-161.8,210.8-279.5,279.5
	s-246.2,103-385.5,103s-267.8-34.3-385.5-103S293.7,1405.2,225,1287.5S122,1041.3,122,902s34.3-267.8,103-385.5
	S386.8,305.7,504.5,237S750.7,134,890,134s267.8,34.3,385.5,103s210.8,161.8,279.5,279.5S1658,762.7,1658,902z"/>
</svg>
