<svg fill="#ffffff" id="twitter" xmlns="http://www.w3.org/2000/svg" viewBox="0 0 160 160">
	<path d="M1.9,1.8v156.7h156.7V1.8H1.9z M119,61.5c0,0.8,0.1,1.6,0.1,2.4c0,24.8-18.9,53.4-53.4,53.4
		c-10.6,0-20.5-3.1-28.8-8.4c1.5,0.2,3,0.3,4.5,0.3c8.8,0,16.9-3,23.3-8c-8.2-0.2-15.2-5.6-17.5-13c1.1,0.2,2.3,0.3,3.5,0.3
		c1.7,0,3.4-0.2,4.9-0.7c-8.6-1.7-15.1-9.3-15.1-18.4v-0.2c2.5,1.4,5.4,2.3,8.5,2.4c-5-3.4-8.4-9.1-8.4-15.6c0-3.4,0.9-6.7,2.5-9.4
		C52.4,57.7,66.3,65.2,81.9,66c-0.3-1.4-0.5-2.8-0.5-4.3c0-10.4,8.4-18.8,18.8-18.8c5.4,0,10.3,2.3,13.7,5.9
		c4.3-0.8,8.3-2.4,11.9-4.6c-1.4,4.4-4.4,8.1-8.3,10.4c3.8-0.5,7.4-1.5,10.8-3C125.8,55.5,122.6,58.8,119,61.5z"/>
</svg>
