<svg xmlns="http://www.w3.org/2000/svg" viewBox="0 0 160 160"><path d="M 61.699,1.599 C 55.545,1.599 50.5,6.646 50.5,12.800 c 0,0.237 0.118,0.461 0.132,0.699 L 49,13.5 c -2.273,0 -4.375,0.698 -6,1.966 -1.057,0.825 -1.917,1.943 -2.394,3.232 l -36.105,0 a 2.500,2.500 0 0 0 -2.5,2.5 L 2,155 a 2.500,2.500 0 0 0 2.5,2.5 l 113.800,0 a 2.500,2.500 0 0 0 2.5,-2.5 l 0,-133.800 a 2.500,2.500 0 0 0 -2.5,-2.5 l -35.494,0 C 82.334,17.436 81.480,16.344 80.453,15.529 78.819,14.232 76.698,13.5 74.400,13.5 l -1.632,0 c 0.014,-0.237 0.132,-0.461 0.132,-0.699 0,-6.154 -5.047,-11.201 -11.201,-11.201 z m 0,5 c 3.445,0 6.201,2.755 6.201,6.201 0,0.796 -0.149,1.591 -0.421,2.271 A 2.500,2.500 0 0 0 69.800,18.5 l 4.599,0 c 1.202,0 2.279,0.416 2.945,0.945 0.666,0.528 0.871,1.032 0.855,1.462 A 2.500,2.500 0 0 0 78.199,21 l 0,0.199 0,12 c 0,0.485 -0.224,0.985 -0.875,1.492 -0.650,0.507 -1.697,0.908 -2.923,0.908 l -25.400,0 c -1.226,0 -2.273,-0.401 -2.923,-0.908 -0.127,-0.099 -0.227,-0.199 -0.324,-0.298 -0.324,-0.369 -0.451,-0.733 -0.451,-1.091 l 0,-12.101 a 2.500,2.500 0 0 0 -0.068,-0.568 c 0.073,-0.400 0.313,-0.808 0.843,-1.222 C 46.726,18.901 47.773,18.5 49,18.5 l 4.599,0 a 2.500,2.500 0 0 0 2.322,-3.427 C 55.649,14.392 55.5,13.597 55.5,12.800 55.5,9.354 58.253,6.599 61.699,6.599 Z M 7,23.699 l 33.199,0 0,9.5 c 0,1.945 0.909,3.688 2.232,4.943 0.213,0.209 0.433,0.409 0.667,0.591 1.624,1.267 3.726,1.964 6,1.964 l 25.400,0 c 2.273,0 4.375,-0.697 6,-1.964 1.624,-1.267 2.800,-3.219 2.800,-5.433 l 0,-9.601 32.499,0 0,128.800 L 7,152.5 7,23.699 Z m 13.400,6.101 a 2.500,2.500 0 0 0 -2.5,2.5 l 0,112.798 a 2.500,2.500 0 0 0 2.5,2.5 l 82.699,0 a 2.500,2.500 0 0 0 2.5,-2.5 l 0,-112.798 a 2.500,2.500 0 0 0 -2.5,-2.5 l -15.400,0 a 2.500,2.500 0 1 0 0,5 l 12.900,0 0,107.798 -77.699,0 0,-107.798 12.5,0 a 2.500,2.500 0 1 0 0,-5 l -15,0 z M 32.5,49.199 a 2.500,2.500 0 0 0 -2.5,2.5 l 0,30.601 a 2.500,2.500 0 0 0 2.5,2.5 l 58.400,0 a 2.500,2.500 0 0 0 2.5,-2.5 l 0,-30.601 a 2.500,2.500 0 0 0 -2.5,-2.5 l -58.400,0 z m 2.5,5 53.400,0 0,25.601 -53.400,0 0,-25.601 z m 6.099,41 a 2.500,2.500 0 1 0 0,5.000 l 49.800,0 a 2.500,2.500 0 1 0 0,-5.000 l -49.800,0 z M 32.5,105 a 2.500,2.500 0 1 0 0,5 l 58.400,0 a 2.500,2.500 0 1 0 0,-5 L 32.5,105 Z m 0,9.5 a 2.500,2.500 0 1 0 0,5 l 58.400,0 a 2.500,2.500 0 1 0 0,-5 L 32.5,114.5 Z m 0,10.300 a 2.500,2.500 0 1 0 0,5 l 58.400,0 a 2.500,2.500 0 1 0 0,-5 l -58.400,0 z" /></svg>
