<svg viewBox="0 0 160 160"><path class="st0" d="M115.6,6c3,0.1,7.4,0.9,9.6,2.3C96.1,37.4,67.1,66.5,38,95.7c-0.1,0-0.2,0-0.3,0c-4.1,0.2-8.2,0.5-12.3,0.8 C55.5,66.3,85.6,36.1,115.6,6z M134,12.5c5.3,4.8,10.6,9.6,15.9,14.4c-10.3,10.3-20.7,20.7-31,31c-19.6,19.6-39.1,39.3-58.7,58.9 c-3-0.4-11-1.3-12.8-3.3c-0.9-3.9-1.8-7.7-2.8-11.6C74.4,72.2,104.2,42.3,134,12.5z M154.4,35.7c1.3,1.4,2.9,7.3,1.8,9.8 c-29.6,29.7-59.3,59.5-88.9,89.2c-0.1,0-0.2,0-0.3,0c-0.2-3.7-0.5-7.4-0.8-11.1C95.6,94.3,125,65,154.4,35.7z M31,105.2 c1.8,0,3.5,0,5.3,0c1.1,5.5,2.2,11.1,3.3,16.6c6,1.3,11.9,2.5,17.9,3.8c0.3,5.5,0.5,10.9,0.8,16.4c-8.9,2.8-17.8,5.5-26.7,8.3 c-3.8-7.9-11.4-17.1-20.2-19.9c2.8-8.2,5.5-16.5,8.3-24.7C23.4,105.6,27.2,105.4,31,105.2z M8.3,139.2c6,2.3,11.6,8.3,14.4,13.9 c-2.7,0.8-5.4,1.7-8.1,2.5C3,157.8,5.9,144.9,8.3,139.2z"/></svg>
