<svg xmlns="http://www.w3.org/2000/svg" viewBox="0 0 160 160"><path d="M 79.900 0.699 C 36.321 0.699 1 36.020 1 79.599 C 1 123.178 36.321 158.5 79.900 158.5 C 123.482 158.5 158.800 123.081 158.800 79.599 A 2.000 2.000 0 1 0 154.800 79.599 C 154.800 120.449 122.067 153.715 81.300 154.464 L 81.300 137.199 C 81.316 136.071 80.397 135.154 79.269 135.171 C 78.166 135.189 77.285 136.096 77.300 137.199 L 77.300 154.433 C 37.090 153.064 5 120.148 5 79.599 C 5 38.854 37.416 5.867 77.900 4.800 L 77.900 24 A 2.000 2.000 0 1 0 81.900 24 L 81.900 2.699 A 2.000 2.000 0 0 0 79.900 0.699 z M 79.199 39.5 C 66.927 39.5 57 49.427 57 61.699 C 57 67.787 59.575 73.234 63.578 77.253 C 58.176 80.315 54.400 85.928 54.400 92.599 L 54.400 102.699 A 2.000 2.000 0 0 0 56.400 104.699 L 102 104.699 A 2.000 2.000 0 0 0 104 102.699 L 104 92.599 C 104 85.928 100.221 80.317 94.820 77.255 C 98.823 73.236 101.400 67.788 101.400 61.699 C 101.400 49.415 91.380 39.5 79.199 39.5 z M 79.199 43.5 C 89.218 43.5 97.400 51.582 97.400 61.699 C 97.400 67.563 94.608 72.778 90.279 76.115 A 2.000 2.000 0 0 0 90.822 79.582 C 96.155 81.505 100 86.549 100 92.599 L 100 100.699 L 91.599 100.699 L 91.599 92 A 2.000 2.000 0 0 0 89.570 89.972 A 2.000 2.000 0 0 0 87.599 92 L 87.599 100.699 L 71.099 100.699 L 71.099 92 A 2.000 2.000 0 0 0 69.070 89.972 A 2.000 2.000 0 0 0 67.099 92 L 67.099 100.699 L 58.400 100.699 L 58.400 92.599 C 58.400 86.549 62.244 81.505 67.578 79.582 A 2.000 2.000 0 0 0 68.121 76.115 C 63.791 72.778 61 67.563 61 61.699 C 61 51.570 69.070 43.5 79.199 43.5 z M 52.599 54.599 C 40.316 54.599 30.400 64.619 30.400 76.800 C 30.400 82.889 32.976 88.334 36.978 92.353 C 31.577 95.414 27.800 101.028 27.800 107.699 L 27.800 117.800 A 2.000 2.000 0 0 0 29.800 119.800 L 42.175 119.800 A 2.000 2.000 0 0 0 42.824 119.800 L 62.675 119.800 A 2.000 2.000 0 0 0 63.324 119.800 L 75.300 119.800 A 2.000 2.000 0 0 0 77.300 117.800 L 77.300 110.699 L 77.300 107.699 A 2.000 2.000 0 1 0 73.300 107.699 L 73.300 110.699 L 73.300 115.800 L 65 115.800 L 65 107.199 A 2.000 2.000 0 0 0 62.970 105.171 A 2.000 2.000 0 0 0 61 107.199 L 61 115.800 L 44.5 115.800 L 44.5 107.199 A 2.000 2.000 0 0 0 42.470 105.171 A 2.000 2.000 0 0 0 40.5 107.199 L 40.5 115.800 L 31.800 115.800 L 31.800 107.699 C 31.800 101.649 35.645 96.605 40.978 94.681 A 2.000 2.000 0 0 0 41.521 91.216 C 37.192 87.879 34.400 82.664 34.400 76.800 C 34.400 66.781 42.482 58.599 52.599 58.599 A 2.000 2.000 0 1 0 52.599 54.599 z M 107.199 54.599 A 2.000 2.000 0 1 0 107.199 58.599 C 117.315 58.599 125.400 66.781 125.400 76.800 C 125.400 82.664 122.608 87.879 118.279 91.216 A 2.000 2.000 0 0 0 118.822 94.681 C 124.155 96.605 128 101.649 128 107.699 L 128 115.800 L 119.300 115.800 L 119.300 107.199 A 2.000 2.000 0 0 0 117.269 105.171 A 2.000 2.000 0 0 0 115.300 107.199 L 115.300 115.800 L 98.800 115.800 L 98.800 107.199 A 2.000 2.000 0 0 0 96.769 105.171 A 2.000 2.000 0 0 0 94.800 107.199 L 94.800 115.800 L 86.400 115.800 L 86.400 110.699 L 86.400 107.699 A 2.000 2.000 0 1 0 82.400 107.699 L 82.400 110.699 L 82.400 117.800 A 2.000 2.000 0 0 0 84.400 119.800 L 96.476 119.800 A 2.000 2.000 0 0 0 97.125 119.800 L 116.976 119.800 A 2.000 2.000 0 0 0 117.625 119.800 L 130 119.800 A 2.000 2.000 0 0 0 132 117.800 L 132 107.699 C 132 101.029 128.222 95.416 122.822 92.355 C 126.824 88.336 129.400 82.889 129.400 76.800 C 129.400 64.619 119.482 54.599 107.199 54.599 z " /></svg>
