<svg xmlns="http://www.w3.org/2000/svg" viewBox="0 0 160 160"><path d="M115.9,13.8c0.3-0.1,0.5-0.3,0.8-0.4C106.1,6.8,93.6,3,80.2,3C65.6,3,51.9,7.6,40.7,15.4  c0.1,0.3,0.1,0.6,0.3,0.8c4.7,10.2,10.8,27.6,21.3,31.5c5.1,1.9,9.7,1.2,14.5,3.6c0.5,0.3,1.3,0.8,1.6,1.3c2.4,3.6,1,8.8,3.5,10.1  c1.9,1,3,3.1,2.2,5.1c-3.3,8.2-0.5,17.6,7.3,24c5.5,4.5,0.9,15-3.7,23.2c-1.6,2.9,1.3,6.3,4.5,5.2c5-1.8,9.2-4.4,14-8.5  c7-6,8.5-12.5,15.4-17.6c0.1-0.1,0.1-0.1,0.2-0.2c1.8-5.2,7.3-16.5,1.7-19.4c-5.2-2.7-7.1-10.5-12.2-15.8c-0.6-0.6-1.4-0.9-2.2-1  c-6.2-0.8-9-5.5-13.1-2.4c-3.1,2.3-6.6,0.9-7.7-2.8c-0.4-1.2-1-2.3-3.2-3c-1.7-0.5-2.5-2.5-1.9-4.1c0,0,0,0,0-0.1  c0.8-2.2-3.8-1.9-6.2-1.5c-0.7,0.1,1.6-2.6,0.8-2.1c-2.9,1.7-6.5-1.2-6.3-4.6c0.2-3.4,0.8-3.2,6.6-3.9c6.3-2.9,9.3-0.8,9.1,6.4  c3.9,0.6,5.2-1.1,4.1-5.1c-0.3-1.2-0.1-2.5,0.7-3.4C99,21.6,105,17.5,115.9,13.8z" /><path d="m 150.42864,88.424635 c 1.15881,-5.123421 1.77058,-10.453211 1.77058,-15.924635 0,-39.734892 -32.26511,-72.00000172 -72.000001,-72 -39.734891,0 -72.0000002,32.26511 -72.0000002,72 0,5.331169 0.5808099,10.527873 1.6825441,15.530227 l 5.1989501,0.318207 C 13.850863,83.268218 13.199219,77.960928 13.199219,72.5 c 0,-37.03269 29.96731,-67 67,-67 37.032691,-1.6e-6 67.000001,29.967309 67.000001,67 0,5.619552 -0.69005,11.076412 -1.99013,16.290554 z" /><path d="M 5.0898438,84.402344 A 2.50025,2.50025 0 0 0 2.5097656,87.125 C 6.1238552,127.29302 39.922781,158.80078 81,158.80078 c 41.07722,0 74.87614,-31.50776 78.49023,-71.67578 a 2.50025,2.50025 0 0 0 -3.04687,-2.662109 c -9.11899,2.081507 -19.04262,3.867579 -29.66797,5.257812 a 2.50025,2.50025 0 0 0 -2.10351,1.886719 c -0.87086,3.570512 -2.51894,7.420319 -3.53126,10.326168 -3.81169,2.94905 -6.30491,6.26391 -8.53906,9.45899 -2.34186,3.34911 -4.51115,6.55373 -8.04101,9.61914 -5.127447,4.45023 -9.382815,7.02806 -14.583988,8.92383 -0.775859,0.26085 -1.314447,0.005 -1.720703,-0.4668 -0.408631,-0.47421 -0.56553,-0.95316 -0.177734,-1.64258 2.603269,-4.59455 5.22462,-9.86771 6.451172,-14.92383 0.613538,-2.52914 0.889678,-5.02344 0.503906,-7.41406 -0.385772,-2.39061 -1.537896,-4.70686 -3.568359,-6.337889 -1.971594,-1.616625 -3.627247,-3.538302 -5.03125,-5.503907 a 2.50025,2.50025 0 0 0 -2.033203,-1.046875 l -3.400391,0 c -28.022695,0 -54.048583,-2.987318 -75.4140625,-8.130859 A 2.50025,2.50025 0 0 0 5.0898438,84.402344 Z M 154.04297,90.048828 C 149.11998,126.04257 118.35508,153.80078 81,153.80078 43.646247,153.80078 12.881684,126.04461 7.9570312,90.052734 29.103675,94.817075 54.085026,97.599609 81,97.599609 l 2.203125,0 c 1.436485,1.883203 3.073096,3.766301 5.113281,5.435551 a 2.50025,2.50025 0 0 0 0.01758,0.0137 c 1.019538,0.81897 1.530694,1.79257 1.763672,3.23633 0.232979,1.44376 0.08373,3.32914 -0.427734,5.4375 -1.022924,4.21672 -3.449677,9.24046 -5.945313,13.64453 a 2.50025,2.50025 0 0 0 -0.0039,0.008 c -1.412204,2.51059 -0.868322,5.48164 0.748047,7.35742 1.616369,1.87579 4.425788,2.86311 7.142578,1.93164 a 2.50025,2.50025 0 0 0 0.04297,-0.0137 c 5.783539,-2.1031 10.722073,-5.12309 16.183593,-9.86328 a 2.50025,2.50025 0 0 0 0.002,0 c 4.07014,-3.53459 6.55124,-7.22841 8.85938,-10.5293 2.30814,-3.30088 4.42307,-6.19681 7.88281,-8.74609 l -0.0117,0.004 c 0.14738,-0.10303 0.3159,-0.1909 0.43555,-0.31054 0.43034,-0.43034 0.79492,-1.02097 0.79492,-1.9043 l -0.1289,0.78906 c 0.71278,-2.13835 2.22814,-5.831694 3.33593,-9.654293 8.8648,-1.201246 17.19019,-2.694589 25.03516,-4.386719 z" /></svg>
