<svg xmlns="http://www.w3.org/2000/svg" viewBox="0 0 160 160"><path d="M 112 43.900 A 2.5 2.5 0 0 0 109.5 46.400 L 109.5 137.800 A 2.5 2.5 0 0 0 112 140.300 L 139.400 140.300 A 2.5 2.5 0 0 0 141.900 137.800 L 141.900 46.400 A 2.5 2.5 0 0 0 139.400 43.900 L 112 43.900 z M 114.5 48.900 L 136.900 48.900 L 136.900 135.300 L 114.5 135.300 L 114.5 128.599 L 125.900 128.599 A 2.5 2.5 0 0 0 125.900 123.599 L 114.5 123.599 L 114.5 111.699 L 125.699 111.699 A 2.5 2.5 0 0 0 125.699 106.699 L 114.5 106.699 L 114.5 94.199 L 125.699 94.199 A 2.5 2.5 0 0 0 125.699 89.199 L 114.5 89.199 L 114.5 78.900 L 125.699 78.900 A 2.5 2.5 0 0 0 125.699 73.900 L 114.5 73.900 L 114.5 61.5 L 125.699 61.5 A 2.5 2.5 0 0 0 125.699 56.5 L 114.5 56.5 L 114.5 48.900 z M 71.400 62.099 A 2.5 2.5 0 0 0 68.900 64.599 L 68.900 137.800 A 2.5 2.5 0 0 0 71.400 140.300 L 98.800 140.300 A 2.5 2.5 0 0 0 101.298 137.800 L 101.298 64.599 A 2.5 2.5 0 0 0 98.800 62.099 L 71.400 62.099 z M 73.900 67.099 L 96.300 67.099 L 96.300 135.300 L 73.900 135.300 L 73.900 128.599 L 85.498 128.599 A 2.5 2.5 0 0 0 85.498 123.599 L 73.900 123.599 L 73.900 116.099 L 85.199 116.099 A 2.5 2.5 0 0 0 85.199 111.099 L 73.900 111.099 L 73.900 103.199 L 85.199 103.199 A 2.5 2.5 0 0 0 85.199 98.199 L 73.900 98.199 L 73.900 91.900 L 85.199 91.900 A 2.5 2.5 0 0 0 85.199 86.900 L 73.900 86.900 L 73.900 78.900 L 85.199 78.900 A 2.5 2.5 0 0 0 85.199 73.900 L 73.900 73.900 L 73.900 67.099 z M 29.199 80.400 A 2.5 2.5 0 0 0 26.699 82.900 L 26.699 137.898 A 2.5 2.5 0 0 0 29.199 140.398 L 56.599 140.398 A 2.5 2.5 0 0 0 59.099 137.898 L 59.099 82.900 A 2.5 2.5 0 0 0 56.599 80.400 L 29.199 80.400 z M 31.699 85.400 L 54.099 85.400 L 54.099 135.398 L 31.699 135.398 L 31.699 131.099 L 42.998 131.099 A 2.5 2.5 0 0 0 42.998 126.099 L 31.699 126.099 L 31.699 119.099 L 42.998 119.099 A 2.5 2.5 0 0 0 42.998 114.099 L 31.699 114.099 L 31.699 108.599 L 42.998 108.599 A 2.5 2.5 0 0 0 42.998 103.599 L 31.699 103.599 L 31.699 96.599 L 42.998 96.599 A 2.5 2.5 0 0 0 42.998 91.599 L 31.699 91.599 L 31.699 85.400 z " /><path d="M 10.462 7.765 A 2.5 2.5 0 0 0 10.095 7.800 L 4.199 7.800 A 2.5 2.5 0 1 0 4.199 12.798 L 8 12.798 L 8 137.800 A 2.5 2.5 0 0 0 10.5 140.300 L 153.699 140.300 L 153.699 144.199 A 2.5 2.5 0 0 0 158.699 144.199 L 158.699 131.5 A 2.5 2.5 0 0 0 156.162 128.964 A 2.5 2.5 0 0 0 153.699 131.5 L 153.699 135.300 L 13 135.300 L 13 12.798 L 16.900 12.798 A 2.5 2.5 0 1 0 16.900 7.800 L 10.916 7.800 A 2.5 2.5 0 0 0 10.462 7.765 z " /><path d="M 125.699 1.400 C 120.703 1.400 116.599 5.502 116.599 10.498 C 116.599 11.311 116.718 12.097 116.921 12.849 L 91.253 28.531 C 89.628 27.028 87.468 26.099 85.099 26.099 C 80.147 26.099 76.077 30.132 76.005 35.068 L 50.732 41.707 C 49.143 39.020 46.223 37.199 42.900 37.199 C 37.904 37.199 33.800 41.304 33.800 46.300 C 33.800 51.296 37.904 55.398 42.900 55.398 C 47.813 55.399 51.854 51.429 51.988 46.546 L 77.330 39.892 C 78.931 42.523 81.818 44.300 85.099 44.300 C 90.095 44.300 94.197 40.195 94.197 35.199 C 94.197 34.367 94.075 33.564 93.863 32.796 L 119.505 17.130 C 121.135 18.654 123.312 19.597 125.699 19.597 C 130.695 19.597 134.800 15.494 134.800 10.498 C 134.800 5.502 130.695 1.400 125.699 1.400 z M 125.699 6.400 C 127.992 6.400 129.800 8.204 129.800 10.498 C 129.800 12.791 127.993 14.597 125.699 14.597 C 123.406 14.597 121.599 12.792 121.599 10.498 C 121.599 8.205 123.405 6.400 125.699 6.400 z M 85.099 31.099 C 86.465 31.099 87.647 31.747 88.388 32.75 A 2.500 2.500 0 0 0 88.775 33.392 C 89.038 33.936 89.197 34.542 89.197 35.197 C 89.197 37.490 87.393 39.298 85.099 39.298 C 82.805 39.299 81 37.493 81 35.199 C 81 32.906 82.805 31.099 85.099 31.099 z M 42.900 42.199 C 44.377 42.199 45.644 42.954 46.365 44.101 A 2.5 2.5 0 0 0 46.972 46.560 C 46.839 48.725 45.105 50.398 42.900 50.398 C 40.607 50.398 38.800 48.594 38.800 46.300 C 38.800 44.007 40.606 42.199 42.900 42.199 z " /></svg>
