<svg xmlns="http://www.w3.org/2000/svg" viewBox="0 0 160 160"><path d="M 36.474609 0.99609375 C 35.783143 0.99120417 35.092315 1.0411619 34.410156 1.1445312 C 31.680124 1.5582212 29.082072 2.8313002 27.066406 4.90625 L 19.886719 12.085938 C 8.0075537 23.865186 4.7918382 36.922334 7.7382812 49.664062 C 10.508615 61.644219 18.454686 73.326814 29.033203 84.320312 C 12.994869 87.993071 1 102.35982 1 119.5 C 0.99999883 139.41379 17.185819 155.59961 37.099609 155.59961 C 54.227932 155.59961 68.586471 143.62125 72.271484 127.59961 L 72.785156 128.11328 C 84.3844 139.71253 96.794284 148.51318 109.54883 151.47266 C 122.30337 154.43213 135.38299 151.24592 147.21484 139.41406 L 154.37305 132.25391 C 158.61981 128.24308 159.5667 121.92652 156.87305 116.77344 A 2.0002 2.0002 0 0 0 156.86719 116.76367 C 153.83981 111.04529 147.36346 105.59043 141.61914 101.32031 C 135.87482 97.050202 130.81445 94.076172 130.81445 94.076172 A 2.0002 2.0002 0 0 0 130.80078 94.068359 C 128.27958 92.611664 125.46154 91.739609 122.68164 91.957031 C 119.98515 92.16793 117.33328 93.604843 115.71484 96.275391 C 115.66992 96.32926 114.12408 98.184302 112.34375 100.2207 C 111.44076 101.25358 110.49101 102.31859 109.68555 103.17383 C 108.88107 104.02802 108.08193 104.74027 108.06836 104.75 L 108.06641 104.75195 C 104.56995 107.12726 101.42083 108.13639 98.423828 107.89453 C 95.423794 107.65242 92.384313 106.15775 89.113281 102.88672 A 2.0002 2.0002 0 0 0 89.109375 102.88086 L 72.712891 86.583984 L 56.414062 70.285156 C 53.143031 67.014124 51.648358 63.976597 51.40625 60.976562 C 51.164386 57.979557 52.173522 54.830442 54.548828 51.333984 L 54.550781 51.332031 C 54.560481 51.318461 55.270809 50.51932 56.125 49.714844 C 56.980237 48.909383 58.045248 47.959634 59.078125 47.056641 C 61.114533 45.276308 62.969568 43.730467 63.023438 43.685547 C 65.694096 42.067111 67.132851 39.415243 67.34375 36.71875 C 67.561172 33.938853 66.689117 31.120813 65.232422 28.599609 A 2.0002 2.0002 0 0 0 65.224609 28.585938 C 65.224609 28.585938 62.250584 23.525572 57.980469 17.78125 C 53.712106 12.039413 48.258703 5.5661332 42.542969 2.5371094 L 42.539062 2.5351562 C 40.633237 1.516596 38.54901 1.0107625 36.474609 0.99609375 z M 36.449219 5.0019531 C 37.890109 5.011025 39.337802 5.3592369 40.65625 6.0644531 A 2.0002 2.0002 0 0 0 40.664062 6.0683594 C 45.145677 8.4409785 50.639647 14.612291 54.769531 20.167969 C 58.893055 25.71509 61.760689 30.588487 61.769531 30.603516 C 62.911319 32.581196 63.487958 34.712278 63.355469 36.40625 C 63.222891 38.101353 62.583841 39.36039 60.816406 40.359375 A 2.0002 2.0002 0 0 0 60.519531 40.564453 C 60.519531 40.564453 58.554561 42.20091 56.445312 44.044922 C 55.39069 44.966928 54.299451 45.939445 53.382812 46.802734 C 52.466175 47.666023 51.793938 48.278065 51.251953 49.066406 A 2.0002 2.0002 0 0 0 51.246094 49.076172 C 49.069189 52.277503 47.731275 55.542866 47.447266 58.833984 C 44.8204 54.235627 42.561155 48.644026 41.888672 42.289062 A 2.0002 2.0002 0 0 0 39.855469 40.472656 A 2.0002 2.0002 0 0 0 37.910156 42.710938 C 40.011381 62.567511 55.730469 75.345703 55.730469 75.345703 A 2.0003777 2.0003777 0 0 0 56.005859 75.533203 L 69.886719 89.414062 A 2.0002 2.0002 0 0 0 69.890625 89.417969 L 86.291016 105.71875 C 86.340046 105.76776 86.390342 105.80898 86.439453 105.85742 A 2.0002 2.0002 0 0 0 86.890625 106.51953 C 86.890625 106.51953 99.732282 119.31185 119.40039 121.28906 A 2.0002 2.0002 0 1 0 119.80078 117.31055 C 112.58185 116.58483 106.3638 114.27373 101.4668 111.75781 C 104.45306 111.32376 107.41491 110.03301 110.32422 108.05469 A 2.0002 2.0002 0 0 0 110.33398 108.04883 C 111.12233 107.50684 111.73241 106.83265 112.5957 105.91602 C 113.45899 104.99938 114.43346 103.90814 115.35547 102.85352 C 117.19948 100.74427 118.83594 98.78125 118.83594 98.78125 A 2.0002 2.0002 0 0 0 119.04102 98.484375 C 120.04 96.71694 121.29904 96.075937 122.99414 95.943359 C 124.68924 95.810782 126.82003 96.387946 128.79883 97.53125 C 128.81743 97.54217 133.68732 100.40727 139.23242 104.5293 C 144.78722 108.65852 150.95663 114.15354 153.33008 118.63477 L 153.33203 118.63672 C 155.23218 122.28154 154.57759 126.55899 151.62695 129.3457 A 2.0002 2.0002 0 0 0 151.58594 129.38672 L 144.38672 136.58594 C 133.31858 147.65408 122.04663 150.2667 110.45117 147.57617 C 98.855716 144.88564 86.914037 136.58591 75.613281 125.28516 L 73.046875 122.71875 C 73.141028 121.65751 73.199219 120.58541 73.199219 119.5 C 73.199219 119.47838 73.197304 119.45716 73.197266 119.43555 C 73.197293 119.42353 73.199219 119.41243 73.199219 119.40039 C 73.199219 99.522378 57.078974 83.300781 37.099609 83.300781 C 35.978843 83.300781 34.929267 83.421928 33.873047 83.542969 C 22.594109 72.25507 14.311356 60.328038 11.636719 48.761719 C 8.9586662 37.180631 11.593154 25.939093 22.708984 14.919922 A 2.0002 2.0002 0 0 0 22.714844 14.914062 L 29.914062 7.7148438 A 2.0002 2.0002 0 0 0 29.933594 7.6933594 C 31.317928 6.2683091 33.120657 5.3917788 35.015625 5.1054688 C 35.489367 5.0338912 35.968922 4.9989292 36.449219 5.0019531 z M 37.099609 87.400391 C 54.831985 87.40039 69.165546 101.71657 69.197266 119.44141 C 69.195316 120.72952 69.10658 121.90779 68.923828 123.0957 A 2.0002 2.0002 0 0 0 68.919922 123.67773 C 66.876158 139.44821 53.434439 151.59961 37.099609 151.59961 C 19.34758 151.59961 4.999999 137.25203 5 119.5 C 5 101.74797 19.347581 87.400391 37.099609 87.400391 z " /><path d="M 36.869141 100.47266 A 2.0002 2.0002 0 0 0 34.900391 102.5 L 34.900391 117.5 L 20.099609 117.5 A 2.0002 2.0002 0 1 0 20.099609 121.5 L 34.900391 121.5 L 34.900391 136.59961 A 2.0002 2.0002 0 1 0 38.900391 136.59961 L 38.900391 121.5 L 54.199219 121.5 A 2.0002 2.0002 0 1 0 54.199219 117.5 L 38.900391 117.5 L 38.900391 102.5 A 2.0002 2.0002 0 0 0 36.869141 100.47266 z " /></svg>
