<svg xmlns="http://www.w3.org/2000/svg" viewBox="0 0 160 160"><path d="M 124.699,64.699 C 106.276,64.699 91.300,79.676 91.300,98.099 91.300,116.522 106.276,131.5 124.699,131.5 c 18.422,0 33.400,-14.977 33.400,-33.400 0,-18.422 -14.977,-33.400 -33.400,-33.400 z m 0,4 c 16.260,0 29.400,13.139 29.400,29.400 0,16.260 -13.139,29.400 -29.400,29.400 -16.260,0 -29.398,-13.139 -29.398,-29.400 10e-7,-16.260 13.137,-29.400 29.398,-29.400 z" /><path d="m 124.669,80.371 a 2.000,2.000 0 0 0 -1.970,2.029 l 0,31.400 a 2.000,2.000 0 1 0 4,0 l 0,-31.400 a 2.000,2.000 0 0 0 -2.029,-2.029 z" /><path d="M 4.400,2 A 2.000,2.000 0 0 0 3.076,5.498 L 68.474,63.298 a 2.000,2.000 0 0 0 0.002,0 c 5.095,4.502 13.050,4.501 18.146,0 L 152.123,5.5 A 2.000,2.000 0 0 0 150.800,2 L 4.400,2 Z M 9.683,6 145.509,6 83.976,60.300 c -3.504,3.096 -9.347,3.096 -12.851,0 L 9.683,6 Z" /><path d="m 4.400,2 a 2.000,2.000 0 0 0 -2,2 l 0,101.900 a 2.000,2.000 0 0 0 2,2 l 89.900,0 a 2.000,2.000 0 0 0 1.943,-2.466 c -0.573,-2.390 -0.943,-4.831 -0.943,-7.333 0,-16.221 13.078,-29.400 29.398,-29.400 10.214,0 19.195,5.245 24.437,13.109 a 2.000,2.000 0 0 0 3.664,-1.109 L 152.800,4 a 2.000,2.000 0 0 0 -2,-2 L 4.400,2 Z m 2,4 142.400,0 0,69.312 c -6.072,-6.430 -14.548,-10.613 -24.101,-10.613 -18.480,0 -33.398,15.021 -33.398,33.400 0,2.009 0.250,3.927 0.585,5.800 l -85.486,0 0,-97.900 z" /><path d="m 64.574,54.880 a 2.000,2.000 0 0 0 -1.408,0.527 C 46.317,70.473 3.263,104.328 3.263,104.328 A 2.000,2.000 0 0 0 4.5,107.900 l 89.900,0 a 2.000,2.000 0 0 0 1.945,-2.466 c -0.573,-2.390 -0.945,-4.831 -0.945,-7.333 0,-10.686 5.710,-19.940 14.142,-25.093 a 2.000,2.000 0 0 0 0.218,-3.257 L 92.062,55.347 a 2.000,2.000 0 1 0 -2.525,3.103 L 105.187,71.183 c -8.290,6.056 -13.787,15.802 -13.787,26.916 0,2.009 0.252,3.927 0.587,5.800 l -81.761,0 C 17.053,98.520 50.313,72.267 65.833,58.390 a 2.000,2.000 0 0 0 -1.259,-3.509 z" /></svg>
