<svg xmlns="http://www.w3.org/2000/svg" viewBox="0 0 160 160"><path d="M 30.5 2.199 A 2.000 2.000 0 0 0 28.5 4.199 L 28.5 7.5 L 22.599 7.5 A 2.000 2.000 0 0 0 20.599 9.5 L 20.599 12.699 L 14.699 12.699 A 2.000 2.000 0 0 0 12.699 14.699 L 12.699 31.099 L 8.800 31.099 C 5.234 31.099 2.300 34.032 2.300 37.599 L 2.300 149.599 A 2.000 2.000 0 0 0 2.484 150.431 A 2.000 2.000 0 0 0 2.468 150.480 C 1.433 154.327 4.416 158.199 8.400 158.199 L 125.699 158.199 C 128.388 158.199 130.744 156.390 131.597 153.832 L 131.580 153.884 L 158.179 80.884 A 2.000 2.000 0 0 0 158.300 80.199 C 158.300 78.565 157.922 76.907 156.966 75.5 C 156.010 74.092 154.292 73 152.300 73 L 142.5 73 L 142.5 56 C 142.5 52.433 139.62 49.400 136 49.400 L 132 49.400 L 132 43.599 L 132 4.199 A 2.000 2.000 0 0 0 130 2.199 L 90.699 2.199 L 30.5 2.199 z M 32.5 6.199 L 90.699 6.199 L 95.199 6.199 L 95.199 40 A 2.000 2.000 0 0 0 98.400 41.599 L 107.199 35 L 116 41.599 A 2.000 2.000 0 0 0 119.199 40 L 119.199 6.199 L 128 6.199 L 128 43.599 L 128 51.400 L 128 73 L 35 73 C 34.747 73 34.501 73.025 34.257 73.062 C 33.642 73.137 33.053 73.304 32.5 73.550 L 32.5 9.5 L 32.5 6.199 z M 99.199 7 L 115.199 7 L 115.199 36 L 108.400 30.900 A 2.000 2.000 0 0 0 106 30.900 L 99.199 36 L 99.199 7 z M 24.599 11.5 L 28.5 11.5 L 28.5 79.019 L 24.599 89.722 L 24.599 14.699 L 24.599 11.5 z M 16.699 16.699 L 20.599 16.699 L 20.599 100.701 L 16.699 111.404 L 16.699 33.099 L 16.699 16.699 z M 48.800 23.199 A 2.000 2.000 0 1 0 48.800 27.199 L 75 27.199 A 2.000 2.000 0 1 0 75 23.199 L 48.800 23.199 z M 8.800 35.099 L 12.699 35.099 L 12.699 122.146 L 6.300 139.660 L 6.300 37.599 C 6.300 36.166 7.367 35.099 8.800 35.099 z M 48.800 41.599 A 2.000 2.000 0 1 0 48.800 45.599 L 76 45.599 A 2.000 2.000 0 1 0 76 41.599 L 48.800 41.599 z M 132 53.400 L 136 53.400 C 137.38 53.400 138.5 54.566 138.5 56 L 138.5 73 L 132 73 L 132 53.400 z M 48.800 59.900 A 2.000 2.000 0 1 0 48.800 63.900 L 111.699 63.900 A 2.000 2.000 0 1 0 111.699 59.900 L 48.800 59.900 z M 35 77 L 130 77 L 140.5 77 L 152.300 77 C 153.008 77 153.289 77.207 153.658 77.75 C 153.995 78.247 154.205 79.113 154.246 79.992 L 127.820 152.515 A 2.000 2.000 0 0 0 127.802 152.568 C 127.455 153.609 126.610 154.199 125.699 154.199 L 8.400 154.199 C 6.989 154.199 5.981 152.881 6.333 151.533 L 17.880 119.843 L 24.474 101.898 L 24.476 101.890 A 2.000 2.000 0 0 0 24.478 101.886 L 32.378 80.287 A 2.000 2.000 0 0 0 32.394 80.236 A 2.000 2.000 0 0 0 32.408 80.197 L 32.878 78.685 A 2.000 2.000 0 0 0 32.908 78.595 A 2.000 2.000 0 0 0 32.927 78.535 C 33.194 77.574 33.942 77 35 77 z " /></svg>
