<svg xmlns="http://www.w3.org/2000/svg" viewBox="0 0 160 160"><path d="m 107.312,91.474 c -14.709,0 -29.262,8.561 -40.085,25.130 a 2.000,2.000 0 0 0 -0.041,0.066 l -0.300,0.5 a 2.000,2.000 0 0 0 0.044,2.123 l -0.003,-0.002 c 0.014,0.021 0.030,0.038 0.044,0.060 a 2.000,2.000 0 0 0 0.064,0.089 c 10.812,16.464 25.314,24.982 39.976,24.982 14.71,0 29.286,-8.561 40.160,-25.128 a 2.000,2.000 0 0 0 0.043,-0.068 l 0.300,-0.5 a 2.000,2.000 0 0 0 -0.046,-2.126 l 0.004,0.002 c -0.017,-0.026 -0.037,-0.049 -0.054,-0.076 a 2.000,2.000 0 0 0 -0.048,-0.066 C 136.505,99.992 121.977,91.474 107.312,91.474 Z m 0,4 c 12.850,0 25.833,7.289 36.050,22.267 -10.261,15.272 -23.377,22.683 -36.351,22.683 -12.851,0 -25.808,-7.291 -35.978,-22.269 C 81.246,102.883 94.337,95.474 107.312,95.474 Z" /><path d="m 106.5,91.300 c -10.801,0 -19.599,8.798 -19.599,19.599 0,10.801 8.798,19.599 19.599,19.599 10.801,0 19.599,-8.798 19.599,-19.599 0,-10.801 -8.798,-19.599 -19.599,-19.599 z m 0,4 c 8.639,0 15.599,6.960 15.599,15.599 0,8.639 -6.960,15.599 -15.599,15.599 -8.639,0 -15.599,-6.960 -15.599,-15.599 0,-8.639 6.960,-15.599 15.599,-15.599 z" /><path d="m 57.699,36.400 c -10.911,0 -19.798,8.887 -19.798,19.798 C 37.900,67.110 46.787,76 57.699,76 68.610,76 77.5,67.110 77.5,56.199 77.5,45.287 68.610,36.400 57.699,36.400 Z m 0,4 C 66.449,40.400 73.5,47.449 73.5,56.199 73.5,64.949 66.449,72 57.699,72 48.949,72 41.900,64.949 41.900,56.199 c 0,-8.749 7.049,-15.798 15.798,-15.798 z" /><path d="M 57.197,0.773 C 42.857,0.786 28.517,6.253 17.585,17.185 a 2.000,2.000 0 0 0 -0.140,0.156 C -2.252,37.212 -4.348,73.736 12.398,96.099 l 43.156,62.337 a 2.000,2.000 0 0 0 3.234,0.078 L 70.187,143.615 a 2.000,2.000 0 1 0 -3.175,-2.429 L 57.279,153.902 15.644,93.761 a 2.000,2.000 0 0 0 -0.042,-0.060 C 0.190,73.120 2.250,38.177 20.414,20.013 40.749,-0.322 73.654,-0.319 93.988,19.917 a 2.000,2.000 0 0 0 0.005,0.003 C 107.753,33.687 112.287,57.041 106.970,76.472 a 2.000,2.000 0 1 0 3.857,1.054 c 5.653,-20.662 1.049,-45.148 -13.810,-60.203 -6.46e-4,-6.55e-4 -0.001,-0.001 -0.002,-0.002 a 2.000,2.000 0 0 0 -0.199,-0.234 2.000,2.000 0 0 0 -0.002,-0.002 2.000,2.000 0 0 0 -0.003,-0.003 C 85.877,6.200 71.537,0.760 57.197,0.773 Z" /></svg>
