<svg viewBox="0 0 1792 1792"><circle cx="879.7" cy="901.3" r="453.9"/><path d="m 824.800,87.099 c -6.6,0 -12,5.4 -12,12 l 0,122.789 C 656.308,237.297 509.110,306.406 396.958,418.558 282.802,532.714 213.240,683.182 199.513,842.800 l -105.414,0 c -6.6,0 -12,5.4 -12,12 l 0,122.298 c 0,6.6 5.4,12 12,12 l 108.582,0 c 19.281,148.663 87.132,287.796 194.277,394.941 112.151,112.151 259.349,181.261 415.841,196.669 l 0,92.388 c 0,6.6 5.4,12 12,12 l 122.298,0 c 6.6,0 12,-5.4 12,-12 l 0,-93.744 c 151.817,-17.778 294.181,-86.154 403.341,-195.314 107.145,-107.145 174.996,-246.277 194.277,-394.941 l 111.380,0 c 6.6,0 12,-5.4 12,-12 l 0,-122.298 c 0,-6.6 -5.4,-12 -12,-12 l -108.212,0 C 1546.160,683.182 1476.597,532.714 1362.441,418.558 1253.281,309.398 1110.917,241.022 959.099,223.244 l 0,-124.144 c 0,-6.6 -5.4,-12 -12,-12 l -122.298,0 z m 54.898,231.500 c 154.560,0 302.740,61.378 412.031,170.669 109.291,109.291 170.669,257.470 170.669,412.031 0,154.560 -61.378,302.740 -170.669,412.031 C 1182.439,1422.623 1034.260,1484 879.699,1484 725.138,1484 576.959,1422.623 467.667,1313.332 358.376,1204.041 297,1055.861 297,901.300 297,746.739 358.376,598.560 467.667,489.269 576.959,379.978 725.138,318.599 879.699,318.599 Z" /></svg>