<svg viewBox="0 0 160 160"><path class="st0" d="M9.7,151.5c0,3.4,2.8,6.2,6.2,6.2h128.9c3.4,0,6.2-2.8,6.2-6.2V47.6H9.7V151.5z M114,59.9h24.7v24.5H114V59.9z M114,90.8h24.7v24.5H114V90.8z M114,121.4h24.7v24.5H114V121.4z M83,59.9h24.7v24.5H83V59.9z M83,90.8h24.7v24.5H83V90.8z M83,121.4h24.7v24.5H83V121.4z M52,59.9h24.7v24.5H52V59.9z M52,90.8h24.7v24.5H52V90.8z M52,121.4h24.7v24.5H52V121.4z M21,59.9 h24.7v24.5H21V59.9z M21,90.8h24.7v24.5H21V90.8z M21,121.4h24.7v24.5H21V121.4z M144.8,22.8h-24.5V4h-12.1v18.8H52.4V4h-12v18.8 H15.9c-3.4,0-6.2,2.8-6.2,6.2v10.1H151V29C151,25.5,148.2,22.8,144.8,22.8z"/></svg>