<svg viewBox="0 0 160 160"><path d="M 60.462 0.464 A 2.500 2.500 0 0 0 58 3 L 58 99.064 L 35.367 76.431 A 2.500 2.500 0 1 0 31.832 79.966 L 60.400 108.535 L 61.716 107.218 A 2.500 2.500 0 0 0 62.675 106.259 L 89.068 79.867 A 2.500 2.500 0 0 0 87.25 75.576 A 2.500 2.500 0 0 0 85.533 76.332 L 63 98.865 L 63 3 A 2.500 2.500 0 0 0 60.462 0.464 z M 4.099 43.5 A 2.500 2.500 0 0 0 1.599 46 L 1.599 156.099 A 2.500 2.500 0 0 0 4.099 158.599 L 116.900 158.599 A 2.500 2.500 0 0 0 119.400 156.099 L 119.400 46 A 2.500 2.500 0 0 0 116.900 43.5 L 79.300 43.5 A 2.500 2.500 0 1 0 79.300 48.5 L 114.400 48.5 L 114.400 153.599 L 6.599 153.599 L 6.599 48.5 L 41.699 48.5 A 2.500 2.500 0 1 0 41.699 43.5 L 4.099 43.5 z " /></svg>
