<svg xmlns="http://www.w3.org/2000/svg" viewBox="0 0 33 33" width="33" height="33">	
	<path id="Layer" d="M33 3.54L33 29.46C33 31.42 31.42 33 29.46 33L3.54 33C1.58 33 0 31.42 0 29.46L0 3.54C0 1.58 1.58 0 3.54 0L29.46 0C31.42 0 33 1.58 33 3.54ZM13.12 16.95C13.89 17.51 15.43 18.87 16.5 18.86C17.57 18.87 19.11 17.51 19.88 16.95C26.56 12.1 26.49 12.09 28.29 10.69L28.29 8.84C28.29 7.86 27.49 7.07 26.52 7.07L6.48 7.07C5.51 7.07 4.71 7.86 4.71 8.84L4.71 10.69C6.51 12.09 6.44 12.1 13.12 16.95ZM28.29 13.68C27.26 14.48 25.83 15.54 21.27 18.86C20.26 19.59 18.48 21.22 16.5 21.21C14.53 21.22 12.78 19.62 11.73 18.86C7.17 15.54 5.74 14.48 4.71 13.68L4.71 24.16C4.71 25.14 5.51 25.93 6.48 25.93L26.52 25.93C27.49 25.93 28.29 25.14 28.29 24.16L28.29 13.68Z" />
</svg>