<svg viewBox="0 0 160 160"><path d="m 130.199,7.964 0,16.994 c -6.395,0.129 -11.367,1.437 -14.767,2.910 -1.364,0.591 -2.480,1.191 -3.375,1.730 l -110.156,0 0,2.5 0,0.201 0,2.199 0,71.300 0,2.099 0,2.798 2.798,0 106.400,0 0.701,0 2.699,0 0,-2.798 0,-2.099 0,-54.746 c -1.380,0.827 -1.133,0.675 0,0 2.522,-1.442 4.973,-2.338 7.210,-2.890 4.089,-1.009 6.770,-0.867 8.488,-0.660 l 0,17.25 28.332,-28.457 z m 5,12.070 16.269,16.269 -16.269,16.339 0,-9.310 -1.910,-0.462 c 0,0 -5.581,-1.335 -12.775,0.439 -5.718,1.410 -12.541,5.008 -18.664,12.318 0.502,-5.647 2.619,-13.519 10.824,-20.382 0.388,-0.318 0.835,-0.625 1.169,-0.863 0.771,-0.518 1.953,-1.224 3.574,-1.925 3.240,-1.403 8.222,-2.795 15.197,-2.558 l 2.583,0.087 0,-2.585 z m -124.400,14.564 94.802,0 -36.058,36.546 0.017,0.017 -9.683,9.722 c -0.915,0.863 -2.543,0.863 -3.457,-0.002 l -9.623,-9.679 0.060,-0.058 z M 6.900,38.162 39.667,71.125 6.900,102.652 Z M 97.742,49.957 c -1.931,7.680 -0.794,13.724 -0.794,13.724 l 1.259,6.414 3.341,-5.617 C 104.069,60.240 109.5,54.658 109.5,54.658 l 0,0 0,47.994 -32.804,-31.564 z m -24.576,24.675 32.287,31.066 -94.507,0 32.248,-31.027 9.759,9.816 0.027,0.027 c 2.885,2.733 7.454,2.733 10.339,0 l 0.025,-0.025 z" /></svg>
