<svg xmlns="http://www.w3.org/2000/svg" viewBox="0 0 32 33" width="32" height="33">	
	<path d="M31.5 4.13C31.5 3.21 31.15 2.44 30.52 1.73C29.81 1.1 29.04 0.75 28.13 0.75L3.38 0.75C2.39 0.75 1.62 1.1 0.98 1.73C0.28 2.44 0 3.21 0 4.13L0 28.88C0 29.86 0.28 30.63 0.98 31.27C1.62 31.97 2.39 32.25 3.38 32.25L17.23 32.25L17.23 19.8L12.94 19.8L12.94 15.02L17.23 15.02L17.23 11.51C17.23 9.54 17.72 8.06 18.84 6.94C19.97 5.81 21.45 5.25 23.34 5.25C24.75 5.25 26.02 5.32 27 5.46L27 9.68L24.47 9.68C23.55 9.68 22.92 9.89 22.57 10.31C22.29 10.73 22.15 11.3 22.15 12L22.15 15.02L27 15.02L26.37 19.8L22.15 19.8L22.15 32.25L28.13 32.25C29.04 32.25 29.81 31.97 30.52 31.27C31.15 30.63 31.5 29.86 31.5 28.88L31.5 4.13Z" />
</svg>