<svg xmlns="http://www.w3.org/2000/svg" viewBox="0 0 160 160"><path d="m 43.5,1.9 c -6.664,0 -12.1,5.434 -12.1,12.1 0,6.664 5.434,12.1 12.1,12.1 6.664,0 12.1,-5.434 12.1,-12.1 0,-6.664 -5.434,-12.1 -12.1,-12.1 z m 0,3 c 5.043,0 9.1,4.056 9.1,9.1 0,5.043 -4.056,9.1 -9.1,9.1 -5.043,0 -9.1,-4.056 -9.1,-9.1 0,-5.043 4.056,-9.1 9.1,-9.1 z" /><path d="M 39.7,7.2 C 37.618,7.2 35.9,8.919 35.9,11 c 0,2.08 1.717,3.8 3.798,3.8 C 41.78,14.8 43.5,13.08 43.5,11 43.5,8.919 41.78,7.2 39.7,7.2 Z m 0,3.0 C 40.158,10.2 40.5,10.54 40.5,11 c 0,0.459 -0.341,0.8 -0.8,0.8 -0.459,0 -0.798,-0.341 -0.798,-0.8 0,-0.459 0.339,-0.8 0.798,-0.8 z" /><path d="M 43.476,23.078 A 1.5,1.5 0 0 0 42,24.6 l 0,21.8 a 1.5,1.5 0 1 0 3,0 l 0,-21.8 a 1.5,1.5 0 0 0 -1.523,-1.521 z" /><path d="M 69.3 24.2 C 32.039 24.2 1.8 54.437 1.8 91.7 C 1.8 128.96 32.039 159.2 69.3 159.2 C 106.562 159.2 136.8 128.96 136.8 91.7 C 136.8 54.437 106.562 24.2 69.3 24.2 z M 69.3 27.2 C 80.662 27.2 91.329 30.142 100.597 35.292 C 91.7 38.565 83.592 44.343 78.281 52.25 C 77.217 53.853 79.361 60.801 76.869 57.781 C 77.159 50.626 69.539 51.008 64.863 52.896 C 59.633 52.039 57.252 58.551 60.541 62.078 C 63.639 64.606 66.129 66.364 70.2 65.8 C 68.441 70.222 75.257 70.597 75.746 74.525 C 78.335 80.625 84.164 75.867 88.208 76.175 C 91.696 78.784 97.137 77.822 99.351 81.988 C 102.716 86.538 104.658 92.572 109.986 95.31 C 112.293 99.242 109.63 103.967 108.431 107.91 C 107.41 112.412 102.679 114.395 100.556 118.378 C 95.595 126.243 88.244 133.006 79.259 135.789 C 74.182 133.496 81.558 127.887 81.722 124.14 C 83.776 119.138 85.148 111.966 80.023 108.296 C 74.264 103.445 71.103 94.916 74.181 87.781 C 75.863 82.615 68.83 80.68 70.027 75.197 C 69.138 69.365 62.354 68.615 57.63 67.945 C 50.071 67.637 44.971 61.316 41.585 55.21 C 38.448 49.707 36.083 43.816 33.466 38.06 C 43.714 31.203 56.036 27.2 69.3 27.2 z M 103.792 37.2 C 121.826 48.631 133.8 68.752 133.8 91.7 C 133.8 127.339 104.94 156.2 69.3 156.2 C 33.66 156.2 4.8 127.339 4.8 91.7 C 4.8 70.476 15.036 51.66 30.841 39.908 C 31.651 42.093 33.541 44.581 33.939 46.496 C 37.765 54.636 41.56 63.752 49.554 68.654 C 54.602 71.843 61.347 70.176 66.173 73.677 C 68.07 77.533 67.114 82.803 71.371 85.109 C 70.757 89.753 68.904 94.852 70.884 99.646 C 72.247 104.95 76.292 108.78 79.908 112.57 C 81.93 118.281 78.476 124.093 76.1 129.152 C 72.6 132.556 74.625 139.638 80.091 138.716 C 89.712 135.657 97.685 128.557 103.013 120.097 C 104.783 116.45 109.092 114.757 110.46 111.019 C 112.213 105.882 115.267 100.208 113.193 94.744 C 110.29 91.489 106.397 88.97 104.601 84.632 C 102.329 81.221 100.303 76.247 95.652 75.945 C 90.737 73.684 85.563 71.541 80.675 74.873 C 77.512 73.206 77.17 68.567 73.123 67.523 C 74.177 64.893 71.661 61.9 68.259 62.376 C 67.481 59.183 61.636 63.038 62.1 57.947 C 62.555 54.446 68.455 56.44 70.878 54.505 C 76.153 54.461 71.854 64.952 78.951 61.535 C 83.952 59.163 78.421 52.581 83.802 50.042 C 88.946 43.764 96.293 39.818 103.792 37.2 z " /></svg>