<svg xmlns="http://www.w3.org/2000/svg" viewBox="0 0 160 160"><path d="M 61,1.800 C 28.347,1.800 1.800,28.347 1.800,61 c 0,28.074 19.562,51.624 45.898,57.714 l 0,11.580 a 2.500,2.500 0 0 0 0,0.808 l 0,13.292 a 2.500,2.500 0 0 0 0,0.808 l 0,11.294 a 2.500,2.500 0 0 0 2.5,2.5 L 72,159 a 2.500,2.500 0 0 0 2.5,-2.5 l 0,-37.791 c 14.788,-3.405 27.386,-12.329 35.667,-24.501 a 2.500,2.500 0 0 0 -4.134,-2.812 C 98.092,103.065 85.865,111.470 71.535,114.244 a 2.500,2.500 0 0 0 -0.025,0.004 c -2.510,0.502 -5.131,0.843 -7.769,0.982 -0.879,0.046 -1.760,0.070 -2.640,0.070 -3.519,0 -7.062,-0.383 -10.410,-1.052 a 2.500,2.500 0 0 0 -0.011,-0.002 C 25.630,109.370 6.800,87.410 6.800,61 6.800,31.052 31.052,6.800 61,6.800 c 20.770,0 38.722,11.575 47.796,28.482 a 2.500,2.500 0 1 0 4.406,-2.365 C 103.277,14.425 83.629,1.800 61,1.800 Z m 0.099,11.798 c -13.100,0 -24.969,5.334 -33.554,13.945 C 18.934,36.130 13.599,47.998 13.599,61.099 13.599,87.250 34.849,108.5 61,108.5 c 13.072,0 24.915,-5.281 33.466,-13.832 a 2.500,2.500 0 0 0 0.027,-0.027 c 0.024,-0.024 0.049,-0.047 0.074,-0.072 a 2.500,2.500 0 1 0 -3.535,-3.535 c -7.648,7.648 -18.205,12.367 -29.933,12.367 -23.449,0 -42.400,-18.951 -42.400,-42.400 0,-11.699 4.717,-22.278 12.357,-29.943 7.665,-7.639 18.244,-12.357 29.943,-12.357 13.895,0 26.151,6.701 33.902,17.003 a 2.500,2.500 0 0 0 3.808,0.240 2.500,2.500 0 0 0 0.287,-3.345 C 90.348,21.100 76.604,13.599 61.099,13.599 Z m -0.298,15 c -17.751,0 -32.201,14.449 -32.201,32.201 a 2.500,2.500 0 1 0 5,0 c 0,-15.048 12.152,-27.201 27.201,-27.201 a 2.500,2.500 0 1 0 0,-5 z M 89.300,47 a 2.500,2.500 0 1 0 0,5 l 58.099,0 a 2.500,2.500 0 1 0 0,-5 l -58.099,0 z m -18.601,8.800 a 2.500,2.500 0 1 0 0,5 l 76.701,0 a 2.500,2.500 0 1 0 0,-5 l -76.701,0 z m 0,9.5 a 2.500,2.500 0 1 0 0,5 l 76.701,0 a 2.500,2.500 0 1 0 0,-5 l -76.701,0 z M 89.300,75 a 2.500,2.500 0 1 0 0,5 l 58.099,0 a 2.500,2.500 0 1 0 0,-5 l -58.099,0 z m -36.601,44.666 c 2.000,0.296 4.044,0.488 6.105,0.574 0.757,0.037 1.520,0.060 2.294,0.060 0.752,0 1.501,-0.021 2.248,-0.058 2.076,-0.085 4.137,-0.277 6.152,-0.576 l 0,34.333 -16.800,0 0,-6.699 8.300,0 a 2.500,2.500 0 1 0 0,-5 l -8.300,0 0,-9.101 8.300,0 a 2.500,2.500 0 1 0 0,-5 l -8.300,0 0,-8.533 z" /></svg>
