<svg xmlns="http://www.w3.org/2000/svg" viewBox="0 0 160 160"><path d="M 9.699 1.199 C 5.457 1.199 2 4.658 2 8.900 L 2 21.576 A 2.000 2.000 0 0 0 2 22.224 L 2 44.076 A 2.000 2.000 0 0 0 2 44.724 L 2 64.275 A 2.000 2.000 0 0 0 2 64.923 L 2 82.099 L 2 100.800 C 2 105.084 5.523 108.5 9.699 108.5 L 53.300 108.5 L 53.300 139.400 L 46.099 139.400 A 2.000 2.000 0 1 0 46.099 143.400 L 54.685 143.400 A 2.000 2.000 0 0 0 55.300 143.5 L 89.5 143.5 A 2.000 2.000 0 0 0 90.119 143.400 L 98.699 143.400 A 2.000 2.000 0 1 0 98.699 139.400 L 91.5 139.400 L 91.5 108.5 L 98.800 108.5 A 2.000 2.000 0 1 0 98.800 104.5 L 9.699 104.5 C 7.674 104.5 6 102.917 6 100.800 L 6 84.099 L 89.599 84.099 A 2.000 2.000 0 1 0 89.599 80.099 L 6 80.099 L 6 66.599 L 43.095 66.599 L 37.501 72.070 A 2.000 2.000 0 1 0 40.298 74.929 L 49.222 66.201 A 2.000 2.000 0 0 0 49.242 63.009 L 40.330 53.900 A 2.000 2.000 0 0 0 38.900 53.279 A 2.000 2.000 0 0 0 37.470 56.699 L 43.246 62.599 L 6 62.599 L 6 46.400 L 66.794 46.400 L 61.201 51.871 A 2.000 2.000 0 1 0 63.998 54.730 L 72.921 46.001 A 2.000 2.000 0 0 0 72.941 42.810 L 64.029 33.701 A 2.000 2.000 0 0 0 62.601 33.080 A 2.000 2.000 0 0 0 61.169 36.498 L 66.945 42.400 L 6 42.400 L 6 23.900 L 87.234 23.900 L 81.593 29.478 A 2.000 2.000 0 1 0 84.406 32.322 L 93.328 23.498 A 2.000 2.000 0 0 0 93.335 20.306 L 84.421 11.292 A 2.000 2.000 0 0 0 82.990 10.679 A 2.000 2.000 0 0 0 81.578 14.107 L 87.308 19.900 L 6 19.900 L 6 8.900 C 6 6.742 7.540 5.199 9.699 5.199 L 135.900 5.199 C 137.925 5.199 139.599 6.783 139.599 8.900 L 139.599 42.699 A 2.000 2.000 0 1 0 143.599 42.699 L 143.599 8.900 C 143.599 4.617 140.075 1.199 135.900 1.199 L 9.699 1.199 z M 114.570 8.871 A 2.000 2.000 0 0 0 112.599 10.900 L 112.599 25.699 A 2.000 2.000 0 1 0 116.599 25.699 L 116.599 10.900 A 2.000 2.000 0 0 0 114.570 8.871 z M 122.070 8.871 A 2.000 2.000 0 0 0 120.099 10.900 L 120.099 19.699 A 2.000 2.000 0 1 0 124.099 19.699 L 124.099 10.900 A 2.000 2.000 0 0 0 122.070 8.871 z M 130.070 8.871 A 2.000 2.000 0 0 0 128.099 10.900 L 128.099 28.400 A 2.000 2.000 0 1 0 132.099 28.400 L 132.099 10.900 A 2.000 2.000 0 0 0 130.070 8.871 z M 127.400 47.800 C 110.192 47.800 96.199 61.792 96.199 79 C 96.199 96.207 110.192 110.199 127.400 110.199 C 144.607 110.199 158.599 96.207 158.599 79 C 158.599 61.792 144.607 47.800 127.400 47.800 z M 127.400 51.800 C 142.446 51.800 154.599 63.954 154.599 79 C 154.599 94.045 142.446 106.199 127.400 106.199 C 112.354 106.199 100.199 94.045 100.199 79 C 100.199 63.954 112.354 51.800 127.400 51.800 z M 127.400 55.900 C 114.666 55.900 104.300 66.265 104.300 79 C 104.300 91.734 114.666 102.099 127.400 102.099 C 140.134 102.099 150.5 91.734 150.5 79 C 150.5 66.265 140.134 55.900 127.400 55.900 z M 127.400 59.900 C 137.972 59.900 146.5 68.427 146.5 79 C 146.5 89.572 137.972 98.099 127.400 98.099 C 116.828 98.099 108.300 89.572 108.300 79 C 108.300 68.427 116.828 59.900 127.400 59.900 z M 127.369 64.871 A 2.000 2.000 0 0 0 125.400 66.900 L 125.400 69.634 C 124.858 69.743 124.312 69.901 123.771 70.166 C 122.446 70.814 121.258 72.128 120.773 73.861 A 2.000 2.000 0 0 0 120.769 73.873 C 120.244 75.798 121.288 77.658 122.486 78.738 C 123.683 79.817 125.122 80.570 126.492 81.292 C 127.861 82.015 129.169 82.703 129.929 83.279 C 130.306 83.564 130.526 83.815 130.595 83.923 C 130.508 84.395 130.364 84.608 129.929 84.888 C 129.474 85.182 128.681 85.442 127.746 85.568 C 127.690 85.575 127.625 85.573 127.568 85.580 A 2.000 2.000 0 0 0 127.369 85.572 A 2.000 2.000 0 0 0 126.964 85.621 C 125.254 85.728 123.355 85.524 122.376 85.335 A 2.000 2.000 0 1 0 121.623 89.263 C 122.535 89.439 123.894 89.616 125.400 89.656 L 125.400 92 A 2.000 2.000 0 1 0 129.400 92 L 129.400 89.330 C 130.329 89.122 131.248 88.798 132.097 88.25 C 133.289 87.481 134.309 86.149 134.574 84.521 A 2.000 2.000 0 0 0 134.576 84.511 C 134.730 83.531 134.447 82.533 133.994 81.808 C 133.540 81.083 132.959 80.554 132.345 80.089 C 131.118 79.159 129.689 78.458 128.359 77.755 C 127.028 77.053 125.804 76.344 125.164 75.767 C 124.527 75.193 124.558 75.199 124.632 74.929 C 124.846 74.178 125.095 73.972 125.529 73.759 C 125.864 73.595 126.365 73.492 126.935 73.470 A 2.000 2.000 0 0 0 127.714 73.501 C 129.211 73.625 130.662 74.158 130.662 74.158 A 2.000 2.000 0 1 0 132.138 70.441 C 132.138 70.441 130.992 69.968 129.400 69.679 L 129.400 66.900 A 2.000 2.000 0 0 0 127.369 64.871 z M 57.300 108.599 L 87.5 108.599 L 87.5 139.400 L 57.300 139.400 L 57.300 108.599 z " /></svg>
