<svg xmlns="http://www.w3.org/2000/svg" viewBox="0 0 160 160"><path d="M 90.400 20.599 C 86.681 20.599 83.5 23.663 83.5 27.5 L 83.5 38.5 C 83.5 40.139 82.627 41.112 81.412 41.611 C 80.196 42.109 78.863 42.021 77.720 40.878 L 70.021 33.177 C 67.342 30.499 62.957 30.499 60.279 33.177 L 54.412 39.044 C 56.582 39.425 58.625 40.269 60.412 41.531 L 64.521 37.421 C 64.842 37.100 65.457 37.100 65.779 37.421 L 73.478 45.121 C 76.335 47.978 80.453 48.490 83.687 47.164 C 86.921 45.837 89.5 42.560 89.5 38.5 L 89.5 27.5 C 89.5 26.936 89.919 26.599 90.400 26.599 L 104.400 26.599 C 104.964 26.599 105.300 27.019 105.300 27.5 L 105.300 38.5 C 105.300 42.560 107.877 45.837 111.111 47.164 C 114.345 48.490 118.464 47.978 121.322 45.121 L 129.021 37.421 C 129.342 37.100 129.957 37.100 130.279 37.421 L 140.177 47.322 C 140.499 47.643 140.499 48.256 140.177 48.578 L 132.478 56.279 C 129.621 59.136 129.111 63.254 130.437 66.488 C 131.763 69.722 135.039 72.300 139.099 72.300 L 150.099 72.300 C 150.754 72.300 151 72.544 151 73.199 L 151 87.199 C 151 87.762 150.580 88.099 150.099 88.099 L 139.099 88.099 C 135.039 88.099 131.763 90.677 130.437 93.912 C 129.111 97.146 129.621 101.263 132.478 104.121 L 140.177 111.822 C 140.499 112.143 140.499 112.756 140.177 113.078 L 130.279 122.978 C 129.957 123.3 129.342 123.3 129.021 122.978 L 121.322 115.279 C 118.464 112.421 114.345 111.909 111.111 113.236 C 107.877 114.562 105.300 117.839 105.300 121.900 L 105.300 132.900 C 105.300 133.464 104.881 133.800 104.400 133.800 L 90.400 133.800 C 89.836 133.800 89.5 133.381 89.5 132.900 L 89.5 121.900 C 89.5 117.839 86.921 114.562 83.687 113.236 C 80.453 111.909 76.335 112.421 73.478 115.279 L 65.779 122.978 C 65.457 123.3 64.842 123.3 64.521 122.978 L 60.591 119.048 C 58.852 120.334 56.863 121.242 54.742 121.683 L 60.279 127.220 C 62.957 129.899 67.342 129.899 70.021 127.220 L 77.720 119.521 C 78.863 118.378 80.196 118.290 81.412 118.789 C 82.627 119.287 83.5 120.260 83.5 121.900 L 83.5 132.900 C 83.5 136.619 86.564 139.800 90.400 139.800 L 104.400 139.800 C 108.119 139.800 111.300 136.736 111.300 132.900 L 111.300 121.900 C 111.300 120.260 112.172 119.287 113.388 118.789 C 114.604 118.290 115.935 118.378 117.078 119.521 L 124.779 127.220 C 127.457 129.899 131.842 129.899 134.521 127.220 L 144.421 117.322 C 147.100 114.643 147.100 110.256 144.421 107.578 L 136.720 99.878 C 135.578 98.736 135.489 97.403 135.988 96.187 C 136.486 94.971 137.460 94.099 139.099 94.099 L 150.099 94.099 C 153.818 94.099 157 91.035 157 87.199 L 157 73.199 C 157 69.453 153.845 66.300 150.099 66.300 L 139.099 66.300 C 137.460 66.300 136.486 65.426 135.988 64.210 C 135.489 62.995 135.578 61.664 136.720 60.521 L 144.421 52.822 C 147.100 50.143 147.100 45.756 144.421 43.078 L 134.521 33.177 C 131.842 30.499 127.457 30.499 124.779 33.177 L 117.078 40.878 C 115.935 42.021 114.604 42.109 113.388 41.611 C 112.172 41.112 111.300 40.139 111.300 38.5 L 111.300 27.5 C 111.300 23.780 108.236 20.599 104.400 20.599 L 90.400 20.599 z M 97.599 59.800 C 92.484 59.800 87.813 61.726 84.236 64.871 L 88.468 69.072 C 90.940 67.027 94.119 65.800 97.599 65.800 C 105.532 65.800 111.900 72.166 111.900 80.099 C 111.900 88.032 105.532 94.400 97.599 94.400 C 94.223 94.400 91.135 93.239 88.697 91.302 L 84.455 95.527 C 88.002 98.557 92.589 100.400 97.599 100.400 C 108.775 100.400 117.900 91.275 117.900 80.099 C 117.900 68.923 108.775 59.800 97.599 59.800 z " /><path d="m 51.7,48.8 c 1.3,0 2.6,0.5 3.5,1.5 l 26.6,26.6 c 0,0 0,0 0,0 0.2,0.2 0.4,0.5 0.6,0.7 0.1,0.1 0.1,0.3 0.2,0.4 0.1,0.2 0.2,0.3 0.2,0.5 0.1,0.2 0.1,0.3 0.2,0.5 0,0.1 0.1,0.3 0.1,0.4 0.1,0.6 0.1,1.3 0,2 0,0.1 -0.1,0.3 -0.1,0.4 -0.1,0.2 -0.1,0.3 -0.2,0.5 -0.1,0.2 -0.2,0.3 -0.2,0.5 -0.1,0.1 -0.1,0.3 -0.2,0.4 -0.2,0.3 -0.4,0.5 -0.6,0.8 l -26.6,26.6 c -1,1 -2.3,1.5 -3.5,1.5 -1.3,0 -2.6,-0.5 -3.5,-1.5 -2,-2 -2,-5.1 0,-7.1 l 18.1,-18.1 -48.8,0 c -2.8,0 -5,-2.2 -5,-5 0,-2.8 2.2,-5 5,-5 l 48.8,0 -18.1,-18.1 c -2,-2 -2,-5.1 0,-7.1 1,-1 2.3,-1.4 3.5,-1.4" /></svg>
