<svg xmlns="http://www.w3.org/2000/svg" viewBox="0 0 160 160"><path d="m 62.400,2.400 c -13.949,0 -25.300,11.349 -25.300,25.298 0,6.876 2.846,12.980 7.263,17.544 -6.024,3.556 -10.164,9.921 -10.164,17.355 l 0,11.400 a 2.500,2.500 0 0 0 2.5,2.5 l 13.794,0 a 2.500,2.500 0 0 0 0.810,0 l 22.390,0 a 2.500,2.500 0 0 0 0.808,0 l 13.595,0 a 2.500,2.500 0 0 0 2.5,-2.5 l 0,-11.400 c 0,-7.502 -4.147,-13.821 -10.158,-17.359 4.414,-4.563 7.257,-10.666 7.257,-17.541 0,-13.949 -11.349,-25.298 -25.298,-25.298 z m 0,5 c 11.250,0 20.298,9.048 20.298,20.298 0,6.611 -3.107,12.372 -7.933,16.126 a 2.500,2.500 0 0 0 0.683,4.324 c 5.951,2.156 10.150,7.696 10.150,14.449 l 0,8.900 -9,0 0,-9.5 a 2.500,2.500 0 1 0 -5,0 l 0,9.5 -18.199,0 0,-9.5 a 2.500,2.500 0 1 0 -5,0 l 0,9.5 -9.201,0 0,-8.900 c 0,-6.639 4.220,-12.300 10.152,-14.449 a 2.500,2.500 0 0 0 0.683,-4.324 c -4.826,-3.753 -7.935,-9.515 -7.935,-16.126 0,-11.250 9.049,-20.298 20.300,-20.298 z M 32.300,19.5 C 18.351,19.5 7,30.851 7,44.800 7,51.681 9.848,57.788 14.271,62.353 8.294,65.912 4.099,72.279 4.099,79.800 l 0,11.398 a 2.500,2.500 0 0 0 2.5,2.5 l 51.400,0 a 2.500,2.500 0 0 0 2.5,-2.5 l 0,-8 0,-3.398 a 2.500,2.500 0 1 0 -5,0 l 0,3.398 0,5.5 -32.099,0 0,-9.599 a 2.500,2.500 0 1 0 -5,0 l 0,9.599 -9.300,0 0,-8.898 c 0,-6.731 4.327,-12.409 10.162,-14.554 a 2.500,2.500 0 0 0 0.673,-4.320 C 15.109,57.171 12,51.412 12,44.800 12,33.549 21.049,24.5 32.300,24.5 a 2.500,2.500 0 1 0 0,-5 z m 61.599,0 a 2.500,2.500 0 1 0 0,5 c 11.250,0 20.298,9.049 20.298,20.300 0,6.611 -3.107,12.371 -7.933,16.125 a 2.500,2.500 0 0 0 0.683,4.324 c 5.931,2.149 10.150,7.809 10.150,14.449 l 0,8.900 -9.199,0 0,-9.5 a 2.500,2.500 0 1 0 -5,0 l 0,9.5 -18.201,0 0,-9.5 a 2.500,2.500 0 1 0 -5,0 l 0,9.5 -9,0 0,-5.5 0,-3.400 a 2.500,2.500 0 1 0 -5,0 l 0,3.400 0,8 a 2.500,2.500 0 0 0 2.5,2.5 l 13.583,0 a 2.500,2.500 0 0 0 0.820,0 l 22.378,0 a 2.500,2.500 0 0 0 0.822,0 l 13.794,0 a 2.500,2.500 0 0 0 2.5,-2.5 l 0,-11.400 c 0,-7.433 -4.138,-13.798 -10.162,-17.355 4.416,-4.563 7.261,-10.666 7.261,-17.542 C 119.199,30.851 107.849,19.5 93.900,19.5 Z" /><path d="m 4,99.400 a 2.500,2.500 0 1 0 0,4.999 l 117,0 a 2.500,2.500 0 1 0 0,-4.999 l -117,0 z" /><path d="m 105.261,106.865 a 2.500,2.500 0 0 0 -2.460,2.535 l 0,4.900 -11.499,0 A 2.500,2.500 0 0 0 88.875,116.193 c -0.749,2.997 -1.867,5.856 -3.390,8.275 a 2.500,2.500 0 0 0 0.314,3.064 l 8.330,8.664 -7.427,7.699 -8.599,-8.929 a 2.500,2.500 0 0 0 -3.005,-0.457 c -1.800,0.990 -3.722,1.727 -5.681,2.287 a 2.500,2.500 0 0 0 -1.814,2.402 l 0,13.300 -10.400,0 0,-13.300 A 2.500,2.500 0 0 0 55.328,136.779 C 52.937,136.159 50.654,135.075 48.5,133.763 a 2.500,2.500 0 0 0 -3.091,0.392 l -9.400,9.652 -7.425,-7.699 9.609,-9.865 a 2.500,2.500 0 0 0 0.404,-2.941 c -1.085,-1.990 -1.925,-4.211 -2.587,-6.576 a 2.500,2.500 0 0 0 -2.408,-1.826 l -13.798,0 0,-5.400 a 2.500,2.500 0 1 0 -5,0 l 0,7.900 a 2.500,2.500 0 0 0 2.5,2.5 l 14.496,0 c 0.455,1.394 0.994,2.754 1.615,4.083 l -10.103,10.371 a 2.500,2.500 0 0 0 -0.007,3.480 l 10.900,11.298 a 2.500,2.500 0 0 0 3.589,0.01 l 9.894,-10.160 c 1.418,0.766 2.923,1.421 4.513,1.970 l 0,14.044 a 2.500,2.500 0 0 0 2.5,2.5 l 15.400,0 a 2.500,2.500 0 0 0 2.5,-2.5 l 0,-14.128 c 1.025,-0.350 2.041,-0.766 3.058,-1.234 l 9.240,9.597 a 2.500,2.500 0 0 0 3.601,0.002 l 10.898,-11.300 a 2.500,2.500 0 0 0 0.003,-3.468 l -8.775,-9.126 c 1.028,-1.929 1.853,-3.947 2.486,-6.039 l 12.187,0 a 2.500,2.500 0 0 0 2.5,-2.5 l 0,-7.400 a 2.500,2.500 0 0 0 -2.539,-2.535 z" /><path d="m 47.562,106.865 a 2.500,2.500 0 0 0 -2.462,2.535 c 0,10.002 7.893,18.199 17.599,18.199 9.549,0 17.256,-7.816 17.630,-17.484 a 2.500,2.500 0 0 0 -2.429,-3.214 2.500,2.500 0 0 0 -2.5,2.5 c 0,7.397 -5.690,13.199 -12.701,13.199 -6.894,0 -12.599,-5.801 -12.599,-13.199 A 2.500,2.500 0 0 0 47.562,106.865 Z" /></svg>
