<svg xmlns="http://www.w3.org/2000/svg" viewBox="0 0 160 160"><path d="M157.9,64.1c0.3,6.3-4.3,12-10.8,12.5c-6.3,0.5-12-4.5-12.4-10.8c-0.5-6.3,4.4-12,10.8-12.5 C151.9,52.9,157.3,57.9,157.9,64.1z"/><path d="M131.3,66.1c-0.2-3.3,0.7-6.5,2.4-9.2c-0.5-0.7-1.1-1.3-1.4-1.8c-3-4.2-6.6-7.9-10.7-11.1 c-0.7-0.5-5.1-3.9-5.5-3.2c-1.6,2.3-3.3,4.5-4.9,6.8c3.3,1.8,6.2,3.9,9,6.4c-5.9,3.7-11.9,7.4-17.8,11.1 c5.5,7.7,8.3,16.2,8.5,25.6c7-0.5,14-1,21-1.5c-0.8,3.7-1.9,7.1-3.4,10.6c2.7,0.9,5.5,1.8,8.2,2.6c0.4,0.1,2.3-5.9,2.5-6.6 c1.4-5.1,1.9-10.1,1.9-15.4c0-0.6-0.1-1.1-0.1-1.4C135.5,76.9,131.7,72,131.3,66.1z"/><path d="M132.8,141.3c2,14.9-20.9,18.3-23,3.4C107.6,129.8,130.4,126.5,132.8,141.3z"/><path d="M109.5,133.5c2.9-3.3,7.3-5.3,12-5.3c1.1,0,2.2,0.2,3.3,0.4c0.9-1,1.9-2.6,2.3-3.1c4.1-5.6,6.5-12,8.1-18.7 c-2.7-0.9-5.5-1.8-8.3-2.7c-0.7,3.7-1.8,7.1-3.3,10.5c-5.4-4.5-10.7-9-16.1-13.5c-5.5,7.6-12.8,12.9-21.7,16 c2.6,6.5,5.3,13,7.9,19.5c-3.8,0.4-7.3,0.4-11.1,0c0,2.1,0,4.3,0,6.4c0,2.6,0,2.2,2.6,2.5c3.3,0.3,6.8,0,10.1-0.5 c3.5-0.6,7-1.4,10.3-2.7c0.3-0.1,0.4-0.2,0.6-0.3C106.3,138.8,107.4,135.9,109.5,133.5z"/><path d="M50.9,142.1c0.5,6.3-4,12.1-10.4,12.7c-6.3,0.6-12.1-4.2-12.7-10.5C26.3,129.5,49.6,127.2,50.9,142.1z"/><path d="M67,136.8c2.6-6.5,5.2-13,7.8-19.5c-9-3.1-16.1-8.2-21.9-15.7c-5.4,4.5-10.7,9-16.1,13.6 c-1.6-3.5-2.6-6.9-3.5-10.6c-2.2,0.7-4.4,1.4-6.7,2.1c-2.1,0.7-1.5,1.3-0.9,3.5c1.1,3.6,2.3,7.3,4.2,10.5c0.7,1.3,3.6,6.6,5.6,8.4 c1.3-0.3,2.6-0.5,4-0.5c6.8,0,14,4.1,14.8,13.4c0,0.2,0,0.4,0,0.6c1.3,0.5,3.3,1,4.1,1.2c1.8,0.6,3.6,1,5.5,1.3 c3.7,0.7,7.5,0.8,11.3,0.6c2.7-0.2,2.8,0.2,2.8-2.5c0-2.1,0-4.3,0-6.4C74.3,137.1,70.7,137.1,67,136.8z"/><path d="M25.4,64.8c0.7,15-22.5,16.1-23.2,1.2c-0.3-6.4,4.8-11.9,11.1-12.2C19.6,53.4,25,58.6,25.4,64.8z"/><path d="M57.6,65.5c-5.9-3.7-11.9-7.4-17.9-11.2c2.8-2.5,5.7-4.6,9-6.5c-1.4-1.9-2.7-3.8-4.1-5.7 c-1.3-1.8-1.7-1-3.6,0.2c-3.1,2.1-6.1,4.5-8.7,7.3c-1.3,1.4-5,5-6,7.7c1.4,2.1,2.3,4.6,2.5,7.3c0.2,4.2-1.1,8-3.8,10.8 c-1.6,1.7-3.6,2.9-5.9,3.7c-0.2,1.5,0.1,3.7,0.1,4.6c0,1.9,0.2,3.8,0.5,5.6c0.5,3.7,1.5,7.4,2.9,10.9c1,2.5,0.8,2.7,3.3,1.9 c2-0.7,4.1-1.3,6.1-2c-1.6-3.4-2.7-6.8-3.5-10.4c7,0.5,14,0.9,20.9,1.4C49.5,81.6,52.2,73.2,57.6,65.5z"/><path d="M91.5,15.6c0.6,6.3-3.8,12.2-10.2,13c-6.2,0.8-12.2-4-12.9-10.2c-0.7-6.3,3.8-12.2,10.1-13 C85,4.7,90.4,9.3,91.5,15.6z"/><path d="M94.3,27.3c-1-0.3-1.9-0.7-2.8-0.8c-2.4,2.9-5.8,5-9.8,5.5c-0.6,0.1-1.2,0.1-1.8,0.1c-4.5,0-8.7-2.1-11.5-5.5 c-0.4,0.1-0.8,0.2-1.5,0.4c-3.4,1-6.6,2.4-9.8,4c-2.9,1.5-5.7,3.5-8.2,5.6c-2,1.7-1.4,1.6,0.2,3.7c1.1,1.6,2.3,3.1,3.4,4.7 c2.8-2.5,5.6-4.6,8.9-6.5c1.7,6.8,3.4,13.6,5.1,20.4c9.1-2.9,17.8-2.9,26.9-0.2c1.7-6.8,3.4-13.6,5.1-20.5c3.3,1.9,6.2,4,9,6.5 c1.7-2.3,3.4-4.7,5.1-7C107.1,33.2,101.2,29.5,94.3,27.3z"/></svg>