<svg viewBox="0 0 160 160"><path d="M38.6 66.3a2.5 2.5 0 1 0 0 5h64.7a2.5 2.5 0 1 0 0-5H38.6zM38.6 45.6a2.5 2.5 0 1 0 0 5h25.9a2.5 2.5 0 1 0 0-5H38.6zM38.6 87a2.5 2.5 0 1 0 0 5h64.7a2.5 2.5 0 1 0 0-5H38.6zM38.6 107.7a2.5 2.5 0 1 0 0 5h64.7a2.5 2.5 0 1 0 0-5H38.6zM38.6 128.4a2.5 2.5 0 1 0 0 5h64.7a2.5 2.5 0 1 0 0-5H38.6z"/><path d="M15.4 14.5v142.1h111.1V52.163l-.733-.732L88.835 14.5H15.4zm5 5h66.363L121.5 54.234V151.6H20.4V19.5z"/><path d="M87.76 14.464A2.5 2.5 0 0 0 85.3 17v38.7H124a2.5 2.5 0 1 0 0-5H90.3V17a2.5 2.5 0 0 0-2.54-2.535z"/><path d="M2.5 1.6v142.1h17.9V19.5h66.363L113.6 46.335V1.6H2.5zm5 5h101.1v27.665L88.834 14.5H15.4v124.2H7.5V6.6z"/></svg>