<svg xmlns="http://www.w3.org/2000/svg" viewBox="0 0 160 160"><path d="M 140.699,1.5 C 136.477,1.5 133,4.977 133,9.199 l 0,123.460 12.888,22.681 13.011,-22.675 0,-0.666 0,-122.800 C 158.900,4.977 155.421,1.5 151.199,1.5 l -10.5,0 z m 0,5 10.5,0 c 1.578,0 2.701,1.121 2.701,2.699 l 0,122.134 -7.988,13.925 L 138,131.339 138,9.199 C 138,7.621 139.121,6.5 140.699,6.5 Z" /><path d="m 133,19.800 0,2.5 0,13 25.900,0 0,-15.5 -25.900,0 z m 5,5 15.900,0 0,5.5 -15.900,0 0,-5.5 z" /><path d="m 135.5,129.5 a 2.500,2.500 0 1 0 0,5 l 20.900,0 a 2.500,2.500 0 1 0 0,-5 l -20.900,0 z" /><path d="m 145.863,147.765 a 2.500,2.500 0 0 0 -2.462,2.535 l 0,5.298 a 2.500,2.500 0 1 0 5,0 l 0,-5.298 a 2.500,2.500 0 0 0 -2.537,-2.535 z" /><path d="m 2.300,1.5 0,2.5 0,154.099 119.999,0 0,-156.599 -119.999,0 z m 5,5 109.999,0 0,146.599 -109.999,0 0,-146.599 z" /><path d="m 2.300,1.5 0,2.5 0,154.099 25.898,0 0,-156.599 -25.898,0 z m 5,5 15.898,0 0,146.599 -15.898,0 0,-146.599 z" /><path d="m 41.5,27.599 0,2.5 0,33.900 62.5,0 0,-36.400 -62.5,0 z m 5,5 52.5,0 L 99,59 l -52.5,0 0,-26.400 z" /><path d="m 54.5,38.099 a 2.500,2.500 0 1 0 0,5 l 36.599,0 a 2.500,2.500 0 1 0 0,-5 l -36.599,0 z" /><path d="m 54.5,48.5 a 2.500,2.500 0 1 0 0,5 l 36.599,0 a 2.500,2.500 0 1 0 0,-5 L 54.5,48.5 Z" /></svg>
