<svg xmlns="http://www.w3.org/2000/svg" viewBox="0 0 160 160"><path d="m 123.900,88.699 c -18.748,10e-7 -34.000,15.251 -33.999,34.000 0,18.748 15.251,34 33.999,34 18.748,0 34,-15.251 34,-34 0,-18.748 -15.251,-34.000 -34,-34.000 z m 0,5 c 16.045,0 29,12.954 29,29.000 0,16.045 -12.954,29 -29,29 -16.045,0 -28.999,-12.954 -28.999,-29 -2e-6,-16.045 12.954,-29 28.999,-29.000 z" /><path d="M 123.863 104.664 A 2.500 2.500 0 0 0 121.400 107.199 L 121.400 120.400 L 108.099 120.400 A 2.500 2.500 0 1 0 108.099 125.400 L 121.400 125.400 L 121.400 138.699 A 2.500 2.500 0 1 0 126.400 138.699 L 126.400 125.400 L 139.699 125.400 A 2.500 2.500 0 1 0 139.699 120.400 L 126.400 120.400 L 126.400 107.199 A 2.500 2.500 0 0 0 123.863 104.664 z " /><path d="M 21.400 2 A 2.500 2.500 0 0 0 18.900 4.5 L 18.900 12.5 L 5.699 12.5 A 2.500 2.500 0 0 0 3.199 15 L 3.199 41.300 L 3.199 149 A 2.500 2.500 0 0 0 5.699 151.5 L 106.5 151.5 A 2.500 2.500 0 0 0 107.892 146.923 C 100.049 141.664 94.900 132.850 94.900 122.699 C 94.900 106.649 107.850 93.699 123.900 93.699 C 128.210 93.699 132.252 94.704 135.974 96.378 A 2.500 2.500 0 0 0 139.5 94.099 L 139.5 41.300 L 139.5 15 A 2.500 2.500 0 0 0 139.488 14.75 A 2.500 2.500 0 0 0 137 12.5 L 123.800 12.5 L 123.800 4.5 A 2.500 2.500 0 0 0 121.300 2 L 102.900 2 A 2.500 2.500 0 0 0 100.400 4.5 L 100.400 12.5 L 42.300 12.5 L 42.300 4.5 A 2.500 2.500 0 0 0 39.800 2 L 21.400 2 z M 23.900 7 L 37.300 7 L 37.300 15 L 37.300 23 L 23.900 23 L 23.900 15 L 23.900 7 z M 105.400 7 L 118.800 7 L 118.800 14.302 A 2.500 2.500 0 0 0 118.699 15 L 118.699 23 L 105.400 23 L 105.400 7 z M 8.199 17.5 L 18.900 17.5 L 18.900 25.5 A 2.500 2.500 0 0 0 21.400 28 L 39.800 28 A 2.500 2.500 0 0 0 42.300 25.5 L 42.300 17.5 L 100.300 17.5 L 100.300 25.5 A 2.500 2.500 0 0 0 102.800 28 L 102.900 28 L 121.199 28 L 121.300 28 A 2.500 2.500 0 0 0 123.800 25.5 L 123.800 17.5 L 134.5 17.5 L 134.5 38.800 L 8.199 38.800 L 8.199 17.5 z M 8.199 43.800 L 134.5 43.800 L 134.5 90.630 C 131.160 89.512 127.662 88.699 123.900 88.699 C 105.149 88.699 89.900 103.948 89.900 122.699 C 89.900 132.017 93.726 140.344 99.779 146.5 L 8.199 146.5 L 8.199 43.800 z " /><path d="M 24.099 57.199 A 2.500 2.500 0 0 0 21.599 59.699 L 21.599 83.300 L 21.599 106.900 A 2.500 2.500 0 0 0 21.601 106.941 A 2.500 2.500 0 0 0 21.599 107 L 21.599 130.599 A 2.500 2.500 0 0 0 24.099 133.099 L 47.699 133.099 L 71.300 133.099 L 93.400 133.099 A 2.500 2.500 0 0 0 95.806 129.925 C 95.177 127.680 94.900 125.320 94.900 122.699 C 94.900 118.532 95.724 114.693 97.291 111.099 A 2.500 2.500 0 0 0 97.5 110.099 L 97.5 109.330 A 2.500 2.500 0 0 0 98.767 108.246 C 102.999 100.887 110.356 95.638 119.019 94.164 A 2.500 2.500 0 0 0 121.099 91.699 L 121.099 83.300 L 121.099 59.699 A 2.500 2.500 0 0 0 118.599 57.199 L 95 57.199 A 2.500 2.500 0 0 0 94.958 57.201 A 2.500 2.500 0 0 0 94.900 57.199 L 71.300 57.199 L 47.699 57.199 L 24.099 57.199 z M 26.599 62.199 L 45.199 62.199 L 45.199 80.800 L 26.599 80.800 L 26.599 62.199 z M 50.199 62.199 L 68.800 62.199 L 68.800 80.800 L 50.199 80.800 L 50.199 62.199 z M 73.800 62.199 L 92.400 62.199 L 92.400 80.800 L 73.800 80.800 L 73.800 62.199 z M 97.5 62.199 L 116.099 62.199 L 116.099 80.800 L 97.5 80.800 L 97.5 62.199 z M 26.599 85.800 L 45.199 85.800 L 45.199 104.400 L 26.599 104.400 L 26.599 85.800 z M 50.199 85.800 L 68.800 85.800 L 68.800 104.400 L 50.199 104.400 L 50.199 85.800 z M 73.800 85.800 L 92.400 85.800 L 92.400 104.400 L 73.800 104.400 L 73.800 85.800 z M 97.5 85.800 L 116.099 85.800 L 116.099 89.833 C 108.629 91.603 102.163 95.753 97.5 101.564 L 97.5 85.800 z M 26.599 109.5 L 45.199 109.5 L 45.199 128.099 L 26.599 128.099 L 26.599 109.5 z M 50.199 109.5 L 68.800 109.5 L 68.800 128.099 L 50.199 128.099 L 50.199 109.5 z M 73.800 109.5 L 92.5 109.5 L 92.5 109.757 C 90.839 113.787 89.900 118.107 89.900 122.699 C 89.900 124.553 90.081 126.339 90.361 128.099 L 73.800 128.099 L 73.800 109.5 z " /></svg>
