<svg xmlns="http://www.w3.org/2000/svg" viewBox="0 0 160 160"><path d="m 141.306,107.253 a 4.000,4.000 0 0 0 -3.287,1.757 l -14.324,20.548 -9.556,-7.851 a 4.000,4.000 0 1 0 -5.078,6.181 l 12.900,10.599 a 4.000,4.000 0 0 0 5.820,-0.802 l 16.800,-24.099 a 4.000,4.000 0 0 0 -3.275,-6.333 z" /><path d="m 125.099,90.400 c -18.974,-10e-7 -34.400,15.425 -34.400,34.400 10e-7,18.974 15.425,34.398 34.400,34.398 18.974,0 34.400,-15.423 34.400,-34.398 0,-18.974 -15.425,-34.400 -34.400,-34.400 z m 0,4 c 16.813,10e-7 30.400,13.587 30.400,30.400 0,16.813 -13.587,30.398 -30.400,30.398 -16.813,0 -30.400,-13.585 -30.400,-30.398 2e-6,-16.813 13.587,-30.400 30.400,-30.400 z" /><path d="M 19.699 1.199 A 2.000 2.000 0 0 0 17.699 3.199 L 17.699 12.099 L 3.5 12.099 A 2.000 2.000 0 0 0 3.300 12.109 A 2.000 2.000 0 0 0 3.103 12.138 A 2.000 2.000 0 0 0 2.908 12.189 A 2.000 2.000 0 0 0 2.720 12.257 A 2.000 2.000 0 0 0 1.933 12.857 A 2.000 2.000 0 0 0 1.816 13.019 A 2.000 2.000 0 0 0 1.529 13.759 A 2.000 2.000 0 0 0 1.505 13.958 A 2.000 2.000 0 0 0 1.5 14.099 L 1.5 41.099 L 1.5 151.900 A 2.000 2.000 0 0 0 3.5 153.900 L 107.199 153.900 A 2.000 2.000 0 0 0 108.314 150.238 C 100.042 144.692 94.699 135.428 94.699 124.800 C 94.699 107.980 108.279 94.400 125.099 94.400 C 129.594 94.400 133.910 95.430 137.759 97.214 A 2.000 2.000 0 0 0 140.599 95.400 L 140.599 41.099 L 140.599 14.099 A 2.000 2.000 0 0 0 140.589 13.900 A 2.000 2.000 0 0 0 140.509 13.507 A 2.000 2.000 0 0 0 139.992 12.664 A 2.000 2.000 0 0 0 139.134 12.171 A 2.000 2.000 0 0 0 138.939 12.128 A 2.000 2.000 0 0 0 138.599 12.099 L 124.400 12.099 L 124.400 3.199 A 2.000 2.000 0 0 0 122.400 1.199 L 103.5 1.199 A 2.000 2.000 0 0 0 101.5 3.199 L 101.5 12.099 L 40.599 12.099 L 40.599 3.199 A 2.000 2.000 0 0 0 38.599 1.199 L 19.699 1.199 z M 21.699 5.199 L 36.599 5.199 L 36.599 14.099 L 36.599 22.800 L 21.699 22.800 L 21.699 14.099 L 21.699 5.199 z M 105.5 5.199 L 120.400 5.199 L 120.400 14.099 L 120.400 22.800 L 105.5 22.800 L 105.5 14.099 L 105.5 5.199 z M 5.5 16.099 L 17.699 16.099 L 17.699 24.800 L 17.699 24.900 A 2.000 2.000 0 0 0 17.708 25.099 A 2.000 2.000 0 0 0 17.943 25.859 A 2.000 2.000 0 0 0 18.306 26.335 A 2.000 2.000 0 0 0 18.457 26.466 A 2.000 2.000 0 0 0 19.359 26.871 A 2.000 2.000 0 0 0 19.558 26.894 A 2.000 2.000 0 0 0 19.699 26.900 L 38.599 26.900 A 2.000 2.000 0 0 0 39.191 26.810 A 2.000 2.000 0 0 0 39.378 26.742 A 2.000 2.000 0 0 0 39.558 26.656 A 2.000 2.000 0 0 0 39.888 26.429 A 2.000 2.000 0 0 0 40.035 26.292 A 2.000 2.000 0 0 0 40.166 26.142 A 2.000 2.000 0 0 0 40.283 25.980 A 2.000 2.000 0 0 0 40.382 25.806 A 2.000 2.000 0 0 0 40.462 25.625 A 2.000 2.000 0 0 0 40.527 25.435 A 2.000 2.000 0 0 0 40.570 25.240 A 2.000 2.000 0 0 0 40.599 24.900 L 40.599 24.800 L 40.599 16.099 L 101.5 16.099 L 101.5 24.800 L 101.5 24.900 A 2.000 2.000 0 0 0 101.589 25.492 A 2.000 2.000 0 0 0 101.744 25.859 A 2.000 2.000 0 0 0 101.849 26.029 A 2.000 2.000 0 0 0 102.107 26.335 A 2.000 2.000 0 0 0 102.257 26.466 A 2.000 2.000 0 0 0 102.419 26.583 A 2.000 2.000 0 0 0 102.964 26.828 A 2.000 2.000 0 0 0 103.160 26.871 A 2.000 2.000 0 0 0 103.359 26.894 A 2.000 2.000 0 0 0 103.5 26.900 L 122.400 26.900 A 2.000 2.000 0 0 0 122.796 26.861 A 2.000 2.000 0 0 0 123.179 26.742 A 2.000 2.000 0 0 0 123.359 26.656 A 2.000 2.000 0 0 0 123.689 26.429 A 2.000 2.000 0 0 0 124.083 25.980 A 2.000 2.000 0 0 0 124.183 25.806 A 2.000 2.000 0 0 0 124.263 25.625 A 2.000 2.000 0 0 0 124.328 25.435 A 2.000 2.000 0 0 0 124.400 24.900 L 124.400 24.800 L 124.400 16.099 L 136.599 16.099 L 136.599 39.099 L 5.5 39.099 L 5.5 16.099 z M 5.5 43.099 L 136.599 43.099 L 136.599 92.617 C 132.982 91.305 129.152 90.400 125.099 90.400 C 106.119 90.400 90.699 105.820 90.699 124.800 C 90.699 134.699 94.882 143.574 101.589 149.900 L 5.5 149.900 L 5.5 43.099 z " /><path d="M 22.400 58 A 2.000 2.000 0 0 0 20.400 60 L 20.400 84.300 L 20.400 108.599 L 20.400 132.900 A 2.000 2.000 0 0 0 22.400 134.900 L 46.699 134.900 L 71 134.900 L 93.699 134.900 A 2.000 2.000 0 0 0 95.648 132.451 C 95.072 129.957 94.699 127.410 94.699 124.800 C 94.699 120.490 95.637 116.357 97.232 112.699 A 2.000 2.000 0 0 0 97.400 111.900 L 97.400 110.558 A 2.000 2.000 0 0 0 98.726 109.611 C 103.236 101.907 110.925 96.374 120.025 94.873 A 2.000 2.000 0 0 0 121.699 92.900 L 121.699 84.300 L 121.699 60 A 2.000 2.000 0 0 0 119.699 58 L 95.400 58 A 2.000 2.000 0 0 0 95.355 58.001 A 2.000 2.000 0 0 0 95.300 58 L 71 58 L 46.699 58 L 22.400 58 z M 24.400 62 L 44.699 62 L 44.699 82.300 L 24.400 82.300 L 24.400 62 z M 48.699 62 L 69 62 L 69 82.300 L 48.699 82.300 L 48.699 62 z M 73 62 L 93.300 62 L 93.300 82.300 L 73 82.300 L 73 62 z M 97.400 62 L 117.699 62 L 117.699 82.300 L 97.400 82.300 L 97.400 62 z M 24.400 86.300 L 44.699 86.300 L 44.699 106.599 L 24.400 106.599 L 24.400 86.300 z M 48.699 86.300 L 69 86.300 L 69 106.599 L 48.699 106.599 L 48.699 86.300 z M 73 86.300 L 93.300 86.300 L 93.300 106.599 L 73 106.599 L 73 86.300 z M 97.400 86.300 L 117.699 86.300 L 117.699 91.400 C 109.363 93.221 102.283 98.049 97.400 104.714 L 97.400 86.300 z M 24.400 110.599 L 44.699 110.599 L 44.699 130.900 L 24.400 130.900 L 24.400 110.599 z M 48.699 110.599 L 69 110.599 L 69 130.900 L 48.699 130.900 L 48.699 110.599 z M 73 110.599 L 93.400 110.599 L 93.400 111.619 C 91.722 115.637 90.699 120.103 90.699 124.800 C 90.699 126.912 90.959 128.929 91.304 130.900 L 73 130.900 L 73 110.599 z " /></svg>
