<svg xmlns="http://www.w3.org/2000/svg" viewBox="0 0 160 160"><path d="M 77.470 0.972 A 2.000 2.000 0 0 0 77.185 1 L 3.5 1 A 2.000 2.000 0 0 0 1.5 3 L 1.5 141.5 A 2.000 2.000 0 0 0 3.5 143.5 L 111 143.5 A 2.000 2.000 0 0 0 113 141.5 L 113 36.724 A 2.000 2.000 0 0 0 112.226 34.800 L 79.085 1.755 A 2.000 2.000 0 0 0 77.470 0.972 z M 5.5 5 L 75.5 5 L 75.5 36.400 A 2.000 2.000 0 0 0 77.5 38.400 L 109 38.400 L 109 139.5 L 5.5 139.5 L 5.5 5 z M 79.5 7.818 L 106.162 34.400 L 79.5 34.400 L 79.5 7.818 z M 41.685 43.982 A 2.000 2.000 0 0 0 40.453 44.437 L 29.935 52.833 L 26.398 49.371 A 2.000 2.000 0 1 0 23.601 52.228 L 28.400 56.929 A 2.000 2.000 0 0 0 31.046 57.062 L 42.947 47.562 A 2.000 2.000 0 0 0 41.685 43.982 z M 48.900 51.199 A 2.000 2.000 0 1 0 48.900 55.199 L 87.099 55.199 A 2.000 2.000 0 1 0 87.099 51.199 L 48.900 51.199 z M 41.685 70.283 A 2.000 2.000 0 0 0 40.453 70.736 L 29.949 79.121 L 26.414 75.585 A 2.000 2.000 0 1 0 23.585 78.414 L 28.386 83.214 A 2.000 2.000 0 0 0 31.046 83.363 L 42.947 73.863 A 2.000 2.000 0 0 0 41.685 70.283 z M 48.900 77.400 A 2.000 2.000 0 1 0 48.900 81.400 L 87.099 81.400 A 2.000 2.000 0 1 0 87.099 77.400 L 48.900 77.400 z M 41.675 96.482 A 2.000 2.000 0 0 0 40.443 96.943 L 29.943 105.414 L 26.414 101.886 A 2.000 2.000 0 1 0 23.585 104.714 L 28.386 109.513 A 2.000 2.000 0 0 0 31.056 109.656 L 42.955 100.056 A 2.000 2.000 0 0 0 41.675 96.482 z M 48.900 103.699 A 2.000 2.000 0 1 0 48.900 107.699 L 87.099 107.699 A 2.000 2.000 0 1 0 87.099 103.699 L 48.900 103.699 z " /><path d="M129.6,124.6c-8.5-19.8-21.1-41-21.1-41c-17.4,18.4-23.8,37.6-24.7,42.8c-3.8,29.6,22.5,31.1,22.5,31.1  s1.8,0.2,3.9,0C136.7,153.1,131.8,130.5,129.6,124.6z M100.5,123.4c-0.7-0.1-1.3-0.2-1.3-0.2s-8.8-1.9-5.9-11.7  c0.6-1.7,3.8-7.8,10.6-13c0,0,3.1,7.8,4.8,14.9C109.2,115.5,109.6,123.4,100.5,123.4z" /></svg>
