<svg xmlns="http://www.w3.org/2000/svg" viewBox="0 0 160 160"><path d="M 77.470 0.972 A 2.000 2.000 0 0 0 77.185 1 L 3.5 1 A 2.000 2.000 0 0 0 1.5 3 L 1.5 141.5 A 2.000 2.000 0 0 0 3.5 143.5 L 111 143.5 A 2.000 2.000 0 0 0 113 141.5 L 113 36.724 A 2.000 2.000 0 0 0 112.226 34.800 L 79.085 1.755 A 2.000 2.000 0 0 0 77.470 0.972 z M 5.5 5 L 75.5 5 L 75.5 36.400 A 2.000 2.000 0 0 0 77.5 38.400 L 109 38.400 L 109 139.5 L 5.5 139.5 L 5.5 5 z M 79.5 7.818 L 106.162 34.400 L 79.5 34.400 L 79.5 7.818 z M 41.685 43.982 A 2.000 2.000 0 0 0 40.453 44.437 L 29.935 52.833 L 26.398 49.371 A 2.000 2.000 0 1 0 23.601 52.228 L 28.400 56.929 A 2.000 2.000 0 0 0 31.046 57.062 L 42.947 47.562 A 2.000 2.000 0 0 0 41.685 43.982 z M 48.900 51.199 A 2.000 2.000 0 1 0 48.900 55.199 L 87.099 55.199 A 2.000 2.000 0 1 0 87.099 51.199 L 48.900 51.199 z M 41.685 70.283 A 2.000 2.000 0 0 0 40.453 70.736 L 29.949 79.121 L 26.414 75.585 A 2.000 2.000 0 1 0 23.585 78.414 L 28.386 83.214 A 2.000 2.000 0 0 0 31.046 83.363 L 42.947 73.863 A 2.000 2.000 0 0 0 41.685 70.283 z M 48.900 77.400 A 2.000 2.000 0 1 0 48.900 81.400 L 87.099 81.400 A 2.000 2.000 0 1 0 87.099 77.400 L 48.900 77.400 z M 41.675 96.482 A 2.000 2.000 0 0 0 40.443 96.943 L 29.943 105.414 L 26.414 101.886 A 2.000 2.000 0 1 0 23.585 104.714 L 28.386 109.513 A 2.000 2.000 0 0 0 31.056 109.656 L 42.955 100.056 A 2.000 2.000 0 0 0 41.675 96.482 z M 48.900 103.699 A 2.000 2.000 0 1 0 48.900 107.699 L 87.099 107.699 A 2.000 2.000 0 1 0 87.099 103.699 L 48.900 103.699 z " /><path d="M153.4,110.4L132,84.1H89.1l-21.4,26.2l42.9,37.8L153.4,110.4z M142.6,110.9v0.3L120.1,130l6.9-18.6  L142.6,110.9z M128.7,90l-2.8,17.7l-11.3-5.6L128.7,90z M78.4,111.3v-0.3l15.7,0.5L101,130L78.4,111.3z M95.2,107.6L92.4,90  l14.1,12.1L95.2,107.6z" /></svg>
