<svg xmlns="http://www.w3.org/2000/svg" viewBox="0 0 160 160"><path d="M 77.470 0.972 A 2.000 2.000 0 0 0 77.185 1 L 3.5 1 A 2.000 2.000 0 0 0 1.5 3 L 1.5 141.5 A 2.000 2.000 0 0 0 3.5 143.5 L 97.845 143.5 L 97.845 139.5 L 5.5 139.5 L 5.5 5 L 75.5 5 L 75.5 36.400 A 2.000 2.000 0 0 0 77.5 38.400 L 109 38.400 L 109 71.599 L 113 71.599 L 113 36.724 A 2.000 2.000 0 0 0 112.226 34.800 L 79.085 1.755 A 2.000 2.000 0 0 0 77.470 0.972 z M 79.5 7.818 L 106.162 34.400 L 79.5 34.400 L 79.5 7.818 z M 41.685 43.982 A 2.000 2.000 0 0 0 40.453 44.437 L 29.935 52.833 L 26.398 49.371 A 2.000 2.000 0 1 0 23.601 52.228 L 28.400 56.929 A 2.000 2.000 0 0 0 31.046 57.062 L 42.947 47.562 A 2.000 2.000 0 0 0 41.685 43.982 z M 48.900 51.199 A 2.000 2.000 0 1 0 48.900 55.199 L 87.099 55.199 A 2.000 2.000 0 1 0 87.099 51.199 L 48.900 51.199 z M 41.685 70.283 A 2.000 2.000 0 0 0 40.453 70.736 L 29.949 79.121 L 26.414 75.585 A 2.000 2.000 0 1 0 23.585 78.414 L 28.386 83.214 A 2.000 2.000 0 0 0 31.046 83.363 L 42.947 73.863 A 2.000 2.000 0 0 0 41.685 70.283 z M 48.900 77.400 A 2.000 2.000 0 1 0 48.900 81.400 L 87.099 81.400 A 2.000 2.000 0 1 0 87.099 77.400 L 48.900 77.400 z M 41.675 96.482 A 2.000 2.000 0 0 0 40.443 96.943 L 29.943 105.414 L 26.414 101.886 A 2.000 2.000 0 1 0 23.585 104.714 L 28.386 109.513 A 2.000 2.000 0 0 0 31.056 109.656 L 42.955 100.056 A 2.000 2.000 0 0 0 41.675 96.482 z M 48.900 103.699 A 2.000 2.000 0 1 0 48.900 107.699 L 87.099 107.699 A 2.000 2.000 0 1 0 87.099 103.699 L 48.900 103.699 z " /><path d="M111.1,78.2c-2.8,0-5,0.6-5,1.2c0,0.7,2.2,1.2,5,1.2c2.7,0,5-0.6,5-1.2C116.1,78.8,113.8,78.2,111.1,78.2z   M144.4,81.8c1,0,1.8-0.8,1.8-1.8V79c0-1-0.8-1.8-1.8-1.8h-1.3c-3-2.4-12.4-4.2-23.6-4.2c-11.2,0-20.6,1.8-23.6,4.2h-1.5  c-1,0-1.8,0.8-1.8,1.8V80c0,1,0.8,1.8,1.8,1.8h0.5v15.3h-0.5c-1,0-1.8,0.8-1.8,1.8v1.1c0,1,0.8,1.8,1.8,1.8h0.5V117h-0.5  c-1,0-1.8,0.8-1.8,1.8v1.1c0,1,0.8,1.8,1.8,1.8h0.5v20.2c0,3.2,11.1,5.8,24.7,5.8c13.6,0,24.7-2.6,24.7-5.8v-20.2h0.2  c1,0,1.8-0.8,1.8-1.8v-1.1c0-1-0.8-1.8-1.8-1.8h-0.2v-15.3h0.2c1,0,1.8-0.8,1.8-1.8v-1.1c0-1-0.8-1.8-1.8-1.8h-0.2V81.8H144.4z   M119.9,127.5c-20.6-1.9,0-28.4,0-28.4v0.1C139.5,127.6,119.9,127.5,119.9,127.5z M119.5,84.7c-11.4,0-20.6-2.2-20.6-4.9  s9.2-4.9,20.6-4.9c11.4,0,20.6,2.2,20.6,4.9S130.9,84.7,119.5,84.7z" /></svg>
