<svg xmlns="http://www.w3.org/2000/svg" viewBox="0 0 32 33" width="32" height="33">	
	<path d="M29.25 0.75C29.81 0.75 30.38 1.03 30.8 1.45C31.22 1.87 31.5 2.44 31.5 3L31.5 30C31.5 30.63 31.22 31.2 30.8 31.62C30.38 32.04 29.81 32.25 29.25 32.25L2.25 32.25C1.62 32.25 1.05 32.04 0.63 31.62C0.21 31.2 0 30.63 0 30L0 3C0 2.44 0.21 1.87 0.63 1.45C1.05 1.03 1.62 0.75 2.25 0.75L29.25 0.75ZM9.56 27.75L9.56 12.7L4.85 12.7L4.85 27.75L9.56 27.75ZM7.17 10.66C7.88 10.66 8.51 10.45 9.07 9.89C9.63 9.33 9.91 8.7 9.91 7.99C9.91 7.29 9.63 6.66 9.07 6.09C8.51 5.53 7.88 5.25 7.17 5.25C6.4 5.25 5.77 5.53 5.27 6.09C4.71 6.66 4.5 7.29 4.5 7.99C4.5 8.7 4.71 9.33 5.27 9.89C5.77 10.45 6.4 10.66 7.17 10.66ZM27 27.75L27 19.52C27 17.2 26.65 15.52 26.02 14.39C25.1 13.05 23.55 12.35 21.45 12.35C20.32 12.35 19.41 12.63 18.56 13.12C17.86 13.55 17.3 14.11 17.02 14.74L16.95 14.74L16.95 12.7L12.45 12.7L12.45 27.75L17.09 27.75L17.09 20.3C17.09 19.17 17.23 18.26 17.58 17.62C18 16.85 18.77 16.43 19.9 16.43C20.95 16.43 21.66 16.92 22.01 17.77C22.22 18.33 22.36 19.24 22.36 20.44L22.36 27.75L27 27.75Z" />
</svg>