<svg viewBox="0 0 160 160"><path d="M142,109.5l-15.8-15.8c8.3-9.4,13.4-21.7,13.4-35.3c0-29.5-23.9-53.4-53.4-53.4c-13.5,0-25.9,5.1-35.3,13.4 L35.2,2.7c-1.3-1.3-3.4-1.3-4.7,0c-1.3,1.3-1.3,3.4,0,4.7l4,4c-25,27.5-24.3,70.1,2.2,96.7c13.7,13.7,31.6,20.5,49.6,20.5v23.4h-20 c-1.8,0-3.3,1.5-3.3,3.3c0,1.8,1.5,3.3,3.3,3.3H113c1.9,0,3.3-1.5,3.3-3.3c0-1.8-1.5-3.3-3.3-3.3h-20v-23.7 c14.6-1.4,28.8-7.4,40.4-17.9l4,4c0.7,0.7,1.5,1,2.4,1c0.9,0,1.7-0.3,2.4-1C143.3,112.9,143.3,110.8,142,109.5z M41.4,103.3 C17.5,79.4,16.8,41,39.2,16.1l7.1,7.1c-8.3,9.4-13.4,21.7-13.4,35.3c0,29.5,23.9,53.4,53.4,53.4c13.5,0,25.9-5.1,35.3-13.4l7.1,7.1 C103.8,127.9,65.4,127.2,41.4,103.3z" /></svg>
