<svg xmlns="http://www.w3.org/2000/svg" viewBox="0 0 160 160"><path d="M80.1 4.9C38.4 4.9 4.6 38.7 4.6 80.4s33.8 75.5 75.5 75.5 75.5-33.8 75.5-75.5S121.8 4.9 80.1 4.9zm0 137.4c-34.2 0-61.9-27.7-61.9-61.9s27.7-61.9 61.9-61.9S142 46.2 142 80.4s-27.7 61.9-61.9 61.9z"/><path d="M89.9 67.2c-.8-.6-1.9-.4-2.4.3-.6.8-.4 1.9.3 2.4 2.3 1.7 4.1 5.4 4.1 9.6 0 4.7-2.2 8.6-4.9 10.1-.8.5-1.1 1.5-.7 2.4.3.6.9.9 1.5.9.3 0 .6-.1.9-.2 4.1-2.4 6.6-7.4 6.6-13.1 0-5.2-2.1-9.8-5.4-12.4zm12.7-16.1c-.8-.6-1.9-.4-2.4.3-.6.8-.4 1.9.3 2.4 6.4 4.8 10.9 14.3 10.9 25.2 0 12.1-5.6 22.4-13.1 26.7-.8.5-1.1 1.5-.7 2.4.3.6.9.9 1.5.9.3 0 .6-.1.9-.2 8.9-5.1 14.8-16.5 14.8-29.7 0-11.9-4.8-22.3-12.2-28zm2.4 28.3c0-8.2-3.3-15.3-8.5-19.3-.8-.6-1.9-.4-2.4.3-.6.8-.4 1.9.3 2.4 4.1 3.1 7.1 9.3 7.1 16.6 0 8-3.7 14.8-8.5 17.5-.8.5-1.1 1.5-.7 2.4.3.6.9.9 1.5.9.3 0 .6-.1.9-.2 6.2-3.7 10.3-11.6 10.3-20.6zM44.2 67.7v25.9h15.7l22.4 18.7V48.6L59.6 67.8l-15.4-.1z"/></svg>
