<svg xmlns="http://www.w3.org/2000/svg" viewBox="0 0 160 160"><path d="M 101.400 51.099 C 94.625 51.099 88.462 52.809 83.857 55.714 C 79.270 58.608 76.125 62.852 76.101 67.744 A 2.000 2.000 0 0 0 76.099 67.777 C 76.099 67.785 76.099 67.792 76.099 67.800 L 76.099 67.824 L 76.099 76.890 A 2.000 2.000 0 0 0 76 77.5 L 76 77.548 L 76 87.300 C 76 87.786 76.039 88.264 76.099 88.736 L 76.099 97.099 L 76.099 97.125 L 76.099 106.900 L 76.099 106.923 L 76.099 116.699 C 76.099 117.185 76.138 117.662 76.199 118.134 L 76.199 125.898 A 2.000 2.000 0 0 0 76.099 126.5 L 76.099 126.525 L 76.099 136.300 C 76.099 141.214 79.271 145.473 83.882 148.378 C 88.493 151.284 94.656 153 101.400 153 C 107.428 153 112.861 151.647 117.25 149.302 C 121.636 151.643 127.166 153 133.199 153 C 139.990 153 146.154 151.286 150.755 148.378 C 155.356 145.470 158.5 141.206 158.5 136.300 L 158.5 126.5 L 158.5 116.699 L 158.5 106.900 L 158.5 97.099 C 158.5 92.183 155.346 87.918 150.742 85.013 C 146.137 82.108 139.974 80.400 133.199 80.400 C 130.755 80.400 128.397 80.630 126.158 81.050 C 126.507 79.934 126.699 78.777 126.699 77.599 L 126.699 67.800 C 126.699 62.884 123.548 58.619 118.943 55.714 C 114.338 52.809 108.175 51.099 101.400 51.099 z M 101.400 55.099 C 107.493 55.099 112.980 56.682 116.808 59.097 C 120.636 61.512 122.699 64.598 122.699 67.800 C 122.699 70.986 120.622 74.076 116.783 76.496 C 113.424 78.612 108.802 80.091 103.642 80.427 C 102.905 80.475 102.158 80.5 101.400 80.5 C 100.643 80.5 99.896 80.475 99.160 80.427 C 94.005 80.091 89.405 78.612 86.056 76.496 C 82.234 74.080 80.146 70.983 80.101 67.787 C 80.107 64.589 82.169 61.509 85.992 59.097 C 89.820 56.682 95.307 55.099 101.400 55.099 z M 80.099 76.869 C 81.185 77.987 82.453 79.000 83.857 79.886 C 88.462 82.791 94.625 84.5 101.400 84.5 C 108.175 84.5 114.338 82.791 118.943 79.886 C 120.346 79.001 121.613 77.989 122.699 76.871 L 122.699 77.599 C 122.699 79.304 122.097 80.933 120.941 82.470 C 119.024 83.166 117.243 84.013 115.658 85.013 C 113.996 86.062 112.527 87.290 111.324 88.660 C 108.343 89.596 104.955 90.199 101.400 90.199 C 95.338 90.199 89.875 88.638 86.037 86.230 C 83.352 84.546 81.531 82.520 80.638 80.337 C 80.295 79.441 80.099 78.525 80.099 77.599 L 80.099 76.869 z M 133.199 84.400 C 139.292 84.400 144.781 85.981 148.609 88.396 C 152.437 90.811 154.5 93.896 154.5 97.099 C 154.5 100.285 152.422 103.375 148.583 105.794 C 145.225 107.911 140.601 109.391 135.441 109.728 C 134.704 109.776 133.956 109.800 133.199 109.800 C 132.441 109.800 131.693 109.776 130.957 109.728 C 130.672 109.710 130.398 109.673 130.117 109.648 C 128.205 109.477 126.370 109.165 124.664 108.710 C 122.075 108.019 119.765 107.031 117.867 105.833 C 114.057 103.430 112 100.354 112 97.099 A 2.000 2.000 0 0 0 111.937 96.638 C 111.947 96.470 111.956 96.302 111.978 96.134 C 112.177 94.746 112.796 93.361 113.767 92.044 A 2.000 2.000 0 0 0 114.027 91.791 C 115.949 89.519 118.941 87.492 122.746 86.193 A 2.000 2.000 0 0 0 123.296 85.902 C 126.248 84.959 129.612 84.400 133.199 84.400 z M 80 86.541 C 81.114 87.707 82.425 88.761 83.882 89.679 C 88.493 92.585 94.656 94.300 101.400 94.300 C 103.844 94.300 106.207 94.047 108.445 93.615 C 108.092 94.730 107.900 95.895 107.900 97.099 L 107.900 99.339 C 106.929 99.534 105.938 99.686 104.916 99.798 C 104.706 99.820 104.496 99.841 104.285 99.859 C 103.941 99.890 103.596 99.919 103.244 99.939 C 102.756 99.966 102.265 99.982 101.773 99.988 C 101.632 99.990 101.498 99.997 101.355 99.998 C 95.312 99.990 89.867 98.430 86.052 96.031 C 82.228 93.625 80.139 90.536 80.099 87.275 A 2.000 2.000 0 0 0 80 86.693 L 80 86.541 z M 80.099 96.441 C 81.171 97.527 82.411 98.514 83.783 99.378 C 88.394 102.284 94.557 104 101.300 104 C 101.319 104 101.336 103.998 101.355 103.998 C 101.370 103.998 101.385 104 101.400 104 C 101.811 104 102.214 103.982 102.619 103.966 C 104.477 103.914 106.265 103.754 108 103.449 L 108 106.296 A 2.000 2.000 0 0 0 107.900 106.900 L 107.900 106.923 L 107.900 109.156 C 107.474 109.240 107.043 109.315 106.609 109.384 C 106.462 109.406 106.315 109.430 106.167 109.451 C 105.869 109.494 105.567 109.532 105.263 109.568 C 104.769 109.624 104.272 109.671 103.771 109.707 C 103.651 109.715 103.534 109.727 103.414 109.734 C 102.747 109.775 102.075 109.800 101.400 109.800 C 95.344 109.800 89.854 108.214 86.015 105.794 C 84.596 104.900 83.421 103.913 82.5 102.865 C 80.950 101.086 80.124 99.114 80.099 97.076 L 80.099 96.441 z M 80.099 106.144 C 80.853 106.920 81.707 107.635 82.621 108.302 C 83.037 108.621 83.465 108.931 83.921 109.218 C 88.522 112.113 94.661 113.800 101.400 113.800 C 103.672 113.800 105.818 113.634 107.900 113.281 L 107.900 116.699 L 107.900 116.724 L 107.900 118.957 C 107.474 119.041 107.043 119.116 106.609 119.185 C 106.467 119.206 106.326 119.228 106.183 119.248 C 105.869 119.293 105.552 119.333 105.232 119.371 C 104.754 119.424 104.273 119.469 103.789 119.503 C 103.663 119.512 103.540 119.525 103.414 119.533 C 102.747 119.573 102.075 119.599 101.400 119.599 C 100.644 119.599 99.896 119.575 99.160 119.527 C 99.160 119.527 99.158 119.527 99.158 119.527 C 98.422 119.479 97.697 119.407 96.986 119.314 C 92.716 118.755 88.926 117.411 86.056 115.597 C 82.229 113.178 80.139 110.075 80.099 106.875 L 80.099 106.144 z M 154.5 106.167 L 154.5 106.900 C 154.5 110.086 152.422 113.176 148.583 115.595 C 145.225 117.712 140.601 119.190 135.441 119.527 C 134.704 119.574 133.956 119.599 133.199 119.599 C 132.441 119.599 131.694 119.574 130.958 119.527 C 125.804 119.191 121.204 117.714 117.855 115.597 C 116.818 114.942 115.922 114.232 115.146 113.488 C 113.093 111.495 112 109.231 112 106.900 L 112 106.265 C 113.064 107.345 114.295 108.325 115.658 109.185 C 117.396 110.282 119.357 111.207 121.488 111.935 C 121.492 111.936 121.496 111.938 121.5 111.939 C 122.188 112.174 122.893 112.389 123.615 112.582 C 124.065 112.702 124.533 112.799 124.996 112.902 C 125.304 112.971 125.607 113.052 125.921 113.113 C 126.306 113.188 126.705 113.239 127.097 113.302 C 127.481 113.364 127.857 113.438 128.248 113.488 C 128.248 113.488 128.25 113.488 128.25 113.488 C 129.852 113.693 131.506 113.800 133.199 113.800 C 134.042 113.800 134.876 113.772 135.699 113.720 C 135.702 113.720 135.705 113.720 135.708 113.720 C 141.490 113.353 146.713 111.727 150.742 109.185 C 152.146 108.299 153.413 107.286 154.5 106.167 z M 80.099 115.945 C 81.192 117.070 82.469 118.089 83.882 118.980 C 87.341 121.159 91.672 122.669 96.466 123.287 C 96.468 123.287 96.469 123.286 96.470 123.287 C 97.268 123.389 98.078 123.467 98.900 123.519 C 98.900 123.519 98.902 123.519 98.902 123.519 C 99.724 123.571 100.558 123.599 101.400 123.599 C 103.672 123.599 105.818 123.433 107.900 123.080 L 107.900 126.478 L 107.900 126.5 L 107.900 126.525 L 107.900 128.757 C 107.496 128.837 107.088 128.908 106.677 128.974 C 106.480 129.004 106.284 129.035 106.085 129.062 C 105.819 129.100 105.550 129.133 105.279 129.166 C 104.780 129.222 104.277 129.270 103.771 129.306 C 103.651 129.315 103.534 129.326 103.414 129.333 C 102.747 129.374 102.075 129.400 101.400 129.400 C 100.644 129.400 99.896 129.376 99.160 129.328 C 99.160 129.328 99.158 129.328 99.158 129.328 C 98.422 129.280 97.697 129.208 96.986 129.115 C 92.716 128.556 88.929 127.211 86.070 125.398 C 82.257 122.981 80.199 119.893 80.199 116.699 A 2.000 2.000 0 0 0 80.099 116.103 L 80.099 115.945 z M 154.5 115.966 L 154.5 116.699 C 154.5 119.885 152.422 122.975 148.583 125.394 C 145.225 127.511 140.601 128.991 135.441 129.328 C 134.704 129.375 133.956 129.400 133.199 129.400 C 132.442 129.400 131.694 129.375 130.958 129.328 C 125.804 128.991 121.204 127.513 117.855 125.396 C 114.463 123.252 112.444 120.573 112 117.763 L 112 116.699 L 112 115.994 C 112.789 116.809 113.692 117.555 114.658 118.25 C 114.667 118.256 114.676 118.262 114.685 118.269 C 115.017 118.507 115.340 118.752 115.689 118.974 C 120.266 121.885 126.408 123.599 133.199 123.599 C 139.990 123.599 146.154 121.886 150.755 118.978 C 152.155 118.093 153.417 117.082 154.5 115.966 z M 154.5 125.765 L 154.5 126.5 C 154.5 129.685 152.422 132.776 148.583 135.195 C 145.225 137.312 140.601 138.790 135.441 139.126 C 134.704 139.174 133.956 139.199 133.199 139.199 C 132.442 139.199 131.694 139.174 130.958 139.126 C 125.804 138.790 121.204 137.313 117.855 135.197 C 114.463 133.053 112.444 130.372 112 127.562 L 112 126.5 L 112 125.863 C 113.060 126.939 114.286 127.918 115.644 128.777 C 120.245 131.685 126.408 133.400 133.199 133.400 C 139.990 133.400 146.154 131.685 150.755 128.777 C 152.155 127.892 153.417 126.881 154.5 125.765 z M 80.199 125.841 C 81.270 126.927 82.510 127.914 83.882 128.779 C 87.341 130.958 91.672 132.469 96.466 133.087 C 96.468 133.088 96.469 133.087 96.470 133.087 C 97.268 133.190 98.078 133.267 98.900 133.320 C 98.900 133.320 98.902 133.320 98.902 133.320 C 99.724 133.372 100.558 133.400 101.400 133.400 C 103.672 133.400 105.818 133.234 107.900 132.880 L 107.900 136.300 C 107.900 137.050 107.982 137.782 108.123 138.5 C 106.586 138.807 105.005 139.036 103.351 139.138 C 102.723 139.171 102.091 139.196 101.451 139.197 C 95.414 139.188 89.945 137.607 86.117 135.195 C 82.278 132.776 80.199 129.685 80.199 126.5 L 80.199 125.841 z M 80.099 135.441 C 80.529 135.891 81.008 136.311 81.494 136.726 C 81.761 136.965 82.036 137.197 82.320 137.423 C 82.322 137.425 82.326 137.428 82.328 137.429 C 82.832 137.832 83.355 138.221 83.919 138.578 C 88.517 141.484 94.656 143.199 101.400 143.199 C 101.417 143.199 101.434 143.197 101.451 143.197 C 101.467 143.197 101.483 143.199 101.5 143.199 C 104.318 143.199 107.011 142.904 109.583 142.341 C 110.519 143.953 111.826 145.412 113.373 146.703 C 109.978 148.133 105.916 149 101.400 149 C 95.344 149 89.854 147.415 86.015 144.996 C 82.176 142.576 80.099 139.486 80.099 136.300 L 80.099 135.441 z M 154.5 135.566 L 154.5 136.300 C 154.5 139.494 152.443 142.579 148.619 144.996 C 144.795 147.413 139.308 149 133.199 149 C 127.464 149 122.298 147.590 118.521 145.419 A 2.000 2.000 0 0 0 118.281 145.257 C 117.925 145.057 117.583 144.849 117.255 144.632 C 117.243 144.624 117.232 144.615 117.220 144.607 C 115.121 143.208 113.620 141.482 112.781 139.732 A 2.000 2.000 0 0 0 112.646 139.230 C 112.219 138.205 112 137.293 112 136.300 L 112 135.664 C 113.060 136.740 114.286 137.719 115.644 138.578 C 119.674 141.125 124.902 142.753 130.701 143.119 C 131.522 143.170 132.356 143.199 133.199 143.199 C 134.042 143.199 134.876 143.171 135.699 143.119 C 141.497 142.753 146.726 141.124 150.755 138.578 C 152.155 137.693 153.417 136.682 154.5 135.566 z " /><path d="M 78.570 6.371 A 2.000 2.000 0 0 0 78.273 6.400 L 2.699 6.400 A 2.000 2.000 0 0 0 0.699 8.400 L 0.699 150.400 A 2.000 2.000 0 0 0 2.699 152.400 L 81 152.400 A 2.000 2.000 0 1 0 81 148.400 L 4.699 148.400 L 4.699 10.400 L 76.599 10.400 L 76.599 42.699 A 2.000 2.000 0 0 0 78.599 44.699 L 112.800 44.699 A 2.000 2.000 0 0 0 112.826 44.699 A 2.000 2.000 0 0 0 112.876 44.695 A 2.000 2.000 0 0 0 113.025 44.687 A 2.000 2.000 0 0 0 114.031 41.101 L 80.195 7.167 A 2.000 2.000 0 0 0 78.570 6.371 z M 80.599 13.238 L 107.980 40.699 L 80.599 40.699 L 80.599 13.238 z M 40.5 20.599 C 37.9 20.599 35.700 22.599 35.300 25.099 C 33.300 23.499 30.3 23.7 28.5 25.5 C 26.6 27.4 26.499 30.300 28.099 32.300 C 25.499 32.600 23.599 34.8 23.599 37.5 C 23.599 40.1 25.599 42.299 28.099 42.699 C 26.499 44.699 26.7 47.7 28.5 49.5 C 30.4 51.4 33.300 51.500 35.300 49.900 C 35.600 52.500 37.8 54.400 40.5 54.400 C 43.1 54.400 45.299 52.400 45.699 49.900 C 47.799 51.500 50.7 51.3 52.5 49.5 C 54.4 47.6 54.500 44.699 52.900 42.699 C 55.400 42.299 57.400 40.1 57.400 37.5 C 57.400 34.9 55.400 32.700 52.900 32.300 C 54.500 30.300 54.3 27.3 52.5 25.5 C 50.6 23.6 47.699 23.499 45.699 25.099 C 45.399 22.599 43.2 20.599 40.5 20.599 z M 40.400 29.5 C 44.800 29.5 48.300 33.000 48.300 37.400 C 48.300 41.800 44.800 45.300 40.400 45.300 C 36.000 45.300 32.5 41.800 32.5 37.400 C 32.5 33.000 36.000 29.5 40.400 29.5 z M 30.800 56.900 L 31 85.800 L 40.199 76.599 L 49.400 85.800 L 49.599 56.900 L 44.599 56.900 L 40.099 61.199 L 35.800 56.900 L 30.800 56.900 z " /></svg>
