<svg xmlns="http://www.w3.org/2000/svg" viewBox="0 0 160 160">
<style type="text/css">
	.st0{fill:none;stroke:#d3d3d3;stroke-width:3;stroke-miterlimit:10;}
	.st1{fill:none;stroke:#d3d3d3;stroke-width:3;stroke-miterlimit:10;}
	.st2{fill:none;stroke:#d3d3d3;stroke-width:4;stroke-miterlimit:10;}
</style>
<path class="st0" d="M91.7,41.8h0.3c1.4,0,2.5-1.3,2.3-2.7c-0.2-1.1-1.2-1.8-2.3-1.8h-0.9V24.1c0-0.3,0.2-0.5,0.5-0.5h0.3
	c1.1,0,2-0.7,2.3-1.8c0.3-1.5-0.9-2.7-2.3-2.7h-0.9H66.4h-0.8c-1.2,0-2.4,1-2.4,2.1c-0.1,1.3,1,2.3,2.3,2.3h0.3
	c0.3,0,0.5,0.2,0.5,0.5v12.7c0,0.3-0.2,0.5-0.5,0.5h-0.2c-1.2,0-2.4,1-2.4,2.1c-0.1,1.3,1,2.3,2.3,2.3h0.3c0.3,0,0.5,0.2,0.5,0.5V55
	c0,0.3-0.2,0.5-0.5,0.5h-0.2c-1.2,0-2.4,1-2.4,2.1c-0.1,1.3,1,2.3,2.3,2.3h0.9h24.8h0.9c1.1,0,2-0.7,2.3-1.8
	c0.3-1.5-0.9-2.7-2.3-2.7h-0.3c-0.3,0-0.5-0.2-0.5-0.5V42.3C91.2,42,91.4,41.8,91.7,41.8z M78.8,47.3c-3.3,0-6-2.7-6-5.9
	c0-2.3,3-6.7,4.8-9c0.6-0.8,1.8-0.8,2.5,0c1.7,2.3,4.8,6.7,4.8,9C84.9,44.6,82.2,47.3,78.8,47.3z"/>
<path class="st0" d="M118.8,94.4c1.1,0.4,2.3,1,3.3,1.4c0.2,0.1,0.5,0.1,0.9,0.1c1.4-0.1,2.8-0.5,4-1.2c0.4-0.2,0.8-0.2,1.2,0.1
	c0.1,0.1,0.3,0.2,0.4,0.3c0.6,0.5,1.5,1,1.9,1.8c0.2,0.4,0.6,0.6,1.1,0.7c0.2,0,0.4,0.1,0.6,0.2c1.3,0.5,1.9,1.7,2.5,2.8
	c0.4,0.8-0.2,1.8-1.2,1.8h-25.4c-0.5,0-0.8-0.6-0.4-1c1-1,2.5-2.4,3.3-3.3c0.1-0.1,0.3-0.3,0.3-0.4c-0.1-1.1,0.9-1.3,1.4-1.7
	c0.6-0.4,1.2-1,2-0.7c1.1,0.3,1.8-0.3,2.6-0.8C117.9,94.3,118.3,94.2,118.8,94.4z"/>
<ellipse class="st0" cx="128" cy="132.2" rx="2.9" ry="2.9"/>
<ellipse class="st0" cx="114.4" cy="132.2" rx="2.9" ry="2.9"/>
<path class="st0" d="M141.4,105.7h-40.3c-0.3,0-0.5,0.2-0.5,0.5v4.8c0,0.3,0.2,0.5,0.5,0.5h1.3c0.3,0,0.6,0.2,0.8,0.5l5.3,13.4
	c0.2,0.5,0.6,0.8,1.3,0.8h23c0.5,0,1.1-0.3,1.3-0.8l5.3-13.4c0.1-0.3,0.4-0.5,0.8-0.5h1.3c0.3,0,0.5-0.2,0.5-0.5v-4.8
	C141.9,105.9,141.6,105.7,141.4,105.7z M113.7,122c0,0.6-0.5,1.2-1.2,1.2s-1.2-0.5-1.2-1.2v-9c0-0.6,0.5-1.2,1.2-1.2
	s1.2,0.5,1.2,1.2V122z M119.5,122c0,0.6-0.5,1.2-1.2,1.2s-1.2-0.5-1.2-1.2v-9c0-0.6,0.5-1.2,1.2-1.2s1.2,0.5,1.2,1.2V122z
	 M125.2,122c0,0.6-0.5,1.2-1.2,1.2s-1.2-0.5-1.2-1.2v-9c0-0.6,0.5-1.2,1.2-1.2s1.2,0.5,1.2,1.2V122z M131,122c0,0.6-0.5,1.2-1.2,1.2
	c-0.6,0-1.2-0.5-1.2-1.2v-9c0-0.6,0.5-1.2,1.2-1.2c0.6,0,1.2,0.5,1.2,1.2V122z"/>
<path class="st1" d="M58.3,111.9L47.9,99.4H27.1l-10.4,12.5L37.6,130L58.3,111.9z M53.1,112.3v0.2l-11,8.9l3.3-8.9L53.1,112.3z
	 M46.3,102.2l-1.4,8.5l-5.5-2.7L46.3,102.2z M21.9,112.3v-0.2l7.7,0.2l3.3,8.9L21.9,112.3z M30,110.7l-1.4-8.5l6.8,5.8L30,110.7z"/>
<circle class="st2" cx="79" cy="39.3" r="35.7"/>
<circle class="st2" cx="121.7" cy="112.7" r="35.7"/>
<circle class="st2" cx="38.7" cy="112.7" r="35.7"/>
<line class="st2" x1="57" y1="81.3" x2="63.3" y2="71.7"/>
<line class="st2" x1="103.5" y1="81.2" x2="96.8" y2="71.8"/>
<line class="st2" x1="73.7" y1="110.3" x2="86" y2="110.3"/>
</svg>
