<svg viewBox="0 0 160 160"><path d="M 79 1.599 C 58.202 1.599 41.300 18.503 41.300 39.300 C 41.300 60.098 58.202 77 79 77 C 99.797 77 116.699 60.098 116.699 39.300 C 116.699 18.503 99.797 1.599 79 1.599 z M 79 5.599 C 97.635 5.599 112.699 20.665 112.699 39.300 C 112.699 57.936 97.635 73 79 73 C 60.364 73 45.300 57.936 45.300 39.300 C 45.300 20.665 60.364 5.599 79 5.599 z M 65.599 17.599 C 64.582 17.599 63.678 17.992 62.970 18.601 C 62.276 19.199 61.734 20.074 61.712 21.140 C 61.598 23.052 63.051 24.520 64.800 24.857 L 64.800 35.851 C 64.118 35.999 63.480 36.261 62.970 36.701 C 62.276 37.298 61.734 38.176 61.712 39.242 C 61.598 41.153 63.051 42.619 64.800 42.957 L 64.800 54.152 C 64.118 54.300 63.480 54.560 62.970 55 C 62.276 55.597 61.734 56.474 61.712 57.541 C 61.582 59.709 63.449 61.400 65.5 61.400 L 66.400 61.400 L 91.199 61.400 L 92.099 61.400 C 93.835 61.400 95.389 60.172 95.847 58.494 L 95.861 58.445 L 95.871 58.394 C 96.299 56.251 94.737 54.445 92.800 54.058 L 92.800 43.119 C 94.702 42.685 96.071 40.896 95.785 38.888 L 95.781 38.859 L 95.775 38.832 C 95.479 37.207 94.094 36.253 92.599 36.003 L 92.599 24.855 C 94.014 24.559 95.256 23.624 95.646 22.195 L 95.660 22.144 L 95.669 22.093 C 96.150 19.688 94.157 17.599 91.900 17.599 L 91 17.599 L 66.400 17.599 L 65.599 17.599 z M 65.599 20.599 L 66.400 20.599 L 91 20.599 L 91.900 20.599 C 92.416 20.599 92.778 20.900 92.712 21.439 C 92.567 21.905 92.342 22.099 91.900 22.099 L 91.599 22.099 C 91.116 22.099 90.568 22.287 90.177 22.677 C 89.787 23.068 89.599 23.616 89.599 24.099 L 89.599 38.800 L 92 38.800 C 92.451 38.800 92.729 39.024 92.802 39.353 C 92.845 39.845 92.457 40.300 92 40.300 L 91.699 40.300 C 91.215 40.300 90.638 40.462 90.210 40.960 C 89.882 41.343 89.761 41.893 89.800 42.369 L 89.800 54.900 C 89.800 55.383 89.986 55.931 90.376 56.322 C 90.767 56.712 91.317 56.900 91.800 56.900 L 92.099 56.900 C 92.615 56.900 92.975 57.200 92.912 57.738 C 92.766 58.203 92.541 58.400 92.099 58.400 L 91.199 58.400 L 66.400 58.400 L 65.5 58.400 C 64.969 58.400 64.664 58.117 64.695 57.714 L 64.699 57.658 L 64.699 57.599 C 64.699 57.595 64.737 57.438 64.929 57.273 C 65.121 57.107 65.416 57 65.599 57 L 65.800 57 C 66.284 57 66.832 56.814 67.222 56.423 C 67.613 56.033 67.800 55.483 67.800 55 L 67.800 42.099 C 67.800 41.616 67.613 41.068 67.222 40.677 C 66.832 40.287 66.284 40.099 65.800 40.099 L 65.5 40.099 C 64.969 40.099 64.664 39.818 64.695 39.416 L 64.699 39.357 L 64.699 39.300 C 64.699 39.296 64.737 39.140 64.929 38.974 C 65.121 38.809 65.416 38.699 65.599 38.699 L 65.800 38.699 C 66.284 38.699 66.832 38.513 67.222 38.123 C 67.613 37.732 67.800 37.182 67.800 36.699 L 67.800 24 C 67.800 23.516 67.613 22.966 67.222 22.576 C 66.832 22.185 66.284 22 65.800 22 L 65.5 22 C 64.969 22 64.664 21.717 64.695 21.314 L 64.699 21.257 L 64.699 21.199 C 64.699 21.194 64.737 21.040 64.929 20.875 C 65.121 20.709 65.416 20.599 65.599 20.599 z M 78.783 30.328 C 77.880 30.333 76.988 30.716 76.400 31.5 C 75.465 32.696 74.248 34.392 73.228 36.144 C 72.203 37.906 71.300 39.598 71.300 41.400 C 71.300 45.444 74.682 48.800 78.800 48.800 C 82.994 48.800 86.400 45.444 86.400 41.400 C 86.400 39.576 85.465 37.894 84.429 36.138 C 83.394 34.382 82.169 32.675 81.306 31.507 L 81.269 31.458 L 81.228 31.412 C 80.598 30.692 79.685 30.322 78.783 30.328 z M 78.845 33.287 C 78.868 33.296 78.901 33.323 78.955 33.380 C 79.788 34.510 80.925 36.100 81.845 37.662 C 82.785 39.256 83.400 40.924 83.400 41.400 C 83.400 43.756 81.406 45.800 78.800 45.800 C 76.318 45.800 74.300 43.756 74.300 41.400 C 74.300 40.902 74.897 39.242 75.822 37.654 C 76.746 36.066 77.918 34.427 78.781 33.324 L 78.791 33.312 L 78.800 33.300 C 78.811 33.286 78.823 33.277 78.845 33.287 z " /><path d="M 121.699 75 C 100.901 75 84 91.901 84 112.699 C 84 133.496 100.901 150.400 121.699 150.400 C 142.496 150.400 159.400 133.496 159.400 112.699 C 159.400 91.901 142.496 75 121.699 75 z M 121.699 79 C 140.334 79 155.400 94.063 155.400 112.699 C 155.400 131.334 140.334 146.400 121.699 146.400 C 103.063 146.400 88 131.334 88 112.699 C 88 94.063 103.063 79 121.699 79 z M 117.990 92.824 C 117.552 92.860 117.149 92.968 116.826 93.076 L 116.656 93.132 L 116.505 93.228 C 116.043 93.517 115.720 93.736 115.527 93.818 C 115.334 93.900 115.320 93.915 115.093 93.853 L 115.226 93.894 C 114.403 93.585 113.500 93.772 112.955 94.044 C 112.409 94.317 112.071 94.615 111.867 94.751 L 111.814 94.787 L 111.763 94.828 C 111.799 94.799 111.379 94.987 110.843 95.412 C 110.463 95.713 110.143 96.329 109.970 97.005 C 109.956 97.020 109.955 97.022 109.939 97.039 L 109.908 97.070 L 109.878 97.103 C 109.184 97.884 107.674 99.304 106.638 100.339 C 106.040 100.937 105.873 101.933 106.187 102.650 C 106.501 103.367 107.249 103.900 108.099 103.900 L 133.5 103.900 C 135.5 103.900 136.932 101.713 136.041 99.929 L 136.029 99.904 L 136.017 99.880 C 135.441 98.825 134.646 97.178 132.783 96.433 C 132.621 96.347 132.277 96.241 131.869 96.175 C 131.877 96.188 131.805 96.156 131.841 96.228 C 131.824 96.193 131.795 96.184 131.777 96.150 C 131.691 96.141 131.697 96.099 131.599 96.099 L 131.748 96.115 C 131.049 94.843 129.956 94.277 129.560 93.947 L 129.660 94.039 C 129.433 93.812 129.307 93.751 129.232 93.701 C 129.157 93.651 129.132 93.613 129.259 93.740 L 129.185 93.664 L 129.099 93.599 C 128.315 93.011 127.087 92.978 126.330 93.357 L 126.285 93.380 L 126.244 93.404 C 125.285 93.963 124.121 94.304 122.955 94.396 C 122.604 94.385 122.454 94.300 122.771 94.458 L 122.714 94.429 L 122.656 94.408 C 121.762 94.050 120.560 93.451 119.351 93.007 C 118.895 92.826 118.425 92.788 117.990 92.824 z M 118.242 95.792 L 118.265 95.800 L 118.287 95.810 C 119.263 96.165 120.446 96.754 121.542 97.193 L 121.429 97.142 C 122.166 97.510 122.6 97.400 123 97.400 L 123.052 97.400 L 123.107 97.396 C 124.617 97.288 126.113 96.852 127.468 96.119 C 127.492 96.133 127.550 96.185 127.568 96.197 C 127.643 96.247 127.665 96.286 127.539 96.160 L 127.587 96.208 L 127.640 96.251 C 128.429 96.909 129.048 97.351 129.158 97.570 C 129.626 98.506 130.580 98.925 131.306 99.070 L 131.380 99.085 C 131.379 99.084 131.431 99.093 131.529 99.142 L 131.593 99.173 L 131.662 99.199 C 132.251 99.425 132.649 100.045 133.130 100.900 L 110.318 100.900 C 110.965 100.269 111.626 99.649 112.111 99.105 C 112.167 99.049 112.237 98.982 112.339 98.859 C 112.402 98.784 112.472 98.699 112.558 98.554 C 112.643 98.410 112.797 98.222 112.798 97.703 C 112.904 97.643 113.155 97.557 113.636 97.171 L 113.531 97.248 C 113.918 96.990 114.167 96.798 114.277 96.740 L 114.304 96.748 C 115.177 96.986 116.067 96.848 116.699 96.580 C 117.236 96.352 117.574 96.098 117.886 95.892 C 118.084 95.819 118.178 95.767 118.242 95.792 z M 127.138 95.861 C 127.233 95.956 127.254 95.953 127.318 96.001 C 127.317 96.002 127.300 95.999 127.300 96 L 127.138 95.861 z M 127.755 95.996 L 127.669 96.041 C 127.671 96.040 127.654 96.040 127.654 96.039 C 127.686 96.020 127.723 96.014 127.755 95.996 z M 109.935 97.183 C 109.894 97.405 109.785 97.606 109.806 97.835 L 109.800 97.699 C 109.800 97.334 109.879 97.271 109.935 97.183 z M 101.099 104.199 C 100.616 104.199 100.068 104.386 99.677 104.777 C 99.287 105.167 99.099 105.715 99.099 106.199 L 99.099 111 C 99.099 111.483 99.287 112.033 99.677 112.423 C 100.068 112.814 100.616 113 101.099 113 L 101.982 113 L 107.105 125.955 L 107.107 125.957 C 107.486 126.905 108.672 127.699 109.800 127.699 L 132.800 127.699 C 133.900 127.699 134.984 127.225 135.492 125.957 L 135.494 125.955 L 140.619 113 L 141.5 113 C 141.983 113 142.533 112.814 142.923 112.423 C 143.314 112.033 143.5 111.483 143.5 111 L 143.5 105.957 L 143.423 105.726 C 143.263 105.244 142.977 104.902 142.658 104.654 C 142.339 104.406 142.000 104.199 141.400 104.199 L 101.099 104.199 z M 102.099 107.199 L 140.5 107.199 L 140.5 110 L 140.199 110 C 139.299 110 138.297 110.561 137.976 111.525 L 132.763 124.699 L 129.800 124.699 L 124 124.699 L 118.300 124.699 L 112.5 124.699 L 109.835 124.699 L 104.537 111.300 L 104.447 111.167 C 104.033 110.547 103.367 110 102.400 110 L 102.099 110 L 102.099 107.199 z M 112.5 124.699 C 114.057 124.699 115.199 123.433 115.199 122 L 115.199 113 C 115.199 111.585 113.914 110.300 112.5 110.300 C 110.942 110.300 109.800 111.566 109.800 113 L 109.800 122 C 109.800 123.414 111.085 124.699 112.5 124.699 z M 118.300 124.699 C 119.857 124.699 121 123.433 121 122 L 121 113 C 121 111.585 119.715 110.300 118.300 110.300 C 116.743 110.300 115.599 111.566 115.599 113 L 115.599 122 C 115.599 123.414 116.886 124.699 118.300 124.699 z M 124 124.699 C 125.557 124.699 126.699 123.433 126.699 122 L 126.699 113 C 126.699 111.585 125.414 110.300 124 110.300 C 122.442 110.300 121.300 111.566 121.300 113 L 121.300 122 C 121.300 123.414 122.585 124.699 124 124.699 z M 129.800 124.699 C 131.357 124.699 132.5 123.433 132.5 122 L 132.5 113 C 132.5 111.442 131.234 110.300 129.800 110.300 C 128.243 110.300 127.099 111.566 127.099 113 L 127.099 122 C 127.099 123.557 128.367 124.699 129.800 124.699 z M 114.400 127.800 C 111.988 127.800 110 129.786 110 132.199 C 110 134.611 111.988 136.599 114.400 136.599 C 116.812 136.599 118.800 134.611 118.800 132.199 C 118.800 129.786 116.812 127.800 114.400 127.800 z M 128 127.800 C 125.587 127.800 123.599 129.786 123.599 132.199 C 123.599 134.611 125.587 136.599 128 136.599 C 130.412 136.599 132.400 134.611 132.400 132.199 C 132.400 129.786 130.412 127.800 128 127.800 z M 114.400 130.800 C 115.191 130.800 115.800 131.408 115.800 132.199 C 115.800 132.990 115.191 133.599 114.400 133.599 C 113.609 133.599 113 132.990 113 132.199 C 113 131.408 113.609 130.800 114.400 130.800 z M 128 130.800 C 128.790 130.800 129.400 131.408 129.400 132.199 C 129.400 132.990 128.790 133.599 128 133.599 C 127.209 133.599 126.599 132.990 126.599 132.199 C 126.599 131.408 127.209 130.800 128 130.800 z " /><path d="M 38.699 75 C 17.901 75 1 91.901 1 112.699 C 1 133.496 17.901 150.400 38.699 150.400 C 59.496 150.400 76.400 133.496 76.400 112.699 C 76.400 91.901 59.496 75 38.699 75 z M 38.699 79 C 57.334 79 72.400 94.063 72.400 112.699 C 72.400 131.334 57.334 146.400 38.699 146.400 C 20.063 146.400 5 131.334 5 112.699 C 5 94.063 20.063 79 38.699 79 z M 26.396 97.900 L 14.605 112.070 L 37.605 131.988 L 60.388 112.066 L 59.453 110.941 L 48.603 97.900 L 26.396 97.900 z M 29.386 100.900 L 45.515 100.900 L 45.333 101.052 L 37.392 107.726 L 29.386 100.900 z M 47.896 101.740 L 56.210 111.734 L 54.599 113.144 L 54.599 110.759 L 53.060 110.800 L 46.375 110.974 L 47.896 101.740 z M 27.019 101.839 L 28.492 110.769 L 20.400 110.560 L 20.400 113.015 L 20.957 113.466 L 36.207 125.804 L 31.037 111.857 L 37.388 108.683 L 44.009 111.933 L 38.792 126.005 L 53.478 114.123 L 37.595 128.011 L 18.792 111.728 L 27.019 101.839 z M 44.162 105.957 L 43.748 108.464 L 42.126 107.667 L 44.162 105.957 z M 30.746 106.001 L 32.703 107.671 L 31.150 108.447 L 30.746 106.001 z M 26.025 113.707 L 28.546 113.773 L 29.593 116.593 L 26.025 113.707 z M 48.974 113.906 L 45.406 116.794 L 46.453 113.972 L 48.974 113.906 z " /><path d="m 61.626,70.603 -6.298,9.599 3.343,2.193 6.300,-9.599 -3.345,-2.193 z" /><path d="m 98.427,70.638 -3.255,2.322 6.699,9.400 3.257,-2.322 -6.701,-9.400 z" /><path d="m 73.699,108.300 0,4 12.300,0 0,-4 -12.300,0 z" /></svg>