<svg xmlns="http://www.w3.org/2000/svg" viewBox="0 0 160 160"><path d="M 119.400 0.699 C 100.391 0.699 84.599 15.123 84.599 33 L 84.599 64.300 L 2.5 64.300 L 2.5 67.300 L 2.5 119.599 L 2.5 122.599 L 2.5 158.699 L 2.5 158.800 L 124.599 158.800 L 124.599 158.699 L 124.599 119.599 L 124.599 64.300 L 90.599 64.300 L 90.599 33 C 90.599 18.676 103.408 6.699 119.400 6.699 C 135.391 6.699 148.199 18.676 148.199 33 L 148.199 41.900 A 3.000 3.000 0 1 0 154.199 41.900 L 154.199 33 C 154.199 15.123 138.408 0.699 119.400 0.699 z M 8.5 70.300 L 87.107 70.300 A 3.000 3.000 0 0 0 88.080 70.300 L 118.599 70.300 L 118.599 119.599 L 102.638 119.599 A 3.000 3.000 0 0 0 102.136 119.570 A 3.000 3.000 0 0 0 101.816 119.599 L 69.529 119.599 A 3.000 3.000 0 0 0 69.041 119.570 A 3.000 3.000 0 0 0 68.710 119.599 L 36.330 119.599 A 3.000 3.000 0 0 0 35.841 119.570 A 3.000 3.000 0 0 0 35.511 119.599 L 8.5 119.599 L 8.5 70.300 z M 8.5 125.599 L 28.658 125.599 L 8.5 145.755 L 8.5 125.599 z M 37.142 125.599 L 61.857 125.599 L 34.757 152.699 L 9.955 152.699 A 3.001 3.001 0 0 0 10.421 152.322 L 37.142 125.599 z M 70.341 125.599 L 94.974 125.599 L 67.955 152.699 L 43.244 152.699 L 70.341 125.599 z M 103.445 125.599 L 118.599 125.599 L 118.599 135.865 L 101.765 152.699 L 76.427 152.699 L 103.445 125.599 z M 118.599 142.935 L 118.599 152.699 L 108.835 152.699 L 118.599 142.935 z " /></svg>
