<svg id="production" xmlns="http://www.w3.org/2000/svg" xmlns:xlink="http://www.w3.org/1999/xlink" viewBox="0 0 160 160">
<style type="text/css">
	.st0{fill:none;stroke:#0093cf;stroke-width:5;stroke-linecap:round;stroke-linejoin:round;stroke-miterlimit:10;}
	.st1{fill:#0093cf;}
</style>
<polyline class="st0" points="13.9,116.3 4.5,116.3 4.5,3.8 153.5,3.8 153.5,116.3 141.5,116.3 "/>
<rect x="23.3" y="22.3" class="st0" width="56.4" height="19.8"/>
<rect x="116.3" y="22.3" class="st0" width="19.4" height="19.8"/>
<line class="st0" x1="79.7" y1="32.2" x2="116.3" y2="32.2"/>
<line class="st0" x1="29.9" y1="51.9" x2="79.7" y2="51.9"/>
<line class="st0" x1="23.3" y1="61.8" x2="64.5" y2="61.8"/>
<line class="st0" x1="23.3" y1="71" x2="53" y2="71"/>
<line class="st0" x1="23.3" y1="80.3" x2="41.1" y2="80.3"/>
<line class="st0" x1="98" y1="32.2" x2="98" y2="60"/>
<path class="st1" d="M97.7,99.4L90.4,96c-0.6-0.3-1.3,0-1.7,0.7l-8.2,13.4c-0.4,0.6-1.1,0.8-1.8,0.5l-22.3-10.3c0,0,0-0.1,0-0.1
	c0-5.7-4.6-10.4-10.4-10.4c-2.4,0-4.6,0.8-6.4,2.2c-0.2,0.2-0.5,0.2-0.8,0.1l-9.4-4.4c-2.4-1.1-5.3-0.4-6.8,1.8
	c-0.8,1.2-0.9,4-0.9,4v47.6c0,0.1-0.1,0.2-0.2,0.2h-5.3c-1,0-1.8,0.8-1.8,1.8v8.9c0,1,0.8,1.8,1.8,1.8h72.4c1,0,1.8-0.8,1.8-1.8
	v-8.9c0-1-0.8-1.8-1.8-1.8h-9.3c0-0.1,0.1-0.1,0.1-0.2l11.5-18.8c0.1-0.1,0.1-0.3,0.2-0.4l6.9-20.9C98.5,100.4,98.2,99.6,97.7,99.4z
	 M46,94.8c3,0,5.4,2.4,5.4,5.4c0,3-2.4,5.4-5.4,5.4c-3,0-5.4-2.4-5.4-5.4C40.6,97.2,43.1,94.8,46,94.8z M26.3,141.2V99.1
	c0-0.6,0.6-0.9,1.1-0.7l8.2,3.8c0.2,0.1,0.4,0.3,0.4,0.5c0.6,2.4,2,4.5,4,5.9c0.3,0.2,0.4,0.6,0.3,0.9c-1.5,4.1-11.2,29.7-12,31.8
	c0,0.1-0.1,0.1-0.2,0.1h-1.5C26.4,141.4,26.3,141.3,26.3,141.2z M33,141.1L44.4,111c0.1-0.3,0.4-0.5,0.8-0.5c0.3,0,0.6,0,0.9,0
	c0.3,0,0.6,0,0.9,0c0.3,0,0.7,0.2,0.8,0.5L59,141.1c0.1,0.1-0.1,0.3-0.2,0.3H33.3C33.1,141.4,33,141.3,33,141.1z M63.8,141.3
	l-11.2-29.7c-0.2-0.6,0.4-1.2,1-1l20.6,9.6c0.6,0.3,1,1,0.7,1.7l-4.9,15c-0.2,0.7,0,1.5,0.5,1.7l5.3,2.4c0.2,0.1,0.1,0.4-0.1,0.4H64
	C63.9,141.4,63.9,141.4,63.8,141.3z"/>
<g>
	<circle class="st1" cx="116.7" cy="89.2" r="5.8"/>
	<path class="st1" d="M131.4,90.3c0-0.4,0.3-0.8,0.7-0.9l2.3-0.5c0.5-0.1,0.8-0.6,0.7-1.1l-0.9-4.6c-0.1-0.5-0.6-0.8-1.1-0.7
		l-2.3,0.5c-0.4,0.1-0.8-0.1-1-0.5c-0.5-1.1-1.2-2.1-2-2.9c-0.3-0.3-0.3-0.8-0.1-1.1l1.3-2c0.3-0.4,0.2-1-0.3-1.3l-3.9-2.6
		c-0.4-0.3-1-0.2-1.3,0.3l-1.3,2c-0.2,0.4-0.7,0.5-1.1,0.4c-1.1-0.4-2.3-0.6-3.5-0.7c-0.4,0-0.8-0.3-0.9-0.7l-0.5-2.3
		c-0.1-0.5-0.6-0.8-1.1-0.7l-4.6,0.9c-0.5,0.1-0.8,0.6-0.7,1.1l0.5,2.3c0.1,0.4-0.1,0.8-0.5,1c-1.1,0.5-2.1,1.2-2.9,2
		c-0.3,0.3-0.8,0.3-1.1,0.1l-2-1.3c-0.4-0.3-1-0.2-1.3,0.3l-2.6,3.9c-0.3,0.4-0.2,1,0.3,1.3l2,1.3c0.4,0.2,0.5,0.7,0.4,1.1
		c-0.4,1.1-0.6,2.3-0.7,3.5c0,0.4-0.3,0.8-0.7,0.9l-2.3,0.5c-0.5,0.1-0.8,0.6-0.7,1.1l0.9,4.6c0.1,0.5,0.6,0.8,1.1,0.7l2.3-0.5
		c0.4-0.1,0.8,0.1,1,0.5c0.5,1.1,1.2,2.1,2,2.9c0.3,0.3,0.3,0.8,0.1,1.1l-1.3,2c-0.3,0.4-0.2,1,0.3,1.3l3.9,2.6
		c0.4,0.3,1,0.2,1.3-0.3l1.3-2c0.2-0.4,0.7-0.5,1.1-0.4c1.1,0.4,2.3,0.6,3.5,0.7c0.4,0,0.8,0.3,0.9,0.7l0.5,2.3
		c0.1,0.5,0.6,0.8,1.1,0.7l4.6-0.9c0.5-0.1,0.8-0.6,0.7-1.1l-0.5-2.3c-0.1-0.4,0.1-0.8,0.5-1c1.1-0.5,2.1-1.2,2.9-2
		c0.3-0.3,0.8-0.3,1.1-0.1l2,1.3c0.4,0.3,1,0.2,1.3-0.3l2.6-3.9c0.3-0.4,0.2-1-0.3-1.3l-2-1.3c-0.4-0.2-0.5-0.7-0.4-1.1
		C131.1,92.6,131.3,91.5,131.4,90.3z M118.6,99c-5.4,1.1-10.7-2.4-11.8-7.9c-1.1-5.4,2.4-10.7,7.9-11.8c5.4-1.1,10.7,2.4,11.8,7.9
		C127.6,92.6,124.1,97.9,118.6,99z"/>
	<path class="st1" d="M97.7,70.2c8.5-8.5,21.2-10.1,31.3-4.8c0.3,0.2,0.4,0.6,0.1,0.8l-0.8,0.8c-0.3,0.3-0.1,0.8,0.3,0.8l6,0.6
		c0.3,0,0.6-0.2,0.5-0.5l-0.6-6c0-0.4-0.5-0.6-0.8-0.3l-1.1,1.1c-0.2,0.2-0.4,0.2-0.6,0.1c-11.7-6.8-27-5.2-37,4.8
		c-9.8,9.8-11.5,24.6-5.2,36.2c0.6,1.1,2.1,1.3,2.9,0.4c0.6-0.6,0.7-1.4,0.3-2.2C87.6,91.8,89.1,78.8,97.7,70.2z"/>
	<path class="st1" d="M143.5,74.6c-0.6-1.1-2.1-1.3-2.9-0.4c-0.6,0.6-0.7,1.4-0.3,2.2c5.5,10.2,4,23.2-4.6,31.8
		c-8.7,8.7-21.9,10.1-32.1,4.4c-0.2-0.1-0.3-0.4-0.1-0.6l1.2-1.2c0.2-0.2,0.1-0.6-0.2-0.6l-6.4-0.6c-0.2,0-0.4,0.2-0.4,0.4l0.6,6.4
		c0,0.3,0.4,0.5,0.6,0.2l1.3-1.3c0.1-0.1,0.3-0.1,0.5-0.1c11.8,7.2,27.4,5.8,37.6-4.4C148,101,149.8,86.1,143.5,74.6z"/>
</g>
</svg>
