<svg xmlns="http://www.w3.org/2000/svg" viewBox="0 0 160 160"><path d="M 56.189 1.273 A 2.500 2.500 0 0 0 55.910 1.300 L 1.900 1.300 L 1.900 21.900 L 1.900 138.400 L 123.599 138.400 C 142.126 138.400 157.199 123.327 157.199 104.800 L 157.199 40.810 A 2.500 2.500 0 0 0 157.199 39.187 L 157.199 19.400 L 70.535 19.400 L 58.333 2.345 A 2.500 2.500 0 0 0 57.880 1.855 L 57.482 1.300 L 56.652 1.300 A 2.500 2.500 0 0 0 56.189 1.273 z M 6.900 6.300 L 54.917 6.300 L 67.917 24.400 L 67.964 24.400 L 79.943 41.144 A 2.500 2.500 0 0 0 81.792 42.472 A 2.500 2.500 0 0 0 82.378 42.5 L 152.199 42.5 L 152.199 87.189 C 147.055 78.865 138.382 72.948 128.283 71.533 C 128.109 71.508 127.934 71.488 127.759 71.466 C 127.236 71.401 126.710 71.349 126.179 71.308 C 126.013 71.295 125.848 71.279 125.681 71.269 C 124.992 71.227 124.299 71.199 123.599 71.199 C 122.440 71.199 121.295 71.258 120.166 71.373 C 119.038 71.487 117.927 71.659 116.835 71.882 C 103.711 74.568 93.369 84.912 90.683 98.037 C 90.460 99.128 90.288 100.240 90.173 101.367 C 90.173 101.368 90.173 101.369 90.173 101.371 C 90.116 101.934 90.071 102.501 90.042 103.072 C 90.013 103.644 90 104.221 90 104.800 C 90 105.500 90.027 106.193 90.070 106.882 C 90.080 107.049 90.096 107.214 90.109 107.380 C 90.149 107.911 90.202 108.437 90.267 108.960 C 90.289 109.135 90.309 109.310 90.333 109.484 C 91.749 119.583 97.664 128.256 105.988 133.400 L 6.900 133.400 L 6.900 21.900 L 6.900 6.300 z M 74.113 24.400 L 152.199 24.400 L 152.199 37.5 L 83.484 37.5 L 74.113 24.400 z M 123.599 76.199 C 124.094 76.199 124.585 76.211 125.074 76.236 C 125.074 76.236 125.075 76.236 125.076 76.236 C 125.563 76.260 126.048 76.297 126.529 76.345 C 126.530 76.345 126.531 76.345 126.533 76.345 C 127.013 76.394 127.490 76.455 127.962 76.527 C 127.964 76.527 127.966 76.527 127.968 76.527 C 140.287 78.406 149.992 88.112 151.871 100.431 C 151.871 100.433 151.870 100.435 151.871 100.437 C 151.942 100.910 152.004 101.387 152.052 101.867 C 152.052 101.868 152.052 101.869 152.052 101.871 C 152.101 102.351 152.137 102.836 152.162 103.324 C 152.186 103.813 152.199 104.305 152.199 104.800 C 152.199 120.625 139.424 133.400 123.599 133.400 C 123.104 133.400 122.613 133.387 122.125 133.363 C 122.124 133.363 122.123 133.363 122.123 133.363 C 121.635 133.338 121.150 133.302 120.669 133.253 C 120.668 133.253 120.667 133.254 120.666 133.253 C 120.185 133.205 119.709 133.143 119.236 133.072 C 119.234 133.071 119.232 133.072 119.230 133.072 C 106.911 131.193 97.206 121.488 95.328 109.169 C 95.327 109.168 95.328 109.165 95.328 109.164 C 95.256 108.691 95.195 108.214 95.146 107.734 C 95.146 107.733 95.146 107.731 95.146 107.730 C 95.097 107.249 95.061 106.764 95.037 106.277 C 95.037 106.276 95.037 106.276 95.037 106.275 C 95.012 105.787 95 105.295 95 104.800 C 95 104.306 95.012 103.814 95.037 103.326 C 95.037 103.325 95.037 103.324 95.037 103.324 C 95.061 102.836 95.098 102.351 95.146 101.871 C 95.146 101.869 95.146 101.868 95.146 101.867 C 95.194 101.387 95.256 100.910 95.328 100.437 C 95.328 100.435 95.327 100.433 95.328 100.431 C 97.206 88.112 106.911 78.406 119.230 76.527 C 120.654 76.311 122.113 76.199 123.599 76.199 z M 139.205 91.970 A 2.500 2.500 0 0 0 137.148 93.070 L 122.595 113.949 L 112.289 105.468 A 2.500 2.500 0 0 0 109.111 109.330 L 123.603 121.25 L 141.251 95.929 A 2.500 2.500 0 0 0 139.205 91.970 z " /></svg>
