<svg xmlns="http://www.w3.org/2000/svg" viewBox="0 0 160 160"><path d="M 5.400 2.199 A 2.500 2.500 0 0 0 2.900 4.699 L 2.900 4.800 L 2.900 34.900 L 2.900 151.099 C 2.900 152.751 4.006 154.271 5.386 154.830 C 6.766 155.388 8.473 155.136 9.671 154.058 A 2.500 2.500 0 0 0 9.765 153.970 L 49.298 114.533 L 78.218 143.455 C 84.664 152.264 95.072 158 106.800 158 C 126.322 158 142.199 142.120 142.199 122.599 C 142.199 103.078 126.322 87.199 106.800 87.199 C 102.886 87.199 99.122 87.847 95.599 89.025 L 95.599 34.900 L 95.599 4.800 L 95.599 4.699 A 2.500 2.500 0 0 0 93.099 2.199 L 5.400 2.199 z M 7.900 7.300 L 90.599 7.300 L 90.599 32.400 L 7.900 32.400 L 7.900 7.300 z M 7.900 37.400 L 90.599 37.400 L 90.599 91.140 C 82.072 95.549 75.559 103.318 72.822 112.689 C 72.807 112.740 72.793 112.791 72.779 112.841 C 72.577 113.545 72.395 114.257 72.236 114.978 C 72.220 115.048 72.202 115.117 72.187 115.187 C 72.026 115.939 71.889 116.699 71.777 117.468 C 71.760 117.582 71.748 117.698 71.732 117.812 C 71.646 118.443 71.579 119.081 71.527 119.722 C 71.511 119.919 71.495 120.116 71.482 120.314 C 71.433 121.070 71.400 121.831 71.400 122.599 C 71.400 125.299 71.714 127.925 72.289 130.453 L 51.068 109.232 A 2.500 2.500 0 0 0 47.535 109.230 L 7.900 148.767 L 7.900 37.400 z M 106.800 92.199 C 123.619 92.199 137.199 105.780 137.199 122.599 C 137.199 139.418 123.619 153 106.800 153 C 97.123 153 88.524 148.497 82.960 141.474 A 2.500 2.500 0 0 0 82.587 140.783 C 79.455 136.681 77.356 131.821 76.658 126.511 C 76.646 126.423 76.635 126.334 76.625 126.246 C 76.589 125.952 76.556 125.657 76.529 125.361 C 76.507 125.117 76.490 124.872 76.474 124.626 C 76.460 124.416 76.445 124.207 76.435 123.996 C 76.414 123.532 76.400 123.068 76.400 122.599 C 76.400 121.913 76.429 121.234 76.474 120.560 C 76.486 120.387 76.499 120.215 76.513 120.042 C 76.566 119.413 76.632 118.789 76.722 118.171 C 76.728 118.131 76.732 118.089 76.738 118.048 C 76.839 117.373 76.968 116.708 77.113 116.048 C 77.138 115.931 77.166 115.815 77.193 115.699 C 77.511 114.330 77.915 112.994 78.412 111.705 C 81.270 104.276 86.966 98.274 94.144 94.970 A 2.500 2.500 0 0 0 94.392 94.837 C 98.180 93.146 102.376 92.199 106.800 92.199 z M 106.761 103.564 A 2.500 2.500 0 0 0 104.300 106.099 L 104.300 120.099 L 90.400 120.099 A 2.500 2.500 0 1 0 90.400 125.099 L 104.300 125.099 L 104.300 139 A 2.500 2.500 0 1 0 109.300 139 L 109.300 125.099 L 123.199 125.099 A 2.500 2.500 0 1 0 123.199 120.099 L 109.300 120.099 L 109.300 106.099 A 2.500 2.500 0 0 0 106.761 103.564 z " /></svg>
