<svg xmlns="http://www.w3.org/2000/svg" viewBox="0 0 160 160"><path d="M 24 2.5 L 24 31 L 23.900 31 L 10.199 31 C 6.365 31 3.199 34.166 3.199 38 L 3.199 151.400 L 3.271 151.400 C 3.268 154.884 6.131 158 9.800 158 L 126 158 C 128.828 158 131.427 156.100 132.173 153.287 L 158.699 80.642 L 158.699 80.199 C 158.699 78.549 158.347 76.840 157.347 75.332 C 156.348 73.823 154.453 72.599 152.300 72.599 L 143.199 72.599 L 143.199 56.199 C 143.199 52.365 140.032 49.199 136.199 49.199 L 127.599 49.199 L 127.599 42.865 L 126.367 41.632 L 88.466 3.732 L 87.236 2.5 L 24 2.5 z M 29 7.5 L 83.699 7.5 L 83.699 46.400 L 122.599 46.400 L 122.599 49.199 L 122.599 72.599 L 36.199 72.599 C 35.471 72.599 34.761 72.722 34.095 72.953 C 33.429 73.183 32.807 73.521 32.25 73.947 C 31.692 74.373 31.201 74.888 30.800 75.474 C 30.600 75.767 30.422 76.079 30.269 76.406 C 30.116 76.733 29.989 77.075 29.890 77.431 L 29.947 77.253 L 29.859 77.496 L 29 79.833 L 29 7.5 z M 88.699 11.035 L 119.064 41.400 L 88.699 41.400 L 88.699 11.035 z M 44.699 23.300 A 2.500 2.500 0 1 0 44.699 28.300 L 70.599 28.300 A 2.500 2.500 0 1 0 70.599 23.300 L 44.699 23.300 z M 10.199 36 L 23.900 36 L 23.900 93.257 L 8.199 136.164 L 8.199 38 C 8.199 36.833 9.032 36 10.199 36 z M 44.699 41.400 A 2.500 2.500 0 1 0 44.699 46.400 L 70.599 46.400 A 2.500 2.500 0 1 0 70.599 41.400 L 44.699 41.400 z M 127.599 54.199 L 136.199 54.199 C 137.365 54.199 138.199 55.032 138.199 56.199 L 138.199 72.599 L 127.599 72.599 L 127.599 54.199 z M 44.699 59.599 A 2.500 2.500 0 1 0 44.699 64.599 L 106.900 64.599 A 2.500 2.500 0 1 0 106.900 59.599 L 44.699 59.599 z M 36.199 77.599 L 143.199 77.599 L 152.300 77.599 C 152.848 77.599 152.902 77.677 153.177 78.093 C 153.419 78.458 153.584 79.200 153.634 79.937 L 127.394 151.796 L 127.359 151.957 C 127.214 152.608 126.688 153 126 153 L 9.800 153 C 8.651 153 8.029 152.172 8.316 151.068 L 34.546 79.234 L 34.681 78.867 L 34.681 78.865 L 34.708 78.769 C 34.813 78.394 35.013 78.100 35.273 77.902 C 35.533 77.703 35.854 77.599 36.199 77.599 z " /></svg>
