<svg xmlns="http://www.w3.org/2000/svg" viewBox="0 0 160 160"><path d="M 143.369 2.525 C 142.748 2.523 142.118 2.613 141.5 2.8 L 123.4 8.4 C 120.0 9.4 118.2 13.0 119.2 16.3 C 120.2 19.7 123.8 21.5 127.099 20.5 L 129.7 19.7 C 114.352 42.574 86.767 55.873 61.369 61.011 A 29 29 0 0 1 62.9 70.2 A 29 29 0 0 1 60.97 80.507 C 86.478 85.585 114.271 98.905 129.7 121.9 L 127.099 121.099 C 123.8 120.099 120.2 121.9 119.2 125.3 C 118.2 128.6 120.0 132.2 123.4 133.2 L 141.5 138.8 C 144.8 139.8 148.4 138.0 149.4 134.6 L 155 116.5 C 155.9 113.2 154.099 109.6 150.7 108.6 C 147.4 107.6 143.8 109.4 142.8 112.8 L 141.5 117 C 130.202 99.038 112.665 86.168 93.658 77.8 L 138.2 77.8 L 133.8 83.3 C 131.6 86.0 132.1 90.0 134.8 92.2 C 135.9 93.2 137.3 93.6 138.7 93.6 C 140.5 93.6 142.4 92.8 143.6 91.2 L 156.2 75.4 C 158.0 73.1 158.0 69.8 156.2 67.5 L 143.6 51.7 C 141.4 49.0 137.4 48.5 134.7 50.7 C 132.0 52.899 131.5 56.899 133.7 59.6 L 138.099 65.099 L 90.632 65.099 C 110.796 56.79 129.604 43.511 141.5 24.6 L 142.8 28.8 C 143.8 32.2 147.4 34 150.7 33 C 154.099 32 155.9 28.4 155 25.099 L 149.4 7 C 148.587 4.237 146.058 2.531 143.369 2.525 z " /><path d="m 33.9,38.2 c -17.637,-10e-7 -32.0,14.362 -32.0,32 0,17.637 14.362,32.0 32.0,32.0 17.637,0 32,-14.362 32,-32.0 0,-17.637 -14.362,-32 -32,-32 z m 0,6 c 14.394,0 26,11.605 26,26 0,14.394 -11.605,26 -26,26 -14.394,0 -26.0,-11.605 -26.0,-26 0,-14.394 11.605,-26 26.0,-26 z" /><path d="M 32.6 53.3 C 28.051 53.3 23.935 53.624 20.888 54.205 C 19.365 54.495 18.112 54.843 17.154 55.294 C 16.675 55.52 16.264 55.768 15.923 56.109 C 15.604 56.429 15.344 56.884 15.312 57.4 L 15.3 57.4 L 15.3 57.5 L 15.3 61.8 C 15.3 62.358 15.57 62.836 15.898 63.189 C 16.226 63.542 16.629 63.819 17.105 64.076 C 17.646 64.368 18.296 64.629 19.029 64.871 C 19.028 64.88 19.024 64.89 19.023 64.9 L 19 64.9 L 19 65.099 L 19 69.076 C 18.153 69.319 17.387 69.576 16.789 69.886 C 16.389 70.094 16.04 70.32 15.746 70.63 C 15.451 70.94 15.2 71.387 15.2 71.9 C 15.2 72.096 15.242 72.278 15.3 72.453 L 15.3 76.2 C 15.3 76.756 15.57 77.236 15.898 77.589 C 16.226 77.943 16.629 78.217 17.105 78.474 C 17.146 78.496 17.196 78.517 17.238 78.539 C 17.23 78.592 17.213 78.646 17.21 78.7 L 17.099 78.7 L 17.099 83.099 C 17.099 83.657 17.371 84.136 17.7 84.49 C 18.027 84.843 18.43 85.118 18.906 85.375 C 19.857 85.888 21.112 86.314 22.64 86.683 C 25.696 87.421 29.83 87.9 34.4 87.9 C 38.97 87.9 43.104 87.421 46.16 86.683 C 47.688 86.314 48.943 85.888 49.894 85.375 C 50.37 85.118 50.773 84.843 51.101 84.49 C 51.429 84.136 51.7 83.657 51.7 83.099 L 51.7 79.353 C 51.757 79.178 51.8 78.997 51.8 78.8 L 51.8 78.716 L 51.787 78.634 C 51.674 77.961 51.232 77.475 50.708 77.099 C 50.456 76.918 50.17 76.755 49.853 76.603 C 49.884 76.474 49.9 76.339 49.9 76.2 L 49.9 72.361 C 50.619 72.122 51.259 71.864 51.792 71.576 C 52.268 71.319 52.673 71.042 53.001 70.689 C 53.33 70.336 53.6 69.858 53.6 69.3 L 53.6 65.099 L 53.6 65 L 53.587 65 C 53.557 64.502 53.314 64.066 53.015 63.753 C 52.696 63.42 52.311 63.171 51.865 62.945 C 51.308 62.662 50.612 62.425 49.853 62.205 C 49.853 62.205 49.853 62.203 49.853 62.203 C 49.884 62.074 49.9 61.94 49.9 61.8 L 49.9 57.5 L 49.9 57.4 L 49.888 57.4 C 49.856 56.884 49.595 56.429 49.275 56.109 C 48.934 55.768 48.523 55.52 48.044 55.294 C 47.086 54.843 45.835 54.495 44.312 54.205 C 41.265 53.624 37.147 53.3 32.6 53.3 z M 32.6 55.3 C 37.051 55.3 41.084 55.625 43.937 56.169 C 45.364 56.441 46.5 56.777 47.191 57.103 C 47.5 57.249 47.698 57.386 47.806 57.482 C 47.695 57.6 47.474 57.776 47.14 57.958 C 46.653 58.224 45.943 58.5 45.078 58.757 C 44.916 58.805 44.752 58.85 44.58 58.896 C 44.356 58.956 44.135 59.018 43.894 59.076 C 41.762 59.582 38.969 59.961 35.835 60.119 C 34.791 60.171 33.707 60.2 32.6 60.2 C 28.169 60.2 24.154 59.727 21.31 59.041 C 19.888 58.697 18.755 58.293 18.056 57.916 C 17.74 57.745 17.53 57.583 17.412 57.468 C 17.524 57.373 17.712 57.242 18.007 57.103 C 18.7 56.777 19.835 56.441 21.261 56.169 C 24.114 55.625 28.147 55.3 32.6 55.3 z M 17.3 59.851 C 17.631 60.016 18.005 60.167 18.4 60.314 L 18.4 62.478 C 18.283 62.423 18.156 62.368 18.056 62.314 C 17.707 62.125 17.469 61.942 17.363 61.828 C 17.316 61.777 17.305 61.757 17.3 61.75 L 17.3 59.851 z M 47.9 59.851 L 47.9 61.75 C 47.895 61.756 47.877 61.78 47.845 61.816 L 47.6 62 C 47.4 62.149 47.082 62.314 46.7 62.486 L 46.7 60.351 C 47.133 60.193 47.541 60.03 47.9 59.851 z M 20.4 60.912 C 20.557 60.951 20.684 61.0 20.847 61.037 C 21.048 61.083 21.29 61.119 21.5 61.164 L 21.5 63.478 C 21.441 63.464 21.368 63.455 21.31 63.441 C 20.969 63.359 20.706 63.266 20.4 63.177 L 20.4 60.912 z M 44.7 60.941 L 44.7 63.185 C 44.351 63.286 43.992 63.38 43.6 63.474 L 43.6 61.189 C 43.847 61.137 44.116 61.092 44.351 61.037 C 44.478 61.007 44.576 60.971 44.7 60.941 z M 23.5 61.541 C 23.879 61.6 24.3 61.645 24.7 61.697 L 24.7 64.052 C 24.296 63.995 23.878 63.945 23.5 63.88 L 23.5 61.541 z M 41.6 61.548 L 41.6 63.878 C 41.261 63.936 40.918 63.993 40.56 64.044 C 40.506 64.052 40.453 64.058 40.4 64.066 L 40.4 61.726 C 40.817 61.673 41.203 61.609 41.6 61.548 z M 26.7 61.925 C 27.056 61.958 27.432 61.98 27.8 62.007 L 27.8 64.39 C 27.433 64.361 27.053 64.34 26.7 64.304 L 26.7 61.925 z M 38.4 61.943 L 38.4 64.304 C 38.322 64.312 38.25 64.322 38.171 64.33 C 37.884 64.354 37.591 64.375 37.3 64.398 L 37.3 62.023 C 37.668 61.997 38.043 61.975 38.4 61.943 z M 29.8 62.13 C 30.388 62.155 30.992 62.164 31.6 62.173 L 31.6 64.574 C 30.992 64.564 30.387 64.554 29.8 64.527 L 29.8 62.13 z M 35.3 62.132 L 35.3 64.529 C 34.745 64.553 34.173 64.564 33.6 64.574 L 33.6 62.173 C 34.173 62.165 34.744 62.155 35.3 62.132 z M 48.384 63.896 C 49.463 64.158 50.407 64.448 50.958 64.728 C 51.218 64.86 51.378 64.98 51.48 65.07 C 51.361 65.181 51.158 65.333 50.851 65.496 C 50.153 65.864 49.02 66.256 47.597 66.587 C 44.751 67.251 40.734 67.7 36.3 67.7 C 31.871 67.7 27.854 67.227 25.009 66.541 C 23.934 66.281 23.055 65.986 22.375 65.695 C 23.753 65.961 25.275 66.178 26.937 66.332 C 27.015 66.339 27.099 66.342 27.177 66.349 C 27.925 66.415 28.673 66.48 29.464 66.519 C 30.442 66.57 31.45 66.6 32.5 66.6 C 32.518 66.6 32.536 66.597 32.554 66.597 C 32.57 66.597 32.584 66.6 32.6 66.6 C 32.75 66.6 32.889 66.588 33.039 66.587 C 33.899 66.58 34.744 66.562 35.564 66.523 C 36.045 66.501 36.502 66.466 36.968 66.433 C 37.432 66.4 37.893 66.366 38.339 66.324 C 38.89 66.272 39.416 66.213 39.939 66.148 C 40.236 66.111 40.525 66.072 40.812 66.031 C 41.387 65.948 41.946 65.863 42.478 65.765 C 42.515 65.758 42.558 65.753 42.595 65.746 C 42.732 65.72 42.846 65.69 42.978 65.664 C 43.443 65.572 43.934 65.487 44.359 65.384 C 45.887 65.015 47.142 64.589 48.093 64.076 C 48.198 64.019 48.286 63.955 48.384 63.896 z M 21 67.451 C 21.331 67.616 21.701 67.771 22.099 67.917 L 22.099 69.978 C 21.982 69.923 21.855 69.868 21.755 69.814 C 21.406 69.625 21.17 69.442 21.064 69.328 C 21.017 69.277 21.005 69.257 21 69.25 L 21 67.451 z M 51.6 67.451 L 51.6 69.25 C 51.594 69.257 51.582 69.277 51.535 69.328 C 51.428 69.442 51.193 69.625 50.843 69.814 C 50.744 69.868 50.616 69.923 50.5 69.978 L 50.5 67.917 C 50.898 67.77 51.267 67.616 51.6 67.451 z M 24.099 68.521 C 24.25 68.559 24.391 68.6 24.548 68.636 C 24.78 68.69 25.057 68.732 25.3 68.783 L 25.3 71 C 25.257 70.99 25.21 70.981 25.162 70.972 C 25.041 70.944 24.931 70.913 24.814 70.884 C 24.568 70.817 24.339 70.747 24.099 70.677 L 24.099 68.521 z M 48.5 68.523 L 48.5 70.677 C 48.194 70.766 47.93 70.859 47.589 70.941 C 47.502 70.962 47.39 70.979 47.3 71 L 47.3 68.783 C 47.544 68.732 47.821 68.69 48.052 68.636 C 48.208 68.6 48.349 68.561 48.5 68.523 z M 27.3 69.154 C 27.65 69.208 28.034 69.248 28.4 69.296 L 28.4 71.552 C 28.096 71.509 27.781 71.471 27.482 71.427 C 27.419 71.417 27.363 71.404 27.3 71.394 L 27.3 69.154 z M 45.3 69.154 L 45.3 71.402 C 44.955 71.46 44.564 71.5 44.2 71.552 L 44.2 69.296 C 44.566 69.248 44.95 69.208 45.3 69.154 z M 30.4 69.527 C 30.789 69.563 31.197 69.588 31.6 69.617 L 31.6 71.898 C 31.2 71.867 30.786 71.843 30.4 71.804 L 30.4 69.527 z M 42.2 69.527 L 42.2 71.804 C 41.845 71.84 41.465 71.861 41.099 71.89 L 41.099 69.609 C 41.467 69.582 41.842 69.56 42.2 69.527 z M 39.099 69.732 L 39.099 72.027 C 38.634 72.048 38.152 72.055 37.671 72.064 C 37.547 72.066 37.426 72.072 37.3 72.074 L 37.3 69.775 C 37.907 69.766 38.512 69.756 39.099 69.732 z M 33.6 69.734 C 34.156 69.756 34.727 69.766 35.3 69.775 L 35.3 72.074 C 34.726 72.064 34.155 72.053 33.6 72.029 L 33.6 69.734 z M 19.859 70.933 C 19.891 70.961 19.932 70.982 19.964 71.009 C 20.091 71.112 20.225 71.214 20.369 71.306 C 20.711 71.542 21.083 71.762 21.539 71.955 C 22.242 72.251 23.11 72.512 24.048 72.755 C 24.213 72.798 24.369 72.843 24.541 72.884 C 24.579 72.894 24.627 72.9 24.666 72.91 C 24.881 72.96 25.065 73.018 25.291 73.066 C 25.715 73.156 26.195 73.231 26.654 73.312 C 26.84 73.345 27.017 73.38 27.208 73.412 C 27.868 73.518 28.565 73.607 29.283 73.691 C 29.53 73.72 29.763 73.756 30.017 73.783 C 30.754 73.858 31.527 73.913 32.312 73.962 C 32.566 73.978 32.804 74.002 33.062 74.015 C 34.111 74.068 35.19 74.099 36.3 74.099 C 38.03 74.099 39.666 74.013 41.236 73.888 C 39.398 74.187 37.367 74.43 35.101 74.537 C 34.7 74.552 34.287 74.56 33.876 74.568 C 33.436 74.579 33.007 74.597 32.552 74.597 C 28.142 74.594 24.144 74.125 21.31 73.441 C 19.888 73.097 18.755 72.691 18.056 72.314 C 17.737 72.142 17.525 71.98 17.408 71.865 C 17.484 71.804 17.548 71.746 17.71 71.662 C 18.16 71.429 18.987 71.176 19.859 70.933 z M 47.9 74.205 L 47.9 76.15 C 47.895 76.158 47.883 76.177 47.835 76.228 C 47.729 76.342 47.494 76.526 47.144 76.714 C 47.015 76.784 46.856 76.854 46.7 76.925 L 46.7 74.718 C 47.136 74.557 47.543 74.388 47.9 74.205 z M 17.3 74.298 C 17.635 74.46 18.001 74.612 18.4 74.755 L 18.4 76.878 C 18.283 76.824 18.156 76.768 18.056 76.714 C 17.707 76.526 17.469 76.342 17.363 76.228 C 17.316 76.177 17.305 76.158 17.3 76.15 L 17.3 74.298 z M 44.7 75.333 L 44.7 77.605 C 44.424 77.683 44.193 77.766 43.89 77.839 C 43.802 77.861 43.69 77.877 43.6 77.898 L 43.6 75.572 C 43.844 75.52 44.122 75.479 44.355 75.423 C 44.475 75.395 44.582 75.363 44.7 75.333 z M 20.4 75.347 C 20.518 75.376 20.626 75.407 20.748 75.435 C 20.979 75.489 21.256 75.531 21.5 75.582 L 21.5 77.876 C 21.441 77.863 21.368 77.853 21.31 77.839 C 20.969 77.757 20.706 77.664 20.4 77.576 L 20.4 75.347 z M 41.6 75.949 L 41.6 78.3 C 41.223 78.363 40.8 78.41 40.4 78.466 L 40.4 76.105 C 40.801 76.053 41.218 76.008 41.6 75.949 z M 23.5 75.953 C 23.881 76.012 24.298 76.057 24.7 76.109 L 24.7 78.453 C 24.296 78.395 23.878 78.343 23.5 78.279 L 23.5 75.953 z M 38.4 76.332 L 38.4 78.712 C 38.045 78.747 37.667 78.769 37.3 78.798 L 37.3 76.414 C 37.669 76.387 38.042 76.364 38.4 76.332 z M 26.7 76.333 C 27.057 76.366 27.431 76.389 27.8 76.416 L 27.8 78.792 C 27.433 78.763 27.053 78.74 26.7 78.705 L 26.7 76.333 z M 29.8 76.533 C 30.389 76.556 30.991 76.57 31.6 76.578 L 31.6 78.974 C 30.992 78.964 30.387 78.954 29.8 78.927 L 29.8 76.533 z M 35.3 76.533 L 35.3 78.929 C 34.745 78.954 34.173 78.965 33.6 78.974 L 33.6 76.574 C 34.173 76.565 34.744 76.555 35.3 76.533 z M 48.486 78.232 C 48.921 78.404 49.338 78.579 49.541 78.724 C 49.608 78.772 49.591 78.768 49.607 78.783 C 49.496 78.9 49.273 79.077 48.939 79.259 C 48.244 79.638 47.114 80.039 45.693 80.376 C 42.861 81.048 38.862 81.494 34.449 81.498 C 33.751 81.497 33.084 81.471 32.41 81.449 C 32.02 81.436 31.614 81.437 31.234 81.417 C 30.917 81.401 30.63 81.37 30.32 81.349 C 27.542 81.161 25.042 80.806 23.109 80.339 C 22.731 80.248 22.434 80.145 22.099 80.046 C 22.086 80.041 22.072 80.036 22.058 80.031 C 24.963 80.619 28.589 81 32.6 81 C 33.682 81 34.732 80.967 35.757 80.917 C 35.97 80.907 36.172 80.891 36.382 80.878 C 37.262 80.827 38.112 80.763 38.933 80.679 C 39.018 80.67 39.101 80.659 39.185 80.65 C 40.494 80.511 41.744 80.344 42.861 80.132 C 44.192 79.88 45.312 79.584 46.275 79.236 C 46.965 79.003 47.577 78.753 48.093 78.474 C 48.235 78.398 48.357 78.313 48.486 78.232 z M 19.099 81.105 C 19.456 81.289 19.863 81.458 20.3 81.619 L 20.3 83.826 C 20.143 83.755 19.984 83.684 19.855 83.615 C 19.505 83.426 19.27 83.243 19.164 83.128 C 19.116 83.078 19.104 83.058 19.099 83.05 L 19.099 81.105 z M 49.7 81.2 L 49.7 83.05 C 49.694 83.058 49.683 83.078 49.636 83.128 C 49.53 83.243 49.292 83.426 48.943 83.615 C 48.843 83.668 48.716 83.724 48.6 83.779 L 48.6 81.656 C 48.998 81.512 49.364 81.36 49.7 81.2 z M 22.3 82.222 C 22.451 82.26 22.591 82.3 22.748 82.335 C 22.948 82.382 23.19 82.418 23.4 82.462 L 23.4 84.798 C 23.309 84.777 23.197 84.761 23.109 84.74 C 22.806 84.667 22.575 84.583 22.3 84.505 L 22.3 82.222 z M 46.6 82.248 L 46.6 84.476 C 46.293 84.564 46.03 84.657 45.689 84.74 C 45.631 84.754 45.558 84.763 45.5 84.777 L 45.5 82.482 C 45.743 82.431 46.02 82.389 46.251 82.335 C 46.373 82.307 46.481 82.277 46.6 82.248 z M 25.4 82.839 C 25.748 82.894 26.135 82.933 26.5 82.982 L 26.5 85.353 C 26.135 85.301 25.745 85.259 25.4 85.201 L 25.4 82.839 z M 43.5 82.853 L 43.5 85.179 C 43.121 85.244 42.703 85.296 42.3 85.353 L 42.3 83.009 C 42.701 82.958 43.118 82.912 43.5 82.853 z M 28.5 83.218 C 28.887 83.255 29.298 83.279 29.7 83.308 L 29.7 85.7 C 29.298 85.667 28.885 85.644 28.5 85.605 L 28.5 83.218 z M 40.3 83.234 L 40.3 85.605 C 39.946 85.641 39.566 85.661 39.2 85.691 L 39.2 83.316 C 39.568 83.289 39.942 83.266 40.3 83.234 z M 31.7 83.431 C 31.953 83.442 32.218 83.443 32.476 83.451 C 32.784 83.459 33.088 83.469 33.4 83.474 L 33.4 85.875 C 32.826 85.865 32.254 85.854 31.7 85.83 L 31.7 83.431 z M 37.2 83.433 L 37.2 85.828 C 36.612 85.854 36.007 85.865 35.4 85.875 L 35.4 83.478 C 36.008 83.47 36.61 83.457 37.2 83.433 z " /></svg>
