<svg xmlns="http://www.w3.org/2000/svg" viewBox="0 0 160 160"><path d="M 120.900 1.699 C 106.404 1.699 94.599 13.504 94.599 28 C 94.599 31.336 95.231 34.528 96.371 37.468 L 50.380 65.248 C 45.690 58.007 37.546 53.199 28.300 53.199 C 13.805 53.199 2 65.004 2 79.5 C 1.999 93.995 13.805 105.800 28.300 105.800 C 37.543 105.800 45.685 100.996 50.376 93.759 L 96.363 121.718 C 92.724 131.137 94.691 142.246 102.275 149.830 C 112.525 160.079 129.218 160.079 139.468 149.830 C 149.718 139.580 149.718 122.886 139.468 112.636 C 129.218 102.386 112.527 102.386 102.277 112.636 L 102.275 112.636 C 100.855 114.056 99.641 115.603 98.615 117.236 L 52.691 89.314 C 53.917 86.279 54.599 82.968 54.599 79.5 C 54.599 76.034 53.918 72.725 52.693 69.691 L 98.623 41.951 C 103.281 49.360 111.526 54.300 120.900 54.300 C 135.395 54.300 147.199 42.495 147.199 28 C 147.199 13.504 135.395 1.699 120.900 1.699 z M 120.900 6.699 C 132.693 6.699 142.199 16.206 142.199 28 C 142.199 39.793 132.693 49.300 120.900 49.300 C 109.107 49.300 99.599 39.793 99.599 28 C 99.599 16.206 109.107 6.699 120.900 6.699 z M 28.300 58.199 C 40.094 58.199 49.599 67.706 49.599 79.5 C 49.599 91.293 40.094 100.800 28.300 100.800 C 16.507 100.800 6.999 91.293 7 79.5 C 7 67.706 16.507 58.199 28.300 58.199 z M 120.871 109.917 C 126.316 109.917 131.762 112.004 135.931 116.173 C 144.270 124.512 144.272 137.955 135.933 146.294 C 127.594 154.633 114.147 154.633 105.808 146.294 C 97.469 137.955 97.471 124.512 105.810 116.173 C 109.980 112.004 115.425 109.917 120.871 109.917 z " /></svg>
