<svg xmlns="http://www.w3.org/2000/svg" viewBox="0 0 160 160"><path d="M 46.699 2 A 2.500 2.500 0 0 0 44.199 4.5 L 44.199 9.900 L 28.199 9.900 A 2.500 2.500 0 0 0 25.699 12.400 L 25.699 17.800 L 4.400 17.800 A 2.500 2.500 0 0 0 1.900 20.300 L 1.900 152.400 A 2.500 2.500 0 0 0 4.400 154.900 L 73.099 154.900 A 2.500 2.500 0 1 0 73.099 149.900 L 6.900 149.900 L 6.900 22.800 L 25.699 22.800 L 25.699 28.300 A 2.500 2.500 0 0 0 28.199 30.800 L 88.900 30.800 A 2.500 2.500 0 0 0 91.400 28.300 L 91.400 22.800 L 110.199 22.800 L 110.199 75.800 A 2.500 2.500 0 1 0 115.199 75.800 L 115.199 20.300 A 2.500 2.500 0 0 0 112.699 17.800 L 91.400 17.800 L 91.400 12.400 A 2.500 2.500 0 0 0 88.900 9.900 L 73 9.900 L 73 4.5 A 2.500 2.500 0 0 0 70.5 2 L 46.699 2 z M 49.199 7 L 68 7 L 68 11.708 A 2.500 2.500 0 0 0 67.900 12.400 L 67.900 17.800 L 49.199 17.800 L 49.199 7 z M 30.699 14.900 L 44.199 14.900 L 44.199 20.300 A 2.500 2.500 0 0 0 46.699 22.800 L 70.5 22.800 A 2.500 2.500 0 0 0 73 20.300 L 73 14.900 L 86.400 14.900 L 86.400 20.300 L 86.400 25.800 L 30.699 25.800 L 30.699 20.300 L 30.699 14.900 z M 19.800 44.300 A 2.500 2.500 0 1 0 19.800 49.300 L 54.199 49.300 A 2.500 2.500 0 1 0 54.199 44.300 L 19.800 44.300 z M 19.800 60.099 A 2.500 2.500 0 1 0 19.800 65.099 L 96.400 65.099 A 2.500 2.500 0 1 0 96.400 60.099 L 19.800 60.099 z M 19.800 75.900 A 2.500 2.500 0 1 0 19.800 80.900 L 56.800 80.900 A 2.500 2.500 0 1 0 56.800 75.900 L 19.800 75.900 z M 67.400 75.900 A 2.500 2.500 0 1 0 67.400 80.900 A 2.500 2.500 0 1 0 67.400 75.900 z M 77.900 75.900 A 2.500 2.500 0 1 0 77.900 80.900 L 96.400 80.900 A 2.500 2.500 0 1 0 96.400 75.900 L 77.900 75.900 z M 19.800 91.800 A 2.500 2.500 0 1 0 19.800 96.800 L 73.099 96.800 A 2.500 2.500 0 1 0 73.099 91.800 L 19.800 91.800 z M 109.591 94 A 2.500 2.500 0 0 0 107.375 95.359 L 98.167 113.306 L 77.548 116.224 A 2.500 2.500 0 0 0 76.191 120.523 L 91.097 134.494 L 87.539 154.154 A 2.500 2.500 0 0 0 91.126 156.832 L 109.599 147.5 L 128.072 156.832 A 2.500 2.500 0 0 0 131.662 154.166 L 128.195 134.494 L 143.015 120.519 A 2.500 2.500 0 0 0 141.650 116.224 L 121.033 113.306 L 111.824 95.359 A 2.500 2.500 0 0 0 109.591 94 z M 109.599 101.976 L 117.175 116.742 A 2.500 2.500 0 0 0 119.048 118.076 L 135.802 120.447 L 123.785 131.781 A 2.500 2.500 0 0 0 123.037 134.033 L 125.873 150.119 L 110.726 142.468 A 2.500 2.500 0 0 0 108.472 142.468 L 93.353 150.105 L 96.259 134.044 A 2.500 2.500 0 0 0 95.509 131.775 L 83.417 120.443 L 100.150 118.076 A 2.500 2.500 0 0 0 102.023 116.742 L 109.599 101.976 z M 19.800 107.599 A 2.500 2.500 0 1 0 19.800 112.599 L 65.199 112.599 A 2.500 2.500 0 1 0 65.199 107.599 L 19.800 107.599 z M 19.800 123.5 A 2.500 2.500 0 1 0 19.800 128.5 L 57.199 128.5 A 2.500 2.500 0 1 0 57.199 123.5 L 19.800 123.5 z " /></svg>
