<svg xmlns="http://www.w3.org/2000/svg" viewBox="0 0 160 160"><path d="M 1.599 1.300 L 1.599 156.800 L 117.900 156.800 L 117.900 134.699 A 2.500 2.500 0 1 0 112.900 134.699 L 112.900 151.800 L 6.599 151.800 L 6.599 6.300 L 77.199 6.300 L 77.199 38.800 A 2.500 2.500 0 0 0 78.423 40.982 A 2.500 2.500 0 0 0 80.099 41.599 L 112.900 41.599 L 112.900 69.400 A 2.500 2.500 0 1 0 117.900 69.400 L 117.900 36.064 L 83.134 1.300 L 1.599 1.300 z M 82.199 7.435 L 111.365 36.599 L 82.199 36.599 L 82.199 7.435 z M 15.699 40.199 L 15.699 42.699 L 15.699 81.599 L 63.900 81.599 L 63.900 40.199 L 15.699 40.199 z M 20.699 45.199 L 58.900 45.199 L 58.900 76.599 L 20.699 76.599 L 20.699 45.199 z M 105.199 78.300 L 105.199 92.740 C 104.418 93.024 103.660 93.320 102.931 93.660 L 93.310 83.716 L 80.312 96.988 L 89.480 106.472 C 88.698 108.007 88.038 109.616 87.5 111.300 L 74.599 111.300 L 74.599 118.900 A 2.500 2.500 0 1 0 79.599 118.900 L 79.599 116.300 L 91.251 116.300 L 91.724 114.406 C 92.363 111.850 93.368 109.473 94.660 107.259 L 95.613 105.623 L 87.289 97.011 L 93.289 90.882 L 101.810 99.687 L 103.468 98.808 C 105.065 97.963 106.694 97.250 108.335 96.818 L 110.199 96.328 L 110.199 83.300 L 118.599 83.300 L 118.599 96.332 L 120.468 96.818 C 122.489 97.345 124.482 98.244 126.314 99.343 L 128.013 100.363 L 137.189 90.902 L 143.117 97.082 L 133.738 106.652 L 134.587 108.263 C 135.507 110.010 136.236 111.830 136.789 113.857 L 137.291 115.699 L 150.800 115.699 L 150.800 121.699 L 129.222 121.699 A 2.500 2.500 0 0 0 129.322 121.552 A 2.500 2.500 0 0 0 129.699 120.199 C 129.699 119.647 129.672 119.103 129.619 118.566 C 129.565 118.030 129.486 117.502 129.382 116.982 C 129.382 116.981 129.383 116.979 129.382 116.978 C 127.939 109.740 121.736 104.200 114.283 104.109 C 114.233 104.108 114.184 104.100 114.134 104.099 L 114.117 104.099 L 114.099 104.099 C 113.555 104.099 113.019 104.128 112.490 104.183 C 111.961 104.238 111.441 104.321 110.929 104.429 C 110.418 104.537 109.915 104.672 109.423 104.830 C 108.438 105.146 107.496 105.559 106.607 106.058 C 106.162 106.308 105.731 106.578 105.314 106.869 C 105.288 106.887 105.264 106.909 105.238 106.927 C 104.857 107.197 104.486 107.479 104.130 107.781 C 103.839 108.028 103.566 108.295 103.292 108.562 C 103.209 108.644 103.117 108.718 103.035 108.802 C 102.703 109.141 102.391 109.499 102.089 109.867 C 102.071 109.890 102.049 109.910 102.031 109.933 C 100.111 112.303 98.843 115.238 98.5 118.441 C 98.461 118.801 98.448 119.168 98.433 119.535 C 98.425 119.713 98.402 119.887 98.400 120.066 L 98.378 121.699 L 18.199 121.699 A 2.500 2.500 0 1 0 18.199 126.699 L 155.800 126.699 L 155.800 110.699 L 140.886 110.699 C 140.537 109.670 140.145 108.668 139.707 107.705 L 150.082 97.119 L 137.208 83.699 L 127.095 94.128 C 125.978 93.552 124.814 93.058 123.599 92.632 L 123.599 78.300 L 105.199 78.300 z M 18.699 89 A 2.500 2.500 0 1 0 18.699 94 L 60.900 94 A 2.500 2.500 0 1 0 60.900 89 L 18.699 89 z M 18.699 100.400 A 2.500 2.500 0 1 0 18.699 105.400 L 60.900 105.400 A 2.500 2.500 0 1 0 60.900 100.400 L 18.699 100.400 z M 114.082 109.103 C 118.812 109.177 122.865 112.374 124.218 116.886 C 124.268 117.051 124.301 117.222 124.343 117.390 C 124.389 117.575 124.443 117.756 124.480 117.945 C 124.480 117.947 124.482 117.949 124.482 117.951 C 124.553 118.312 124.608 118.680 124.644 119.054 C 124.681 119.430 124.699 119.812 124.699 120.199 A 2.500 2.500 0 0 0 125.115 121.617 A 2.500 2.500 0 0 0 125.175 121.699 L 103.400 121.699 L 103.400 120.601 A 2.500 2.500 0 0 0 103.431 120.083 A 2.500 2.500 0 0 0 103.431 120.031 C 103.433 119.893 103.448 119.759 103.455 119.623 C 103.511 118.602 103.680 117.619 103.968 116.697 C 104.072 116.366 104.191 116.043 104.322 115.728 C 104.455 115.412 104.600 115.102 104.759 114.802 C 106.246 112.007 108.857 109.969 111.962 109.320 C 112.301 109.249 112.646 109.197 112.996 109.160 C 113.352 109.123 113.715 109.104 114.082 109.103 z M 18.699 110.900 A 2.500 2.500 0 1 0 18.699 115.900 L 50.599 115.900 A 2.500 2.500 0 1 0 50.599 110.900 L 18.699 110.900 z "/></svg>
