<svg xmlns="http://www.w3.org/2000/svg" viewBox="0 0 160 160"><path d="M 39.099 1.5 A 2.500 2.500 0 0 0 39.046 1.501 A 2.500 2.500 0 0 0 39.025 1.501 A 2.500 2.500 0 0 0 38.976 1.505 A 2.500 2.500 0 0 0 38.800 1.519 A 2.500 2.500 0 0 0 38.695 1.537 A 2.500 2.500 0 0 0 38.568 1.560 A 2.500 2.500 0 0 0 38.460 1.585 A 2.500 2.500 0 0 0 38.320 1.626 A 2.500 2.500 0 0 0 38.226 1.660 A 2.500 2.500 0 0 0 38.080 1.718 A 2.500 2.500 0 0 0 38.007 1.753 A 2.500 2.500 0 0 0 37.861 1.830 A 2.500 2.500 0 0 0 37.773 1.884 A 2.500 2.500 0 0 0 37.654 1.962 A 2.500 2.500 0 0 0 37.576 2.021 A 2.500 2.500 0 0 0 37.449 2.125 A 2.500 2.500 0 0 0 37.433 2.136 A 2.500 2.500 0 0 0 37.332 2.232 L 2.431 37.132 A 2.500 2.500 0 0 0 1.708 38.687 A 2.500 2.500 0 0 0 1.699 38.900 L 1.699 156 A 2.500 2.500 0 0 0 4.199 158.5 L 118.199 158.5 A 2.500 2.500 0 0 0 120.699 156 L 120.699 137 A 2.500 2.500 0 1 0 115.699 137 L 115.699 153.5 L 6.699 153.5 L 6.699 41.400 L 39.099 41.400 A 2.500 2.500 0 0 0 41.599 38.900 L 41.599 6.5 L 115.699 6.5 L 115.699 23 A 2.500 2.500 0 1 0 120.699 23 L 120.699 4 A 2.500 2.500 0 0 0 118.199 1.5 L 39.099 1.5 z M 36.599 10.035 L 36.599 36.400 L 10.234 36.400 L 36.599 10.035 z M 52.5 16 A 2.500 2.500 0 1 0 52.5 21 L 71.5 21 A 2.500 2.500 0 1 0 71.5 16 L 52.5 16 z M 52.5 25.400 A 2.500 2.500 0 1 0 52.5 30.400 L 86.199 30.400 A 2.500 2.500 0 1 0 86.199 25.400 L 52.5 25.400 z M 118.199 27.400 C 97.645 27.400 80.900 44.145 80.900 64.699 C 80.900 81.460 91.982 95.687 107.300 100.390 L 107.300 130.199 A 2.500 2.500 0 0 0 109.800 132.699 L 124.599 132.699 A 2.500 2.500 0 0 0 127.099 130.199 L 127.099 100.986 C 143.388 96.960 155.494 82.254 155.5 64.812 L 155.5 64.806 C 155.603 44.155 138.844 27.400 118.199 27.400 z M 118.199 32.400 C 136.152 32.400 150.592 46.841 150.5 64.787 A 2.500 2.500 0 0 0 150.5 64.800 C 150.5 80.363 139.408 93.362 124.701 96.404 A 2.500 2.500 0 0 0 124.132 96.443 C 122.183 96.814 120.242 97 118.300 97 C 115.532 97 112.932 96.632 110.369 96.064 C 96.279 92.524 85.900 79.840 85.900 64.699 C 85.900 46.853 100.353 32.400 118.199 32.400 z M 118.199 37.699 C 103.317 37.699 91.199 49.817 91.199 64.699 C 91.199 79.581 103.317 91.699 118.199 91.699 C 133.081 91.699 145.199 79.581 145.199 64.699 C 145.199 49.817 133.081 37.699 118.199 37.699 z M 118.199 42.699 C 130.379 42.699 140.199 52.519 140.199 64.699 C 140.199 76.879 130.379 86.699 118.199 86.699 C 106.019 86.699 96.199 76.879 96.199 64.699 C 96.199 52.519 106.019 42.699 118.199 42.699 z M 117.199 48.699 C 110.154 48.699 104.400 54.454 104.400 61.5 A 2.500 2.500 0 1 0 109.400 61.5 C 109.400 57.145 112.844 53.699 117.199 53.699 A 2.500 2.500 0 1 0 117.199 48.699 z M 21.699 59 A 2.500 2.500 0 0 0 19.199 61.5 L 19.199 98.400 A 2.500 2.500 0 0 0 21.699 100.900 L 65.5 100.900 A 2.500 2.500 0 0 0 68 98.400 L 68 61.5 A 2.500 2.500 0 0 0 65.5 59 L 21.699 59 z M 24.199 64 L 63 64 L 63 95.900 L 24.199 95.900 L 24.199 64 z M 112.300 101.576 C 114.217 101.904 116.181 102.099 118.199 102.099 C 119.527 102.099 120.826 102.024 122.099 101.886 L 122.099 127.699 L 112.300 127.699 L 112.300 101.576 z M 40.300 116.599 A 2.500 2.500 0 1 0 40.300 121.599 L 98.400 121.599 A 2.500 2.500 0 1 0 98.400 116.599 L 40.300 116.599 z M 21.699 125.400 A 2.500 2.500 0 1 0 21.699 130.400 L 98.400 130.400 A 2.500 2.500 0 1 0 98.400 125.400 L 21.699 125.400 z M 21.699 134.900 A 2.500 2.500 0 1 0 21.699 139.900 L 98.400 139.900 A 2.500 2.500 0 1 0 98.400 134.900 L 21.699 134.900 z " /></svg>
