<svg xmlns="http://www.w3.org/2000/svg" viewBox="0 0 32 33" width="32" height="33">
	<path d="M28.13 0.75C29.04 0.75 29.81 1.1 30.52 1.73C31.15 2.44 31.5 3.21 31.5 4.13L31.5 28.88C31.5 29.86 31.15 30.63 30.52 31.27C29.81 31.97 29.04 32.25 28.13 32.25L3.38 32.25C2.39 32.25 1.62 31.97 0.98 31.27C0.28 30.63 0 29.86 0 28.88L0 4.13C0 3.21 0.28 2.44 0.98 1.73C1.62 1.1 2.39 0.75 3.38 0.75L28.13 0.75ZM24.68 11.93C25.52 11.3 26.3 10.52 27 9.54C26.09 9.96 25.17 10.17 24.33 10.24C25.31 9.68 25.95 8.84 26.37 7.71C25.38 8.27 24.4 8.7 23.41 8.84C22.5 7.85 21.38 7.36 20.11 7.36C19.13 7.36 18.28 7.64 17.51 8.13C16.73 8.7 16.17 9.4 15.82 10.24C15.4 11.09 15.33 12.07 15.61 13.05C13.64 12.98 11.88 12.49 10.27 11.65C8.58 10.8 7.17 9.61 6.05 8.2C5.63 8.91 5.41 9.68 5.41 10.52C5.41 11.37 5.55 12.07 5.98 12.77C6.33 13.48 6.82 13.97 7.52 14.39C6.75 14.39 6.05 14.18 5.41 13.76L5.41 13.83C5.41 14.95 5.77 15.94 6.47 16.78C7.17 17.62 8.02 18.19 9.14 18.4C8.44 18.54 7.73 18.61 7.03 18.47C7.31 19.45 7.8 20.23 8.65 20.79C9.42 21.35 10.34 21.63 11.32 21.63C9.63 22.97 7.73 23.6 5.63 23.6L4.5 23.6C6.61 25.01 9 25.64 11.6 25.64C14.27 25.64 16.66 25.01 18.77 23.6C20.6 22.41 22.08 20.72 23.2 18.61C24.19 16.64 24.68 14.6 24.68 12.49L24.68 11.93Z" />
</svg>