<svg xmlns="http://www.w3.org/2000/svg" viewBox="0 0 32 33" width="32" height="33">
	<path d="M31.5 28.88C31.5 29.86 31.15 30.63 30.52 31.27C29.81 31.97 29.04 32.25 28.13 32.25L3.38 32.25C2.39 32.25 1.62 31.97 0.98 31.27C0.28 30.63 0 29.86 0 28.88L0 4.13C0 3.21 0.28 2.44 0.98 1.73C1.62 1.1 2.39 0.75 3.38 0.75L28.13 0.75C29.04 0.75 29.81 1.1 30.52 1.73C31.15 2.44 31.5 3.21 31.5 4.13L31.5 28.88ZM28.48 14.18C28.34 12.49 28.2 11.16 27.98 10.31C27.84 9.75 27.56 9.33 27.14 8.91C26.72 8.48 26.3 8.2 25.73 8.06C24.89 7.85 22.99 7.71 19.97 7.57L15.75 7.5L11.53 7.57C8.44 7.71 6.54 7.85 5.77 8.06C5.2 8.2 4.71 8.48 4.29 8.91C3.87 9.33 3.66 9.75 3.52 10.31C3.09 11.72 2.95 13.76 2.95 16.5L3.02 18.89C3.09 20.65 3.23 21.91 3.52 22.69C3.66 23.25 3.87 23.74 4.29 24.16C4.71 24.59 5.2 24.8 5.77 24.94C6.54 25.22 8.44 25.36 11.53 25.43L15.75 25.5L19.97 25.43C22.99 25.36 24.89 25.22 25.73 24.94C26.3 24.8 26.72 24.59 27.14 24.16C27.56 23.74 27.84 23.25 27.98 22.69C28.34 21.42 28.55 19.31 28.55 16.5C28.55 15.8 28.48 15.02 28.48 14.18ZM19.83 16.5L13.15 20.3L13.15 12.7L19.83 16.5Z" />
</svg>