<svg fill="#85be33" id="member-website" xmlns="http://www.w3.org/2000/svg" viewBox="0 0 1792 1792" >
<path d="M1520,1216c0-26.7-9.3-49.3-28-68l-208-208c-18.7-18.7-41.3-28-68-28c-28,0-52,10.7-72,32c2,2,8.3,8.2,19,18.5
	s17.8,17.5,21.5,21.5s8.7,10.3,15,19s10.7,17.2,13,25.5c2.3,8.3,3.5,17.5,3.5,27.5c0,26.7-9.3,49.3-28,68s-41.3,28-68,28
	c-10,0-19.2-1.2-27.5-3.5s-16.8-6.7-25.5-13s-15-11.3-19-15s-11.2-10.8-21.5-21.5c-10.3-10.7-16.5-17-18.5-19c-22,20.7-33,45-33,73
	c0,26.7,9.3,49.3,28,68l206,207c18,18,40.7,27,68,27c26.7,0,49.3-8.7,68-26l147-146C1510.7,1264.3,1520,1242,1520,1216z M817,511
	c0-26.7-9.3-49.3-28-68L583,236c-18.7-18.7-41.3-28-68-28c-26,0-48.7,9-68,27L300,381c-18.7,18.7-28,41-28,67c0,26.7,9.3,49.3,28,68
	l208,208c18,18,40.7,27,68,27c28,0,52-10.3,72-31c-2-2-8.3-8.2-19-18.5S611.2,684,607.5,680s-8.7-10.3-15-19s-10.7-17.2-13-25.5
	S576,618,576,608c0-26.7,9.3-49.3,28-68s41.3-28,68-28c10,0,19.2,1.2,27.5,3.5s16.8,6.7,25.5,13s15,11.3,19,15s11.2,10.8,21.5,21.5
	s16.5,17,18.5,19C806,563.3,817,539,817,511z M1712,1216c0,80-28.3,147.7-85,203l-147,146c-55.3,55.3-123,83-203,83
	c-80.7,0-148.7-28.3-204-85l-206-207c-55.3-55.3-83-123-83-203c0-82,29.3-151.7,88-209l-88-88c-57.3,58.7-126.7,88-208,88
	c-80,0-148-28-204-84L164,652c-56-56-84-124-84-204s28.3-147.7,85-203L312,99c55.3-55.3,123-83,203-83c80.7,0,148.7,28.3,204,85
	l206,207c55.3,55.3,83,123,83,203c0,82-29.3,151.7-88,209l88,88c57.3-58.7,126.7-88,208-88c80,0,148,28,204,84l208,208
	C1684,1068,1712,1136,1712,1216z"/>
</svg>
