<svg id="glossary" xmlns="http://www.w3.org/2000/svg" viewBox="0 0 160 160">
<style type="text/css">
	.st0{fill:none;stroke:#4C4D4C;stroke-width:5;stroke-linecap:round;stroke-linejoin:round;stroke-miterlimit:10;}
</style>
<line class="st0" x1="89.3" y1="49.5" x2="147.4" y2="49.5"/>
<line class="st0" x1="89.3" y1="77.5" x2="147.4" y2="77.5"/>
<line class="st0" x1="70.7" y1="67.8" x2="147.4" y2="67.8"/>
<line class="st0" x1="70.7" y1="58.3" x2="147.4" y2="58.3"/>
<path class="st0" d="M50.2,116.7v39.8h21.8v-39.8c-3.5,0.7-7.2,1.1-10.9,1.1C57.3,117.8,53.7,117.4,50.2,116.7z"/>
	<path class="st0" d="M92.7,92.9c-8.1,8.1-19.3,13.1-31.7,13.1c-24.8,0-44.9-20.1-44.9-44.9c0-24.8,20.1-44.9,44.9-44.9
		c14.7,0,27.7,7.1,35.9,18"/>
	<path class="st0" d="M111,34.1C101.5,16.4,82.7,4.3,61,4.3C29.7,4.3,4.3,29.7,4.3,61c0,27.6,19.7,50.6,45.9,55.7
		c3.5,0.7,7.2,1.1,10.9,1.1c3.7,0,7.4-0.4,10.9-1.1c15-2.9,27.8-11.7,36.1-23.9"/>
	<path class="st0" d="M97,34.1"/>
	<path class="st0" d="M111,34.1"/>
	<path class="st0" d="M108,92.9"/>
	<path class="st0" d="M92.7,92.9"/>
	<path class="st0" d="M97,34.1"/>
	<path class="st0" d="M92.7,92.9"/>
	<path class="st0" d="M97,34.1c-8.2-10.9-21.2-18-35.9-18c-24.8,0-44.9,20.1-44.9,44.9c0,24.8,20.1,44.9,44.9,44.9
		c12.4,0,23.6-5,31.7-13.1"/>
<line class="st0" x1="50.2" y1="130.7" x2="61" y2="130.7"/>
<line class="st0" x1="50.2" y1="144.8" x2="61" y2="144.8"/>
<path class="st0" d="M60.8,31.1c-16.4,0-29.7,13.3-29.7,29.7"/>
</svg>
