<?xml version="1.0" encoding="utf-8"?>
<!-- Generator: Adobe Illustrator 19.2.1, SVG Export Plug-In . SVG Version: 6.00 Build 0)  -->
<svg version="1.1" id="Layer_1" xmlns="http://www.w3.org/2000/svg" xmlns:xlink="http://www.w3.org/1999/xlink" x="0px" y="0px"
	 viewBox="0 0 160 160" style="enable-background:new 0 0 160 160;" xml:space="preserve">
<style type="text/css">
	.st0{fill:none;stroke:#4C4C4C;stroke-width:5;stroke-linecap:round;stroke-miterlimit:10;}
</style>
<path class="st0" d="M126,155.5H9.8c-2.7,0-4.6-2.5-3.9-5.1l26.4-72.3c0.5-1.8,2.1-3,3.9-3h116.1c2.7,0,3.9,2.6,3.9,5.1l-26.4,72.3
	C129.4,154.3,127.8,155.5,126,155.5z"/>
<line class="st0" x1="44.7" y1="43.9" x2="70.6" y2="43.9"/>
<line class="st0" x1="44.7" y1="25.8" x2="70.6" y2="25.8"/>
<line class="st0" x1="44.7" y1="62.1" x2="106.9" y2="62.1"/>
<path class="st0" d="M124.4,43.9H86.2V5.7c0-0.3,0.3-0.4,0.5-0.2l37.9,37.9C124.8,43.6,124.6,43.9,124.4,43.9z"/>
<path class="st0" d="M32.3,78.1c0.5-1.8,2.1-3,3.9-3h88.9V43.9L86.2,5H26.5v88.9L32.3,78.1z"/>
<g>
	<path class="st0" d="M136.2,51.7h-11.1v23.4h15.6V56.2C140.7,53.7,138.7,51.7,136.2,51.7z"/>
	<path class="st0" d="M26.5,33.5H10.2c-2.5,0-4.5,2-4.5,4.5v110.9c0.2,0,0.4,0,0.5,0l20.2-55.2V33.5z"/>
</g>
</svg>
