<?xml version="1.0" encoding="utf-8"?>
<!-- Generator: Adobe Illustrator 19.2.1, SVG Export Plug-In . SVG Version: 6.00 Build 0)  -->
<svg version="1.1" id="Layer_1" xmlns="http://www.w3.org/2000/svg" xmlns:xlink="http://www.w3.org/1999/xlink" x="0px" y="0px"
	 viewBox="0 0 160 160" style="enable-background:new 0 0 160 160;" xml:space="preserve">
<style type="text/css">
	.st0{fill:none;stroke:#4C4B4B;stroke-width:5;stroke-miterlimit:10;}
	.st1{fill:#FFFFFF;stroke:#4C4B4B;stroke-width:5;stroke-miterlimit:10;}
</style>
<path class="st0" d="M4.4,32.1l50.3,50.6c1.9,1.8,5,1.8,6.9,0L112,32.1"/>
<polygon class="st0" points="4.4,32.1 4.4,32.3 4.4,107.9 4.4,108.2 4.7,108.2 111.1,108.2 111.8,108.2 112,108.2 112,107.9 
	112,32.3 112,32.1 "/>
<path class="st0" d="M4.4,105.8V34.5c0-1,1.1-1.5,1.9-0.9l37,37.5l-37,35.6C5.6,107.3,4.4,106.7,4.4,105.8z"/>
<path class="st0" d="M112,105.8V34.5c0-1-1.1-1.5-1.9-0.9l-37,37.5l37,35.6C110.9,107.3,112,106.7,112,105.8z"/>
<path class="st1" d="M132.7,27.4V14L155,36.3l-22.3,22.4V45.3c0,0-19.8-4.8-33.3,17.9c0,0-3.4-17.3,11.7-29.9
	C111.2,33.3,118,26.9,132.7,27.4z"/>
</svg>
