<svg id="globe" fill="#9de1fd" xmlns="http://www.w3.org/2000/svg" viewBox="0 0 160 160">
<path d="M79.5,2c14.2,0,27.4,3.5,39.4,10.5s21.6,16.5,28.6,28.6S158,66.3,158,80.5s-3.5,27.4-10.5,39.4
	s-16.5,21.6-28.6,28.6S93.7,159,79.5,159s-27.4-3.5-39.4-10.5s-21.6-16.5-28.6-28.6S1,94.7,1,80.5s3.5-27.4,10.5-39.4
	s16.5-21.6,28.6-28.6S65.3,2,79.5,2z M107.5,55.3c-0.1,0.1-0.5,0.4-1,1c-0.5,0.6-1,0.9-1.4,1c0.1,0,0.3-0.2,0.5-0.5
	c0.2-0.3,0.3-0.7,0.5-1.1c0.2-0.4,0.3-0.6,0.4-0.7c0.4-0.5,1.2-1,2.2-1.5c1-0.4,2.7-0.8,5.3-1.2c2.3-0.5,4.1-0.2,5.2,1.1
	c-0.1-0.1,0.2-0.6,1-1.3c0.8-0.7,1.3-1.2,1.5-1.2c0.2-0.1,0.7-0.3,1.5-0.5c0.8-0.2,1.3-0.4,1.5-0.8l0.2-2.2
	c-0.8,0.1-1.4-0.2-1.8-0.7s-0.6-1.3-0.7-2.1c0,0.1-0.2,0.4-0.6,0.8c0-0.5-0.2-0.7-0.5-0.8s-0.7,0-1.2,0.1c-0.5,0.1-0.8,0.2-0.9,0.1
	c-0.7-0.2-1.2-0.5-1.5-0.8s-0.6-0.9-0.8-1.7c-0.2-0.8-0.3-1.3-0.4-1.5c-0.1-0.3-0.5-0.7-1-1.1c-0.5-0.4-0.8-0.7-1-1.1
	c-0.1-0.1-0.2-0.3-0.3-0.6c-0.1-0.2-0.2-0.5-0.3-0.7c-0.1-0.2-0.2-0.4-0.4-0.6c-0.2-0.2-0.4-0.3-0.6-0.3c-0.2,0-0.4,0.2-0.7,0.5
	c-0.3,0.3-0.5,0.7-0.8,1s-0.4,0.5-0.5,0.5c-0.2-0.1-0.4-0.2-0.6-0.2c-0.2,0-0.4,0.1-0.5,0.1c-0.1,0-0.3,0.1-0.5,0.3
	c-0.2,0.2-0.4,0.3-0.5,0.4c-0.2,0.1-0.5,0.2-0.9,0.3s-0.7,0.1-0.9,0.2c1-0.3,1-0.7-0.1-1.1c-0.7-0.3-1.2-0.4-1.6-0.3
	c0.6-0.3,0.9-0.7,0.8-1.2c-0.1-0.5-0.4-1-0.9-1.4h0.5c-0.1-0.3-0.4-0.6-0.9-0.9c-0.5-0.3-1.1-0.6-1.8-0.9c-0.7-0.3-1.1-0.5-1.3-0.6
	c-0.5-0.3-1.7-0.7-3.5-1c-1.8-0.3-2.9-0.3-3.4-0.1c-0.3,0.4-0.5,0.8-0.5,1.1c0,0.3,0.2,0.8,0.4,1.4c0.2,0.6,0.4,1.1,0.4,1.3
	c0.1,0.4-0.1,0.9-0.6,1.3c-0.4,0.5-0.7,0.9-0.7,1.2c0,0.5,0.5,1,1.4,1.6c1,0.6,1.3,1.3,1,2.2c-0.2,0.5-0.7,1.1-1.6,1.6
	c-0.9,0.5-1.4,1-1.6,1.2c-0.3,0.5-0.4,1.2-0.2,1.9s0.6,1.3,1.1,1.7c0.1,0.1,0.2,0.3,0.2,0.4c0,0.1-0.2,0.3-0.4,0.5
	c-0.2,0.2-0.4,0.3-0.6,0.4c-0.2,0.1-0.4,0.2-0.7,0.4l-0.3,0.2c-0.7,0.3-1.4,0.1-2.1-0.6c-0.6-0.7-1.1-1.6-1.4-2.7
	c-0.5-1.7-1-2.7-1.6-3.1c-1.6-0.5-2.6-0.5-3,0.1c-0.3-0.9-1.7-1.8-4.2-2.7c-1.7-0.6-3.7-0.7-5.9-0.4c0.4-0.1,0.4-0.6,0-1.5
	c-0.5-1-1.1-1.4-1.9-1.2c0.2-0.4,0.3-1,0.4-1.8c0.1-0.8,0.1-1.2,0.1-1.4c0.2-0.9,0.6-1.7,1.2-2.4c0.1-0.1,0.3-0.4,0.7-0.9
	c0.4-0.5,0.7-1,1-1.4c0.2-0.4,0.3-0.6,0.1-0.6c2.4,0.3,4.1-0.1,5.1-1.1c0.3-0.3,0.7-0.9,1.2-1.7s0.8-1.4,1.1-1.7
	c0.6-0.4,1.1-0.6,1.4-0.6c0.3,0,0.8,0.2,1.5,0.6c0.6,0.3,1.1,0.5,1.5,0.5c1,0.1,1.5-0.3,1.6-1.1c0.1-0.8-0.2-1.5-0.8-2
	c0.8,0.1,0.9-0.5,0.3-1.7c-0.3-0.5-0.6-0.8-0.8-0.9c-0.8-0.3-1.7-0.1-2.8,0.5c-0.5,0.3-0.5,0.5,0.2,0.8c-0.1-0.1-0.4,0.3-1,1.1
	s-1.1,1.4-1.7,1.8c-0.5,0.4-1.1,0.2-1.6-0.5c-0.1-0.1-0.3-0.5-0.6-1.4s-0.6-1.3-1-1.4c-0.5,0-1.1,0.5-1.6,1.5
	c0.2-0.5-0.2-1.1-1.1-1.5c-1-0.5-1.8-0.7-2.5-0.8c1.3-0.8,1-1.7-0.8-2.8c-0.5-0.3-1.2-0.4-2.1-0.5c-0.9-0.1-1.6,0.1-2,0.4
	c-0.3,0.5-0.5,0.9-0.6,1.2c0,0.3,0.1,0.6,0.5,0.8s0.7,0.4,1.1,0.6s0.7,0.3,1.2,0.4s0.7,0.2,0.9,0.3c1,0.7,1.2,1.2,0.8,1.4
	c-0.1,0.1-0.4,0.2-0.9,0.4s-0.8,0.3-1.2,0.5c-0.3,0.1-0.5,0.3-0.6,0.4c-0.2,0.3-0.2,0.7,0,1.4c0.2,0.7,0.1,1.2-0.2,1.4
	c-0.3-0.3-0.6-0.9-0.9-1.8c-0.3-0.9-0.5-1.4-0.7-1.7c0.5,0.6-0.4,0.8-2.6,0.6l-1-0.1c-0.3,0-0.8,0.1-1.6,0.2s-1.5,0.2-2.1,0.1
	s-1-0.3-1.4-0.8c-0.3-0.5-0.3-1.2,0-2c0.1-0.3,0.2-0.3,0.4-0.2c-0.3-0.2-0.6-0.5-1.1-1s-0.8-0.7-1-0.9c-3.1,1-6.3,2.4-9.6,4.2
	c0.4,0.1,0.8,0,1.2-0.1c0.3-0.1,0.8-0.4,1.3-0.7c0.5-0.3,0.9-0.5,1-0.6c2.3-1,3.7-1.2,4.3-0.7l0.5-0.5c1,1.1,1.6,1.9,2,2.6
	c-0.5-0.3-1.5-0.3-3.1-0.1c-1.4,0.4-2.1,0.8-2.2,1.2c0.5,0.8,0.6,1.4,0.5,1.8c-0.3-0.2-0.7-0.5-1.2-1c-0.5-0.5-1-0.9-1.5-1.1
	c-0.5-0.3-1-0.4-1.5-0.5c-1.1,0-1.8,0-2.2,0.1c-9.9,5.5-18,13-24,22.7c0.5,0.5,0.9,0.7,1.2,0.8c0.3,0.1,0.4,0.4,0.5,0.9
	c0.1,0.5,0.2,0.9,0.3,1.1c0.1,0.2,0.5,0.1,1.2-0.3c0.6,0.5,0.7,1.2,0.3,1.9c0.1-0.1,1.6,0.9,4.5,2.8c1.3,1.2,2,1.9,2.1,2.1
	c0.2,0.7-0.1,1.4-1,1.8c-0.1-0.1-0.4-0.4-0.9-0.9c-0.5-0.5-0.9-0.6-0.9-0.4c-0.2,0.3-0.2,1,0.1,1.9c0.2,0.9,0.6,1.3,1.1,1.3
	c-0.5,0-0.8,0.5-1,1.6s-0.3,2.3-0.3,3.6c0,1.3,0,2.1-0.1,2.4l0.2,0.1c-0.2,0.8,0,2,0.6,3.5c0.6,1.5,1.3,2.2,2.2,2
	c-0.9,0.2-0.2,1.7,2,4.4c0.4,0.5,0.7,0.9,0.8,0.9c0.2,0.1,0.6,0.4,1.2,0.8c0.6,0.4,1.1,0.7,1.5,1c0.4,0.3,0.7,0.7,1,1.1
	c0.3,0.3,0.6,1.1,1,2.3c0.4,1.2,0.9,2,1.4,2.4c-0.1,0.4,0.2,1.1,1,2c0.8,1,1.1,1.7,1.1,2.4c-0.1,0-0.2,0-0.3,0.1
	c-0.1,0.1-0.2,0.1-0.3,0.1c0.2,0.5,0.7,1,1.6,1.4c0.9,0.5,1.4,0.9,1.6,1.3c0.1,0.2,0.1,0.5,0.2,1c0.1,0.5,0.2,0.9,0.3,1.1
	c0.1,0.3,0.4,0.3,0.8,0.2c0.1-1.4-0.7-3.5-2.5-6.3c-1-1.7-1.6-2.7-1.7-3c-0.2-0.3-0.4-0.9-0.6-1.6c-0.2-0.7-0.3-1.2-0.5-1.5
	c0.1,0,0.3,0.1,0.6,0.2c0.3,0.1,0.6,0.2,0.9,0.4s0.6,0.3,0.8,0.4c0.2,0.1,0.3,0.2,0.2,0.3c-0.2,0.5-0.1,1.1,0.2,1.8
	c0.3,0.7,0.7,1.3,1.2,1.9c0.5,0.5,1.1,1.2,1.7,1.9c0.7,0.7,1.1,1.2,1.2,1.3c0.4,0.4,0.9,1.1,1.4,2c0.5,0.9,0.5,1.4,0,1.4
	c0.6,0,1.3,0.3,2,1s1.3,1.4,1.7,2c0.3,0.5,0.6,1.4,0.8,2.7c0.2,1.2,0.4,2,0.5,2.5c0.1,0.5,0.4,0.9,0.9,1.4c0.4,0.4,0.9,0.8,1.3,1
	l1.6,0.8l1.3,0.7c0.3,0.1,1,0.5,1.9,1.1c0.9,0.6,1.7,1,2.2,1.2c0.7,0.3,1.2,0.4,1.6,0.4c0.4,0,0.9-0.1,1.5-0.3
	c0.6-0.2,1-0.3,1.4-0.4c1-0.1,2,0.4,3,1.5c1,1.2,1.7,1.9,2.1,2.1c2.5,1.3,4.3,1.7,5.6,1.1c-0.1,0.1-0.1,0.3,0.1,0.8
	c0.2,0.4,0.4,1,0.8,1.6s0.7,1.1,0.9,1.5s0.4,0.7,0.6,0.9c0.3,0.4,1,0.9,1.8,1.5c0.9,0.6,1.5,1.1,1.8,1.5c0.4-0.3,0.6-0.6,0.7-0.9
	c-0.2,0.5,0,1.2,0.7,2c0.7,0.8,1.3,1.2,1.8,1c1-0.2,1.4-1.3,1.4-3.3c-2.1,1-3.8,0.4-5-1.8c0-0.1-0.1-0.3-0.3-0.6s-0.3-0.6-0.4-0.9
	c-0.1-0.3-0.2-0.6-0.3-0.9c-0.1-0.3-0.1-0.6,0-0.8c0.1-0.2,0.2-0.3,0.5-0.3c0.6,0,1-0.1,1-0.4c0.1-0.2,0-0.7-0.2-1.3
	c-0.2-0.6-0.3-1.1-0.4-1.3c-0.1-0.5-0.4-1.2-1.1-2c-0.7-0.8-1.1-1.3-1.2-1.5c-0.3,0.6-0.9,0.9-1.6,0.8s-1.3-0.4-1.6-0.9
	c0,0.1-0.1,0.3-0.2,0.6s-0.2,0.5-0.2,0.7c-0.9,0-1.4,0-1.5-0.1c0.1-0.2,0.2-0.8,0.3-1.8c0.1-1,0.2-1.8,0.4-2.3
	c0.1-0.3,0.3-0.7,0.6-1.2s0.6-1,0.8-1.5c0.2-0.4,0.3-0.9,0.4-1.3c0.1-0.4-0.1-0.7-0.5-1c-0.4-0.2-1-0.3-1.8-0.3
	c-1.3,0.1-2.2,0.7-2.7,2c-0.1,0.2-0.2,0.6-0.3,1.1c-0.1,0.5-0.3,0.9-0.5,1.2s-0.5,0.5-0.9,0.7c-0.5,0.2-1.3,0.3-2.5,0.2
	s-2-0.2-2.5-0.5c-0.9-0.5-1.7-1.5-2.3-3c-0.6-1.4-1-2.7-1-3.8c0-0.7,0.1-1.6,0.3-2.7s0.3-2,0.3-2.6c0-0.6-0.2-1.4-0.6-2.5
	c0.2-0.1,0.5-0.5,0.9-1c0.4-0.5,0.7-0.9,1-1.1c0.1-0.1,0.3-0.1,0.5-0.2c0.2,0,0.3,0,0.5,0c0.1,0,0.3,0,0.4-0.2s0.2-0.3,0.3-0.6
	c-0.1-0.1-0.2-0.2-0.4-0.3c-0.2-0.2-0.3-0.3-0.4-0.3c0.5,0.2,1.4,0.2,2.9-0.2c1.5-0.3,2.4-0.3,2.8,0.2c1,0.7,1.8,0.7,2.2-0.2
	c0-0.1-0.1-0.4-0.3-1s-0.2-1-0.1-1.4c0.3,1.8,1.3,2.1,3,0.9c0.2,0.2,0.7,0.4,1.6,0.5c0.9,0.1,1.4,0.3,1.8,0.5
	c0.2,0.1,0.4,0.3,0.7,0.6c0.3,0.2,0.5,0.4,0.6,0.5c0.1,0.1,0.3,0.1,0.5-0.1c0.2-0.1,0.5-0.3,0.9-0.7c0.7,1,1.1,1.8,1.2,2.5
	c0.7,2.7,1.4,4.2,1.9,4.5c0.5,0.2,0.9,0.3,1.1,0.2c0.3-0.1,0.4-0.4,0.5-1c0-0.6,0-1.1,0-1.4c0-0.4-0.1-0.8-0.2-1.3l-0.1-0.8v-1.8
	l-0.1-0.8c-1-0.2-1.7-0.6-1.9-1.2c-0.2-0.6-0.2-1.2,0.2-1.9c0.3-0.6,0.9-1.3,1.5-1.9c0.1-0.1,0.3-0.2,0.8-0.4s1-0.4,1.6-0.7
	c0.6-0.3,1-0.5,1.3-0.8c1.4-1.3,1.9-2.5,1.5-3.6c0.5,0,0.9-0.3,1.1-0.9c-0.1,0-0.2-0.1-0.5-0.3c-0.3-0.2-0.5-0.4-0.8-0.5
	s-0.4-0.2-0.5-0.2c0.6-0.3,0.7-0.9,0.2-1.6c0.3-0.2,0.6-0.6,0.8-1.1s0.4-0.9,0.8-1c0.6,0.8,1.3,0.9,2.1,0.2c0.5-0.5,0.5-1.1,0.1-1.6
	c0.3-0.5,1-0.8,2.1-1.1c1.1-0.2,1.7-0.6,1.9-1c0.5,0.1,0.7,0.1,0.8-0.2c0.1-0.3,0.1-0.7,0.1-1.2c0-0.5,0.1-1,0.3-1.2
	c0.3-0.3,0.8-0.6,1.5-0.9c0.7-0.3,1.2-0.4,1.3-0.5l1.7-1.1c0.2-0.3,0.2-0.4,0-0.4c1.2,0.1,2.3-0.2,3.2-1.1c0.7-0.7,0.5-1.4-0.6-2
	c0.2-0.4,0.1-0.7-0.3-1c-0.4-0.2-0.9-0.4-1.5-0.6c0.2-0.1,0.6-0.1,1.2-0.1s0.9,0,1.1-0.2c1-0.7,0.8-1.2-0.7-1.6
	C110.7,53.7,109.3,54.1,107.5,55.3z M90.8,144.9c14-2.5,26-8.9,35.9-19.3c-0.2-0.2-0.6-0.4-1.3-0.5c-0.6-0.1-1.1-0.2-1.3-0.4
	c-1.2-0.5-2-0.7-2.5-0.8c0.1-0.5,0-0.9-0.3-1.3c-0.2-0.4-0.5-0.7-0.8-0.9c-0.3-0.2-0.7-0.5-1.3-0.8c-0.5-0.3-0.9-0.6-1.1-0.7
	c-0.1-0.1-0.4-0.3-0.7-0.6c-0.3-0.3-0.6-0.5-0.7-0.6c-0.1-0.1-0.4-0.3-0.8-0.5s-0.7-0.3-0.9-0.2c-0.2,0.1-0.5,0.1-1,0.1l-0.3,0.1
	c-0.2,0.1-0.4,0.2-0.6,0.3c-0.2,0.1-0.4,0.2-0.6,0.3c-0.2,0.1-0.3,0.2-0.4,0.3c-0.1,0.1-0.1,0.2,0,0.3c-1.4-1.2-2.7-1.9-3.7-2.2
	c-0.3-0.1-0.7-0.3-1.1-0.6c-0.4-0.3-0.8-0.5-1.1-0.7c-0.3-0.2-0.6-0.2-1-0.2s-0.8,0.3-1.2,0.7c-0.3,0.3-0.5,0.9-0.6,1.5
	s-0.1,1.1-0.2,1.3c-0.5-0.3-0.5-0.9,0-1.8s0.5-1.5,0.2-1.9c-0.2-0.4-0.6-0.6-1.1-0.5c-0.5,0.1-0.9,0.3-1.2,0.5
	c-0.3,0.2-0.7,0.5-1.2,0.9c-0.5,0.4-0.8,0.6-0.9,0.7c-0.1,0.1-0.4,0.3-0.9,0.6s-0.7,0.6-0.9,0.8c-0.2,0.3-0.4,0.7-0.6,1.2
	c-0.2,0.5-0.4,0.9-0.5,1.1c-0.1-0.3-0.5-0.5-1.2-0.7c-0.6-0.2-1-0.4-1-0.6c0.1,0.7,0.3,1.9,0.4,3.6c0.1,1.7,0.3,3,0.5,3.9
	c0.5,2.1,0.1,3.7-1.2,4.9c-1.8,1.7-2.8,3.1-3,4.1c-0.3,1.5,0.1,2.4,1.2,2.7c0,0.5-0.3,1.2-0.8,2.1c-0.5,0.9-0.8,1.7-0.7,2.2
	C90.6,143.7,90.7,144.2,90.8,144.9z"/>
</svg>
