<svg id="country1" xmlns="http://www.w3.org/2000/svg" viewBox="0 0 160 160">
<style type="text/css">
	.st0{fill:none;stroke:#4B4A4A;stroke-width:3;stroke-linecap:round;stroke-linejoin:round;stroke-miterlimit:10;}
</style>
<circle class="st0" cx="43.5" cy="14" r="10.6"/>
<circle class="st0" cx="39.7" cy="11" r="2.3"/>
<line class="st0" x1="43.5" y1="24.6" x2="43.5" y2="46.4"/>
<circle class="st0" cx="69.3" cy="91.7" r="66"/>
<path class="st0" d="M103.2,35.9c0.3-0.1,0.5-0.3,0.7-0.4c-10.1-6.2-21.9-9.8-34.6-9.8c-14,0-26.9,4.3-37.6,11.7
	c0.1,0.3,0.1,0.5,0.2,0.8c4.5,9.7,10.3,26.2,20.2,30c4.8,1.8,9.3,1.1,13.8,3.4c0.5,0.2,1.2,0.8,1.5,1.2c2.3,3.4,1,8.4,3.3,9.6
	c1.8,1,2.9,2.9,2.1,4.8c-3.2,7.8-0.4,16.7,6.9,22.8c5.2,4.3,0.9,14.3-3.5,22.1c-1.6,2.8,1.2,6,4.2,5c4.8-1.7,8.7-4.2,13.3-8.1
	c6.6-5.7,8.1-11.9,14.6-16.8c0.1-0.1,0.1-0.1,0.2-0.2c1.7-4.9,6.9-15.7,1.6-18.4c-4.9-2.6-6.8-10-11.6-15c-0.6-0.6-1.3-0.9-2.1-1
	c-5.9-0.8-8.5-5.2-12.5-2.3c-3,2.2-6.3,0.9-7.3-2.7c-0.3-1.2-0.9-2.2-3.1-2.9c-1.6-0.5-2.4-2.3-1.8-3.9c0,0,0,0,0-0.1
	c0.8-2.1-3.6-1.8-5.9-1.4c-0.6,0.1,1.5-2.4,0.8-2c-2.7,1.6-6.2-1.2-6-4.4c0.1-3.2,0.8-3.1,6.3-3.7c6-2.8,8.9-0.8,8.7,6.1
	c3.7,0.5,5-1.1,3.9-4.9c-0.3-1.1-0.1-2.4,0.6-3.3C87.1,43.4,92.8,39.5,103.2,35.9z"/>
</svg>
