<?xml version="1.0" encoding="utf-8"?>
<!-- Generator: Adobe Illustrator 19.2.1, SVG Export Plug-In . SVG Version: 6.00 Build 0)  -->
<svg version="1.1" id="Layer_1" xmlns="http://www.w3.org/2000/svg" xmlns:xlink="http://www.w3.org/1999/xlink" x="0px" y="0px"
	 viewBox="0 0 160 160" style="enable-background:new 0 0 160 160;" xml:space="preserve">
<style type="text/css">
	.st0{fill:none;stroke:#4B4A4A;stroke-width:4;stroke-linecap:round;stroke-linejoin:round;stroke-miterlimit:10;}
</style>
<g>
	<g>
		<g>
			<g>
				<path class="st0" d="M52.6,56.6c-11.2,0-20.2,9.1-20.2,20.2c0,6.5,3.1,12.3,7.9,16c-6.1,2.2-10.5,8-10.5,14.9v10.1h45.5v-7.1v-3
					"/>
			</g>
			<line class="st0" x1="42.5" y1="117.8" x2="42.5" y2="107.2"/>
			<line class="st0" x1="63" y1="117.8" x2="63" y2="107.2"/>
		</g>
		<g>
			<g>
				<path class="st0" d="M107.2,56.6c11.2,0,20.2,9.1,20.2,20.2c0,6.5-3.1,12.3-7.9,16c6.1,2.2,10.5,8,10.5,14.9v10.1H84.4v-7.1v-3"
					/>
			</g>
			<line class="st0" x1="117.3" y1="117.8" x2="117.3" y2="107.2"/>
			<line class="st0" x1="96.8" y1="117.8" x2="96.8" y2="107.2"/>
		</g>
		<g>
			<g>
				<path class="st0" d="M102,92.6c0-6.9-4.4-12.7-10.5-14.9c4.8-3.7,7.9-9.5,7.9-16c0-11.2-9.1-20.2-20.2-20.2
					c-11.2,0-20.2,9-20.2,20.2c0,6.5,3.1,12.3,7.9,16c-6.1,2.2-10.5,8-10.5,14.9v10.1H102V92.6z"/>
			</g>
			<line class="st0" x1="69.1" y1="102.6" x2="69.1" y2="92"/>
			<line class="st0" x1="89.6" y1="102.6" x2="89.6" y2="92"/>
		</g>
	</g>
	<path class="st0" d="M79.9,24V2.7C37.4,2.7,3,37.1,3,79.6s34.4,76.9,76.9,76.9c42.5,0,76.9-34.5,76.9-76.9"/>
	<line class="st0" x1="79.3" y1="156.5" x2="79.3" y2="137.2"/>
</g>
</svg>
