<svg id="implemenation" xmlns="http://www.w3.org/2000/svg" viewBox="0 0 160 160">
<style type="text/css">
	.st0{fill:none;stroke:#0093cf;stroke-width:5;stroke-linecap:round;stroke-linejoin:round;stroke-miterlimit:10;}
</style>
			<path class="st0" d="M32.3,22C19.7,22,9.5,32.2,9.5,44.8c0,7.4,3.5,13.9,8.9,18.1C11.6,65.4,6.6,72,6.6,79.8v11.4H58v-8v-3.4"/>
		<line class="st0" x1="20.9" y1="91.1" x2="20.9" y2="79.1"/>
			<path class="st0" d="M93.9,22c12.6,0,22.8,10.2,22.8,22.8c0,7.4-3.5,13.9-8.9,18.1c6.9,2.5,11.8,9.1,11.8,16.8v11.4H68.2v-8v-3.4
				"/>
		<line class="st0" x1="105.4" y1="91.1" x2="105.4" y2="79.1"/>
		<line class="st0" x1="82.2" y1="91.1" x2="82.2" y2="79.1"/>
			<path class="st0" d="M88.1,62.6c0-7.8-4.9-14.3-11.8-16.8c5.4-4.2,8.9-10.7,8.9-18.1C85.2,15.1,75,4.9,62.4,4.9
				c-12.6,0-22.8,10.2-22.8,22.8c0,7.4,3.5,13.9,8.9,18.1c-6.9,2.5-11.8,9.1-11.8,16.8V74h51.4V62.6z"/>
		<line class="st0" x1="50.9" y1="74" x2="50.9" y2="62"/>
		<line class="st0" x1="74.1" y1="74" x2="74.1" y2="62"/>
<line class="st0" x1="4" y1="101.9" x2="121" y2="101.9"/>
	<path class="st0" d="M77.9,109.4C77.9,109.4,77.9,109.4,77.9,109.4c0,8.7-6.8,15.7-15.2,15.7c-8.4,0-15.1-7.1-15.1-15.7"/>
	<path class="st0" d="M105.3,109.4v7.4h-14c-0.8,3.2-2,6.3-3.7,9l10,10.4l-10.9,11.3l-10.4-10.8c-2,1.1-4.1,1.9-6.2,2.5l0,15.8
		l-15.4,0l0-15.8c-2.7-0.7-5.2-1.9-7.5-3.3L36,147.4l-10.9-11.3l11.3-11.6c-1.2-2.2-2.1-4.6-2.8-7.1H17.3v-7.9"/>
	<path class="st0" d="M47.6,109.4c0,8.7,6.8,15.7,15.1,15.7c8.4,0,15.2-7,15.2-15.7c0,0,0,0,0,0"/>
</svg>
