<?xml version="1.0" encoding="utf-8"?>
<!-- Generator: Adobe Illustrator 19.2.1, SVG Export Plug-In . SVG Version: 6.00 Build 0)  -->
<svg version="1.1" id="Layer_1" xmlns="http://www.w3.org/2000/svg" xmlns:xlink="http://www.w3.org/1999/xlink" x="0px" y="0px"
	 viewBox="0 0 160 160" style="enable-background:new 0 0 160 160;" xml:space="preserve">
<style type="text/css">
	.st0{fill:none;stroke:#4B4A4A;stroke-width:4;stroke-linecap:round;stroke-linejoin:round;stroke-miterlimit:10;}
	.st1{fill:#4B4A4A;}
</style>
<polygon class="st0" points="111,36.4 77.5,3 3.5,3 3.5,141.5 111,141.5 "/>
<polyline class="st0" points="77.5,3 77.5,36.4 111,36.4 "/>
<line class="st0" x1="48.9" y1="53.2" x2="87.1" y2="53.2"/>
<polyline class="st0" points="41.7,46 29.8,55.5 25,50.8 "/>
<line class="st0" x1="48.9" y1="79.4" x2="87.1" y2="79.4"/>
<polyline class="st0" points="41.7,72.3 29.8,81.8 25,77 "/>
<line class="st0" x1="48.9" y1="105.7" x2="87.1" y2="105.7"/>
<polyline class="st0" points="41.7,98.5 29.8,108.1 25,103.3 "/>
<path class="st1" d="M153.4,110.4L132,84.1H89.1l-21.4,26.2l42.9,37.8L153.4,110.4z M142.6,110.9v0.3L120.1,130l6.9-18.6
	L142.6,110.9z M128.7,90l-2.8,17.7l-11.3-5.6L128.7,90z M78.4,111.3v-0.3l15.7,0.5L101,130L78.4,111.3z M95.2,107.6L92.4,90
	l14.1,12.1L95.2,107.6z"/>
</svg>
