<?xml version="1.0" encoding="utf-8"?>
<!-- Generator: Adobe Illustrator 19.2.1, SVG Export Plug-In . SVG Version: 6.00 Build 0)  -->
<svg version="1.1" id="Layer_1" xmlns="http://www.w3.org/2000/svg" xmlns:xlink="http://www.w3.org/1999/xlink" x="0px" y="0px"
	 viewBox="0 0 160 160" style="enable-background:new 0 0 160 160;" xml:space="preserve">
<style type="text/css">
	.st0{fill:none;stroke:#4C4D4C;stroke-width:5;stroke-linecap:round;stroke-linejoin:round;stroke-miterlimit:10;}
</style>
<circle class="st0" cx="63.1" cy="63.1" r="59.6"/>
<path class="st0" d="M109.3,100.9c-2.5,3.1-5.3,5.9-8.4,8.4l46.9,46.9l8.4-8.4L109.3,100.9z"/>
<g>
	<rect x="31" y="49.3" class="st0" width="17.7" height="45.5"/>
	<line class="st0" x1="89.1" y1="61.9" x2="79" y2="61.9"/>
	<line class="st0" x1="89.1" y1="72" x2="79" y2="72"/>
	<line class="st0" x1="86.6" y1="82.1" x2="76.5" y2="82.1"/>
	<path class="st0" d="M96.7,56.8c0-2.8-2.3-5.1-5.1-5.1H80.3h-3.8h-4.6l1.2-5.8c1-4.5,0.7-9.9,0.1-13.7c-0.6-3.8-4-8.3-7.6-8.3h-0.3
		c-3,0-4.1,3.4-4.1,7.6c0,20.5-10.1,20.2-10.1,20.2h-2.5v40.4h19h12.6h5.1c2.8,0,5.1-2.3,5.1-5.1c0-2.8-2.3-5.1-5.1-5.1h3.8
		c2.8,0,5.1-2.3,5.1-5.1c0-2.8-2.3-5.1-5.1-5.1h3.8c2.8,0,5.1-2.3,5.1-5.1c0-3.2-2-4.3-5.1-4.8c-1.5-0.2-4.1-0.3-5.1-0.3h3.8
		C94.4,61.9,96.7,59.6,96.7,56.8z"/>
</g>
</svg>
