<svg id="latestdata" xmlns="http://www.w3.org/2000/svg" viewBox="0 0 160 160">
<style type="text/css">
	.st0{fill:none;stroke:#9de1fd;stroke-width:5;stroke-linecap:round;stroke-linejoin:round;stroke-miterlimit:10;}
</style>
<circle class="st0" cx="123.9" cy="122.7" r="31.5"/>
<line class="st0" x1="123.9" y1="107.2" x2="123.9" y2="138.7"/>
<line class="st0" x1="139.7" y1="122.9" x2="108.1" y2="122.9"/>
<rect x="21.4" y="4.5" class="st0" width="18.4" height="21"/>
<rect x="102.9" y="4.5" class="st0" width="18.4" height="21"/>
<polygon class="st0" points="121.3,15 121.3,25.5 102.9,25.5 102.9,15 39.8,15 39.8,25.5 21.4,25.5 21.4,15 5.7,15 5.7,41.3
	137,41.3 137,15 "/>
<rect x="24.1" y="59.7" class="st0" width="23.6" height="23.6"/>
<rect x="24.1" y="83.3" class="st0" width="23.6" height="23.6"/>
<rect x="24.1" y="107" class="st0" width="23.6" height="23.6"/>
<rect x="47.7" y="59.7" class="st0" width="23.6" height="23.6"/>
<rect x="47.7" y="83.3" class="st0" width="23.6" height="23.6"/>
<rect x="47.7" y="107" class="st0" width="23.6" height="23.6"/>
<rect x="71.3" y="59.7" class="st0" width="23.6" height="23.6"/>
<rect x="71.3" y="83.3" class="st0" width="23.6" height="23.6"/>
<rect x="95" y="59.7" class="st0" width="23.6" height="23.6"/>
<path class="st0" d="M92.4,122.7c0-17.4,14.1-31.5,31.5-31.5c4.7,0,9.1,1.1,13.1,2.9V15h-15.8v10.5h-18.4V15H39.8v10.5H21.4V15H5.7
	v134h100.8C98,143.3,92.4,133.7,92.4,122.7z"/>
<path class="st0" d="M118.6,91.7v-8.4H95V107h1.6C101.2,99,109.2,93.3,118.6,91.7z"/>
<path class="st0" d="M92.4,122.7c0-4.5,0.9-8.7,2.6-12.6V107H71.3v23.6h22.1C92.7,128.1,92.4,125.5,92.4,122.7z"/>
</svg>
