<svg fill="#0093cf" id="learn-more" xmlns="http://www.w3.org/2000/svg" viewBox="0 0 1792 1792" >
<path d="M1412,734c0-18.7-6-34-18-46l-91-90c-12.7-12.7-27.7-19-45-19s-32.3,6.3-45,19l-408,407L579,779c-12.7-12.7-27.7-19-45-19
	s-32.3,6.3-45,19l-91,90c-12,12-18,27.3-18,46c0,18,6,33,18,45l362,362c12.7,12.7,27.7,19,45,19c18,0,33.3-6.3,46-19l543-543
	C1406,767,1412,752,1412,734z M1664,896c0,139.3-34.3,267.8-103,385.5s-161.8,210.8-279.5,279.5s-246.2,103-385.5,103
	s-267.8-34.3-385.5-103S299.7,1399.2,231,1281.5S128,1035.3,128,896s34.3-267.8,103-385.5S392.8,299.7,510.5,231S756.7,128,896,128
	s267.8,34.3,385.5,103s210.8,161.8,279.5,279.5S1664,756.7,1664,896z"/>
</svg>
