<?xml version="1.0" encoding="UTF-8" standalone="no"?>
<svg
   xmlns:dc="http://purl.org/dc/elements/1.1/"
   xmlns:cc="http://creativecommons.org/ns#"
   xmlns:rdf="http://www.w3.org/1999/02/22-rdf-syntax-ns#"
   xmlns:svg="http://www.w3.org/2000/svg"
   xmlns="http://www.w3.org/2000/svg"
   id="svg4153"
   xml:space="preserve"
   enable-background="new 0 0 1000 1000"
   viewBox="0 0 1000 1000"
   y="0px"
   x="0px"
   version="1.1"><metadata
     id="metadata4713"><rdf:RDF><cc:Work
         rdf:about=""><dc:format>image/svg+xml</dc:format><dc:type
           rdf:resource="http://purl.org/dc/dcmitype/StillImage" /><dc:title></dc:title></cc:Work></rdf:RDF></metadata><defs
     id="defs4165" /><g
     id="g4157"><path
       style="fill:#0076af"
       id="path4159"
       d="M396.7,192.2l-49.5,49.5l257.6,257.6L345.7,758.3l49.5,49.5l308.6-308.6L396.7,192.2z" /><path
       style="fill:#0076af"
       id="path4161"
       d="M500,10C229.4,10,10,229.4,10,500c0,270.6,219.4,490,490,490c270.6,0,490-219.4,490-490C990,229.4,770.6,10,500,10z M500,920C268.4,920,80,731.6,80,500C80,268.4,268.4,80,500,80c231.6,0,420,188.4,420,420C920,731.6,731.6,920,500,920z" /></g></svg>