<?xml version="1.0" encoding="UTF-8" standalone="no"?>
<svg
   xmlns:dc="http://purl.org/dc/elements/1.1/"
   xmlns:cc="http://creativecommons.org/ns#"
   xmlns:rdf="http://www.w3.org/1999/02/22-rdf-syntax-ns#"
   xmlns:svg="http://www.w3.org/2000/svg"
   xmlns="http://www.w3.org/2000/svg"
   id="svg4153"
   xml:space="preserve"
   enable-background="new 0 0 1000 1000"
   viewBox="0 0 1000 1000"
   y="0px"
   x="0px"
   version="1.1"><metadata
     id="metadata4713"><rdf:RDF><cc:Work
         rdf:about=""><dc:format>image/svg+xml</dc:format><dc:type
           rdf:resource="http://purl.org/dc/dcmitype/StillImage" /><dc:title></dc:title></cc:Work></rdf:RDF></metadata><defs
     id="defs4165" /><g
     id="g4157"><path
       style="fill:#0076af"
       id="path4159"
       d="m 603.3,192.2 49.5,49.5 -257.6,257.6 259.1,259 -49.5,49.5 -308.6,-308.6 307.1,-307 z" /><path
       style="fill:#0076af"
       id="path4161"
       d="M 500,10 C 770.6,10 990,229.4 990,500 990,770.6 770.6,990 500,990 229.4,990 10,770.6 10,500 10,229.4 229.4,10 500,10 Z m 0,910 C 731.6,920 920,731.6 920,500 920,268.4 731.6,80 500,80 268.4,80 80,268.4 80,500 80,731.6 268.4,920 500,920 Z" /></g></svg>