<svg width="24" height="24" viewBox="0 0 24 24" fill="none" xmlns="http://www.w3.org/2000/svg">
<rect width="24" height="24"/>
<path d="M23 13C23.5523 13 24 12.5523 24 12C24 11.4477 23.5523 11 23 11L23 13ZM0.292893 11.2929C-0.0976314 11.6834 -0.0976315 12.3166 0.292892 12.7071L6.65685 19.0711C7.04738 19.4616 7.68054 19.4616 8.07107 19.0711C8.46159 18.6805 8.46159 18.0474 8.07107 17.6569L2.41421 12L8.07107 6.34314C8.46159 5.95262 8.46159 5.31946 8.07107 4.92893C7.68054 4.53841 7.04738 4.53841 6.65686 4.92893L0.292893 11.2929ZM23 11L1 11L1 13L23 13L23 11Z" fill="#FFFFFF"/>
</svg>
