<svg xmlns="http://www.w3.org/2000/svg" width="150" height="150" viewBox="0 0 150 150"><defs><style>.a{fill:#fff;}.b{fill:#9de1fd;}.c{fill:#0093cf;}</style></defs><g transform="translate(-645 -534)"><circle class="a" cx="75" cy="75" r="75" transform="translate(645 534)"/><g transform="translate(664.9 553.8)"><path class="b" d="M14.787,80.5a3.487,3.487,0,1,0,3.488,3.487A3.505,3.505,0,0,0,14.787,80.5Zm0,4.725a1.237,1.237,0,1,1,1.238-1.238A1.248,1.248,0,0,1,14.787,85.225Z" transform="translate(0.15 8.9)"/><path class="b" d="M17.075,53.888a3.488,3.488,0,1,0-3.488,3.487A3.505,3.505,0,0,0,17.075,53.888Zm-4.725,0a1.238,1.238,0,1,1,1.238,1.237A1.248,1.248,0,0,1,12.35,53.888Z" transform="translate(0 5.086)"/><path class="c" d="M33.013,56.946c4.162-1.915,17.662-9.687,17.662-27.484a19.238,19.238,0,1,0-38.475,0A29.232,29.232,0,0,0,29.75,56.946l-3.375,3.267a1.029,1.029,0,0,0-.225,1.239,1.081,1.081,0,0,0,1.012.676h3.262V99.074a1.125,1.125,0,1,0,2.25,0V62.127h3.15a.984.984,0,0,0,1.013-.676,1.029,1.029,0,0,0-.225-1.239ZM14.45,29.462a16.988,16.988,0,1,1,33.975,0c0,17.91-14.4,24.668-16.987,25.795C28.963,54.243,14.45,47.709,14.45,29.462ZM29.862,59.875l1.462-1.464,1.462,1.464Z" transform="translate(0.263)"/><path class="c" d="M93.35,48.225a23.625,23.625,0,1,0-47.25,0A35.8,35.8,0,0,0,68.038,82.2l-4.612,4.388a1.027,1.027,0,0,0-.225,1.237,1.081,1.081,0,0,0,1.013.675h4.275v8.662a1.125,1.125,0,0,0,2.25,0V88.5H74.9a.984.984,0,0,0,1.012-.675,1.027,1.027,0,0,0-.225-1.237l-4.5-4.388C75.8,80.175,93.35,70.725,93.35,48.225ZM67.025,86.363l2.588-2.475L72.2,86.363Zm2.588-5.85C66.8,79.388,48.238,71.4,48.238,48.225a21.375,21.375,0,0,1,42.75,0C91.1,70.95,72.65,79.275,69.613,80.513Z" transform="translate(4.444 1.913)"/><path class="b" d="M89.95,76.93l-2.475.225L85.9,75.242a1.018,1.018,0,0,0-1.125-.338.955.955,0,0,0-.787.9l-.562,2.362-2.25.9A.984.984,0,0,0,80.5,80.08a1.181,1.181,0,0,0,.563,1.013L83.2,82.33l.112,2.475a1.293,1.293,0,0,0,.675,1.012.676.676,0,0,0,.45.113,2.086,2.086,0,0,0,.787-.225l1.912-1.575,2.362.563a1.018,1.018,0,0,0,1.125-.338,1.386,1.386,0,0,0,.225-1.125l-1.013-2.25,1.35-2.137a1.214,1.214,0,0,0,0-1.238A1.555,1.555,0,0,0,89.95,76.93Zm-2.588,4.163.338.675-.787-.225a1.079,1.079,0,0,0-1.013.225l-.562.563v-.787a1.147,1.147,0,0,0-.562-.9l-.675-.45.675-.338a1.189,1.189,0,0,0,.675-.787l.225-.787.45.563a1.1,1.1,0,0,0,1.013.45l.787-.112-.45.675A1.654,1.654,0,0,0,87.362,81.092Z" transform="translate(8.744 8.195)"/><path class="b" d="M91.063,18.892a1.342,1.342,0,0,0-1.012-.562l-2.475.225L86,16.642a1.018,1.018,0,0,0-1.125-.337.955.955,0,0,0-.787.9l-.562,2.362-2.25.9A.984.984,0,0,0,80.6,21.48a1.181,1.181,0,0,0,.563,1.013L83.3,23.73l.113,2.475a1.293,1.293,0,0,0,.675,1.012.676.676,0,0,0,.45.113,2.086,2.086,0,0,0,.787-.225l1.913-1.575,2.362.563a1.018,1.018,0,0,0,1.125-.337,1.386,1.386,0,0,0,.225-1.125l-1.012-2.25,1.35-2.137A2.436,2.436,0,0,0,91.063,18.892Zm-3.713,3.6.338.675-.787-.225a1.079,1.079,0,0,0-1.013.225l-.562.563v-.788a1.147,1.147,0,0,0-.562-.9l-.675-.45.675-.337a1.189,1.189,0,0,0,.675-.788l.225-.788.45.563a1.1,1.1,0,0,0,1.012.45l.787-.112-.45.675A1.63,1.63,0,0,0,87.35,22.492Z" transform="translate(8.756 0.758)"/><path class="b" d="M49.25,72.53l-2.475.225L45.2,70.842a1.018,1.018,0,0,0-1.125-.338.955.955,0,0,0-.788.9l-.562,2.363-2.25.9A.984.984,0,0,0,39.8,75.68a1.181,1.181,0,0,0,.563,1.013L42.5,77.93l.112,2.475a1.293,1.293,0,0,0,.675,1.013.676.676,0,0,0,.45.112,2.086,2.086,0,0,0,.788-.225l1.913-1.575,2.362.563a1.018,1.018,0,0,0,1.125-.338,1.386,1.386,0,0,0,.225-1.125l-1.013-2.25,1.35-2.138a1.214,1.214,0,0,0,0-1.237A1.73,1.73,0,0,0,49.25,72.53Zm-2.588,4.162.338.675-.788-.225a1.079,1.079,0,0,0-1.013.225l-.562.563v-.787a1.147,1.147,0,0,0-.562-.9L43.4,75.9l.675-.338a1.189,1.189,0,0,0,.675-.787l.225-.787.45.563a1.1,1.1,0,0,0,1.013.45l.787-.112-.45.787A1.094,1.094,0,0,0,46.663,76.692Z" transform="translate(3.689 7.645)"/><path class="b" d="M23.526,67.541l-2.362-.787-.675-2.363a1.09,1.09,0,0,0-.9-.787,1.07,1.07,0,0,0-1.125.45L17,66.078l-2.475-.112a1.181,1.181,0,0,0-1.012.563,1.249,1.249,0,0,0,.113,1.237l1.462,2.025L14.3,72.153a1.23,1.23,0,0,0,.225,1.125,1.141,1.141,0,0,0,1.125.338l2.363-.787,1.912,1.463a1.6,1.6,0,0,0,.675.225c.225,0,.337,0,.45-.112a1.293,1.293,0,0,0,.675-1.013V70.916l2.025-1.35a1.07,1.07,0,0,0,.45-1.125A.98.98,0,0,0,23.526,67.541Zm-3.487,1.913a1.023,1.023,0,0,0-.45.9v.787l-.675-.45a1.6,1.6,0,0,0-.675-.225H17.9l-.788.225.225-.787a1.057,1.057,0,0,0-.112-1.013l-.45-.675h.788a1.023,1.023,0,0,0,.9-.45l.45-.675.225.787a1.189,1.189,0,0,0,.675.787l.787.225Z" transform="translate(0.411 6.757)"/><circle class="c" cx="0.9" cy="0.9" r="0.9" transform="matrix(0.75, -0.661, 0.661, 0.75, 61.013, 97.784)"/><circle class="c" cx="0.9" cy="0.9" r="0.9" transform="matrix(0.75, -0.661, 0.661, 0.75, 97.501, 75.699)"/><circle class="c" cx="0.9" cy="0.9" r="0.9" transform="translate(41.768 68.718) rotate(-41.376)"/><circle class="c" cx="0.9" cy="0.9" r="0.9" transform="translate(79.465 14.372) rotate(-41.376)"/><path class="b" d="M52,16.888A3.487,3.487,0,1,0,55.487,13.4,3.505,3.505,0,0,0,52,16.888Zm4.725,0a1.238,1.238,0,1,1-1.238-1.238A1.248,1.248,0,0,1,56.725,16.888Z" transform="translate(5.206 0.4)"/></g></g></svg>