<svg width="21" height="24" viewBox="0 0 21 24" fill="none" xmlns="http://www.w3.org/2000/svg">
<path d="M6.48077 10.5333L14.5192 5.35454M6.48077 13.4212L14.5192 18.6455M6.84615 12C6.84615 13.62 5.53745 14.9333 3.92308 14.9333C2.30871 14.9333 1 13.62 1 12C1 10.38 2.30871 9.06667 3.92308 9.06667C5.53745 9.06667 6.84615 10.38 6.84615 12ZM20 20.0667C20 21.6867 18.6913 23 17.0769 23C15.4626 23 14.1538 21.6867 14.1538 20.0667C14.1538 18.4466 15.4626 17.1333 17.0769 17.1333C18.6913 17.1333 20 18.4466 20 20.0667ZM20 3.93333C20 5.55337 18.6913 6.86667 17.0769 6.86667C15.4626 6.86667 14.1538 5.55337 14.1538 3.93333C14.1538 2.3133 15.4626 1 17.0769 1C18.6913 1 20 2.3133 20 3.93333Z" stroke="#1BC2EE" stroke-width="2"/>
</svg>
