<svg width="28" height="32" viewBox="0 0 28 32" fill="none" xmlns="http://www.w3.org/2000/svg">
<path d="M8.5 14L19.5 6.938M8.5 17.938L19.5 25.062M9 16C9 18.2091 7.20914 20 5 20C2.79086 20 1 18.2091 1 16C1 13.7909 2.79086 12 5 12C7.20914 12 9 13.7909 9 16ZM27 27C27 29.2091 25.2091 31 23 31C20.7909 31 19 29.2091 19 27C19 24.7909 20.7909 23 23 23C25.2091 23 27 24.7909 27 27ZM27 5C27 7.20914 25.2091 9 23 9C20.7909 9 19 7.20914 19 5C19 2.79086 20.7909 1 23 1C25.2091 1 27 2.79086 27 5Z" stroke="#132856" stroke-width="2"/>
</svg>
