<svg xmlns="http://www.w3.org/2000/svg" width="30" height="29.049" viewBox="0 0 30 29.049"><defs><style>.a{fill:#0093cf;}</style></defs><path class="a" d="M43.457,1002.385a1.486,1.486,0,0,0,1.081-.555,1.524,1.524,0,0,0,.317-1.185l-1.278-8.453,6.035-6.356a1.525,1.525,0,0,0,.337-1.517,1.5,1.5,0,0,0-1.163-1.015l-8.337-1.383-4.1-7.784a1.484,1.484,0,0,0-2.643.022l-3.877,7.605-8.579,1.539a1.5,1.5,0,0,0-1.16,1.034,1.524,1.524,0,0,0,.367,1.52l5.947,6.077-1.2,8.731a1.519,1.519,0,0,0,.607,1.439,1.476,1.476,0,0,0,1.54.123l7.544-3.847,7.83,3.847a1.476,1.476,0,0,0,.727.156Zm-1.982-4.126-5.925-2.922a1.476,1.476,0,0,0-1.322.011l-5.683,2.888.914-6.624a1.522,1.522,0,0,0-.418-1.26l-4.46-4.572,6.5-1.171a1.494,1.494,0,0,0,1.057-.792l2.919-5.721,3.106,5.9a1.493,1.493,0,0,0,1.068.781l6.267,1.037-4.571,4.817a1.523,1.523,0,0,0-.408,1.271l.958,6.356Z" transform="translate(-20.025 -973.34)"/></svg>