<svg id="stadard" xmlns="http://www.w3.org/2000/svg" viewBox="0 0 160 160">
<style type="text/css">
	.st0{fill:none;stroke:#0093cf;stroke-width:5;stroke-linecap:round;stroke-linejoin:round;stroke-miterlimit:10;}
</style>
<polygon class="st0" points="109.6,96.5 119.4,115.6 141.3,118.7 125.5,133.6 129.2,154.6 109.6,144.7 90,154.6 93.8,133.6
	77.9,118.7 99.8,115.6 "/>
<line class="st0" x1="19.8" y1="46.8" x2="54.2" y2="46.8"/>
<line class="st0" x1="19.8" y1="126" x2="57.2" y2="126"/>
<line class="st0" x1="19.8" y1="62.6" x2="96.4" y2="62.6"/>
<line class="st0" x1="19.8" y1="94.3" x2="73.1" y2="94.3"/>
<line class="st0" x1="19.8" y1="110.1" x2="65.2" y2="110.1"/>
<line class="st0" x1="19.8" y1="78.4" x2="56.8" y2="78.4"/>
<line class="st0" x1="77.9" y1="78.4" x2="96.4" y2="78.4"/>
<line class="st0" x1="67.4" y1="78.4" x2="67.4" y2="78.4"/>
<rect x="46.7" y="4.5" class="st0" width="23.8" height="15.8"/>
<polygon class="st0" points="70.4,12.4 70.4,20.3 46.7,20.3 46.7,12.4 28.2,12.4 28.2,28.3 88.9,28.3 88.9,12.4 "/>
<polyline class="st0" points="112.7,75.8 112.7,20.3 88.9,20.3 88.9,28.3 28.2,28.3 28.2,20.3 4.4,20.3 4.4,152.4 73.1,152.4 "/>
</svg>
