<svg id="barchart" fill="#9DE1FD" xmlns="http://www.w3.org/2000/svg" viewBox="0 0 160 160">
<path d="M145.4,19h-39.9v126.5h39.9V19z M101.2,63.8H61.3v81.7h39.9V63.8z M57,103.2H17.1v42.4H57V103.2z M10.3,42.7H5
	v4.9h5.3V42.7z M10.3,30.5H5v4.9h5.3V30.5z M10.3,18.4H5v4.9h5.3V18.4z M10.3,6.2H5v4.9h5.3V6.2z M10.3,54.8H5v4.9h5.3V54.8z
	 M10.3,115.6H5v4.9h5.3V115.6z M10.3,139.9H5v4.9h5.3V139.9z M10.3,127.8H5v4.9h5.3V127.8z M5,152.1v4.9h146.6v-4.9H5z M10.3,91.3H5
	v4.9h5.3V91.3z M10.3,79.1H5V84h5.3V79.1z M10.3,67H5v4.9h5.3V67z M10.3,103.5H5v4.9h5.3V103.5z"/>
</svg>
