<?xml version="1.0" encoding="utf-8"?>
<!-- Generator: Adobe Illustrator 19.2.0, SVG Export Plug-In . SVG Version: 6.00 Build 0)  -->
<svg version="1.0" id="Layer_1" xmlns="http://www.w3.org/2000/svg" xmlns:xlink="http://www.w3.org/1999/xlink" x="0px" y="0px"
	 viewBox="0 0 511.7 310" style="enable-background:new 0 0 511.7 310;" xml:space="preserve">
<style type="text/css">
	.st0{fill:#FFFFFF;stroke:#CCCCCC;stroke-width:0.25;}
	.st1{fill:#0091CB;stroke:#CCCCCC;stroke-width:0.25;}
	.st2{fill:#F9F9F9;stroke:#CCCCCC;stroke-width:0.25;}
</style>
<polygon class="st0" points="228.6,259 228.4,259.2 229.1,259.9 228.6,260.1 228,263.2 227.7,263.2 228,266.4 228.9,268.2 
	230.4,268.4 232.8,266.6 232.9,264.5 230.6,260.6 229.2,259.2 "/>
<polygon class="st0" points="497.3,84.2 495.2,85.4 490.1,83 490.3,81.5 492.4,82.5 494,82.1 495.8,83.8 497.3,84 "/>
<polygon class="st0" points="30.3,192.5 32,191.9 33.2,190.5 35.3,190.1 35.9,189.4 38.3,188.3 44.6,187.1 47.1,187.2 48,187.7 
	50.4,186.5 51.9,187.1 52.6,186.5 54.1,187.2 56.1,186.9 55,188.2 55.4,188.4 55.1,190.3 55.4,192.2 55,193.9 52.9,195.8 
	53.4,197.9 54.5,198.4 54.8,200.1 56.8,201.2 57.8,206.2 57,207.3 58.1,208.9 58.5,213.1 58.3,216.7 57.4,217.5 58.8,219.7 
	59.1,221.2 59.7,221.7 62.3,222.4 63.4,224.6 54.1,230.8 48.7,234.8 45,235.7 43.1,236.2 42.6,235.9 42.7,234 39.5,232.7 
	38.9,231.9 37.8,231.4 37.7,230.5 23.2,220.7 14.3,214.6 14.3,213.3 14.3,210.3 15.3,209.3 18,207.9 19,208.1 19.4,207.4 
	21.5,207.2 23.4,205.5 26.2,204.3 25.9,203.6 25.9,202.3 27.8,201.8 28.1,201.1 32.3,200.8 32.1,200.3 32.5,199.8 31.3,198.4 
	30.9,193.3 29.7,192.5 "/>
<polygon class="st0" points="63.1,325.2 63.2,321.6 64.9,316.3 66.1,314 67.8,312.4 68.1,309.6 68.1,308.3 67.1,307.1 66.6,305 
	67.1,304.2 66.9,302.8 64.8,297.9 67.1,296.9 74.2,296.8 75.2,297.5 75.9,300.5 77.9,302.4 81.6,302 82.3,299.7 85.3,299.4 
	85.2,300.4 87.4,300.4 87.6,301 87.7,305.6 88.8,308.3 88.1,309.7 88.8,310.2 89.4,309.3 93.1,309.1 92.9,313.9 93.5,314.2 
	88.2,314.2 88.2,323.2 91.2,325.8 86.9,326.9 83.6,326.3 81.1,326.3 79.1,325 68.5,325.2 66.7,323.9 65.6,323.9 64.4,324.7 
	64.2,324.4 "/>
<polygon class="st0" points="64.8,296.9 64,295 65.6,293.4 66.4,294 65.4,294.8 65.1,296.8 "/>
<polygon class="st0" points="105.9,337.3 101.5,340.2 97.4,344.4 96.7,346.4 94.7,346.8 92.5,345.9 91.3,346 88.6,349.3 87,349.8 
	85,349.6 85.2,346.6 83.1,344.2 83.1,336.9 85.5,336.9 85.5,328 90.2,327 91.4,327.1 91.9,328.3 93.4,327 95,326.3 95.8,326.3 
	97.9,330.2 102.1,333.5 102.5,335.7 "/>
<polygon class="st0" points="69.1,252.5 69.8,253.2 69.8,254.5 67.6,256.3 65.9,261.3 64.7,262.4 62.7,267 61.7,267.2 60.5,266.1 
	58,266.2 56.3,268.7 55.3,271.5 55.6,271.9 56.3,271.9 56.7,273 58.3,273.1 58,274 59,275 58.3,277.7 62.2,277.4 67.1,277.7 
	70.3,277.7 72.6,278 73.5,279 73.9,275.9 72.1,274.6 70.2,271.1 70.1,268.6 72.1,264.9 71.3,261.8 69.6,260.8 68.9,259.6 
	69.3,258.8 72,258.6 70.8,256.2 71,253.8 70.3,251.6 "/>
<polygon class="st0" points="-25.4,241 -26.2,241.1 -26,241.6 "/>
<polygon class="st0" points="-22.4,245.7 -22.4,246.6 -21.8,246.6 "/>
<polygon class="st0" points="-20.4,243.5 -19.8,243.8 -20.3,244.1 "/>
<polygon class="st0" points="89.9,256.2 88.1,256.4 87.6,258 84.5,260.7 81.1,261.2 81.2,262.1 80.1,263.3 77.9,263.5 75.8,264.5 
	75.1,263.8 73.7,264.8 72.1,264.9 70.1,268.6 70.2,271.1 72.1,274.6 73.9,275.9 76.2,274.1 76.9,274 78.4,274.6 80.1,274 
	80.6,273.7 80.7,271.9 82.1,270.3 83.6,270.4 84.9,271.9 85.5,271.8 87.2,272.4 89.3,272.4 90.4,271.1 91.7,271.5 94.6,270.5 
	95.1,271 96,270.7 96.1,270.3 98.7,270 99.3,270.7 99.6,270.4 100,270.7 100.5,270.3 101.7,270.4 101.1,269.2 99.5,268.1 
	98.7,266.2 96.2,264.5 96,263.3 93.6,262.6 93.4,261.9 91.9,261.3 91.9,258.4 "/>
<polygon class="st0" points="71.4,225.7 73.9,225 93.1,234.9 93.1,244.3 90.6,244.6 90.2,246 89,247.6 89,248.6 88.6,249.1 
	88,251.3 88,252 89,251.9 89.2,253.2 90.4,255.6 89.9,256.2 88.1,256.4 87.6,258 84.5,260.7 81.1,261.2 81.2,262.1 80.1,263.3 
	77.9,263.5 75.8,264.5 75.1,263.8 73.7,264.8 72.1,264.9 71.3,261.8 69.6,260.8 68.9,259.6 69.3,258.8 72,258.6 70.8,256.2 
	71,253.8 70.3,251.6 71.4,251.3 71.3,250 69.1,249.8 68.6,248.4 67.4,247.8 68,246 72.1,241.3 72.5,237.1 73,233.6 73.7,232.5 
	72.1,231.4 71.4,229.9 "/>
<polygon class="st0" points="80.1,274 78.4,274.6 76.9,274 76.2,274.1 73.9,275.9 73.5,279 72.6,278 70.3,277.7 67.1,277.7 
	66.7,279.9 67.1,280.1 67.8,279 69.1,279.2 69.6,279.9 69.6,280.8 68.8,282.2 69.3,284.8 68.9,288.3 68.1,288.7 65.5,287.2 
	63.2,288.9 63.2,291.2 62.2,291.4 61.8,292.4 63.2,293.7 64,295 65.6,293.4 66.4,294 67.7,294.3 68.3,293.6 69.6,293.2 69.7,294.3 
	70.2,294.5 73.4,292.1 74.1,290.7 74.6,287.8 75.5,286.2 77.8,284.5 78.6,278 80,275.4 "/>
<polygon class="st0" points="41.8,267.6 39.7,267.8 39.1,266.7 39.1,261.8 38.3,258.9 36.9,257.8 37.2,256.2 38.4,254.9 39.9,255.1 
	40.7,253.8 41,253.7 40.7,253.1 41.8,252.7 43.5,254.5 43.4,255.2 43.9,255.9 44,257.5 43.5,257.8 43.5,258.8 42.7,259.6 
	41.8,262.3 "/>
<polygon class="st0" points="62.2,277.4 58.3,277.7 57.5,279.9 58,280.5 62.2,280.2 "/>
<polygon class="st0" points="56.6,274 56.2,274.8 55.4,274.8 55.8,273.6 "/>
<polygon class="st0" points="128,238.6 127.7,239.7 124.6,241.1 123.2,246.6 123.3,248.8 122.6,251.4 119.9,254.5 119.5,256.3 
	117.9,257.4 117.6,261.9 116.8,262.6 115.5,262.6 115,263.8 116.9,264.5 117.7,265.7 119.1,266.7 120.1,269.3 121.8,269.9 
	121.8,271.8 123.7,271.9 126.6,273.7 129.2,274.3 130.3,274.3 132.2,273.1 133.9,272.7 135.2,273.5 136.5,273.4 141.2,270.9 
	144.1,270.7 150.8,264.2 151.3,263.3 149,263.5 141.6,260.8 138.9,258 138.9,256.4 138.3,255.9 136.6,256.4 136.3,255.7 
	137.2,253.1 139.2,251.9 137.7,250.8 134.9,247.3 133,246.5 132.3,246.5 131.5,245.2 131.4,246 131.1,245.9 129.8,243.8 129,240 "/>
<polygon class="st0" points="132.3,244.6 131.8,244.1 131.5,244.3 131.7,244.9 132.7,244.9 "/>
<polygon class="st0" points="139.6,255.1 138.9,256.4 138.3,255.9 136.6,256.4 136.3,255.7 137.2,253.1 139.2,251.9 139.8,252.7 
	140,253.8 137.9,254.9 "/>
<polygon class="st0" points="67.1,277.7 62.2,277.4 62.2,280.2 58,280.5 58,281.1 57.5,281.6 58.8,282.6 57.4,282.2 57.3,283.9 
	56.2,284.6 57.4,287.5 61.8,292.4 62.2,291.4 63.2,291.2 63.2,288.9 65.5,287.2 68.1,288.7 68.9,288.3 69.3,284.8 68.8,282.2 
	69.6,280.8 69.6,279.9 69.1,279.2 67.8,279 67.1,280.1 66.7,279.9 "/>
<polygon class="st0" points="-5.1,249.7 -5.7,250.3 -5.6,251 -3.3,250.7 -1.5,249.8 0.8,250.7 1.7,250.2 1.7,249.8 0.3,250 
	-1.4,249.1 -2.6,249.7 "/>
<polygon class="st0" points="38.1,268.2 37.4,269.1 35.4,269.2 30.3,271.6 27.5,270.5 28.6,270.4 28.4,269.2 27.8,268.8 27.3,266.9 
	28.4,263.5 29.2,262.9 28.4,260.7 28.6,259.9 28,256.9 28.1,256.2 33,256.3 34.6,255.8 35,256.2 34.7,257 35.8,258.1 36.2,260.2 
	36.7,266.4 "/>
<polygon class="st0" points="-1.5,256.3 -1.1,256.8 -0.6,256.3 0.3,258.3 1.4,258.9 2.9,260.7 3.5,260.7 5,258.9 7.8,258.8 
	9.5,261.2 9.1,262.7 10,262.3 10,262.6 11.5,262.1 12,262.7 12.4,263.9 12,265 13.2,265.4 14,264.3 14.5,264.5 15.2,264.5 
	15.7,263.3 15.1,262.9 15.1,262.4 16.4,262.7 16.2,261.7 15.8,261.7 16.3,261.1 16,260.1 15.3,259.9 15.2,258.8 15.7,258.1 
	14.9,257.2 14.9,255.9 14,256.3 14.8,255.2 13.7,254.5 13.1,252.5 12.5,252.5 11.5,253.5 10.2,253.1 9.4,253.8 8.7,253.1 7.6,253.5 
	7.7,252.6 5.2,252.7 1.8,251.9 2.1,252.7 1.4,253.2 1.8,254.5 -0.3,254.9 "/>
<polygon class="st0" points="16.8,272.3 17.5,272.4 20.2,271.1 23.5,270.4 27.5,270.5 28.6,270.4 28.4,269.2 27.8,268.8 27.3,266.9 
	28.4,263.5 29.2,262.9 28.4,260.7 28.6,259.9 28.1,259.9 27.3,258.8 26.2,258.6 24.4,259.5 23.7,259.4 22.4,257.8 21.1,257.5 
	20,258 19.9,256.8 18.9,257 18.8,257.6 18,258.1 16.8,257.4 15.7,258.1 15.2,258.8 15.3,259.9 16,260.1 16.3,261.1 15.8,261.7 
	16.2,261.7 16.4,262.7 15.1,262.4 15.1,262.9 15.7,263.3 15.2,264.5 14.5,264.5 15.1,265.6 14.3,267.2 15.8,267.6 16.3,268.6 
	17,268.7 "/>
<polygon class="st0" points="106,356.6 105.2,358.7 102.9,360 101.6,359.4 100.5,357.6 101.7,355.5 103.6,354.5 104.8,354.6 "/>
<polygon class="st0" points="7.2,266 12.5,270.4 16.8,272.3 17,268.7 16.3,268.6 15.8,267.6 14.3,267.2 15.1,265.6 14.5,264.5 
	14,264.3 13.2,265.4 12,265 12.4,263.9 12,262.7 11.5,262.1 10,262.6 10.2,263 9.4,263.3 9.4,264.2 "/>
<polygon class="st0" points="95.6,202.5 94.8,203.3 95,206.2 94.4,206.8 94.8,209 95.5,209.7 95.6,228.6 95.6,233.5 93.1,233.6 
	93.1,234.9 73.9,225 71.4,225.7 70.5,226.1 68.6,224.6 63.4,224.6 62.3,222.4 59.7,221.7 59.1,221.2 58.8,219.7 57.4,217.5 
	58.3,216.7 58.5,213.1 58.1,208.9 57,207.3 57.8,206.2 59.4,205 59.4,202.5 62.2,200.5 62.3,198.1 64.7,199.2 68.1,199.2 
	71.4,200.6 72.9,203.3 77.4,204.4 80.4,206.2 82.7,205.2 83.3,204 82.8,202.5 83.1,201.3 85.5,199.2 88.1,198.9 90.1,199.5 
	90.9,200.8 95,201.7 "/>
<polygon class="st0" points="142.2,322.6 144.1,321.8 144.4,322.1 146.2,321.2 146.9,322 147.5,322 147,320.7 148.1,320 
	148.4,320.7 149,320.6 148.6,319.6 149.1,318.9 149.5,318.5 149.5,319.4 150.2,318.5 150.8,318.4 150.1,317.8 150.6,317.1 
	150.8,317.3 150.6,315.9 151.2,315.9 151.3,316.4 151.9,315.1 152.7,315.1 152.7,313 153.6,312.3 155.2,314.5 156.7,320.4 
	156.3,321.6 156.1,321.6 155.6,320.4 155.1,320.4 155.2,323.3 154.5,324.7 153.9,328.6 149.1,343.9 147.9,345.4 146.2,345.5 
	144.1,346.6 141.5,344.8 140.9,343.9 140.5,341.1 139.5,338.8 139.3,336.8 142.5,331.4 141,325.6 142.2,323.2 "/>
<polygon class="st0" points="23.2,220.7 37.7,230.5 37.8,231.4 38.9,231.9 39.5,232.7 42.7,234 42.6,235.9 43.1,236.2 45,235.7 
	45,243.7 44.4,244 43.3,245.4 38.1,245.4 37,246.4 35.3,246.4 33,246.6 29.1,249.7 25.6,250.8 24.8,253.1 22.9,254.9 22.4,257.8 
	21.1,257.5 20,258 19.9,256.8 18.9,257 18.8,257.6 18,258.1 16.8,257.4 15.7,258.1 14.9,257.2 14.9,255.9 14,256.3 14.8,255.2 
	13.7,254.5 13.1,252.5 12.5,252.5 11.5,253.5 10.2,253.1 9.4,253.8 8.7,253.1 7.6,253.5 7.7,252.6 7.6,251.3 6,249.5 6.2,248.9 
	5.7,246.7 6.6,245.9 7.5,244 7.9,244.3 8.7,245.7 9.4,245.9 10.6,244.9 21.7,245.1 22.2,243 21.2,242.8 18.9,220.7 "/>
<polygon class="st0" points="-5.9,231 -5.6,230.8 -4.3,232.7 -4.1,234 -4.8,235.1 -3.8,237.4 -3.8,239.6 -5.1,243.4 -4.4,242.4 
	0.2,242.1 1.6,243.4 2.5,243.4 3.9,245.5 5.7,246.7 6.6,245.9 7.5,244 7.9,244.3 8.7,245.7 9.4,245.9 10.6,244.9 21.7,245.1 
	22.2,243 21.2,242.8 18.9,220.7 23.2,220.7 14.3,214.6 14.1,217.9 6.5,217.8 6.4,224.5 4.1,225.1 3.4,226.1 3.9,229.9 -5.3,230 "/>
<polygon class="st0" points="173.9,332 174.4,331.9 174.5,333 173.6,333.3 "/>
<polygon class="st0" points="3.8,213.3 3.9,212.8 7,211.9 10.2,209.3 10.9,208.2 11.6,206.8 11.3,205.2 11.4,203.2 12.7,201.3 
	13.1,200 14.9,197.9 19,195.4 21.1,190.6 22.2,190.1 23.2,191.5 24.6,192.2 27.8,191.9 30.3,192.5 29.7,192.5 30.9,193.3 
	31.3,198.4 32.5,199.8 32.1,200.3 32.3,200.8 28.1,201.1 27.8,201.8 25.9,202.3 25.9,203.6 26.2,204.3 23.4,205.5 21.5,207.2 
	19.4,207.4 19,208.1 18,207.9 15.3,209.3 14.3,210.3 14.3,213.3 "/>
<polygon class="st0" points="71.4,225.7 70.5,226.1 68.6,224.6 63.4,224.6 54.1,230.8 48.7,234.8 45,235.7 45,243.7 44.4,244 
	43.3,245.4 38.1,245.4 37,246.4 35.3,246.4 35.2,247.3 35.8,248.8 38.3,251.9 40.1,252 40.4,252.6 40.1,253.1 40.7,253.8 41,253.7 
	40.7,253.1 41.8,252.7 43.5,254.5 43.5,252.6 44.5,251.6 45,250.2 46.7,249.4 48.7,249.2 51.8,251.4 54.2,250.4 55.8,251.5 
	57.5,251.9 59.9,250.4 63.1,250.3 64.8,250.8 66.5,249.8 66.7,249.2 66.5,248.4 66.9,247.9 67.8,247.9 67.4,247.8 68,246 
	72.1,241.3 72.5,237.1 73,233.6 73.7,232.5 72.1,231.4 71.4,229.9 "/>
<polygon class="st0" points="47.1,268.8 46.7,268.1 45.3,267.5 41.8,267.6 41.8,262.3 42.7,259.6 43.5,258.8 43.5,257.8 44,257.5 
	43.9,255.9 43.4,255.2 43.5,254.5 43.5,252.6 44.5,251.6 45,250.2 46.7,249.4 48.7,249.2 51.8,251.4 54.2,250.4 55.8,251.5 
	57.5,251.9 59.9,250.4 63.1,250.3 64.8,250.8 66.5,249.8 66.7,249.2 69.1,252.5 69.8,253.2 69.8,254.5 67.6,256.3 65.9,261.3 
	64.7,262.4 62.7,267 61.7,267.2 60.5,266.1 58,266.2 56.3,268.7 55.3,271.5 55,271.1 54.6,272.1 52.1,271.6 51.6,272.3 50,272.7 
	48.2,271.3 48.2,269.8 "/>
<polygon class="st0" points="-1.5,256.3 -2.1,255.7 -2.4,254.5 -0.9,253.8 -3.3,254.5 -5.6,252.6 -3.1,252.6 -1.5,252 1.8,251.9 
	2.1,252.7 1.4,253.2 1.8,254.5 -0.3,254.9 "/>
<polygon class="st0" points="107,285.9 107.9,286 108.8,285.3 109.8,287.5 109.3,288.5 107.7,288.5 107.4,289.3 106.5,289.4 
	105.9,288.7 105.6,289.3 105.3,288.5 "/>
<polygon class="st0" points="50.9,281.7 51.3,282.1 50.8,282.6 50.5,282.1 "/>
<polygon class="st0" points="-5.6,251 -5.6,252.6 -3.1,252.6 -1.5,252 1.8,251.9 5.2,252.7 7.7,252.6 7.6,251.3 6,249.5 6.2,248.9 
	5.7,246.7 3.9,245.5 2.5,243.4 1.6,243.4 0.2,242.1 -4.4,242.4 -5.1,243.4 -5.1,244.5 -5.8,245.9 -7.5,246.7 -6.9,247 -5.1,249.7 
	-2.6,249.7 -1.4,249.1 0.3,250 1.7,249.8 1.7,250.2 0.8,250.7 -1.5,249.8 -3.3,250.7 "/>
<polygon class="st0" points="2.9,260.7 3.4,262.4 3,262.7 3.9,263.8 5.1,265 7.2,266 9.4,264.2 9.4,263.3 10.2,263 10,262.6 
	10,262.3 9.1,262.7 9.5,261.2 7.8,258.8 5,258.9 3.5,260.7 "/>
<polygon class="st0" points="4.6,264.8 3.9,264.8 4.1,265 "/>
<polygon class="st0" points="139.6,255.1 138.9,256.4 138.9,258 141.6,260.8 149,263.5 151.3,263.3 150.8,264.2 144.1,270.7 
	141.2,270.9 136.5,273.4 134.2,276.1 134.2,285 135.6,286.9 137.9,284.2 138.1,283.3 138.9,283.2 143.8,278.5 145.9,277.4 
	150.3,273.1 151.8,270.7 153.3,269.2 155.6,263.7 156.2,263 157.6,260.8 158.1,258.1 159.2,258 158.4,257.8 158.7,257.4 
	158.5,255.6 158.8,254.5 157.6,254 156.2,254.9 154,255.3 149.5,255.9 147.6,257 145.7,256.5 143.8,257.6 142.6,257.8 "/>
<polygon class="st0" points="114.5,349.6 112.5,349.6 111.8,350.8 111,350.8 110.1,350.6 109.6,349.2 110.6,347.1 111,346.8 
	112,347.4 112.3,347.1 112.2,342.9 111.3,338.7 109.5,337.5 105.9,337.3 101.5,340.2 97.4,344.4 96.7,346.4 94.7,346.8 92.5,345.9 
	91.3,346 88.6,349.3 87,349.8 85,349.6 85.2,346.6 83.1,344.2 83.1,354.5 81.1,355.7 77.8,355.7 77.4,354.6 76.2,353.9 74.7,354.7 
	77.1,360.4 79,363.9 79.1,365.8 78.8,366.4 78.3,366.3 78.2,367 79.5,369.2 79.6,370.2 80.4,370.2 80.4,371.1 83.3,372.2 
	84.3,371.3 87.7,371.1 89.4,370.1 95,370.6 95.3,370 97.2,370.2 97.3,369.3 100.7,368.7 104.1,366 107.7,361.9 110.9,356.4 
	113.4,354.2 "/>
<polygon class="st0" points="106,356.6 105.2,358.7 102.9,360 101.6,359.4 100.5,357.6 101.7,355.5 103.6,354.5 104.8,354.6 "/>
<polygon class="st0" points="105.9,337.3 109.5,337.5 111.3,338.7 111.5,337.4 112.6,336.3 114.5,331.9 114,329.3 114.7,327.5 
	114.7,325.5 114,323.1 110.8,321.8 108.2,321.6 108.2,320.9 106.9,320.7 104.4,321.6 104.1,323.4 102.2,324.3 99.9,326.7 
	95.8,326.3 97.9,330.2 102.1,333.5 102.5,335.7 "/>
<polygon class="st0" points="74.7,354.7 72.9,353.3 71.7,351.4 70.8,346.9 70.5,344.9 69.8,342.7 69.7,338.5 65.5,330.6 63.2,327.1 
	63.1,325.2 64.2,324.4 64.4,324.7 65.6,323.9 66.7,323.9 68.5,325.2 79.1,325 81.1,326.3 83.6,326.3 86.9,326.9 91.2,325.8 
	93.4,325.3 95,325.5 95.8,326.3 95,326.3 93.4,327 91.9,328.3 91.4,327.1 90.2,327 85.5,328 85.5,336.9 83.1,336.9 83.1,344.2 
	83.1,354.5 81.1,355.7 77.8,355.7 77.4,354.6 76.2,353.9 "/>
<polygon class="st0" points="-5.9,231 -5.3,227.8 -4.7,227.6 -2.9,223.4 -0.8,220.5 0.2,217.8 2.5,215.8 3.8,213.3 14.3,213.3 
	14.3,214.6 14.1,217.9 6.5,217.8 6.4,224.5 4.1,225.1 3.4,226.1 3.9,229.9 -5.3,230 "/>
<polygon class="st0" points="121.1,225.7 120.1,226.5 119.5,226.3 118.9,227.7 117.7,228.1 117.2,229 116.2,229 115.2,228.7 
	111,228.6 111.3,228.1 110.9,228.1 110.7,228.6 95.6,228.6 95.6,233.5 93.1,233.6 93.1,234.9 93.1,244.3 90.6,244.6 90.2,246 
	89,247.6 89,248.6 88.6,249.1 88,251.3 88,252 89,251.9 89.2,253.2 90.4,255.6 89.9,256.2 91.9,258.4 91.9,261.3 93.4,261.9 
	93.6,262.6 96,263.3 96.2,264.5 98.7,266.2 99.5,268.1 101.1,269.2 101.7,270.4 102.9,271.9 104.1,272.4 104.7,271.9 106.1,272.1 
	106.9,271.6 109.8,274.1 116,273.7 117.2,273 118.4,271.8 121.8,271.8 121.8,269.9 120.1,269.3 119.1,266.7 117.7,265.7 
	116.9,264.5 115,263.8 115.5,262.6 116.8,262.6 117.6,261.9 117.9,257.4 119.5,256.3 119.9,254.5 122.6,251.4 123.3,248.8 
	123.2,246.6 124.6,241.1 127.7,239.7 128,238.6 125.4,236.4 125,230.8 124.3,229.9 124.2,228.6 "/>
<polygon class="st0" points="112.3,347.1 112,347.4 111,346.8 110.6,347.1 109.6,349.2 110.1,350.6 111,350.8 111.8,350.8 
	112.5,349.6 "/>
<polygon class="st0" points="39.7,267.8 38.1,268.2 36.7,266.4 36.2,260.2 35.8,258.1 34.7,257 35,256.2 34.6,255.8 36.2,256.3 
	37.2,256.2 36.9,257.8 38.3,258.9 39.1,261.8 39.1,266.7 "/>
<polygon class="st0" points="56.1,186.9 58.3,185.8 59.7,186.1 59.9,187.3 60.4,187.6 61.7,186.6 61.8,187.2 60.4,189.4 60.7,190.3 
	61.7,190.9 61.8,192 61.2,193.3 59.5,194.7 59.4,195.5 58.8,195.4 58.8,195.8 59.5,196.6 60.6,197.1 61.2,196.9 61.7,198 
	62.3,198.1 62.2,200.5 59.4,202.5 59.4,205 57.8,206.2 56.8,201.2 54.8,200.1 54.5,198.4 53.4,197.9 52.9,195.8 55,193.9 
	55.4,192.2 55.1,190.3 55.4,188.4 55,188.2 "/>
<polygon class="st0" points="61.1,196.2 61.2,196.6 60.6,196.6 "/>
<polygon class="st0" points="95.6,202.5 99.9,203 104.9,204.7 109.3,202.9 108.8,203.3 110.1,202.9 112,202.8 112.8,203.6 112,203 
	111.9,203.3 112.5,203.6 112.5,204.3 112.8,204.1 112.8,203.5 113.7,204.3 115.1,204.3 117.4,203.5 119.3,208.9 118.2,212.8 
	117.4,213.1 115.6,211 113.7,207 113.3,208.2 114,210.3 116,212.7 117.2,216.7 120,222.1 121.6,223.4 120.7,223.6 121.1,225.7 
	120.1,226.5 119.5,226.3 118.9,227.7 117.7,228.1 117.2,229 116.2,229 115.2,228.7 111,228.6 111.3,228.1 110.9,228.1 110.7,228.6 
	95.6,228.6 95.5,209.7 94.8,209 94.4,206.8 95,206.2 94.8,203.3 "/>
<polygon class="st0" points="22.4,257.8 23.7,259.4 24.4,259.5 26.2,258.6 27.3,258.8 28.1,259.9 28.6,259.9 28,256.9 28.1,256.2 
	33,256.3 34.6,255.8 36.2,256.3 37.2,256.2 38.4,254.9 39.9,255.1 40.7,253.8 40.1,253.1 40.4,252.6 40.1,252 38.3,251.9 
	35.8,248.8 35.2,247.3 35.3,246.4 33,246.6 29.1,249.7 25.6,250.8 24.8,253.1 22.9,254.9 "/>
<polygon class="st0" points="105.6,289.3 105.9,288.7 106.5,289.4 107.4,289.3 107.7,288.5 109.3,288.5 109,289.3 109.7,290.5 
	108.1,293 106.9,293.4 106,290.8 "/>
<polygon class="st0" points="121.8,271.8 118.4,271.8 117.2,273 118,273.4 118.7,275.3 119.5,276.1 119.9,277.8 119.5,279.1 
	117.4,282.2 117.7,283.5 119.3,283.4 117.9,284 117.6,284.6 117.9,285.1 126.3,290 126.9,291.9 130.3,294 131.1,293.2 132.8,289.3 
	135.6,286.9 134.2,285 134.2,276.1 136.5,273.4 135.2,273.5 133.9,272.7 132.2,273.1 130.3,274.3 129.2,274.3 126.6,273.7 
	123.7,271.9 "/>
<polygon class="st0" points="109,279.9 107.4,281.7 107,285.9 105.3,288.5 105.6,289.3 106,290.8 105.6,295.1 106,296.4 
	106.1,298.3 107,299.7 108.6,301 109,302.4 105.6,303.2 104.5,304.9 104.9,308 104.1,311.2 105.2,312.4 106.9,312.4 107,315.1 
	104.9,314.6 102.9,312.4 101.5,312 100.5,311.2 98.5,311.5 96.6,310.5 96,309.7 94.4,310.2 93.7,309 93.1,309.1 89.4,309.3 
	88.8,310.2 88.1,309.7 88.8,308.3 87.7,305.6 87.6,301 87.4,300.4 85.2,300.4 85.3,299.4 82.3,299.7 81.6,302 77.9,302.4 
	75.9,300.5 75.2,297.5 74.2,296.8 67.1,296.9 64.8,297.9 64.8,296.9 65.1,296.8 65.4,294.8 66.4,294 67.7,294.3 68.3,293.6 
	69.6,293.2 69.7,294.3 70.2,294.5 73.4,292.1 74.1,290.7 74.6,287.8 75.5,286.2 77.8,284.5 78.6,278 80,275.4 80.1,274 80.6,273.7 
	80.7,271.9 82.1,270.3 83.6,270.4 84.9,271.9 85.5,271.8 87.2,272.4 89.3,272.4 90.4,271.1 91.7,271.5 94.6,270.5 95.1,271 
	96,270.7 96.1,270.3 98.7,270 99.3,270.7 99.6,270.4 100,270.7 100.5,270.3 101.7,270.4 102.9,271.9 104.1,272.4 104.7,271.9 
	106.1,272.1 106.9,271.6 109.8,274.1 109.7,276.4 110.8,277.4 109,279.1 "/>
<polygon class="st0" points="117.4,282.2 119.5,279.1 119.9,277.8 119.5,276.1 118.7,275.3 118,273.4 117.2,273 116,273.7 
	109.8,274.1 109.7,276.4 110.8,277.4 110.8,278.9 109.3,280.2 109,279.9 107.4,281.7 107,285.9 107.9,286 108.8,285.3 112,285.1 
	112.3,283.2 114,282.3 115.1,282.7 115.6,281.9 "/>
<polygon class="st0" points="115.2,316.9 116.3,318.3 118.2,317.9 118.4,318.3 118.8,320 118,321.6 118.4,322.5 120.1,323.9 
	120,324.5 120.5,324.5 120.4,323.2 120.5,322.5 121.7,321.6 122,319 119.4,315.7 120.4,317.8 119.4,317.1 118.8,317.3 118.7,316.3 
	117.2,312.8 117.9,311.2 117.9,308 117.1,306.9 117.2,306 116.2,306.1 115,305.5 116.4,308.6 115.8,309.2 115.6,310.8 115.6,312.4 
	116,313 115.1,313.6 114.4,315.9 "/>
<polygon class="st0" points="133,308 133.5,309.3 132.7,311.4 132.7,314.1 132.8,317.3 133,317.3 133.4,318.5 132.7,319.8 133,320 
	132.9,320.7 130.9,322.6 130.9,323.1 129.2,324.4 125.4,325.8 123.2,327.5 123.6,327.7 122.6,329.2 122.1,328.6 121.8,329.3 
	118.8,331.8 118.8,333.5 119.5,334.2 120.5,337.8 120.7,337.5 120.1,342.3 120.1,342.8 120.6,342 120.5,342.8 118.9,344.4 
	114.4,346.5 113.5,347.7 114.2,348.5 114.5,347.9 114.5,349.6 112.5,349.6 112.3,347.1 112.2,342.9 111.3,338.7 111.5,337.4 
	112.6,336.3 114.5,331.9 114,329.3 114.7,327.5 114.7,325.5 114,323.1 110.8,321.8 108.2,321.6 108.2,320.9 107.6,319.5 
	115.2,316.9 116.3,318.3 118.2,317.9 118.4,318.3 118.8,320 118,321.6 118.4,322.5 120.1,323.9 120,324.5 120.5,324.5 120.4,323.2 
	120.5,322.5 121.7,321.6 122,319 119.4,315.7 118.9,312.9 119.6,310.8 122.1,310.5 123.2,311.2 126.1,310.8 127.9,309.9 
	129.2,310.3 131.8,309.3 133,308.3 "/>
<polygon class="st0" points="119.6,310.8 122.1,310.5 123.2,311.2 126.1,310.8 127.9,309.9 129.2,310.3 131.8,309.3 133,308.3 
	133,308 131.7,307.1 130.6,304.3 130.2,302.9 130.9,299.9 129.2,298 130.3,294 126.9,291.9 126.3,290 117.9,285.1 115.7,287.7 
	116.8,288.2 115.1,288.8 114.6,289.7 114.5,288.9 114,289.1 113.1,288.2 113,288.9 112.2,289.4 111.9,287.7 112,285.1 108.8,285.3 
	109.8,287.5 109.3,288.5 109,289.3 109.7,290.5 108.1,293 106.9,293.4 107.6,297 107.2,298.1 109,299.5 109.1,300.6 110.3,303.5 
	115,305.5 116.2,306.1 117.2,306 118.4,306.9 118.9,309.8 "/>
<polygon class="st0" points="130.3,296.7 130.9,298.3 130.3,297.9 "/>
<polygon class="st0" points="131.7,295.1 131.5,295.8 131.4,294.6 "/>
<polygon class="st0" points="93.1,309.1 92.9,313.9 93.5,314.2 88.2,314.2 88.2,323.2 91.2,325.8 93.4,325.3 95,325.5 95.8,326.3 
	99.9,326.7 102.2,324.3 104.1,323.4 104.4,321.6 106.9,320.7 108.2,320.9 107.6,319.5 115.2,316.9 114.4,315.9 115.1,313.6 116,313 
	115.6,312.4 115.6,310.8 115.8,309.2 116.4,308.6 115,305.5 110.3,303.5 110.1,304 109.1,303.5 109,302.4 105.6,303.2 104.5,304.9 
	104.9,308 104.1,311.2 105.2,312.4 106.9,312.4 107,315.1 104.9,314.6 102.9,312.4 101.5,312 100.5,311.2 98.5,311.5 96.6,310.5 
	96,309.7 94.4,310.2 93.7,309 "/>
<polygon class="st0" points="68.3,147.7 66.1,149.5 66.4,151.7 65.9,152 64.7,151.5 62,152.5 60.4,152 59.7,152.7 58.6,152 
	57.8,152.2 58.3,153.9 60,154.4 64.2,153.7 65.1,155 68,155.8 70.1,155.9 73.9,154.4 74.7,153.8 75,151.4 76.2,151.4 76.3,150.1 
	75.3,147.5 71.4,146.7 70.2,148 "/>
<polygon class="st0" points="47.2,137.9 44.3,138.5 43.4,138 41.8,139 41.8,139.9 44.8,141.8 45.3,143 47,142.6 47,144 48.8,144.6 
	48.5,143.4 49.6,142.4 50,141.4 49.4,140.3 48.7,139.9 48.5,138.6 "/>
<polygon class="st0" points="117.4,191.2 118.8,190.5 117.4,192.7 115.1,193.7 113.9,193.3 113.3,192.5 115,191.5 "/>
<polygon class="st0" points="63.9,141.8 65.3,144.8 68.3,147.7 70.2,148 71.4,146.7 75.3,147.5 76.3,150.1 77.9,151.2 79.5,151.2 
	80.2,150.3 83.1,149.8 85,148.4 88.5,148.9 89.2,146.3 86.7,145.1 83.1,145.8 82,144.7 80.9,145.1 79.6,144.4 77.8,142.8 
	77.7,141.9 75.8,141.5 75.3,142.3 73.4,140.2 71.5,139.2 70.4,139.8 69.2,138.7 69.1,139.7 64.7,142.4 "/>
<polygon class="st0" points="74.5,154.9 78.3,158.2 80.2,157.6 82.5,156.9 83.8,157 86,156.3 88.1,151.7 90.1,150.5 88.5,148.9 
	85,148.4 83.1,149.8 80.2,150.3 79.5,151.2 77.9,151.2 76.3,150.1 76.2,151.4 75,151.4 74.7,153.8 73.9,154.4 "/>
<polygon class="st0" points="71.3,123.1 70.3,122 70.3,122.8 "/>
<polygon class="st0" points="57.9,123.7 55.8,123.5 55.8,121.8 54.5,120.8 54.3,117.2 55,114.9 60,111.2 60.2,113.4 59.1,116.1 
	59.7,116.1 59.4,117 61.1,116.9 61.1,117.6 60.2,118.3 59.7,118.1 59.7,119.1 58.6,119.4 58.8,120.2 58,120.2 58.3,120.7 
	57.8,122.8 58.3,123.7 "/>
<polygon class="st0" points="61.2,123 61,124.4 60.7,123.7 "/>
<polygon class="st0" points="59.3,120.9 60.6,120.5 61.2,122 61.1,122.8 59.4,123 58.5,121 "/>
<polygon class="st0" points="62.3,123.4 63.2,123.7 63.5,124.6 61.7,124.2 61.7,123.5 "/>
<polygon class="st0" points="63.5,123.4 64.3,123.7 64,125 "/>
<polygon class="st0" points="62.7,119 62.9,119.4 61.5,120.2 62,120.7 62.3,122.3 63.5,122.5 63.4,123 64.4,123.2 64.4,122.3 
	65.1,122.1 64.7,121 65.6,120.3 64.9,118.3 63.9,119 63.9,119.3 63.5,120.3 63.5,119.1 "/>
<polygon class="st0" points="18.6,90.8 18.6,89.6 17.4,89.9 "/>
<polygon class="st0" points="67.7,125.5 67.8,126.2 66.5,125.8 66.6,125.1 67.2,125.5 66.9,124.6 67.7,125 "/>
<g>
	<polygon class="st0" points="67.7,125.5 67.8,126.2 66.5,125.8 66.6,125.1 67.2,125.5 66.9,124.6 67.7,125 	"/>
</g>
<polygon class="st0" points="70.4,139.8 70.9,137.7 70.2,136.7 69.7,132.6 69.1,132.1 69.6,130.1 69.1,128.3 66.1,125.7 64.8,126.2 
	65.3,125.5 62.4,127.5 60.7,127.5 61.5,125.9 59.1,125.8 58.6,125.2 58.6,124 57.9,123.7 55.8,123.5 56.7,125.2 55.8,125.9 
	56.9,127.9 55.7,128.3 55.8,130.1 55.4,129.3 54.6,129.6 54.3,128.8 53.6,128.6 52.5,128.8 52,129.6 53.1,130.6 52,130.5 
	51.6,132.5 50.9,132.9 51.9,134.2 50.8,135.8 49.4,135.6 49.4,140.3 50,141.4 49.6,142.4 50.2,144 50,144.7 51.2,146 54.3,146.8 
	53.1,150 53.1,151.7 56.2,151.6 57.8,152.2 58.6,152 59.7,152.7 60.4,152 62,152.5 64.7,151.5 65.9,152 66.4,151.7 66.1,149.5 
	68.3,147.7 65.3,144.8 63.9,141.8 64.7,142.4 69.1,139.7 69.2,138.7 "/>
<polygon class="st0" points="91.9,127.7 92.5,132.5 91,134.2 91.8,135.3 91.7,136.9 93,140.7 90.6,143.4 89.8,145.1 89.8,146.3 
	89.2,146.3 86.7,145.1 83.1,145.8 82,144.7 80.9,145.1 79.6,144.4 77.8,142.8 77.7,141.9 75.8,141.5 75.3,142.3 73.4,140.2 
	71.5,139.2 70.4,139.8 70.9,137.7 70.2,136.7 69.7,132.6 69.1,132.1 69.6,130.1 69.1,128.3 69.8,128.6 70.1,128 69.3,127.9 
	69.7,127.5 76.6,124.2 80,124 80.2,124.7 79.5,124.5 80.2,126.2 82.3,125.5 85.6,125.9 90.1,125.7 91.8,127.1 "/>
<polygon class="st0" points="85.2,180.2 86,180.4 86.1,180.8 85.2,180.8 86.1,182.4 89.8,182.3 91,182.9 90.4,183.4 92.1,183.5 
	93.1,184.5 93,182.9 89.4,180.7 90.6,180.4 90.4,179.5 91.2,179.7 89.8,177.4 89.8,175.5 90.4,175.4 90.2,175.9 91.9,177.5 
	91.8,176.5 93,177.4 92.5,176.1 93.7,176.6 92.3,175.4 94.1,174.3 95.5,174.2 98,174.9 99.1,172.6 98.7,171.6 98.3,171.6 
	98.3,172.5 97.4,173 96.7,173.3 94.1,172.2 90.6,173 85.8,174.6 86,175.5 83.8,178.4 "/>
<polygon class="st0" points="83.6,179.2 83.1,178.2 82.6,178.2 "/>
<polygon class="st0" points="85.2,183.4 84.9,182.3 84.3,182.8 "/>
<polygon class="st0" points="88.2,182.7 86.7,182.9 86.1,184.1 87.4,185.7 87.4,186.9 87.7,187.3 88.2,186.5 89,188.3 89.8,187.2 
	90.9,188.3 89.9,184.9 90.9,185.7 91.7,185.1 90.9,183.6 "/>
<polygon class="st0" points="95.6,184.6 95.6,183.9 95,183.6 "/>
<polygon class="st0" points="95.6,191.4 93.9,191.5 93.4,190.8 92.4,190.8 91.9,192 94.2,192.1 95,193 98.3,192.6 98.5,191.9 
	97.8,192.1 "/>
<polygon class="st0" points="102.9,189.4 103.4,188.2 102.2,189 102.2,189.8 "/>
<polygon class="st0" points="97.8,182.8 98.3,181.9 97.5,181.5 "/>
<polygon class="st0" points="99.1,180.2 98.7,179.3 97.5,180 "/>
<polygon class="st0" points="95.5,177.9 95.6,177.4 96.2,177.4 96.3,177.5 "/>
<polygon class="st0" points="94.7,175.4 94.8,174.8 94.2,175 "/>
<polygon class="st0" points="94.6,183.3 93.6,181.5 91.7,180.3 90.8,180.9 93.6,182.8 94.1,183.6 94.6,183.6 "/>
<polygon class="st0" points="68,159 68.6,158.7 68.1,157.9 67.7,156.6 67.4,156.6 68,155.8 65.1,155 64.2,153.7 60,154.4 60,155.2 
	59.3,155.3 59.4,156.4 57.4,155.8 56.7,157.7 55.3,156.1 53.9,157.6 51.9,157.9 51.3,158.1 52,159.9 51.3,161.2 51.6,161.4 
	52,163.6 53.1,163.8 53.2,164.9 54.6,164.5 56.2,163 59.5,164.4 60.5,167.4 62,169.6 63.1,169.8 66.5,173.3 68.1,173.3 69.7,175.3 
	70.8,175.3 71.3,176.6 72.3,177.4 72.8,177 74.1,180.9 73.2,181.4 72.9,182.8 73,183.6 73.9,183.6 75,182.3 75.2,180.8 76.3,180.3 
	76.3,179 75,178 75.5,176.1 76.6,175.5 78.3,176.5 79.4,177.7 79.6,177 78.3,174.9 73.5,172.6 74,171.2 73.7,171 71.7,171.4 
	70.4,170.5 69.1,168.9 67.7,165.6 65.1,163.8 64.7,162.3 65.1,161.1 64.7,160.6 64.7,159.6 66.9,158.4 67.7,158.4 "/>
<polygon class="st0" points="57,173.1 57.9,173.7 58.3,175 58.3,179.2 57.9,179.8 57.3,179.7 56.2,180.8 55.4,179.6 55.6,177.5 
	54.8,174.3 55.7,174.6 "/>
<polygon class="st0" points="72.8,182.7 71.5,185.2 71.8,186.5 71.5,187.3 70.4,187.3 69.6,186.5 65.5,184.6 65.3,183.6 65.5,182.9 
	66.9,182.8 68.1,183.5 "/>
<polygon class="st0" points="48.8,144.6 50,144.7 50.2,144 49.6,142.4 48.5,143.4 "/>
<polygon class="st0" points="47.6,130.6 46.5,131.7 47.1,130.6 "/>
<polygon class="st0" points="47.1,131.8 47.6,132.6 47.1,132.9 47.1,133.8 48.1,134.3 48,133.3 48.5,132 48.1,131.8 48.2,130.5 
	51.2,129.6 52,130.5 51.6,132.5 50.9,132.9 51.9,134.2 50.8,135.8 49.4,135.6 49.4,140.3 48.7,139.9 48.5,138.6 47.2,137.9 
	44.3,138.5 43.4,138 45.5,137.9 44.5,137.4 46.9,136.6 45.5,136.5 45.1,135.8 "/>
<polygon class="st0" points="-5.7,199.2 -6.3,199.3 -5.7,199.8 -5.2,199.6 "/>
<polygon class="st0" points="14,171.6 14.3,174.3 12.5,181.2 13.2,182.2 14.3,181.9 13.8,186.3 17.4,185.8 17.3,184.6 18.5,183.4 
	17.8,181.9 18.3,180.3 17.5,178.5 18.8,177.5 18.6,176.5 18.9,174.1 20.2,172.2 19.7,171.2 16,171.4 15.7,170.6 "/>
<polygon class="st0" points="-30.5,181.2 -31.1,181.4 -30.6,181.5 "/>
<polygon class="st0" points="-25.7,184 -27.3,184 -26.4,184.5 "/>
<polygon class="st0" points="83.8,157 86,156.3 88.1,151.7 90.1,150.5 94.4,150.4 95.3,151 99.6,149.5 101.1,151 102.8,154.5 
	103.2,159.3 104.1,159.9 106.5,159.5 106.4,161.5 105.2,162.6 105.4,161.5 104.9,161.1 104.4,165 100.2,163.9 96.6,165.5 90.7,165 
	90.2,164.5 90.6,163.9 89.9,163.8 89.2,162.8 89.7,162.4 89.3,161.9 88.8,162.4 86.9,161.3 86.7,160.2 86,159.9 85,157.9 "/>
<polygon class="st0" points="74.5,154.9 74.2,155.5 72.4,156.3 71.7,158.7 69.9,158.2 68.6,158.7 68.1,157.9 67.7,156.6 67.4,156.6 
	68,155.8 70.1,155.9 73.9,154.4 74.5,154.9 "/>
<polygon class="st0" points="76.6,166 79.6,168.5 79.1,168.9 78.3,168.2 76.3,167.6 77.4,167.6 75.8,166.2 73.7,166 71.7,163.8 
	72.3,163.1 71.4,162.5 70.9,160.7 70.2,159.9 69.7,159.8 68.8,161.4 68.5,161.3 67.8,160.2 68,159 68.6,158.7 69.9,158.2 
	71.7,158.7 72.4,156.3 74.2,155.5 74.5,154.9 74.5,154.9 78.3,158.2 80.2,157.6 80.8,159.4 82.2,160.2 81.5,160.3 81.2,161 
	80.8,161.2 80,160.3 75.8,159.4 74.3,160.3 73.5,159.3 72.8,160.7 73.6,161.4 "/>
<polygon class="st0" points="76.6,166 73.6,161.4 72.8,160.7 73.5,159.3 74.3,160.3 75.8,159.4 80,160.3 80.8,161.2 81.2,161 
	82,161.2 81.1,162.9 82.3,163.8 82.2,164.1 81.5,164.2 82,165.2 81.4,165.6 80.6,165.6 80.9,166.3 80,165.6 79.7,165.9 80.2,166.9 
	79.3,167.3 79.6,168.5 "/>
<polygon class="st0" points="81.2,161 81.5,160.3 82.2,160.2 80.8,159.4 80.2,157.6 82.5,156.9 83.8,157 85,157.9 86,159.9 
	86.7,160.2 86.9,161.3 88.8,162.4 89.3,161.9 89.7,162.4 89.2,162.8 89.9,163.8 89.2,164 89,165 89.2,166 90.2,167.3 89.2,168.9 
	89.2,169.4 86.8,169.3 84.9,170.5 83.7,169.2 83,168.9 82.9,168 83.5,168.4 83.8,167.8 81.3,165.9 81.4,165.6 82,165.2 81.5,164.2 
	82.2,164.1 82.3,163.8 81.1,162.9 82,161.2 "/>
<polygon class="st0" points="79.1,168.9 79.1,168.9 81.6,171.2 82,169.4 82.6,168.8 83,168.9 82.9,168 83.5,168.4 83.8,167.8 
	81.3,165.9 81.4,165.6 80.6,165.6 80.9,166.3 80,165.6 79.7,165.9 80.2,166.9 79.3,167.3 79.6,168.5 "/>
<polygon class="st0" points="-4.1,211.1 -5.7,211.7 -5.7,212.2 -4.7,212.4 "/>
<polygon class="st0" points="1.6,210.6 0.3,212.4 1.4,211.7 "/>
<polygon class="st0" points="-2.7,212.2 -3.1,213.3 -2.6,213.3 -2.1,212.6 "/>
<polygon class="st0" points="30.9,166.5 33.5,168.4 36.2,168.9 37.3,168.5 38.4,168.9 38.9,169.6 39.1,169.3 40.1,169.8 42.7,169.6 
	43.2,170 42.6,171.6 37.2,174.8 34.5,179.2 34.7,180.4 35.7,181.1 35.4,181.5 34.2,182.7 33.5,184.7 32.1,184.9 30.4,187.2 
	24.8,187.3 22.2,189.4 20.7,188.8 19.4,186.3 17.4,185.8 17.3,184.6 18.5,183.4 17.8,181.9 18.3,180.3 17.5,178.5 18.8,177.5 
	18.6,176.5 18.9,174.1 20.2,172.2 19.7,171.2 16,171.4 15.7,170.6 14,171.6 14.3,169.9 14,170 13.7,169.4 14,168.8 12.9,167.7 
	13.6,166.8 14.9,166.7 15.6,165.5 "/>
<polygon class="st0" points="38.9,180.2 38.6,180.8 38.3,180.7 "/>
<polygon class="st0" points="45.3,177.3 45.5,177.7 44.5,177.3 "/>
<polygon class="st0" points="42.8,177.4 42.8,178 43.4,178.4 42.7,179.6 41,178.6 "/>
<polygon class="st0" points="53.2,85.4 51.8,86.3 53.2,87.2 53.1,87.8 50.4,87.9 50.9,88.3 50.7,88.8 50.8,89.9 50.2,88.9 49.4,90 
	49.7,90.6 47.5,90.1 47.6,91.2 50.4,91.3 47.1,92.1 47.7,92.7 47.1,93.8 47.2,95.1 50.2,95 50.7,93.8 50.7,94.8 51.9,94.9 
	53.1,93.1 52.6,94.8 53.4,94.5 52,95.3 52.1,96.1 51.6,96.4 51.2,95.3 47.2,96.1 47.7,96.5 47.7,97.2 47,96.9 47.5,97.7 48.7,97.4 
	47.5,98.9 47.7,99.9 48.3,99.3 48.5,100.2 48.1,100.7 48.2,101.2 50.2,98.1 51.9,98.1 50.9,99.2 50.7,98.6 48.8,101.4 50.2,101.6 
	47.6,103.4 47.7,103.9 50.2,103 49.3,105.8 48.5,105.5 48.2,106.8 50.2,108.8 51.2,108.4 50.9,109.7 53.4,109.7 56.8,107.2 58,105 
	59.4,105.3 60,104.1 59.5,102.1 60.2,102.9 60,101.4 60.5,101.2 60.7,104.3 61.8,105 62,106.2 62.7,105.8 63.1,104.1 62.8,102.9 
	63.4,101.2 64.8,100.2 65.1,98 64.2,96 65.6,94 64.3,91.8 64,87.7 64.7,85.1 64,83.4 64.3,81.8 66.4,80 69.1,79.3 69.1,78 
	68.1,76.4 69.7,73.2 70.2,68.1 71.7,67.4 72.3,65.3 74.5,62.1 74,60.2 75.2,57.1 77.1,55.6 78.2,56.5 79.1,52.8 83.3,53.4 
	83.7,53.2 83.1,52.2 83.8,50.3 83.6,49.4 84.8,49.1 86,48.6 85.8,47.8 86.4,47.4 89.3,51.3 91.7,51.8 93,50.6 94.6,51.9 97.2,49.7 
	97.4,45.8 97.9,44.2 102.8,42.4 105.6,44.8 105.9,46.9 104.8,48.4 105.3,49.4 107.7,46.9 108.1,45.4 109.6,45.9 109.6,44.6 
	106.5,45.2 107.2,43.7 104.2,41.8 107.6,42.2 109.8,39.8 107.4,37.6 105.9,37.9 105.6,36.6 104.1,37.3 104.1,39.5 102.7,39.5 
	103.4,38.3 102.1,38.4 102.8,37.8 102.3,37.3 103.4,37.1 103.7,35.9 101.7,34.9 100.4,39.5 99.3,40 99.3,36.1 95.6,42.4 95.1,42 
	95.8,39.5 97.4,36.7 96,37.2 95.3,35.9 93.7,36.8 94.6,38.1 91.3,41.3 91.2,43 90.2,42.1 90.4,41.5 89,42 88,40.8 87.6,41.8 
	87,40.8 87,42 88.1,42.2 88.2,44.8 86.4,42.7 86.5,43.5 85,44 84.8,44.6 84.9,45.7 83.9,47.3 84,46 84,43.3 82.8,44.7 82.6,46.7 
	82.5,44.5 81.3,44.6 81.1,46.4 82.1,48.3 80.2,46 79.6,46 80.6,47.4 80.1,47.9 79.1,47.4 79,46.4 78.6,47.8 78.9,48.4 77.4,49.6 
	78.2,50.7 77.7,50.6 77.8,51.3 75,52.8 77.5,53.3 76.7,54.3 74.5,53.9 74.6,56.4 74,56.8 73.4,55.1 72.3,57 72.6,58.1 71.8,58.8 
	73,58.8 70.3,59.4 69.3,62.5 67.2,64.3 67.1,65.1 67.6,65.3 66.7,65.7 67.4,66.9 65.3,69 66.5,68.3 66.7,69.4 65.9,69 65.6,70.5 
	65.1,70.6 65.5,72.2 64.7,71.1 64.2,72.8 64.8,72.3 64.9,73.4 62.4,74.8 62.3,75.6 62.7,75.9 62.4,77.1 61.5,76.7 59.4,79.3 
	59.4,80.2 58.5,80.8 59.5,82.5 62.3,81 59.4,83.4 58.5,82 57.4,82.6 57.8,83.4 57.3,83.7 56.9,82.7 55.7,83.2 "/>
<polygon class="st0" points="55.4,82.5 56.7,81.6 57.3,82.3 "/>
<polygon class="st0" points="97.4,35 97.9,36 96.1,35.5 "/>
<polygon class="st0" points="92.9,39.1 92.3,37.8 93,38.1 "/>
<polygon class="st0" points="91.4,40.4 90.7,40.8 90.4,39.5 91.7,38.7 92.1,39.5 "/>
<polygon class="st0" points="89,38.1 90.9,38.3 88.8,39.5 88.2,38.6 "/>
<polygon class="st0" points="89.9,41.1 89.3,40.4 90.2,40.4 90.4,41 "/>
<polygon class="st0" points="85,41.1 85.2,42.4 84.5,42.1 "/>
<polygon class="st0" points="82.8,41.6 83.6,42.2 82.7,42.2 82.3,41.1 "/>
<polygon class="st0" points="80.6,42.5 82.3,42.9 81.5,44.1 "/>
<polygon class="st0" points="79,44.8 80.9,44.5 79.4,45.9 78.8,45.8 "/>
<polygon class="st0" points="75.9,48.4 75.7,48.1 75.9,47.3 77.2,45.8 78.4,47.2 78.2,48.5 75.8,49.5 "/>
<polygon class="st0" points="73,48.4 74.1,47.8 73.2,49.6 72.5,49.5 "/>
<polygon class="st0" points="69.7,51.8 71,50.7 71,49.7 71.7,51.9 "/>
<polygon class="st0" points="72.8,50.2 73.4,51.4 73.4,52.3 74.1,50.6 75,51.1 75,52.2 72.8,54.3 72.5,53.2 69.6,55 71.8,53 "/>
<polygon class="st0" points="49.2,89.5 49.4,88.8 48.9,88.9 "/>
<polygon class="st0" points="80.6,7.3 81.1,8.4 81.6,7.1 "/>
<polygon class="st0" points="84.8,49.1 83.6,49.4 83.8,50.3 83.1,52.2 83.7,53.2 83.3,53.4 79.1,52.8 78.2,56.5 77.1,55.6 
	75.2,57.1 74,60.2 74.5,62.1 72.3,65.3 71.7,67.4 70.2,68.1 69.7,73.2 68.1,76.4 69.1,78 69.1,79.3 66.4,80 64.3,81.8 64,83.4 
	64.7,85.1 64,87.7 64.3,91.8 65.6,94 64.2,96 65.1,98 64.8,100.2 63.4,101.2 62.8,102.9 63.1,104.1 62.7,105.8 62,106.2 61.8,105 
	61.7,105.6 61.8,107.8 62.2,108.8 62.8,108.4 62.9,108.8 62.3,109.5 63.1,109.7 63.1,110.9 63.5,110.9 63.4,112.8 66,116.5 
	65.3,117.1 65.5,117.8 64.9,118.1 66.1,120.5 65.6,121.4 68.8,121.4 69.6,118.6 73.2,118.2 75,112.4 74.6,110.4 75.1,110.2 
	75.2,108.5 74.2,107.9 75.3,107.5 73.9,107.2 75.7,106.8 77.1,105.1 77.9,105.8 78.9,104.7 78.9,104.1 79.6,103.7 76.4,104.1 
	74.1,103.1 75.8,102.6 77.9,103.6 79.5,102.9 80.2,101.2 79,99.3 79.4,99.2 77.2,97.5 75.5,99.7 74,99.9 76.2,98.5 75.9,93.1 
	76.2,92.1 76.7,92.4 77.1,89.4 76.6,87.9 77.4,88.3 77.8,87.5 77.8,85.8 78.3,86.6 79,85.4 80.1,83.8 84.4,81.3 87,77.8 86,75.5 
	87,73.7 86.7,72.4 88.2,71.2 87.7,70.2 88.7,71 89.2,69.2 92.9,70 93.1,69 92.3,66.7 92.9,64.2 91.8,61.6 91.9,56.5 90.4,54 "/>
<polygon class="st0" points="78.6,114.7 80.4,112.7 80.2,111.2 80.6,110.5 79.9,110.5 78.8,112.1 "/>
<polygon class="st0" points="74.2,117.7 75.5,114.4 74.5,116 "/>
<polygon class="st0" points="53.1,151.7 56.2,151.6 57.8,152.2 58.3,153.9 60,154.4 60,155.2 59.3,155.3 59.4,156.4 57.4,155.8 
	56.7,157.7 55.3,156.1 53.9,157.6 51.9,157.9 51.3,156.1 50.4,156.1 49.6,157 49.4,155.9 51.8,152.1 "/>
<polygon class="st0" points="70.1,160.1 70.5,161.1 69.8,160.7 "/>
<polygon class="st0" points="140,310.3 140.1,311.7 139.6,311 "/>
<polygon class="st0" points="142.7,312.1 142.7,312.9 142.1,312.4 "/>
<polygon class="st0" points="144.6,313.9 144.2,314.2 144.1,313.6 "/>
<polygon class="st0" points="168.5,334.5 169.6,334.5 169.7,335.5 169,335.3 "/>
<polygon class="st0" points="41.8,139 41.8,139.9 44.8,141.8 45.3,143 47,142.6 47,144 48.8,144.6 50,144.7 51.2,146 54.3,146.8 
	53.1,150 53.1,151.7 51.8,152.1 49.4,155.9 49.6,157 50.4,156.1 51.3,156.1 51.9,157.9 51.3,158.1 52,159.9 51.3,161.2 51.6,161.4 
	52,163.6 53.1,163.8 53.2,164.9 49.9,167.4 47.2,166.3 44.8,166 42.8,167.2 42.6,168.2 42.7,169.6 40.1,169.8 39.1,169.3 
	38.4,168.9 37.3,168.5 36.2,168.9 33.5,168.4 30.9,166.5 32,165.7 32.9,162 32.4,161.8 32.9,159.1 33.6,160.1 32.5,158.4 
	32.5,156.5 30.9,155.8 30.3,154.7 30,153.3 31,153.2 29.3,153 29.2,152.2 25.6,151 24.8,151.2 23.9,150.3 24.6,150.1 24.2,149.6 
	24.6,149.1 23.7,149.3 23.8,148.5 26.9,147.5 28.8,148.4 31.6,148.3 30.8,144.2 32.1,144.4 32.7,145.5 36.4,145.2 35.7,145.1 
	35.9,144.1 39.1,142.3 39.5,139.7 "/>
<polygon class="st0" points="57.5,167.6 58,170.1 57.3,173 56.1,171.6 55.7,169.4 56.1,168.9 57.4,168.4 "/>
<polyline class="st1" points="196.1,185.4 198.7,185.8 199.7,186.8 201.6,185.7 202.7,186.3 203.1,184.7 204.7,185.1 205.1,184.5 
	204.8,184 206.5,182.2 207.5,182.8 207.3,183.6 208,184 207.8,186.3 208.4,187.7 212.7,185.2 213.4,185.4 213.7,186 215.1,185.6 
	216.1,185.6 215.9,186 215.1,186.3 215.6,186.6 213.3,187.1 210.7,187.2 207.5,189.3 207.3,189.5 208.4,191.2 208.3,192.2 
	206.8,194.2 207.2,194.6 206.7,195.5 204.2,195.5 205.2,197.4 203.1,198.2 202.4,200.3 202.6,201.7 201.6,202.5 200.9,201.9 
	199.8,201.9 198.6,202.9 198.9,203.3 196.6,203.5 195.6,204.5 195.5,207.2 195.2,207.4 192.4,208.2 190.7,208.1 190,208.7 
	188.4,208.2 185.9,208.7 182.2,207.4 183.8,205.2 184.2,203.8 183.3,202.5 181.9,201.9 181.4,198.6 182,196.9 181.3,196.3 
	181.3,195.4 181.3,195 182.2,194.6 182.7,193.1 183.2,190.1 183.1,190.8 183.8,191.2 186.8,192 187.5,191.4 188,190.6 187.6,190.1 
	191.1,188.5 192.1,185.8 193.3,185.8 194,185.1 196.1,185.4 "/>
<polygon class="st0" points="157.3,217.3 156.8,217.1 157,218 "/>
<polygon class="st0" points="129.5,200.7 133.1,201.8 136,203.8 138.4,204.7 139,205.7 140.3,206 140.5,207.9 143.3,209.2 
	145.2,208.4 147.6,209.3 149.3,207 151.1,207 152,207.2 152.5,206.8 151.1,205.6 150.7,204.4 150.1,204.1 150.2,201.9 149.3,200.1 
	146.3,198.1 144.7,195.5 145.2,193.9 146.5,191.9 146.4,191 146.9,190.1 144.9,189.4 143.5,187.2 143.3,185.8 142.2,186 142,185.6 
	138.9,185.2 137.8,186.1 136.3,187.8 134.9,188.3 134.6,193.1 134.2,194.2 128.5,197.6 "/>
<polygon class="st0" points="143.3,209.2 145.2,210.4 147.6,209.3 145.2,208.4 "/>
<polygon class="st0" points="119.4,208.6 120.5,202.9 119.1,203.2 119.9,201.9 119.3,201.8 119.3,200.7 119.9,199.8 120.7,200.3 
	120.7,199.3 120.9,197.9 120.6,198.2 119.5,198.1 118.3,202.3 117.4,203.5 119.3,208.9 "/>
<polygon class="st0" points="128.5,197.6 123.2,200.5 121.4,199.3 120.7,199.3 120.7,200.3 119.9,199.8 119.3,200.7 119.3,201.8 
	119.9,201.9 119.1,203.2 120.5,202.9 119.4,208.6 119.4,208.6 119.4,209 122.1,209.3 123.6,207.3 125.4,207 125.8,206 126.8,205.4 
	124.2,202.5 128.7,201.7 129.5,200.7 "/>
<polygon class="st0" points="151.8,211 150.3,211 149.6,209.9 147.6,209.3 149.3,207 151.1,207 151.6,207.9 150.3,208.9 151.2,209 
	"/>
<polygon class="st0" points="120.9,197.9 120.6,198.2 119.5,198.1 122,193.5 123.2,193.5 123,193.9 123.7,194.9 122.8,195.7 
	123,195.9 122.1,196.2 122.1,196.9 "/>
<polygon class="st0" points="163.1,242.2 165.9,241.2 167.8,241.3 169.2,239.2 171.2,238.7 172.2,236.8 174.6,236 174.5,233.5 
	175.1,232.6 175.7,232 176.3,232.5 179,228.8 179.5,227.3 178.2,226.3 176.8,224.4 172.4,222.7 171.1,220.8 169.7,220.9 
	170.3,222.9 169,223.4 168.5,226.6 169.7,228.6 167.9,233.6 160.6,236.2 "/>
<polygon class="st0" points="170.9,218.9 171.2,217.1 170.5,217.8 170.5,218.7 "/>
<polygon class="st0" points="199.4,223.8 198.2,223.4 197.3,221.3 196.5,220.9 195.7,219.6 192.1,219.7 191.6,219.6 191.2,220.2 
	190.1,219.6 185.2,220.1 184.3,220.5 184,220.2 184.6,217.6 185.6,216.7 187.4,216 188,214.8 186.9,214.3 186.8,212.1 184,210.5 
	182.2,207.4 185.9,208.7 188.4,208.2 190,208.7 190.7,208.1 192.4,208.2 195.2,207.4 195.5,207.2 195.6,204.5 196.6,203.5 
	198.9,203.3 198.6,202.9 199.8,201.9 200.9,201.9 201.6,202.5 202.6,201.7 202.4,200.3 203.1,198.2 205.2,197.4 204.2,195.5 
	206.7,195.5 207.2,194.6 206.8,194.2 208.3,192.2 208.4,191.2 207.3,189.5 207.5,189.3 210.7,187.2 213.3,187.1 215.6,186.6 
	217.3,186.9 217.5,187.7 218.3,187.7 218.8,188.3 218.7,189.5 219.3,190.1 220.2,190 220.7,190.6 222.7,191.4 221.3,192.5 
	220.8,193.5 219.8,193.3 217.7,193.9 214.6,193.1 213.8,193.3 213.4,194.4 213.9,194.7 213.7,195.2 214.5,195.7 213.9,196.3 
	214.5,197 213.8,197.9 214.6,198.9 215.6,199.1 215.7,200 217,200.1 217.3,200.8 215.6,201.7 215.3,202.4 215.7,203 215.3,203.6 
	216.1,204.1 214.6,204.7 213.7,206.2 213.4,207 212.6,207.3 211.2,209.8 210,210.6 208.7,212.7 206.4,213.3 205.4,212.4 
	203.3,215.1 203.1,216.3 204.8,216.7 204.6,218.2 205.8,218.9 207,222.2 206,222.7 205.4,222.1 204.3,222.8 201.5,222.2 
	201.4,223.3 200.2,223.3 "/>
<polygon class="st0" points="159.3,221.4 159.7,218.2 158.7,217.5 157.7,219.2 157.7,221.2 158.4,221.7 "/>
<polygon class="st0" points="138.1,242.8 137.1,239.8 135.6,238.7 134.4,236.8 133.9,234.9 132.4,233.5 129.9,231.9 129.2,228.7 
	129.3,227.5 127.7,223.8 126.3,222.5 125.4,222.4 124.4,219.5 120,212.4 118.8,212.2 119.4,208.6 119.4,209 122.1,209.3 
	123.6,207.3 125.4,207 125.8,206 126.8,205.4 124.2,202.5 128.7,201.7 129.5,200.7 133.1,201.8 136,203.8 138.4,204.7 139,205.7 
	140.3,206 140.5,207.9 143.3,209.2 145.2,210.4 147.6,209.3 149.6,209.9 150.3,211 151.8,211 152.8,212.8 154,214 154.3,214.8 
	156,215.9 156.3,217.3 156.1,218.4 157.7,221.2 158.4,221.7 159.9,223.8 160.6,225.9 168,227.1 168.5,226.6 169.7,228.6 
	167.9,233.6 160.6,236.2 153,238 146.9,244.8 146.9,242.1 142.5,240.5 140,241.1 "/>
<polygon class="st0" points="128.5,197.6 123.2,200.5 121.4,199.3 120.7,199.3 120.9,197.9 122.1,196.9 122.1,196.2 123,195.9 
	122.8,195.7 123.7,194.9 123,193.9 123.2,193.5 122,193.5 121.8,190.3 121.8,189.6 122.5,190.1 123,189 123.7,188.9 123.3,188.2 
	123.7,187.1 125.7,187.7 127.9,186.8 129.8,187.6 133.5,186.1 136,186.3 137.1,185.7 137.8,186.1 136.3,187.8 134.9,188.3 
	134.6,193.1 134.2,194.2 "/>
<polygon class="st0" points="171.1,220.8 170.9,218.9 170.5,218.7 170.5,217.8 166.5,221.9 166.5,222.4 165.4,222.9 162.2,222.7 
	161.4,223.2 160.1,223.2 159.9,222.5 159.3,222.4 159.3,221.4 158.4,221.7 159.9,223.8 160.6,225.9 168,227.1 168.5,226.6 
	169,223.4 170.3,222.9 169.7,220.9 "/>
<polygon class="st0" points="102.8,171.1 100.7,170.9 98.7,171.6 99.1,172.6 98,174.9 99.4,175.3 98.5,176 98.4,177 101.7,174.2 
	104.8,174.1 105.3,173.3 103.2,172.3 "/>
<polygon class="st0" points="98.8,177.3 99.8,176.5 102.2,176.3 102.1,175.8 104.8,176 105.3,176 104.8,175.4 105.3,175.3 
	107.2,175 105.6,174.7 105.3,174.2 105.8,173.4 110.3,174.2 113.3,171.9 115.7,171 120,170.9 121.2,172.1 122.3,171.9 123,173.3 
	127,174.6 130.2,173.8 132.7,174.2 135.4,172.2 137.3,172.6 138.4,172.3 140.1,174.1 141,176.6 142.8,177.9 141.7,179.2 
	142.1,180.4 142.1,184 143.3,185.1 143.3,185.8 142.2,186 142,185.6 138.9,185.2 137.8,186.1 137.1,185.7 136,186.3 133.5,186.1 
	129.8,187.6 127.9,186.8 125.7,187.7 123.7,187.1 123.3,188.2 123.7,188.9 123,189 122.5,190.1 121.8,189.6 122,188.2 122.6,187.6 
	122.1,187.1 120.9,188.1 119.4,187.3 118.4,187.6 117.6,188.5 114.5,189.5 109.8,186.9 109.1,187.1 108.8,188.8 107.2,189.3 
	105.9,188.8 105.4,187.6 104.8,187.8 104.2,187.2 102.9,187.8 102.9,187.3 101.5,187.7 103.6,186.5 101.2,186.6 101.7,186 
	101,185.4 101.2,184.7 100.5,184.5 100.7,183.5 98.7,182.8 99,181.5 99.5,182.3 100.7,182.3 99.8,181.5 100.2,180.9 99.6,179.8 
	99.9,178.7 98.3,179 "/>
<polygon class="st0" points="166.6,252.2 166.5,252.7 165.8,253.2 164.3,252.6 164.7,252 "/>
<polygon class="st0" points="146.9,244.8 153,238 160.6,236.2 163.1,242.2 161.6,243.3 161.2,244.8 154.9,247 153.6,247.6 
	152.8,248.6 150.6,248.9 148.1,250.3 145.7,250.3 143.5,251.9 140.1,252 139.5,250.8 138.5,246.1 137.9,245.5 138.4,244 
	138.1,242.8 140,241.1 142.5,240.5 146.9,242.1 "/>
<polygon class="st0" points="170.9,215.5 170,215.5 168.7,216.7 "/>
<g>
	<polygon class="st0" points="163.8,187.1 165.8,186.9 165.4,185.2 166.8,184.9 169,183.3 173.2,182.4 174,183.5 178.3,184.7 
		178.9,186 181.7,187.8 183,187.8 183.2,190.1 182.7,193.1 182.2,194.6 181.3,195 181.3,195.4 181.3,196.3 182,196.9 181.4,198.6 
		181.9,201.9 183.3,202.5 184.2,203.8 183.8,205.2 182.2,207.4 184,210.5 186.8,212.1 186.9,214.3 188,214.8 187.4,216 185.6,216.7 
		184.6,217.6 184,220.2 173.9,218.7 172.7,215.4 171.4,214.8 167.1,216.5 164.6,216 164.2,215.4 162.5,214.8 161.7,213.8 
		159.4,212.8 158.2,210.1 157.3,209.3 156,206.7 154.7,207.2 153.1,205.5 152.5,206.8 151.1,205.6 150.7,204.4 150.1,204.1 
		150.2,201.9 149.3,200.1 146.3,198.1 144.7,195.5 145.2,193.9 146.5,191.9 146.4,191 146.9,190.1 144.9,189.4 143.5,187.2 
		143.3,185.8 143.3,185.1 142.1,184 142.1,180.4 141.7,179.2 142.8,177.9 143.2,178.4 144.9,180.7 146.4,180.8 147.9,180.8 
		149,179.1 150.7,178.5 151.4,178.7 151.8,180.3 151.1,180.9 153.1,182 153.8,184.7 156.2,185.4 157.6,186.8 159.9,187.8 	"/>
</g>
<polygon class="st0" points="89.4,100.4 89.9,99.2 88.8,100.4 "/>
<polygon class="st0" points="83.2,98.8 82.6,98.8 82.5,100.1 83.3,100.5 "/>
<polygon class="st0" points="84.8,49.1 90.4,54 91.9,56.5 91.8,61.6 92.9,64.2 92.3,66.7 93.1,69 96.1,71.8 96.7,74.6 94.6,75.5 
	94.2,77.1 89.9,82.7 88.7,84.1 87.5,84.1 87.4,85.3 86.5,85.3 85.6,87.2 86.3,89.4 86.1,90.4 87.2,93.2 86.7,93.2 86.7,94.8 
	86.3,95.8 86.7,96.9 86.4,97.5 89.3,99.3 90.1,98.8 90.7,100.7 91.3,100.2 91.7,100.9 93.7,100.4 97.4,98.5 101.7,97.7 107.2,92.6 
	110.9,87 110.9,85.2 109.5,83.4 108.2,81.6 109,78.6 107.9,77.2 107.7,75.5 107,75.4 107,72.8 107.9,69.9 105.6,63 107.6,58.9 
	106,55.6 104.1,53.8 104.4,50.8 104.1,50.6 105.3,49.4 104.8,48.4 105.9,46.9 105.6,44.8 102.8,42.4 97.9,44.2 97.4,45.8 97.2,49.7 
	94.6,51.9 93,50.6 91.7,51.8 89.3,51.3 86.4,47.4 85.8,47.8 86,48.6 "/>
<polygon class="st0" points="38.4,168.9 39.1,169.3 38.9,169.6 "/>
<polygon class="st0" points="16.9,123.4 16.8,122.3 15.6,122.8 14,124.6 15.3,125 14.5,126.4 11.6,126.2 11.3,126.9 11.4,127.5 
	10.8,127.5 12,128.3 10.9,129.3 11.4,130.1 13.6,130.7 11.5,133.2 13.7,132.3 14.1,132.9 12,133.3 11.3,134.5 10.2,134.8 
	11.3,135.3 10.3,136.1 11.9,136.1 10.8,137 12.1,136.6 11.6,137.5 12.7,137.4 16.9,135 19.7,134.9 20.5,131.8 20.5,129.4 
	19.9,127.9 20.2,127.4 19.4,125.6 16.5,126.7 15.7,125.5 "/>
<polygon class="st0" points="22.3,120.3 22.6,121.4 22.7,120.3 "/>
<polygon class="st0" points="32,97.6 31.1,99.4 32,99.8 31.8,101.2 32.3,100.5 32.4,98.7 "/>
<polygon class="st0" points="16.9,123.4 15.7,125.5 16.5,126.7 19.4,125.6 20.2,127.4 21.7,126.2 21.3,125.2 21.7,125.8 21.8,125.5 
	20.7,124.7 21,123.5 20.2,122.5 17.8,123.1 18.3,122.3 17.4,121.9 "/>
<polygon class="st0" points="19.9,111.6 18.9,112.8 21,114.2 21.2,113.6 20.5,113.4 "/>
<polygon class="st0" points="21.2,117.4 20.5,116.4 20,116.5 20.5,117.4 "/>
<polygon class="st0" points="21.8,118.6 20.6,119.8 21.2,118.6 "/>
<polygon class="st0" points="20.1,119.6 19.5,120.3 20.5,120.5 "/>
<polygon class="st0" points="24.4,125.8 23.7,127.2 24.4,126.8 "/>
<polygon class="st0" points="25.4,130.5 24.3,129.6 24.9,130.5 "/>
<polygon class="st0" points="29.2,141 31.3,140.4 31.8,139.7 33.2,140.3 37.4,139.4 38.5,138.1 36.9,138 36.5,137.4 39,134.9 
	39.1,132.6 38.1,131.7 35.2,132.1 35.9,130.4 34.2,128.6 35.4,129.1 35.4,128.3 33.6,125.2 32.4,124.7 31.3,120.9 28.8,119 
	27.2,119 28.7,118.1 28,117 28.7,116.9 29.7,115.3 30.8,112.8 30.5,111.6 25,112.2 24.8,111.6 25.9,111 25.1,110.5 27.5,108.5 
	27.5,107.3 27.1,107.2 23.2,107.5 22.7,109 22.2,109.1 21.9,109.7 22.4,110.4 21.2,111 21.5,112.2 21.1,112.2 21.1,112.9 
	21.8,113.3 21.1,115.6 20.2,115.9 21.3,117 22.4,116.4 21.2,121.9 22.3,120.1 21.9,119 22.7,118.1 22.4,119.6 23.2,118.8 
	23.8,119.3 23.4,120.3 23.8,121.3 23,123.5 22.6,123.5 23,124.6 23.4,123.9 24.4,124.6 24.6,124 27.6,123.5 26.2,125.5 27.3,127.1 
	28.6,126.4 27.8,128.3 28.3,128.4 27.8,129.5 28.1,129.9 26,130.1 23.8,132.1 25.1,131.7 25.6,133.3 25.1,134.3 22.4,136 23,136.9 
	24.4,136.3 24.8,137 25.9,136.7 26.9,137.9 29.1,136.7 27.8,138.5 25.1,138.7 21.7,143 22.7,143 23.8,141.8 26.2,142.1 26.9,140.7 
	28.4,140.3 "/>
<polygon class="st0" points="20,108 18.1,109.1 18.1,111.1 19.7,110 19.5,109.5 20.1,109 "/>
<polyline class="st0" points="214.5,19.9 216.1,19.9 215.6,21.3 214.5,19.9 "/>
<polyline class="st0" points="395.4,159.8 390.8,163 393,160.1 393.8,160.2 395.2,159.3 395.4,159.8 "/>
<polyline class="st0" points="388.8,163 389.3,163.5 387.2,165.6 387.1,165.1 388.8,163 "/>
<polygon class="st0" points="234.5,39.9 235,39.1 235.7,41 234.9,41.3 "/>
<polyline class="st0" points="205.2,65.1 207.9,63.8 208.3,65.1 206.3,66.1 205.2,65.1 "/>
<polyline class="st0" points="233.8,-1.5 233.4,0.6 232.2,-1.2 232.9,-2.4 233.8,-1.5 "/>
<polyline class="st0" points="222.2,24 224.5,24.3 221.3,26.2 222.2,24 "/>
<polyline class="st0" points="226.8,19.9 227.4,22.5 225.4,21.5 226.8,19.9 "/>
<polyline class="st0" points="204.8,19.9 204.8,17.7 205.4,16.3 207,16.3 207.2,16.7 206.8,17.8 208.3,18.4 204.8,19.9 "/>
<polyline class="st0" points="177.2,43.2 176.5,41.5 177.3,41.5 176.8,41 177.7,39.8 181.5,44.6 179.7,45.2 177.7,43.5 177.8,44.5 
	177.2,43.2 "/>
<polyline class="st0" points="161.4,33.5 163,33.5 163.6,34.3 163.6,36.4 161.4,33.5 "/>
<polyline class="st0" points="164.8,13.5 168.2,10.3 170.7,11.4 168.2,9.6 169.6,9.1 168.5,8.1 170.5,7.9 169.2,5.9 172,5.5 
	169.6,4.9 170.2,3.1 169.2,3.1 169.1,2.2 169.5,1 170.7,2 174,-0.1 177.1,-5.1 181.3,-8.3 181.7,-8.1 181,-6.9 182.6,-7.6 
	182.6,-10 185.9,-8.7 190.6,-10.3 197.9,-16.9 200.5,-16.6 201.9,-13.7 201.4,-12 201.9,-12 200.4,-8.7 189.4,-3.3 188.7,-4.3 
	183.3,1.9 181.3,1.9 180.9,2.7 181.9,3.5 180.6,5.5 178.8,4.9 179.8,6.9 177.7,5.9 178.2,7.1 177.3,8.1 175.9,6.6 177.1,9.7 
	175.6,11.8 174.1,9.6 173.5,11.3 174.9,12.5 174.7,13.9 172.3,13 174,15 172.4,14.5 173.3,16.5 172.2,18.2 168.4,16.6 165.9,17.2 
	168.2,14.3 165.5,15 164.8,13.5 "/>
<polyline class="st0" points="164.9,17.8 168.2,17 171.6,18.9 169.7,20.8 171.1,20.4 170.9,21.4 169.2,22.4 170.2,22.6 169.1,24.8 
	169.1,28.7 170.7,34.3 174.4,37.8 172.4,38.6 173.5,38.8 173.2,39.3 172,37.6 170.9,38.1 171.6,38.8 169.1,37.9 168.4,39.1 
	167.3,37.8 167.9,37.5 165.1,37.3 164.8,35.6 166.3,35.1 164.6,33.9 165.5,32.3 164.2,33.6 164.2,31.8 159.9,31.4 159.4,30 
	159.8,27.8 161.6,28 163.3,23.6 162.8,24 161.9,21.9 164.1,20.8 163.5,20.4 163.8,20.1 163.5,19.2 164.9,17.8 "/>
<polyline class="st0" points="152.7,46.9 153.9,46.4 156.7,49.4 153.5,51.9 151.8,51 151.8,51.9 151.4,51 151.6,48.9 152.7,46.9 "/>
<polyline class="st0" points="399.4,157.1 397,159.1 398.1,157.6 399.4,157.1 "/>
<polyline class="st0" points="441.7,43 444.8,44.5 444.5,46 442.8,45.8 441.1,43.6 441.7,43 "/>
<polyline class="st0" points="412.7,140.6 410.9,142.3 410.8,143 412.6,141.9 412.9,141.4 412.7,140.6 "/>
<polyline class="st0" points="373.1,24.1 374.8,24 374.2,25.8 371.1,25.8 371.9,24 373.1,24.1 "/>
<polyline class="st0" points="369,31.7 370.4,30.7 371.1,31.9 369.2,33.2 368.6,33 369,31.7 "/>
<polyline class="st0" points="366.3,30.9 368.7,31.4 367.4,32.3 365.7,31.4 366.3,30.9 "/>
<polyline class="st0" points="432.6,104.8 431,105.8 431.3,105.9 430.2,108.3 433.2,105.9 432.6,104.8 "/>
<polygon class="st0" points="367.2,124.6 368.2,125 369.3,123.2 368.1,122.6 367.3,124.2 "/>
<polyline class="st0" points="380.2,126.2 380.8,126.9 381.9,132.3 381.4,134.4 381.7,137.4 384.1,145.6 385.2,147.9 383.2,145.8 
	381.3,146.3 380.2,152 381.4,154.5 382.3,155 382.5,156.9 382.3,157.5 382.1,155.8 380.2,155.3 379.1,157.7 378.6,157.5 
	378.5,155.3 379.2,150.5 378.5,148 379.2,143.4 378.9,140.6 379.1,138.6 378,136.7 377.9,134.3 378.4,129.6 379.8,129.9 
	380.5,128.8 379.5,126.4 380.2,126.2 "/>
<polygon class="st0" points="283.1,-31.6 279.6,-30.9 276.7,-28 275.3,-29.1 276,-31.6 "/>
<polygon class="st0" points="89.8,105.5 88.1,105.9 89,106.8 90.2,106.2 "/>
<polyline class="st0" points="90.4,107.3 87.6,107.8 87.6,108.8 88.2,109.3 88.2,110.2 88.8,108.8 91,108 90.4,107.3 "/>
<polygon class="st0" points="310.9,271.8 313.2,270.5 313.8,271 314.3,272.3 313.2,271.3 312.3,273.1 "/>
<polygon class="st0" points="259.1,228.7 259.1,230.2 258.2,230.2 258.2,231.3 257.1,227.8 256.6,226.6 255.1,226.6 254.5,226.1 
	253.9,226.8 253.9,227.8 253.2,228.9 252.6,228.3 251.8,229 251.7,228.8 250,229.4 248.9,224.1 249,222.4 247.5,221.2 248.4,220 
	249.4,220 249.3,219.1 248.3,219 248,218.2 248.9,216.5 249.6,217.6 250.1,216.8 250.6,217.9 251.2,217.9 251.5,217.3 252,219.1 
	252.7,219.7 258.1,220.3 255.1,223.4 255.6,225 256.6,225.7 257.8,223.9 "/>
<polygon class="st0" points="254.3,226.6 254.3,227.6 254.5,227.7 254.7,227 "/>
<polygon class="st0" points="250.1,214.3 249.6,214.8 250,215.5 251.8,216 257.5,215.4 258,214.3 256.9,213.8 256.9,213.1 
	256.1,212.6 252.6,211.7 "/>
<polygon class="st0" points="279.7,229.3 277.6,231.7 276.7,232.7 274.2,234.4 272.2,234.7 271.3,237.6 272.1,239.7 273.3,241 
	273.4,242.9 274,243.4 272.7,246.6 272.9,247.3 274.7,248.8 274.8,250.9 276,254 274.3,256.4 273.9,258.1 273.4,257.8 274.2,254.3 
	273.4,253.8 273.8,253.5 273.6,251.4 272.9,249.4 272.7,249.7 271.7,246.4 271.5,242.4 269.4,241.6 269,240.1 268.9,242.1 
	265.6,244.3 263.7,244 263.7,243.4 263,243.7 263.7,240.8 263.2,237.9 262.3,235.9 262,236.3 261.3,235.6 261.5,235.1 261.9,235.4 
	261.6,234.3 259.8,233.5 258.2,231.3 258.2,230.2 259.1,230.2 259.1,228.7 260.3,228.1 259.9,226.6 260.1,226.2 260.7,226.1 
	260.8,223.9 262.9,223.3 264.1,220.1 265.3,218.5 265.5,216.7 267.7,214.8 269.6,214.7 269.9,213.1 270.5,212.7 270.5,212.1 
	271.1,211.7 271.8,212.1 272.8,213.8 273.4,213.8 273.9,216 273.8,217.8 271.8,220.5 271.1,223.8 273.1,222.9 274.2,222.9 
	274.5,225 275.8,225.9 275.3,227.8 276.7,228.3 277.6,229.5 279.2,228.9 "/>
<polygon class="st0" points="273.3,254.1 272.8,254.6 273.4,254.7 "/>
<polygon class="st0" points="294.9,247 295.2,252.6 292.6,253.8 292.5,254.3 291.2,254.5 291.2,255.8 289,256.4 288.8,257 
	287.8,257.4 285.7,257.2 285.7,255.9 284.6,256.4 284,254.6 283.9,253.2 282.9,252.1 282.5,250.8 283.1,249.2 284.8,247.7 
	289.5,247.9 291.2,248.8 292.3,247.6 293.8,247.8 "/>
<polygon class="st0" points="213.7,178.8 213.9,177.4 215.9,176.5 216.2,175.9 219.5,176.3 221,174.7 224.2,174.1 225.2,172.8 
	228.9,171.1 229.4,169.6 230.1,166.7 229.1,162.5 228.4,161.5 234.2,160.2 234,157.7 235.7,153.4 239.6,153.9 240.3,154.7 
	242,153.8 242,151.2 242.6,149.1 244.3,149 245.3,147.3 246.4,147.7 247.3,147.1 248,148.8 249.7,150.7 252.9,151.4 253.3,152.1 
	254.5,155.7 254.7,158.6 254.3,159.9 258.2,161.2 259.8,161.1 265.5,163.5 267.3,166.5 269.7,168.8 278.8,168.4 282.8,170.5 
	288.7,172.3 295.4,169.8 298.6,169.9 301.3,169.2 305.8,165.2 304.7,163.5 305.8,161.2 306.7,160.8 309.6,161.9 312.7,159.3 
	314.7,158.7 317.6,155.7 324,155.2 323.3,154.2 323.1,152.7 320.9,150.4 318,152.1 314.8,151.7 314.4,150.3 314.7,146.3 
	316.5,143.4 320.1,144.8 323.4,142.9 323.6,141.5 325.1,137.4 327.1,135.6 326.9,133.8 325.2,133.8 325.5,133.1 327.4,130.9 
	334.1,129.9 336,131.2 339,131.8 340.8,134.4 341.2,136.6 342.7,139.9 343.5,144.6 347.6,145.3 350.9,147.2 351.5,148.9 
	351.5,150.4 352.2,151.6 354.6,151.7 361.2,148.9 360.8,149.6 361.1,152.1 360,153.2 358.7,157.4 357.1,160.7 356.5,161.2 
	354.1,160.3 352,162.3 352.6,164 352.6,166.7 351,168.5 351,169.3 349.8,168 348.5,170 347.2,171.1 345.2,171.2 345.4,173.1 
	343.5,173.3 342,172.6 339.6,174.9 337.3,176.1 336,177.9 333.6,178.4 328.5,181.5 328.2,181.4 329.3,180.7 329.5,179.7 
	328.5,179.1 330.7,176.1 329.9,174.3 328.2,174.8 326.5,177.1 324.2,178.4 323.3,179.8 321.8,180.4 320.6,180.2 319.7,181.5 
	319.6,182.3 320.7,183.5 322.4,184.5 323,186.1 324.2,186.6 327.4,184.5 329.2,185.6 331.7,185.8 331,187.6 330.6,186.9 330,186.9 
	329.4,187.7 327.4,188.1 327.6,188.5 326.9,189.6 325.8,189.3 325.7,190.3 324.6,191.2 323.4,193.2 325.8,194.7 327.6,199.5 
	330,202.3 326.8,201.3 325.7,201.6 326.8,201.7 328.2,202.5 330,204.4 325.8,206.7 328.2,206.2 330.1,207.3 328.9,208.4 
	329.8,208.1 329.8,208.7 329.8,209.2 328.9,209.3 329.2,209.9 328.5,212.1 327.9,211.9 325.1,216.5 325,215.8 324.2,216.3 
	324.6,217.1 323.9,219.5 323.4,219.2 321.9,221.6 320.6,221.9 320.6,222.8 319.5,223.9 319.5,223.6 319.2,224 318,224.4 
	316.5,225.9 314.3,226.6 313.6,226.2 312.7,226.8 312.6,226.5 312.2,227 311.5,227 312,227.3 312.2,227 311.4,227 311.5,227.5 
	310.7,227.6 309.6,226.2 309.6,227.7 308.5,226.8 308.2,228.7 302.2,230 301.5,231.3 302.2,232.6 301.3,233 300.3,231.3 
	300.3,229.5 299.1,230 297.6,229 296.9,229.9 296.8,229.4 296.1,229.9 294.7,229.5 293.4,228.7 292.7,226.5 289.5,225.2 286.2,227 
	285.2,226.6 284.4,227.1 282.9,226.5 282.4,227.5 281.3,227.1 280.8,227.5 280.9,230.2 280.1,230.5 279.7,229.3 279.2,228.9 
	277.6,229.5 276.7,228.3 275.3,227.8 275.8,225.9 274.5,225 274.2,222.9 273.1,222.9 271.1,223.8 271.8,220.5 273.8,217.8 
	273.9,216 273.4,213.8 272.8,213.8 271.8,212.1 271.1,211.7 270.5,212.1 269.9,211.5 268,211.1 268.2,209.9 267.8,209.8 
	267.3,208.4 265.5,209.2 263.7,209 260.1,211.9 256.9,213.1 256.1,212.6 252.6,211.7 250.1,214.3 249.6,214.1 249.6,212.4 
	248.1,212.8 246.3,213.1 244.6,212.6 242.9,212.8 242.3,212.1 240.9,211.6 241,210.9 238.6,210.4 238.7,209 237.1,209.7 
	236.2,208.2 234.3,206.7 231.8,206.2 231.7,207 231.1,206.5 227.3,204.1 226.1,204.3 225.4,203 225.6,201.6 224.8,200 225.4,199.5 
	226.1,200.5 227.5,199.3 227.2,198.1 226.1,197.5 225.9,195.7 227.4,195.4 227.5,194.4 228.6,193.5 229.4,191.2 228.6,191.5 
	228.5,190.9 226.8,189.8 222.7,191.4 220.7,190.6 220.2,190 219.3,190.1 218.7,189.5 218.8,188.3 218.3,187.7 217.5,187.7 
	217.3,186.9 215.6,186.6 215.1,186.3 215.9,186 216.4,186 215.9,182.4 215.6,182 213.9,182.2 213.2,181.1 "/>
<polygon class="st0" points="302.3,233.5 303.3,233.6 303.5,234.4 302.3,236.7 300.4,238.1 298.3,237.5 297.9,235.4 299.9,233.7 "/>
<polygon class="st0" points="386,164.4 387,163.8 386.4,165.2 386.8,166.7 388.1,166.5 387.7,166.9 383.3,168.5 381.7,171.4 
	378.5,169.4 376.8,169.9 375.2,169.6 374.7,170 374.9,170.6 376.7,171.7 374.1,173 374.2,171.1 373.5,170.4 373.6,169.4 
	374.9,168.2 374.9,166.9 377,167.3 377.3,166.5 377.3,165.5 377.9,164.4 378.2,162 377.9,160.2 378.4,159.6 382.2,163.6 385,164.9 
	"/>
<polygon class="st0" points="347.7,198.6 347.3,198.4 347.3,199.1 "/>
<polygon class="st0" points="376.7,160.3 376.5,160.6 377,160.8 "/>
<polygon class="st0" points="351,169.3 351.2,169.9 348.9,172.5 348.9,174.7 345.7,177.3 343.5,178.2 343.5,180.2 345.7,182.2 
	344.2,183.1 342.8,183.1 341.2,184.6 339.1,183.9 339,184.5 338.1,184.7 337.7,184 338,183.5 336.9,183.6 337.5,182.3 338.5,181.7 
	338,181.4 338.6,179.1 336.6,179 336,177.9 337.3,176.1 339.6,174.9 342,172.6 343.5,173.3 345.4,173.1 345.2,171.2 347.2,171.1 
	348.5,170 349.8,168 "/>
<polygon class="st0" points="340.6,197.5 340.4,198 340.9,198.1 342.2,197.5 "/>
<polygon class="st0" points="345.7,182.2 347.8,185.4 348.5,189.6 347.8,191.7 347,192.5 346.1,192.2 345.5,193.2 344.5,192.7 
	343.6,193.7 343.4,193.2 343,194.2 342.8,193.9 343,193.5 342,194.3 340.4,194.6 340.6,193.7 341.1,193.9 341.2,193.3 340.6,193.1 
	341.7,190.3 341.1,187.8 340.6,188.4 340.2,187.6 341.6,186.9 342,187.3 341.2,184.6 342.8,183.1 344.2,183.1 "/>
<polygon class="st0" points="279.7,229.3 277.6,231.7 277.5,232.4 278.2,232.7 278.3,234.3 279.7,234.7 279.2,239.7 281.5,238.1 
	283.3,238.9 284.1,238.5 284.5,237.9 285.3,237.6 286.1,237.6 287.8,239.7 288.5,242.9 290.1,244.6 290.1,247.3 289.5,247.9 
	291.2,248.8 292.3,247.6 293.8,247.8 294.9,247 295,245.5 294.2,243 292.7,242.3 292.6,241.7 292.3,240.5 291.2,239.8 289.3,237.1 
	286.4,235.4 286.8,234.4 287.8,234.4 288.5,233.7 287.5,231.7 287.1,231.3 284.6,231.3 284,230.6 283.9,229.3 282.4,227.5 
	281.3,227.1 280.8,227.5 280.9,230.2 280.1,230.5 "/>
<polygon class="st0" points="282.4,267.8 282.8,267.8 284.4,269.2 285.3,270.7 285.3,275 287.4,278.3 287.1,279.2 286.2,278.9 
	285.3,279.2 280.3,275.8 278.5,272.3 277.6,267.2 277.5,266.6 279.4,267.2 280.1,269.1 280.9,268.4 281.9,268.4 "/>
<polygon class="st0" points="231.1,206.5 231.7,207 231.8,206.2 234.3,206.7 236.2,208.2 237.1,209.7 238.7,209 238.6,210.4 
	241,210.9 240.9,211.6 242.3,212.1 242.9,212.8 244.6,212.6 246.3,213.1 248.1,212.8 247.8,214.8 247.5,215.3 248.1,215.9 
	247.8,216.8 245.8,217 240.4,215.8 238.9,214.3 235.3,214.2 228.6,210.4 229.4,207.7 "/>
<polygon class="st0" points="286.8,279.2 286.4,279 286.1,279.5 "/>
<polygon class="st0" points="289.5,247.9 284.8,247.7 283.1,249.2 282.5,250.8 282.9,252.1 283.9,253.2 284,254.6 283.4,253.5 
	281.5,252.1 279.2,252.1 279.1,250 277.5,249.8 277,250.2 276.7,253.2 275,258 275.3,260.5 276.6,260.5 278.3,265 279.2,266 
	280.8,266.1 282.4,267.8 281.9,268.4 280.9,268.4 280.1,269.1 279.4,267.2 277.5,266.6 277.6,267.2 273.9,262.7 272.9,262.9 
	272.9,261.1 273.9,258.1 274.3,256.4 276,254 274.8,250.9 274.7,248.8 272.9,247.3 272.7,246.6 274,243.4 273.4,242.9 273.3,241 
	272.1,239.7 271.3,237.6 272.2,234.7 274.2,234.4 276.7,232.7 277.6,231.7 277.5,232.4 278.2,232.7 278.3,234.3 279.7,234.7 
	279.2,239.7 281.5,238.1 283.3,238.9 284.1,238.5 284.5,237.9 285.3,237.6 286.1,237.6 287.8,239.7 288.5,242.9 290.1,244.6 
	290.1,247.3 "/>
<polygon class="st0" points="282.4,227.5 282.9,226.5 284.4,227.1 285.2,226.6 286.2,227 289.5,225.2 292.7,226.5 293.4,228.7 
	294.7,229.5 296.1,229.9 294.8,230.3 292.9,232 291.4,233.8 290.6,236 290.7,237.3 292.2,238.5 292.5,239.6 293.9,241.1 
	295.5,242.9 296.9,243.4 297.2,244.5 298.3,245.4 299.6,251.6 299.1,252.6 299.1,254.5 298.7,255.3 296.3,256.8 294.7,257.5 
	293.4,257.5 292.5,258.8 292.6,259.6 291.5,258.8 291.8,260 289.3,261.9 288.8,261.8 288.7,260 289.3,258.4 287.8,257.4 288.8,257 
	289,256.4 291.2,255.8 291.2,254.5 292.5,254.3 292.6,253.8 295.2,252.6 294.9,247 295,245.5 294.2,243 292.7,242.3 292.6,241.7 
	292.3,240.5 291.2,239.8 289.3,237.1 286.4,235.4 286.8,234.4 287.8,234.4 288.5,233.7 287.5,231.7 287.1,231.3 284.6,231.3 
	284,230.6 283.9,229.3 "/>
<polygon class="st0" points="265.6,269.3 266.8,269.3 268.4,270 271.3,270.4 273.1,272.9 275.8,274.6 278.7,277.4 279.2,277.8 
	279.7,277.4 280.4,278.5 282,279.2 282.5,279.9 282.6,279.6 283.4,280.2 284.6,280.4 284.5,281.7 284.4,282.1 285.3,281.6 
	286.1,282.1 286.3,282.7 285.7,283.3 286.1,283.4 285.6,284.4 285.7,284.8 287.7,285.4 288.2,287.2 289,287.7 288.8,288.5 
	290.7,288.7 291.7,290 291.2,296.8 290.1,296.1 289.5,296.7 288.8,296.1 288.5,296.2 288.5,296.9 286.3,294.8 283.3,292.6 
	282.5,291.4 279.6,288.3 277.8,284.4 276.6,282.8 275.4,282.1 274.3,278.6 273.6,277.9 271.7,277.2 271.5,275.9 270.2,274.3 
	269,273.7 266.4,271.3 "/>
<polygon class="st0" points="313.9,299.3 314.7,299.4 314.3,299.7 "/>
<polygon class="st0" points="307.9,299.5 310.7,299.4 311,299.9 309.6,300.1 308.3,300 "/>
<polygon class="st0" points="313.3,302.3 314.3,302.3 314.8,302.8 313.9,304.2 313.2,303.1 312.2,302.8 312.2,302.3 "/>
<polygon class="st0" points="315.9,303.2 316.5,302.6 317.5,302.9 317.2,304.3 315.7,304.3 "/>
<polygon class="st0" points="316.4,290.8 316.8,292.1 316.3,292.6 316,291.4 "/>
<polygon class="st0" points="306.4,302.8 305.3,302.9 303.3,302.6 300.6,301.3 298.3,301.2 297.6,301.6 293.9,300.7 292.6,300.1 
	292.9,299.7 290.1,299.1 289.9,298.6 290.7,298.8 291.7,297.3 292.2,297 293.7,297.4 294.9,297 295.2,297.7 297.1,297.9 
	298.6,299.3 302.2,299.5 302.9,298.5 303.5,298.1 304.1,298.9 304.9,298.6 307.3,299.4 308.5,301.2 312,301.6 311.8,303.1 
	312.2,304 308.9,302.8 307.8,303.1 "/>
<polygon class="st0" points="295.9,288.9 297.1,289.4 296.9,290.3 295.6,290.2 "/>
<polygon class="st0" points="289.8,287.5 290.2,286.6 291.1,287 291.5,286.4 292.5,288.7 293.4,288.8 293.4,290 292,289.6 
	291.2,288.1 "/>
<polygon class="st0" points="287.7,284 288,283.5 288.2,284.2 287.8,284.2 "/>
<polygon class="st0" points="288.3,280.1 288.2,280.7 287.7,279.9 "/>
<polygon class="st0" points="274.2,285.1 274.7,285.1 275.4,287 274.3,286.4 "/>
<polygon class="st0" points="282.1,278.9 283.1,279 283.3,279.5 "/>
<polygon class="st0" points="281.4,278.5 280.7,277.9 281.5,277.9 "/>
<polygon class="st0" points="270.4,279.5 271,279.1 272.2,280.4 272.2,281.3 "/>
<polygon class="st0" points="266.9,276.1 267.2,275.8 268.5,277.2 "/>
<polygon class="st0" points="231.1,206.5 229.4,207.7 228.6,210.4 235.3,214.2 238.9,214.3 240.4,215.8 245.8,217 247.8,216.8 
	248.1,215.9 247.5,215.3 247.8,214.8 248.1,212.8 249.6,212.4 249.6,214.1 250.1,214.3 249.6,214.8 250,215.5 251.8,216 
	257.5,215.4 258,214.3 256.9,213.8 256.9,213.1 260.1,211.9 263.7,209 265.5,209.2 267.3,208.4 267.8,209.8 268.2,209.9 268,211.1 
	269.9,211.5 270.5,212.1 270.5,212.7 269.9,213.1 269.6,214.7 267.7,214.8 265.5,216.7 265.3,218.5 264.1,220.1 262.9,223.3 
	260.8,223.9 260.7,226.1 260.1,226.2 259.9,226.6 260.3,228.1 259.1,228.7 257.8,223.9 256.6,225.7 255.6,225 255.1,223.4 
	258.1,220.3 252.7,219.7 252,219.1 251.5,217.3 251.2,217.9 250.6,217.9 250.1,216.8 249.6,217.6 248.9,216.5 248,218.2 248.3,219 
	249.3,219.1 249.4,220 248.4,220 247.5,221.2 249,222.4 248.9,224.1 250,229.4 249.6,229.5 249.4,228.9 249.4,229.4 248.4,229.8 
	248,228.1 247.5,229 245.3,230 245.3,231.9 243.6,233.7 240.4,235.4 238.5,237.9 234.2,241.2 233.5,242.4 231.3,243 230.5,244.5 
	229.1,244.5 228.5,245.5 228.6,249.7 229.1,250.8 227.9,254.6 228,257.8 226.8,257.8 225.9,259.5 225.9,260.2 224,260.8 
	223.7,262.3 222.7,263.2 222,263.2 220.3,261.1 218.1,254.9 216.5,252.9 215.7,249.7 213.9,246.4 213.8,244.9 213.3,245.1 
	212.9,244.3 212.1,242.4 211,237.6 211.2,236 210.8,236 210.5,234.3 210.8,232.4 210.1,228.7 211,227.7 209.5,227.5 208.7,230.6 
	207,231.4 205.2,231.4 201.8,228.2 201.6,227.6 204,227.3 204.8,226.6 205.1,225.4 203.5,226.2 201.6,226.2 199.4,223.8 
	200.2,223.3 201.4,223.3 201.5,222.2 204.3,222.8 205.4,222.1 206,222.7 207,222.2 205.8,218.9 204.6,218.2 204.8,216.7 
	203.1,216.3 203.3,215.1 205.4,212.4 206.4,213.3 208.7,212.7 210,210.6 211.2,209.8 212.6,207.3 213.4,207 213.7,206.2 
	214.6,204.7 216.1,204.1 215.3,203.6 215.7,203 215.3,202.4 215.6,201.7 217.3,200.8 217,200.1 215.7,200 215.6,199.1 214.6,198.9 
	213.8,197.9 214.5,197 213.9,196.3 214.5,195.7 213.7,195.2 213.9,194.7 213.4,194.4 213.8,193.3 214.6,193.1 217.7,193.9 
	219.8,193.3 220.8,193.5 221.3,192.5 222.7,191.4 226.8,189.8 228.5,190.9 228.6,191.5 229.4,191.2 228.6,193.5 227.5,194.4 
	227.4,195.4 225.9,195.7 226.1,197.5 227.2,198.1 227.5,199.3 226.1,200.5 225.4,199.5 224.8,200 225.6,201.6 225.4,203 
	226.1,204.3 227.3,204.1 "/>
<polygon class="st0" points="259.8,249.8 258.8,254 259.2,254.7 "/>
<polygon class="st0" points="262,265.1 261.6,265.4 261.8,266.2 "/>
<polygon class="st0" points="247.3,147.1 248,148.8 249.7,150.7 252.9,151.4 253.3,152.1 254.5,155.7 254.7,158.6 254.3,159.9 
	258.2,161.2 259.8,161.1 265.5,163.5 267.3,166.5 269.7,168.8 278.8,168.4 282.8,170.5 288.7,172.3 295.4,169.8 298.6,169.9 
	301.3,169.2 305.8,165.2 304.7,163.5 305.8,161.2 306.7,160.8 309.6,161.9 312.7,159.3 314.7,158.7 317.6,155.7 324,155.2 
	323.3,154.2 323.1,152.7 320.9,150.4 318,152.1 314.8,151.7 314.4,150.3 314.7,146.3 316.5,143.4 314.8,143.6 312.1,142.4 
	308.3,144.8 303.3,146.3 301.2,146 298,145.3 296.1,143.9 290.5,141 289,140.7 285.6,142.3 284,141.8 282.1,140.4 281.5,137.5 
	275,134.9 271.7,137.7 272.3,140.6 271.8,141.4 272.1,142.9 271.6,143.1 264.5,143.1 263,141.5 257.1,140.9 254.3,141.9 
	248.5,145.3 "/>
<polygon class="st0" points="101.6,112.1 101.5,111.7 102.3,110.7 102.2,110 101.7,109.5 101.5,108.5 101.1,108.4 100.5,105.9 
	102.5,105.3 103.4,103.7 103.3,102.4 102.7,101.9 102.5,103.4 102.1,103.5 96.8,102.4 91.7,104.6 91.4,106.3 92.3,106.7 91.7,107.2 
	92.1,108.5 94.1,108.4 93.9,110.7 96.3,110 98.3,110.9 99.4,112.1 100.7,111.8 "/>
<polygon class="st0" points="85.5,118.1 85.6,115.8 87.4,112.2 89.3,111.2 91.3,114.2 93.1,114.8 93.6,113.6 93.9,110.7 96.3,110 
	98.3,110.9 99.4,112.1 100.7,111.8 101.6,112.1 102.5,113.2 102.2,114.9 102.8,115.3 103.4,116.5 103.6,118.3 102.8,118.5 
	101.7,119.9 100.7,119.7 100,120.5 99,120.1 97.1,118.3 96.1,118.2 95.3,117 93.9,117.7 92.5,117.2 88.7,117.1 87,117.8 86.3,118.6 
	"/>
<polygon class="st0" points="90.1,125.7 90.4,124 89.9,123 88.2,122.8 86.3,121.9 86.3,122.1 86,123.5 84.8,123.1 85.2,122.5 
	83.3,123.4 82.3,125.5 85.6,125.9 "/>
<polygon class="st0" points="90.1,125.7 90.4,124 89.9,123 88.2,122.8 86.3,121.9 85.5,118.1 86.3,118.6 87,117.8 88.7,117.1 
	92.5,117.2 93.9,117.7 95.3,117 96.1,118.2 97.1,118.3 99,120.1 100,120.5 99.3,121 99.3,121.7 100,121.9 99.6,122.6 97.8,123.4 
	97.2,125.7 97.7,126.7 97.3,126.8 96.4,126.2 95.2,126.8 95.3,127.4 91.9,127.7 91.8,127.1 "/>
<polygon class="st0" points="91.7,136.9 91.8,135.3 91,134.2 92.5,132.5 91.9,127.7 95.3,127.4 95.2,126.8 96.4,126.2 97.3,126.8 
	97.7,126.7 97.2,125.7 97.8,123.4 99.6,122.6 100,121.9 99.3,121.7 99.3,121 100,120.5 100.7,119.7 101.7,119.9 102.8,118.5 
	103.6,118.3 103.7,118.6 106,119 106.5,119.3 106.4,120.2 108.3,119.6 110.1,120.7 109.9,121.8 110.3,122.5 109.9,124 111.3,126.4 
	112.2,127.2 112.3,128.2 113.4,128 114,128.3 114.1,128.9 114.5,129 114.5,129.6 113.1,130.7 111.5,130.2 110.9,130.9 111.4,131.6 
	112.2,134.8 110.3,135.2 109.6,135.9 109.3,137.6 108.8,138 108.3,137.6 106.6,137.9 105.6,136.9 104.9,137.7 103.4,137 
	102.2,137.6 101.8,137 101.2,137 100.5,136.3 97.8,135.5 94.6,135.6 94,136.4 "/>
<polygon class="st0" points="103.2,159.3 104.2,159 104.4,158.2 105.3,157.2 105.6,155.9 107.7,155.9 107.7,154.5 107,153.9 
	106.6,152.6 105.8,152 105.8,150.3 104.5,149.6 103.6,149.8 101.6,148.7 100.2,148.8 99.6,149.5 101.1,151 102.8,154.5 "/>
<polygon class="st0" points="99.6,149.5 95.3,151 94.4,150.4 90.1,150.5 88.5,148.9 89.2,146.3 89.8,146.3 89.8,145.1 90.6,143.4 
	93,140.7 91.7,136.9 94,136.4 94.6,135.6 97.8,135.5 100.5,136.3 101.2,137 101.8,137 102.2,137.6 103.4,137 104.9,137.7 
	105.6,136.9 106.6,137.9 108.3,137.6 108.8,138 109.3,137.6 109.6,135.9 110.3,135.2 112.2,134.8 112.8,135.2 113.7,134 
	116.9,133.9 118.4,135.9 118.4,136.3 117.8,136.5 118.2,137.9 119.4,138.3 120.1,138.2 120.7,139.1 120.9,140.7 121.4,141.3 
	122.7,141.3 123.2,141.8 123.8,141.8 125.5,141.2 127.1,143 128,142.8 129.1,143.5 129.8,143.4 132.3,144.5 132,144.7 132.4,145.7 
	132,146.3 131.3,146.6 132.2,147.2 131.3,147.7 131.4,149 131.8,149.1 131.3,151 129.9,151 129.3,150.6 128.6,151.5 128,151.7 
	127.6,152.3 127.7,153.7 121.6,155.4 120.5,156.5 120,155.9 119.4,157 119.4,157.7 118.9,157 118.4,157.6 117.6,156.4 117.4,157 
	116.7,156.9 117.7,157.9 118.7,157.7 118.4,158.4 119.4,158.7 119.9,159.9 123.6,159.5 123.2,160.8 120.9,160.6 117.2,163 
	115.8,162.5 115.8,160.6 113.7,159.6 116.8,157.7 116.4,157.4 112,156.9 112.5,156.3 111.5,155.9 113,155.9 112.2,154.9 
	109.3,155.8 108.8,157 107.9,156.3 108.5,157.5 107,158.8 106.6,158.1 106.5,159.5 104.1,159.9 103.2,159.3 104.2,159 104.4,158.2 
	105.3,157.2 105.6,155.9 107.7,155.9 107.7,154.5 107,153.9 106.6,152.6 105.8,152 105.8,150.3 104.5,149.6 103.6,149.8 
	101.6,148.7 100.2,148.8 "/>
<polygon class="st0" points="140.1,174.1 143.5,173.2 143.9,173 144.4,173.8 145.2,174.1 145,175.4 146.2,176.3 145.8,177.4 
	146.9,178.4 147.5,178.4 147.5,179.6 147.3,179.7 147.9,180.8 146.4,180.8 145.8,178.6 144.8,178.6 143.9,178 143.2,178.4 
	142.8,177.9 141,176.6 "/>
<polygon class="st0" points="143.2,178.4 143.9,178 144.8,178.6 145.8,178.6 146.4,180.8 144.9,180.7 "/>
<polygon class="st0" points="147.9,180.8 147.3,179.7 147.5,179.6 147.5,178.4 146.9,178.4 145.8,177.4 146.2,176.3 145,175.4 
	145.2,174.1 144.4,173.8 143.9,173 144.8,172.5 147.7,173.4 147.7,172.8 146.9,171.9 147.4,171 149.1,172.1 149.5,173.1 
	150.9,173.2 152.2,171.5 153.3,172.6 154.9,175.3 156.3,175.5 156.7,176.3 155.6,176 154.9,176.8 154,180.3 153.1,179.8 153.1,182 
	151.1,180.9 151.8,180.3 151.4,178.7 150.7,178.5 149,179.1 "/>
<polygon class="st0" points="140.1,174.1 138.4,172.3 137.3,172.6 135.4,172.2 135.8,171.9 135.8,170.9 134.9,168.4 132.4,166.9 
	131.3,166 133.4,165.7 136.1,166.7 138.9,166.8 141.5,168.8 143.2,168.2 144.4,168.4 145.7,169 145.7,170 147.4,171 146.9,171.9 
	147.7,172.8 147.7,173.4 144.8,172.5 143.9,173 143.5,173.2 "/>
<polygon class="st0" points="296.3,163.6 296.3,162.5 296.6,161.8 295,160.9 294.1,161.1 292.2,159.4 291,159 289.9,157.9 
	287.9,156.6 286.3,153 285.6,152.3 284.9,152.9 282.4,152.3 282.3,151.1 282.6,151 282.1,150.6 281.9,149.7 280.6,149.6 
	279.1,148.1 278.7,148.6 278.2,148.7 278.7,149.5 277.9,149 277.5,149.8 276.2,150 275.7,150.7 275.9,152.4 275.5,152.7 
	273.4,152.3 272.1,152.6 270.6,150 269.4,149.3 266.9,150 265.5,151 266.2,153 266,151.4 267.7,150.6 268.3,150.7 269,151.9 
	270.5,153.2 269.4,154.1 269.8,154.3 269.4,154.6 266.8,154.2 266.4,153.2 266,155.4 266.4,156.5 267.5,156.2 267.9,156.5 
	267.5,157 268.6,157.5 267.5,158.3 269,159.2 268.4,160.6 268.7,163.5 269.9,163.2 271.9,161.7 275.7,160.9 276.4,161.9 280.3,163 
	280.8,164.1 283.4,165.8 284.5,165.8 284.7,167.9 284.6,168.5 285.3,168.9 287.9,169.6 288.6,169 289,168.3 288.7,167.9 
	291.8,166.5 292.7,164 293.8,164 294.4,163.4 "/>
<polyline class="st0" points="206.8,176.4 205.9,176.4 205.6,175.4 206.3,174.8 206,173.8 205.7,173.8 204,175 203.1,174.9 
	202.7,175.5 202.7,176.5 201.5,177 201,178.4 198.7,178.5 198.2,179.2 198.9,180.1 199.9,180.3 199.8,181.3 200.5,182.9 
	199.4,184.6 198.7,185.8 196.1,185.4 196.1,184.1 196.5,183.4 194.6,182.4 193.7,182.5 191.6,180.7 190.2,180.2 189,179 
	186.8,177.6 184.9,173.6 184.2,172.8 183.5,173.4 180.6,172.8 180.5,171.5 180.9,171.4 180.3,170.9 180.2,169.9 178.7,169.8 
	177,168.2 176.6,168.7 176,168.8 176.6,169.6 175.6,169.2 175.2,170 173.8,170.3 173.2,171 173.4,173 173,173.2 170.7,172.8 
	170.7,172.8 170.6,160.8 176.8,158.7 178.2,159.3 180.5,161.1 185.3,165.8 192.3,165 194,166.3 194.8,167.8 195.4,167.8 195.1,171 
	196.6,171.2 197,173.3 199.4,173.1 201.5,173.8 203.2,172.2 204.8,171.4 205.4,170.5 206,170.5 206.7,169.8 207.4,169.9 
	207.5,170.3 205.2,172 205.2,172.3 206,172.5 206.5,173.1 207.9,173.6 208.5,172.3 209.9,173.8 212.2,174.6 209.1,176.4 
	206.8,176.4 "/>
<polygon class="st2" points="161.9,171.4 163.5,170.3 166.2,169.5 167.5,170.3 169.2,173.1 170.7,172.8 170.7,172.8 170.6,160.8 
	176.8,158.7 178.2,159.3 180.5,161.1 185.3,165.8 192.3,165 194,166.3 194.8,167.8 195.4,167.8 195.1,171 196.6,171.2 197,173.3 
	199.4,173.1 201.5,173.8 203.2,172.2 204.8,171.4 205.4,170.5 206,170.5 206.7,169.8 207,169 207,168.3 208.1,168 209.9,168.3 
	212.6,169.3 213,167.6 214.5,166.8 215.7,167.6 217.5,167.8 220.7,167.8 221.6,167.6 226.9,168.3 227.5,169.2 229.4,169.6 
	230.1,166.7 229.1,162.5 228.4,161.5 234.2,160.2 234,157.7 235.7,153.4 239.6,153.9 240.3,154.7 242,153.8 242,151.2 242.6,149.1 
	244.3,149 245.3,147.3 246.2,146.2 244.8,144.1 244.2,144.4 243.9,145 241.4,144.4 240.5,143.3 240.4,142.6 239.2,142.1 
	238.9,140.7 237.2,139.4 236.6,139.2 236.1,139.7 235.5,139.7 235.1,140.3 232.2,140.3 231.6,139.3 231.7,139 230.6,138.2 
	230.2,138.3 229.6,139.6 229,140.1 223.7,130.4 220.3,127.4 220.3,126.8 221.1,126.3 220.9,125.7 219.1,126.6 218.1,126.7 217,128 
	215.4,128.6 215.4,129.3 214,128.9 212.8,129.5 212.6,128.9 212.9,128.2 213.5,127.9 213.4,127.2 212.6,127.7 211,126.9 
	210.7,127.1 211,127.5 210.3,127.5 210.5,126.8 210,125.9 209.6,125.8 209.5,126.6 207.4,126.8 207,126.2 207.5,125.6 207.6,124.6 
	207,124.1 206.8,122.4 206.2,122 204.9,122.5 203.7,121.8 202.1,121.5 201,122.3 200.4,122.4 200.2,123.4 194.9,124.6 194.9,124.6 
	193,125 192.7,125.9 191.3,125.9 190.3,126.3 190.2,126.7 189.2,126.3 188,127.2 186.9,127.2 186.5,127.8 186.3,127.4 184.2,127.5 
	184,127.2 182.7,127.5 183.2,128 182.8,129 183.8,128.9 184.1,129.1 183.2,129.5 183.3,130.2 184.8,130.4 185.7,131.1 185.2,131.5 
	183,131.5 182,132.5 182.8,133.6 182.6,134.3 180.4,135.5 180.4,135.8 181.1,136 181.3,136.6 182.4,136.9 182.7,137.5 184.4,138 
	183.7,140.1 181.7,140.6 180.5,139.8 179.8,141 179,141 178.8,140.6 178.9,140.6 177.5,140.6 176.7,139 176.1,138.8 175.1,139 
	174.3,139.7 173.4,139 172.4,139.1 172.4,139.4 171.7,139.3 170,140.8 168.6,140.2 167.9,139.1 167.5,139.2 167.5,140.8 
	167.1,140.9 166.9,139.8 164.7,137.2 162.4,137.2 161.9,136.3 161.5,136.3 160.8,136.4 160.3,137.4 160,137.1 159.4,137.2 
	159.2,136.5 157.7,136.7 156.7,138.1 154.7,138.8 154.5,139.8 153.3,140.6 152.7,140.7 153.4,143 152.3,143.9 150.1,141 
	149.7,142.8 148.9,143.4 148.5,145.5 149.1,146.2 148.2,146.9 147.7,148.8 149,149.3 149.3,150.9 149.8,151.4 149.8,151 
	151.8,151.2 152.7,152.3 153.6,154.8 152.3,154.8 152.2,155.4 152.5,155.5 156.7,154.7 158.2,153.2 160.4,153.9 162.4,153.4 
	163.7,154.5 165.5,157.7 167.3,159.1 167.5,159.8 167.1,159.8 167.3,160.7 161.2,159.6 160.6,160.3 159.3,160.3 158.9,161.1 
	159.7,162.5 156.2,162.5 158.4,164.5 159.2,167.2 162.4,168.5 "/>
<polygon class="st0" points="206.8,176.4 205.8,177.1 204.8,176.8 202.7,177.3 203,178.5 205.8,178.5 206.7,178.8 208,178.5 
	208.7,178.7 208.9,179.3 210,179.5 213.7,178.8 213.9,177.4 215.9,176.5 216.2,175.9 219.5,176.3 221,174.7 224.2,174.1 
	225.2,172.8 228.9,171.1 229.4,169.6 227.5,169.2 226.9,168.3 221.6,167.6 220.7,167.8 217.5,167.8 215.7,167.6 214.5,166.8 
	213,167.6 212.6,169.3 209.9,168.3 208.1,168 207,168.3 207,169 206.7,169.8 207.4,169.9 207.5,170.3 205.2,172 205.2,172.3 
	206,172.5 206.5,173.1 207.9,173.6 208.5,172.3 209.9,173.8 212.2,174.6 209.1,176.4 "/>
<polygon class="st0" points="199.7,186.8 201.6,185.7 202.7,186.3 203.1,184.7 204.7,185.1 205.1,184.5 204.8,184 206.5,182.2 
	207.5,182.8 207.3,183.6 208,184 207.8,186.3 208.4,187.7 212.7,185.2 213.4,185.4 213.7,186 215.1,185.6 216.1,185.6 215.9,186 
	216.4,186 215.9,182.4 215.6,182 213.9,182.2 213.2,181.1 213.7,178.8 210,179.5 208.9,179.3 208.7,178.7 208,178.5 206.7,178.8 
	205.8,178.5 203,178.5 202.7,177.3 204.8,176.8 205.8,177.1 206.8,176.4 205.9,176.4 205.6,175.4 206.3,174.8 206,173.8 
	205.7,173.8 204,175 203.1,174.9 202.7,175.5 202.7,176.5 201.5,177 201,178.4 198.7,178.5 198.2,179.2 198.9,180.1 199.9,180.3 
	199.8,181.3 200.5,182.9 199.4,184.6 198.7,185.8 "/>
<polygon class="st0" points="85.8,174.6 86,175.5 83.8,178.4 81.6,175.9 82,175.9 81.8,173 82.3,171.6 81.6,171.2 82,169.4 
	82.6,168.8 83,168.9 83.7,169.2 84.9,170.5 84.5,173 "/>
<polygon class="st0" points="85.8,174.6 84.5,173 84.9,170.5 86.8,169.3 89.2,169.4 89.2,170 90.2,170.9 90.6,173 "/>
<polygon class="st0" points="104.4,165 100.2,163.9 96.6,165.5 90.7,165 90.2,164.5 90.6,163.9 89.9,163.8 89.2,164 89,165 
	89.2,166 90.2,167.3 89.2,168.9 89.2,169.4 89.2,170 90.2,170.9 90.6,173 94.1,172.2 96.7,173.3 97.4,173 98.3,172.5 98.3,171.6 
	98.7,171.6 100.7,170.9 102.8,171.1 101.6,169.3 102.5,168.4 102.7,167.2 103.9,166.2 "/>
<polygon class="st0" points="467.7,83 467.4,80.4 466.4,80.2 467,79.8 466.4,78.3 466,78.9 464.5,78.1 464.3,76.1 466.3,76.1 
	467,77.1 470.1,74.6 470.5,74.2 472.3,71.6 470.9,69.5 470.7,68 472.1,67.9 472.1,66.8 472.5,66.8 473.1,67.9 474.1,66.7 
	474.1,68.1 473,68.3 474.2,71.5 479,71.1 480.4,71.9 480.4,74.4 481.7,75.9 482.8,76.1 482.6,75.9 483.4,75.6 483.2,76 484.7,76.7 
	485,78 485.8,77.6 486,78.3 486.6,76.9 486.5,78.4 487.5,78.8 487.7,77.8 487.2,77.6 489.1,77.8 487.6,76.5 488.2,76 487.2,75.9 
	489.7,74.3 488.3,73.2 489.4,73.2 490.2,71.7 492,71.8 491.4,70.7 491.4,69.7 493.3,71.1 493.4,69.2 495.6,68.1 493.4,67.5 
	493.6,66.9 490.6,63.1 487,62.9 486.6,63.8 486.4,63.1 486.9,62.5 485.6,61.9 485.4,62.6 483.8,62.4 484.8,62.9 484.7,64.9 
	485.6,65.6 485,66.8 485.2,65.7 483.3,64.2 482.6,60.4 482.9,60.2 481.6,58.3 480.4,58.1 481.6,60 479,58.3 479.9,57.5 477.7,56.8 
	478,56.4 477.9,55.7 476.8,55 475.2,54.8 474.8,53.5 473.5,53 473.1,51.6 471.3,50.7 470.4,50.3 466.6,47 461.1,44 454.1,44.1 
	448.3,42.5 447.3,42.9 447.3,44.8 446.5,45.7 447.7,45.9 448.8,49.1 446,51.4 442.2,48.4 441.8,45.9 441,44.6 438.6,46.5 
	434.2,45.9 431.9,44.5 428,44.9 425.1,47.2 425.1,46 421.3,44.2 422.2,41.3 422.1,39.9 419.4,36.1 409.3,35.9 404.1,37.2 402.3,36 
	403.7,34.4 401.8,32.4 399.7,32.7 398.5,31.1 395.6,30.6 396.7,28.9 398,29.2 397.4,26.9 396.7,26.3 376.4,21.4 375.8,22.1 
	376.5,23.6 373.1,27.8 373.5,29.2 373,30.1 373.7,32.3 372.4,31.8 368.8,34.6 363,30.9 361.7,31.1 361.2,33.2 358.4,32.5 
	356.2,28.2 354.6,31.7 354.4,34.4 352.7,37.9 351.9,36.2 349.4,35.4 347.3,30.7 346.7,30.9 346.5,28.9 348.4,26.8 348.2,26.5 
	348.5,25.1 347.7,23.3 348.3,20.1 345.1,16.2 342.3,15.5 341.4,16.6 334.7,12.9 334.4,14.1 333.4,13.8 333,16.3 333.7,18.9 
	333.1,19.7 327.9,20.6 321.8,18.7 321.5,16.5 322.6,16 314.8,14.1 309.6,15.9 311.5,17.4 309.4,18.3 308.7,18.2 309.6,17.4 
	308.9,17.2 309.1,14.7 307.8,11.4 307.9,13.4 307.1,14.3 304.2,13.3 304,12 304.5,11.4 303,12.5 301.2,11.4 299.8,13.3 300.3,15 
	302.4,13.4 303.3,14.5 300.3,16.5 298.8,15.5 299.6,16.6 299.1,17.1 295.2,18.9 292.3,18.7 292.2,19.2 292.2,20.4 293.2,21.3 
	291.5,20.4 290.1,21.3 294.2,15 296.6,15.1 302.2,7.1 305.5,5.7 305.5,4.4 306.9,4.1 306.4,3.6 308.7,2.2 310.1,-0.2 309.8,-1.8 
	310.1,-2.4 308.2,-3 307.1,-5.4 309.4,-3 310.4,-5.1 310.3,-6.4 309.6,-6.4 308.7,-9.4 307.9,-8 307.2,-9.3 307.7,-10.3 
	303.6,-14.5 296.6,-14.8 294.7,-11.8 291.7,-11.8 294.2,-14.8 294.7,-16.4 294.4,-17.3 290.6,-17.8 290.7,-19 287.3,-16.9 
	291.5,-21.1 290.7,-23.4 286.8,-25.3 284.1,-24.3 280.1,-18.4 279,-15.6 280.2,-13.7 279.6,-14 279.6,-12.7 274,-11.9 276.4,-9.6 
	276,-7.3 275,-8.3 273.6,-9.8 271.1,-8 271.5,-6.9 268.4,-5.7 268.6,-6.9 268,-7.1 266.4,-5.7 267.3,-8.1 266.6,-8.6 259.6,-7.6 
	259.6,-6.6 261,-6.7 260.8,-5.6 250.7,-2.1 247.8,1.5 245.2,1.5 247,2.4 245.7,3 244.8,5.7 242.7,4.1 242.3,5.5 244.5,6.6 
	242.6,8.4 244.6,9.3 245.2,11.1 244.5,11.3 244.6,12.5 231,15 229.9,15.5 230.5,16.2 229.2,17.4 229.9,17.8 229.2,18.7 231,20.9 
	230.5,22.5 230.8,24.6 234.2,26.3 234.3,26.9 234,27.6 237,29.4 237.3,31.2 236.5,33.9 237.5,38.3 237.5,40.4 236.1,41 236.2,42.5 
	234,41 234.3,37.8 234,34.4 235.9,32.9 236.5,30.7 232.2,30.2 230.5,27.8 226.8,25.3 222.4,26.8 222.2,27.6 223.8,28.2 221.8,30.2 
	220.8,30.5 219.8,28.5 218.8,29 219.5,31.4 222.5,33.6 223.5,32.9 224.7,36.1 217.3,33.2 216.8,32.5 217.6,32.3 217.6,31.1 
	216.8,28.1 217.8,26 217.5,24.1 217.8,23.8 216.5,21.3 215.7,21.5 216.4,26 212.4,29.4 211.6,31.7 214.6,38.1 212.9,44 213.8,46.7 
	213.4,48.5 216.6,49.5 218.9,48.4 222.7,50.8 224,54.6 222.6,55.6 222.5,58 225.7,59.2 223,59.4 221.8,58.2 222.2,55.3 221.8,54.6 
	222,53.3 220.7,51.8 220.2,50.1 215.3,51.6 214.6,53.9 215.7,56.5 215.6,58.4 213.8,60.7 212.7,63.6 210,65.3 209.7,67.3 
	209.2,67.4 204.6,66.7 204.3,64.6 203.8,64.1 205.4,64.5 209,63 207.6,61.6 209.5,61.9 210.7,59.2 211.7,58.3 211.7,55.6 
	212.6,53.8 212.6,52.6 210.2,49.7 210.7,44.1 210.1,41 210.8,40 211,36.7 210.5,34.3 208.5,31.9 210.7,26.4 210.5,22.4 202.7,20.6 
	201.6,23.3 200.4,29.7 196.6,33.6 196.2,35.4 197.2,35.4 196,37.2 198.1,37.9 197.5,40.9 197.8,42.4 196.8,42.7 196.7,45.7 
	199.8,46.4 199.7,47.3 200.6,49.9 202.1,50.8 200.2,55.1 197.2,51.1 190.1,46.2 183,44.1 180.9,45.7 182.5,49 182.1,50.6 
	179.8,51.9 180,53.4 179,54.4 178.1,53.5 178.8,51.8 177.3,49.7 173.6,53 169.1,52.8 167.3,55.5 165.5,54.4 165.3,52.7 165.8,51.3 
	164.9,51 166.8,50.1 164.1,50.7 163.7,51.4 163.8,52.3 163.3,52.6 162.6,51.6 161.7,52.7 162.2,53 161.7,54.3 161,53.2 159.9,53.4 
	151.2,59.2 150.3,61.6 150.3,62.9 147.7,64.9 147.5,63.6 146.2,63.7 143.8,60 144.7,58.3 147.7,57.6 147.1,55.3 145.7,53.4 
	139.6,52.1 141.7,54.4 141.6,58.1 141,60.8 142.7,63 141.6,67 141.7,69.5 140.9,68 140,68.5 140.4,67.3 137.3,65.7 135.2,68.5 
	131.4,71.1 131.5,72.8 133.9,77.7 128.1,75.9 127.3,76.9 127,76 127.7,75.6 124.3,73.7 123.3,75.3 123.7,76.4 125.3,78.3 
	126.6,77.8 127.5,80.9 125.8,81.5 122.6,80.2 121.1,78.3 118.8,77.8 119.4,76.9 119.3,75.4 118,72.8 118.9,72.2 119.1,69.5 
	112.3,62.4 113.4,61.9 116,64.3 118.2,64.5 118.3,65.6 129,68.3 131.8,67 134.6,64.1 135.1,61.9 134.4,61.4 134.1,58.8 131.5,55.9 
	128,54.6 121.7,48.6 115.7,48.4 115.2,47.2 114.5,47.8 114.6,47 112.3,46 112.6,44.8 114.5,45.9 115,44.8 112,43.5 112.2,44.6 
	111.8,44.5 111.4,45.4 109.6,44.6 109.6,45.9 108.1,45.4 107.7,46.9 105.3,49.4 104.1,50.6 104.4,50.8 104.1,53.8 106,55.6 
	107.6,58.9 105.6,63 107.9,69.9 107,72.8 107,75.4 107.7,75.5 107.9,77.2 109,78.6 108.2,81.6 109.5,83.4 110.9,85.2 110.9,87 
	107.2,92.6 101.7,97.7 104.1,97.2 104.1,98.6 103.6,98.1 103.9,99.2 107,99.9 108.1,101 105.3,100.9 103.3,102.4 103.4,103.7 
	102.5,105.3 100.5,105.9 101.1,108.4 101.5,108.5 101.7,109.5 102.2,110 102.3,110.7 101.5,111.7 101.6,112.1 102.5,113.2 
	102.2,114.9 102.8,115.3 103.4,116.5 103.6,118.3 103.7,118.6 106,119 106.5,119.3 106.4,120.2 108.3,119.6 110.1,120.7 
	109.9,121.8 110.3,122.5 109.9,124 111.3,126.4 112.2,127.2 112.3,128.2 113.4,128 114,128.3 114.1,128.9 114.5,129 114.5,129.6 
	113.1,130.7 111.5,130.2 110.9,130.9 111.4,131.6 112.2,134.8 112.8,135.2 113.7,134 116.9,133.9 118.4,135.9 118.4,136.3 
	117.8,136.5 118.2,137.9 119.4,138.3 120.1,138.2 120.7,139.1 120.9,140.7 121.4,141.3 122.7,141.3 123.2,141.8 123.8,141.8 
	125.5,141.2 127.1,143 128,142.8 129.1,143.5 129.8,143.4 132.3,144.5 132,144.7 132.4,145.7 132,146.3 131.3,146.6 132.2,147.2 
	131.3,147.7 131.4,149 131.8,149.1 131.3,151 129.9,151 129.3,150.6 128.6,151.5 128,151.7 127.6,152.3 127.7,153.7 129.7,153.2 
	130.2,153.8 128,154.5 128.1,155 126.5,155.2 126.3,155.7 128.1,157.1 126.8,157.5 125.5,159.6 124.2,159.6 123.7,160.2 125.4,162 
	126,161.9 128.7,163.6 131.3,166 133.4,165.7 136.1,166.7 138.9,166.8 141.5,168.8 143.2,168.2 144.4,168.4 145.7,169 145.7,170 
	147.4,171 149.1,172.1 149.5,173.1 150.9,173.2 152.2,171.5 151.8,171.1 150,167.4 150.1,164.7 149.8,165.6 149,163.8 147.7,162.4 
	149.3,159.9 149.6,158.4 150,158.6 150.2,157 149.8,156.4 150.7,156.5 151.4,158.1 152.5,156.6 153.6,156.3 152.5,155.5 
	152.2,155.4 152.3,154.8 153.6,154.8 152.7,152.3 151.8,151.2 149.8,151 149.8,151.4 149.3,150.9 149,149.3 147.7,148.8 
	148.2,146.9 149.1,146.2 148.5,145.5 148.9,143.4 149.7,142.8 150.1,141 152.3,143.9 153.4,143 152.7,140.7 153.3,140.6 
	154.5,139.8 154.7,138.8 156.7,138.1 157.7,136.7 159.2,136.5 159.4,137.2 160,137.1 160.3,137.4 160.8,136.4 161.5,136.3 
	161.9,136.3 162.4,137.2 164.7,137.2 166.9,139.8 167.1,140.9 167.5,140.8 167.5,139.2 167.9,139.1 168.6,140.2 170,140.8 
	171.7,139.3 172.4,139.4 172.4,139.1 173.4,139 174.3,139.7 175.1,139 176.1,138.8 176.7,139 177.5,140.6 178.9,140.6 178.8,140.6 
	179,141 179.8,141 180.5,139.8 181.7,140.6 183.7,140.1 184.4,138 182.7,137.5 182.4,136.9 181.3,136.6 181.1,136 180.4,135.8 
	180.4,135.5 182.6,134.3 182.8,133.6 182,132.5 183,131.5 185.2,131.5 185.7,131.1 184.8,130.4 183.3,130.2 183.2,129.5 
	184.1,129.1 183.8,128.9 182.8,129 183.2,128 182.7,127.5 184,127.2 184.2,127.5 186.3,127.4 186.5,127.8 186.9,127.2 188,127.2 
	189.2,126.3 190.2,126.7 190.3,126.3 191.3,125.9 192.7,125.9 193,125 194.9,124.6 194.9,124.6 200.2,123.4 200.4,122.4 201,122.3 
	202.1,121.5 203.7,121.8 204.9,122.5 206.2,122 206.8,122.4 207,124.1 207.6,124.6 207.5,125.6 207,126.2 207.4,126.8 209.5,126.6 
	209.6,125.8 210,125.9 210.5,126.8 210.3,127.5 211,127.5 210.7,127.1 211,126.9 212.6,127.7 213.4,127.2 213.5,127.9 212.9,128.2 
	212.6,128.9 212.8,129.5 214,128.9 215.4,129.3 215.4,128.6 217,128 218.1,126.7 219.1,126.6 220.9,125.7 221.1,126.3 220.3,126.8 
	220.3,127.4 223.7,130.4 229,140.1 229.6,139.6 230.2,138.3 230.6,138.2 231.7,139 231.6,139.3 232.2,140.3 235.1,140.3 
	235.5,139.7 236.1,139.7 236.6,139.2 237.2,139.4 238.9,140.7 239.2,142.1 240.4,142.6 240.5,143.3 241.4,144.4 243.9,145 
	244.2,144.4 244.8,144.1 246.2,146.2 245.3,147.3 246.4,147.7 247.3,147.1 248.5,145.3 254.3,141.9 257.1,140.9 263,141.5 
	264.5,143.1 271.6,143.1 272.1,142.9 271.8,141.4 272.3,140.6 271.7,137.7 275,134.9 281.5,137.5 282.1,140.4 284,141.8 
	285.6,142.3 289,140.7 290.5,141 296.1,143.9 298,145.3 301.2,146 303.3,146.3 308.3,144.8 312.1,142.4 314.8,143.6 316.5,143.4 
	320.1,144.8 323.4,142.9 323.6,141.5 325.1,137.4 327.1,135.6 326.9,133.8 325.2,133.8 325.5,133.1 327.4,130.9 334.1,129.9 
	336,131.2 339,131.8 340.8,134.4 341.2,136.6 342.7,139.9 343.5,144.6 347.6,145.3 350.9,147.2 351.5,148.9 351.5,150.4 
	352.2,151.6 354.6,151.7 361.2,148.9 360.8,149.6 361.1,152.1 360,153.2 358.7,157.4 357.1,160.7 356.5,161.2 354.1,160.3 
	352,162.3 352.6,164 352.6,166.7 351,168.5 351,169.3 351.2,169.9 351.5,169.8 351.4,169.2 352.6,169.2 354.1,166.5 354.6,167.6 
	355.3,166.9 355.3,168.4 357.5,168.9 359.3,168.4 361.8,166.5 369.2,157.1 370.4,154.4 372.4,151.4 374.6,148.9 375.4,143.1 
	374.9,140.6 375.8,137.9 377.3,134.9 376.5,134 376.8,133.2 376.5,132 377.1,130.5 374.7,128.6 373.3,126.4 370.6,126.3 
	370.6,128.4 369.8,129.5 369.9,128.4 369.3,128.9 367.2,129.4 368.1,128.2 367.3,127.2 368.1,126.3 367,126.8 367,127.9 366,128.6 
	366,125.1 363.5,125.2 362.3,124.5 362.4,123.7 368.2,118.5 371.9,113.6 374.7,111.2 375.8,109 379.2,105.3 381.4,104.1 
	387.1,103.7 388.4,105 389.4,103.6 392,104.6 394,103.9 394.6,104.7 395.2,104.6 394.9,103.7 395.8,103.5 395.7,102.5 396.2,102.3 
	400.1,103.6 401.3,103 403.2,104.3 400.7,105.3 401.3,106.3 404.1,105.6 404.9,106.1 406.7,104.7 409.8,105.1 410.4,104.8 
	410.3,104.1 408.1,103.5 408.4,102.9 408.1,101.8 408.6,101.8 409.7,99.4 412.4,97.2 415.4,92.6 419.7,91.3 421.8,92.6 423.2,91.2 
	422.7,93.2 421.9,94.4 422.2,95.3 421.8,96.1 423.2,96 422.6,98.1 428,92.8 428.9,92.4 429.6,93.3 430,92.6 429.4,92 429.6,90.2 
	430.8,88.1 432.9,87.4 434.2,88.3 434.1,88.8 432.3,89.9 431.9,92.6 431.4,93.3 431.4,94.8 430.8,95.5 431.1,96.5 426.9,98.7 
	426.5,99.9 423.3,103.1 418.3,109.9 415.9,111.2 414.6,111.1 415.1,112.4 414.5,114.4 412.2,116.1 411.5,121.5 411.6,125 
	414.5,139.8 417.9,136.1 418.8,131.8 421.5,130.7 422.1,131.1 421.9,127.5 424.4,125.2 425.9,125.6 427.1,124.6 426.1,121.3 
	426.7,119.4 428,118.3 427.6,117.6 429.2,116.9 428.6,118.2 429.3,119.3 430,118.1 429.9,116.5 428.8,116 428.7,114 429.9,111.2 
	428.6,110.5 427.5,111.5 427,110.7 427.1,109.3 429.2,105.3 429.8,105.3 430.7,101.6 431.8,101 432.3,101.6 433.1,100.7 
	434.2,101.8 434.8,99.9 436.9,98.5 437.3,98.8 437.2,101.8 439,98.8 441.8,97.7 444.8,98.5 447.1,101.2 447.6,98.7 451.4,96.4 
	451.3,95.5 452.1,95.8 452,95 454,93.9 454.7,92.3 455.7,92.7 458.4,91.1 458.6,90.1 463.7,88.1 463.2,86.3 464.3,87.9 464.8,87.4 
	468.1,89.1 469.3,87 468.1,85.4 469.1,85.3 "/>
<polyline class="st0" points="283.1,-31.6 279.6,-30.9 276.7,-28 275.3,-29.1 276,-31.6 "/>
</svg>
