<svg version="1.0" id="banner-peru" xmlns="http://www.w3.org/2000/svg" xmlns:xlink="http://www.w3.org/1999/xlink" x="0px" y="0px"
	 viewBox="0 0 326.6 310" style="enable-background:new 0 0 326.6 310;" xml:space="preserve">
<polygon class="st0" points="325.8,193.8 327.2,194.1 327.6,195.3 325.8,194.7 324.9,193.8 "/>
<polygon class="st0" points="329.4,195.3 330.7,196.1 328.6,196.1 328.2,195.5 "/>
	<polygon class="st0" points="225.9,46.3 226.3,47.4 223.9,48.5 220.5,48.5 219.6,47.2 220.3,46.1 	"/>
	<polygon class="st0" points="89,1.1 91.1,-0.4 88.8,2.5 	"/>
	<polygon class="st0" points="124.4,57.7 126.8,53.2 127.7,47.4 126.4,46.3 125.7,46.5 124.4,48.8 122.8,49.2 122.6,57.7 	"/>
	<polygon class="st0" points="151.9,86.3 149,83.9 147.2,80.5 145.2,81.4 143.4,80.3 138,79.8 137.6,82.7 138.5,84.8 141.1,86.3
		141.4,85 140.5,84.3 141.6,84.3 143.6,87 147,88.6 147.2,91 148.7,91.7 149,90.6 150.1,91.9 151.4,88.8 150.5,88.3 150.5,87.2 	"/>
	<polygon class="st0" points="175.6,31.3 177.8,32.9 182.3,34 182.3,35.8 185.9,36 189,38.2 183.9,39.8 173.8,39.8 173.3,39.6
		176.3,36.9 171.8,36 169.1,32.2 163.7,31.5 160.8,29.5 154.6,29.1 153.9,28.2 155.7,27.3 154.8,26.8 151.2,26.8 149.2,28.4
		146.5,29.1 143.6,30.9 142,30.4 143.6,30 144.3,27.3 146.5,26 152.3,24.2 155.9,24.2 162.6,25.1 165.7,27.7 169.3,28.2 172,30.2
		"/>
	<polygon class="st0" points="172,28.4 173.6,29.3 173.6,30.2 172.9,30.2 169.1,27.3 	"/>
	<polygon class="st0" points="151,30.4 151.4,32.2 149.4,32.4 150.1,30.4 	"/>
	<polygon class="st0" points="199.5,39.8 200.4,42.9 199.5,45.9 199.7,48.3 200.9,50.1 204,46.5 205.1,47.9 209.3,46.3 213.8,47.2
		214.7,45.6 212.7,43.8 209.6,43.4 210.9,42.5 208.5,42.1 207.6,40.7 204.2,39.6 	"/>
	<polygon class="st0" points="119,68 125,70.4 127.3,70.4 129.1,69.6 128.6,67.3 125.9,67.3 121.9,64.9 	"/>
	<polygon class="st0" points="126.6,58.6 124.4,57.7 122.6,57.7 122.8,49.2 115.4,49.2 115.2,51.4 112.5,51 115.9,54.1 117,57
		113,57.3 110.1,61.7 109.4,64 113.4,67.1 119,68 121.9,64.9 122.8,63.7 122.6,62.4 126.4,59.7 	"/>
	<polygon class="st0" points="194.1,44.1 195,45.2 193.5,44.7 193,44.1 	"/>
	<polygon class="st0" points="195,38.9 195.7,39.4 194.8,39.1 	"/>
	<polygon class="st0" points="199.5,39.8 200.4,42.9 199.5,45.9 199.7,48.3 197.9,47.4 195.3,48.1 191.7,47.2 190.6,48.3
		188.3,46.3 188.3,45.9 196.8,46.1 197,45.2 195.3,44.1 195,41.4 192.4,40.5 194.6,39.4 197.3,40.5 	"/>
	<polygon class="st1" points="149,62.4 145.2,59.3 141.1,57.7 126.6,58.6 126.4,59.7 122.6,62.4 122.8,63.7 121.9,64.9 125.9,67.3
		128.6,67.3 129.1,69.6 130.2,69.6 131.1,71.3 132.4,70.9 133.5,69.8 133.8,68 135.6,68 136.2,66.4 138,67.1 140.7,65.3 142.3,63.1
		144.5,64 	"/>
	<polygon class="st0" points="176,46.3 179.4,47.4 180.1,48.8 178,48.5 176,49.4 173.6,49.2 170.7,47 172.7,45.9 	"/>
	<polygon class="st0" points="88.4,11.4 79.4,8.5 76.7,2.7 73.4,-1.1 72.1,-4.9 68.5,-8.5 63.1,-8 60.6,-4 55.7,-7.1 54.2,-9.6
		53.3,-12.5 46.8,-18.3 38.7,-18.3 38.7,-16.1 26.7,-15.6 10.1,-23 -0.2,-22.1 2.5,-18.5 5.2,-10.9 5.9,-11.2 6.5,-7.8 9.7,-6.2
		13.7,-1.3 13.2,2.2 9.7,1.8 9.7,2.5 15.9,6.9 17,7.2 17.7,6.1 18.4,7.8 21.3,9.9 22.2,12.3 21.7,17 23.5,17 29.6,22.4 31.8,26
		33.8,24.6 34,22.8 30.7,19.2 29.8,19.7 28.9,19.2 24.9,7.6 23.8,6.9 24,8.3 23.5,7.8 17.5,-3.1 16.4,-3.3 15.5,-5.4 12.6,-7.8
		11.7,-9.8 9.7,-19.2 13,-16.8 14.8,-16.8 17.5,-14.7 19.5,-8.7 23.5,-2.2 26.7,1.1 28.9,1.6 29.6,4.5 35.4,9 34.3,11.4 34.9,12.8
		36.3,12.3 36.3,13.7 39.2,14.5 40.7,15.9 41,17.9 45.2,21.3 47.7,24.8 50.8,27.3 53,33.6 51.9,35.8 52.8,36.9 51,37.6 51.9,40.5
		54.4,42.5 58.6,45 60.9,47.2 67.4,48.8 71.4,52.3 81.2,55.2 85.5,57.7 92.2,59.5 97.3,57 99.1,56.8 104,58.6 109.4,64 110.1,61.7
		113,57.3 117,57 115.9,54.1 112.5,51 115.2,51.4 115.4,49.2 122.8,49.2 124.4,48.8 125.7,46.5 126.4,46.3 127.3,44.7 128,44.7
		127.7,46.1 128.8,48.1 130.2,42.5 129.5,41.8 130.2,41.2 129.5,40.7 133.3,33.6 132.4,32.2 130.2,31.8 129.1,32.7 129.1,31.5
		127.7,31.3 117.7,34 115.7,42.5 113.4,43.8 113.6,45.2 112.3,46.1 108.7,45 99.8,47.4 97.3,45.6 94.4,44.7 92.4,42.9 90.8,39.4
		87.5,34.7 87.7,32.2 85.5,29.1 85.7,23.3 84.8,17 86.1,13.9 88.4,13 	"/>
	<polygon class="st0" points="8.8,0.9 8.3,0.5 8.8,-0.7 	"/>
	<polygon class="st0" points="147.2,80.5 146.5,78.3 149,62.4 144.5,64 142.3,63.1 140.7,65.3 138,67.1 136.2,66.4 135.6,68
		133.8,68 133.5,69.8 132.4,70.9 131.1,71.3 130.2,71.3 130.2,71.8 138,79.8 143.4,80.3 145.2,81.4 	"/>
	<polygon class="st0" points="155.7,95 155,96.2 155.9,96.6 	"/>
	<polygon class="st0" points="174.9,90.8 174.7,91.7 175.8,93.7 174.2,95.3 173.6,95 172.7,96.6 170.7,93.9 172,91.9 170.4,91.7
		166.9,89.2 161.5,92.8 161.3,93.9 162.8,95.9 160.8,97.3 159.5,97.3 159,94.8 157.7,95.3 155.7,92.8 151.2,92.1 150.5,93
		150.1,91.9 151.4,88.8 150.5,88.3 150.5,87.2 151.9,86.3 153.2,87.2 153.9,89.2 158.1,89.9 162.6,88.1 163.7,88.8 164.8,86.5
		166.9,86.5 171.6,87.7 	"/>
	<polygon class="st0" points="172,6.7 172.7,7.8 168,7.2 	"/>
	<polygon class="st0" points="194.1,32.7 193.9,34 191.5,34.7 191.5,33.8 	"/>
	<polygon class="st0" points="183.6,18.8 184.1,19.5 183.4,19.5 181.8,16.8 	"/>
	<polygon class="st0" points="180.1,14.5 180.3,17 179.4,15.9 	"/>
	<polygon class="st0" points="172.9,20.4 173.8,19.2 173.8,21.5 	"/>
	<polygon class="st0" points="171.8,15 172.9,16.8 172.5,18.3 170.4,16.8 171.1,14.5 	"/>
	<polygon class="st0" points="176,9 175.8,11.2 175.1,9.2 175.8,7.8 	"/>
	<polygon class="st0" points="189.4,27.1 189.4,28.4 190.3,26.4 188.1,26 	"/>
	<polygon class="st0" points="275.8,244.9 278.7,245.3 279.8,248.4 279.1,252.2 275.1,254.3 262.1,267.9 261,269.5 259.9,281.8
		258.5,287.6 258.8,290.7 263.9,294.5 263,297.4 264.4,299.7 266.1,299.9 265.7,304.1 262.8,308.1 262.1,310.2 260.1,311.7
		247.1,314.6 242.7,314.4 241.5,313.5 241.5,316.2 242.7,317.5 241.1,320.9 241.5,324.7 240.7,326 238.2,327.4 235.1,327.4
		229.9,324.5 228.8,325.6 229.7,332.5 231.9,334.8 233.7,334.5 232.8,333.4 235.1,332.5 235.5,333.6 236,335.7 235.3,337 233.1,337
		231.7,335.4 229.7,336.5 232.8,338.6 229.9,339.9 228.8,341.7 228.8,346.6 227,348.8 227.2,350.6 224.3,350.6 221.6,352.2
		218.5,356.7 218.3,358 219.6,360.5 221.9,363.2 226.1,363.8 226.6,366.7 225.4,370.5 218.5,376.6 217.2,382.6 214.9,383.7
		213.6,381.5 214.3,384.2 211.8,386.2 210.2,390.4 211.4,390.2 212,393.6 210.5,394 212,394.7 214.9,399.2 208.7,397.4 198.4,396.9
		197.5,395.1 197.3,388 193,388.6 192.8,384.2 193.5,380.2 196.4,375.2 197.3,372.1 197,367.6 200.2,360.9 200.4,353.8 201.3,351.3
		199.1,349.1 201.7,348.2 201.3,347.1 199.3,346.6 199.5,343.7 198.4,335.4 200.2,331.4 199.1,328.3 199.7,321.1 201.5,314.9
		202.9,312.4 202.4,308.1 202.6,302.1 205.3,298.8 205.1,294.3 208.2,288.5 207.6,284.2 205.1,275.5 205.3,273.3 207.6,268.3
		208,263.4 209.6,257.4 211.6,255.2 212.5,252.9 214.9,251.4 213.8,244.6 214.3,239.7 219.6,237.3 220.5,233.7 219.9,231.7
		224.3,226.8 225.9,228.3 230.8,229 232.6,230.8 233.7,227.9 237.7,228.1 239.8,229.2 241.1,229.4 247.8,237 253.2,238.2
		261.2,243.7 261.7,245.3 258.8,250.5 258.8,252.2 263,252.9 265.7,254.3 270.8,253.6 275.1,249.3 	"/>
	<polygon class="st0" points="232.2,417.5 235.5,417.3 232.2,418.4 231.5,418.4 	"/>
	<polygon class="st0" points="213.6,401.6 213.8,418.4 216.3,417.5 223.9,419.5 227.5,418.8 229.2,417 225,415.9 217,409.4
		214.3,405.4 215.8,405 	"/>
	<polygon class="st0" points="209.3,207.1 211.4,209.1 211.8,213.3 213.8,214.9 213.8,217.4 212.9,218 212.7,219.4 214.9,222.7
		216.5,231.4 219.9,231.7 224.3,226.8 225.9,228.3 230.8,229 232.6,230.8 233.7,227.9 237.7,228.1 239.8,229.2 241.1,224.7
		241.1,221.6 243.3,217.1 252.1,214.9 255.6,214.9 257.6,215.8 260.1,218.9 261,218.5 261.9,209.5 260.6,206.2 258.8,205.5
		258.8,201.5 251.2,201 249.6,196.6 250.5,193.9 248.3,189.2 246.5,188.3 243.8,188.3 242,186.7 238.2,185.8 237.1,184.3
		231.7,183.4 228.8,181.4 227.7,178.7 228.4,173.5 227.5,171.3 222.1,172 218.3,175.8 214.7,177.6 209.1,176.9 212.9,183.6
		211.8,185.6 211.8,192.8 210.5,193.9 211.4,196.1 210.2,197.7 210.2,199.5 211.8,202.2 209.1,206 	"/>
	<polygon class="st0" points="303,130.2 302.6,132.4 300.1,135.5 296.8,136.6 293.6,135.7 293.4,130.8 294.8,129.9 301,129.5 	"/>
	<polygon class="st0" points="275.8,244.9 278.7,245.3 279.8,248.4 279.1,252.2 275.1,254.3 262.1,267.9 265.7,267.4 268.6,269.9
		269.1,271.9 271.1,271 273.1,273.3 278.9,276.8 279.8,279.1 282,280.9 280.2,283.1 280.7,286.2 284.7,281.8 285.6,278.6 291,274.4
		294.3,269.5 296.6,263.9 301.5,258.5 302.1,253.6 302.6,252.9 301.9,251.6 301.5,247.6 303.3,244.2 310.4,237.5 319.4,233.7
		320,232.1 330.1,231.7 331,230.1 334.6,227.4 335.5,224.1 340.6,215.8 341.5,210 343.3,207.3 344.4,199 343.7,192.8 344.6,187.2
		348,185.4 351.6,178.7 356,174.7 360.7,168.6 362.5,160.1 361.4,154.1 359.8,151.8 352.9,151 342.4,142.5 340.4,141.8 331.7,141.8
		324.5,139.1 320.5,140.9 321.2,138.9 319.4,138.4 320,137.3 318.7,135.5 316.7,136.4 316,134.6 308.9,131.9 304.6,132.2 303,135.5
		300.8,136.4 299,139.8 298.8,136.9 290.1,137.3 289.6,138 289.8,136.6 293.2,136.6 293.2,134.4 292.1,133.5 293,132.4 290.3,134.2
		289.8,130.8 295.7,124.6 296.6,121.9 294.3,121 291.2,111.6 289.8,110.5 289.2,111.1 285.2,117.6 282.5,119.6 278.4,120.1
		276.4,118.8 274.2,117.9 270.6,118.3 269.9,120.8 267.5,120.5 264.4,120.1 257.9,123.2 255,122.3 253.4,121 253.4,119 252.3,117.9
		253,112.9 254.1,111.8 253.4,109.4 251.8,108.9 251.6,106.2 248.9,106.2 247.6,108.7 238.4,112 230.8,110 231,111.6 233.1,112.9
		232.8,115.4 233.3,118.3 237.1,118.5 237.1,119.4 234.2,120.5 232.8,122.3 227,125.5 223.7,125.5 221.4,123.2 220.5,123.9
		218.7,120.1 216.5,121 215.4,120.1 214.9,121.2 208.2,121.2 208.5,124.1 210.5,124.3 211.4,126.4 207.3,126.6 207.3,129.7
		209.3,131.3 210.2,134.4 207.6,146.9 200.4,148.9 196.8,151.2 194.1,154.8 193.9,157.7 192.4,158.6 190.8,162.1 191.9,165.3
		194.8,168.2 194.6,170.2 197,170.4 198.2,172.4 200.4,172.6 205.3,169.7 205.3,176.9 206,177.6 209.1,176.9 214.7,177.6
		218.3,175.8 222.1,172 227.5,171.3 228.4,173.5 227.7,178.7 228.8,181.4 231.7,183.4 237.1,184.3 238.2,185.8 242,186.7
		243.8,188.3 246.5,188.3 248.3,189.2 250.5,193.9 249.6,196.6 251.2,201 258.8,201.5 258.8,205.5 260.6,206.2 261.9,209.5
		261,218.5 260.1,218.9 261,227.9 264.6,229 267.7,228.3 270.2,229.2 271.7,236.4 276.4,236.6 276.7,239.5 	"/>
	<polygon class="st0" points="293.4,130.2 291.4,132.2 291,131 292.1,129.7 293.4,129 292.5,129.9 	"/>
	<polygon class="st0" points="298.6,129 297.4,129.5 298.1,128.4 	"/>
	<polygon class="st0" points="295.2,126.8 294.3,127.5 294.8,128.6 296.8,128.8 	"/>
	<polygon class="st0" points="205.1,210 206.4,218.3 206.9,225.6 206.2,231.9 204.9,233.9 205.3,243.3 204.2,246 204.2,250.9
		200.9,261.2 201.5,266.3 200.2,268.3 199.7,270.1 200.9,279.5 200.2,286.2 194.6,301.9 193.5,301.9 193.7,304.6 191.7,305.5
		191.7,312.4 192.8,317.8 191.5,320 190.6,328.7 192.6,331 194.6,329.6 197.5,330.1 195.3,332.1 196.8,332.3 197,335 196.4,334.1
		195.7,334.5 196.4,335.7 195.3,336.5 195.7,338.1 194.1,341 195,343 193.5,345.3 195.7,346.8 195.9,349.1 192.8,350.6 192.8,352.2
		193.9,352.9 192.4,353.5 191.9,354.4 193.7,353.8 192.6,354.9 193.5,355.1 191.9,356 191.7,358 193,356.7 192.6,358.2 190.8,360
		190.8,358.2 190.1,359.4 189.2,358.9 189.7,357.8 189,356 185.6,356 186.8,358 183.4,360.2 183,361.8 184.1,362.7 183.9,361.1
		185,360.5 187,361.8 189,361.6 190.1,363.2 189.4,363.8 190.1,364.5 188.1,365.8 190.1,366.7 189.7,368.1 190.8,367.6 192.8,370.8
		189.4,369.9 189.2,371.2 187.9,369.4 188.3,372.3 190.6,372.1 191.2,373.4 189,372.8 189,379 190.8,377 190.3,379.3 190.8,380.4
		189,381 187.4,384 190.6,386.4 189.4,387.1 189.7,388 191.2,388 191.5,388.6 189.7,389.1 189.7,390.7 191.7,392.7 192.4,397.1
		193,397.4 192.6,394 193.9,397.1 194.6,396 193.9,394.9 195.9,395.4 194.6,393.8 196.8,395.4 195.9,396.9 197,398.9 195.7,401.2
		200.9,401.2 202.9,403.2 201.7,405.2 198.4,407.4 198.2,406.3 197.5,406.5 197.9,408.3 200.4,409.9 202.9,409.9 204,402.5
		210.9,398.5 214.9,399.2 208.7,397.4 198.4,396.9 197.5,395.1 197.3,388 193,388.6 192.8,384.2 193.5,380.2 196.4,375.2
		197.3,372.1 197,367.6 200.2,360.9 200.4,353.8 201.3,351.3 199.1,349.1 201.7,348.2 201.3,347.1 199.3,346.6 199.5,343.7
		198.4,335.4 200.2,331.4 199.1,328.3 199.7,321.1 201.5,314.9 202.9,312.4 202.4,308.1 202.6,302.1 205.3,298.8 205.1,294.3
		208.2,288.5 207.6,284.2 205.1,275.5 205.3,273.3 207.6,268.3 208,263.4 209.6,257.4 211.6,255.2 212.5,252.9 214.9,251.4
		213.8,244.6 214.3,239.7 219.6,237.3 220.5,233.7 219.9,231.7 216.5,231.4 214.9,222.7 212.7,219.4 212.9,218 213.8,217.4
		213.8,214.9 211.8,213.3 211.4,209.1 209.3,207.1 208.2,209.1 	"/>
	<polygon class="st0" points="213.6,401.6 210.7,401.4 210.2,400.3 208.7,402.1 205.8,402.5 207.1,403.6 205.8,404.1 205.8,406.5
		210.7,407.2 207.1,409.7 207.6,412.8 210.5,414.1 207.1,413.2 206.9,413.9 207.6,414.4 206.9,415 203.5,412.1 204.7,414.1
		201.5,415.3 201.7,416.6 204,416.6 203.8,417.7 211.8,418.8 213.8,418.4 	"/>
	<polygon class="st0" points="206,421.1 204.9,420 206,420 	"/>
	<polygon class="st0" points="205.1,408.3 206,411.9 204.9,412.1 205.8,413 204,411.9 	"/>
	<polygon class="st0" points="199.3,410.6 203.1,413.7 198.4,412.8 198.2,411 	"/>
	<polygon class="st0" points="191.7,407 195,407.4 197.9,410.3 197,412.1 194.8,412.6 193,411.5 	"/>
	<polygon class="st0" points="187,402.5 193.9,407 187.9,404.1 	"/>
	<polygon class="st0" points="191.2,400.3 190.6,401.8 190.3,400.5 	"/>
	<polygon class="st0" points="191.9,398.5 193.9,398 194.6,399.4 195.3,397.1 196.2,399.2 194.8,401.6 196.8,403.6 198.6,401.8
		200.9,402.1 201.3,403.2 196.8,405.9 196.8,407.7 196.2,407.4 193.9,405.4 195.7,405.4 195,403.9 193,404.3 191.7,402.5 	"/>
	<polygon class="st0" points="191.2,393.6 191.5,394.9 190.6,392.7 	"/>
	<polygon class="st0" points="189.7,394.7 190.6,396 189.4,395.4 189.2,394 	"/>
	<polygon class="st0" points="186.1,392.9 187.2,390.9 187.4,392.7 	"/>
	<polygon class="st0" points="188.1,389.5 187.9,390.9 187.2,390.9 186.3,387.3 	"/>
	<polygon class="st0" points="188.1,387.8 187,385.7 189,387.3 189.4,388.4 	"/>
	<polygon class="st0" points="183.9,384.8 186.3,384.6 185.9,386.2 	"/>
	<polygon class="st0" points="183.4,381 183.9,380.4 184.8,381.7 	"/>
	<polygon class="st0" points="185.6,375.9 186.3,373.9 187.9,375.7 187.4,383.3 186.3,382.4 186.3,379.5 184.5,378.1 185.6,378.4
		184.8,377 	"/>
	<polygon class="st0" points="183.6,373.4 183.9,372.5 184.5,373.7 183.6,374.6 	"/>
	<polygon class="st0" points="183.6,370.5 184.1,369.9 185.2,373.4 	"/>
	<polygon class="st0" points="188.6,368.1 187.2,367.2 187.9,366.7 	"/>
	<polygon class="st0" points="189.2,351.1 190.8,350.6 191.2,352.2 	"/>
	<polygon class="st0" points="193.9,346.6 195,347.5 194.8,349.1 192.8,349.7 191.9,347.7 	"/>
	<polygon class="st0" points="190.6,330.5 191.7,331.4 192.6,334.5 191.2,335.9 191.9,337.2 191.5,337.2 191.9,339.2 191.2,339.2
		190.8,340.8 188.6,340.3 188.3,339.2 189.4,332.1 	"/>
	<polygon class="st0" points="208,419.7 207.6,418.6 210.7,419.3 	"/>
	<polygon class="st0" points="208,420.4 214.7,418.8 215.4,420 212.5,419.7 215.8,420.8 214.3,421.7 216.1,422.2 217,424.4
		212,421.1 210.7,421.5 212,423.3 210.5,423.1 209.3,421.7 210.5,420.6 	"/>
	<polygon class="st0" points="216.1,419.3 220.3,418.8 220.8,420.6 218.1,421.1 216.3,420.6 	"/>
	<polygon class="st0" points="113,130.2 113.2,131 112.3,131 	"/>
	<polygon class="st0" points="184.1,129.5 180.7,127.5 180.1,127.9 175.6,127.9 173.8,125.7 168.4,123 163.1,125.7 163.1,128.4
		161.7,132.2 159.9,133.5 159.9,139.1 162.2,140.7 163.7,138.7 164.4,140.2 164,142.5 161.7,144.2 162.4,145.8 160.8,146.9
		161.3,148.9 163.1,148.5 165.1,148.9 166,151 167.5,150.7 169.1,149.6 169.3,146.3 170.4,144.5 171.6,144.5 172,142.9 178.3,140.2
		182.3,136.4 184.1,133.3 184.8,133.3 183,130.2 	"/>
	<polygon class="st0" points="118.8,131 118.1,132.2 117.4,131.9 	"/>
	<polygon class="st0" points="116.1,129.7 115.7,130.6 116.5,130.8 	"/>
	<polygon class="st0" points="113.4,128.4 115.4,132.4 113.6,134 113,132.4 113.9,131 112.5,129 	"/>
	<polygon class="st0" points="276.4,118.8 277.8,117.4 278.4,112.9 276.9,110 276.7,107.1 278.4,104.9 279.1,104.2 284.5,106.5
		288.1,109.4 289.2,111.1 285.2,117.6 282.5,119.6 278.4,120.1 	"/>
	<polygon class="st0" points="248.9,106.2 246.2,102 247.1,99.5 249.8,97.7 248.5,97.5 248.5,95.3 252.3,93.3 252.7,92.6
		253.8,92.6 257.6,95.5 258.5,98.8 261.9,99.7 265,103.3 263.2,107.1 261,107.6 260.1,110.9 262.3,114.1 263.9,114.5 265.5,118.3
		267.5,120.5 264.4,120.1 257.9,123.2 255,122.3 253.4,121 253.4,119 252.3,117.9 253,112.9 254.1,111.8 253.4,109.4 251.8,108.9
		251.6,106.2 	"/>
	<polygon class="st0" points="260.1,218.9 257.6,215.8 255.6,214.9 252.1,214.9 243.3,217.1 241.1,221.6 241.1,224.7 239.8,229.2
		241.1,229.4 247.8,237 253.2,238.2 261.2,243.7 261.7,245.3 258.8,250.5 258.8,252.2 263,252.9 265.7,254.3 270.8,253.6
		275.1,249.3 275.8,244.9 276.7,239.5 276.4,236.6 271.7,236.4 270.2,229.2 267.7,228.3 264.6,229 261,227.9 	"/>
	<polygon class="st2" points="209.3,207.1 208.2,209.1 205.1,210 197.3,203.5 190.8,201 184.8,197 179.6,192.1 179.4,187.6
		173.8,179.3 168.4,165.5 166,163.3 163.7,158.8 158.6,154.8 159.5,153.2 158.6,152.1 157.9,148 161.7,144.2 162.4,145.8
		160.8,146.9 161.3,148.9 163.1,148.5 165.1,148.9 166,151 167.5,150.7 169.1,149.6 169.3,146.3 170.4,144.5 171.6,144.5 172,142.9
		178.3,140.2 182.3,136.4 184.1,133.3 184.8,133.3 183,130.2 184.1,129.5 186.3,129.9 189.4,133.5 191.2,134.2 191.9,136.6
		193.5,136.9 194.1,139.8 197.3,140 199.3,138.9 201.7,139.5 203.1,138.9 206.4,140.2 207.3,141.8 204.9,145.6 207.6,146.9
		200.4,148.9 196.8,151.2 194.1,154.8 193.9,157.7 192.4,158.6 190.8,162.1 191.9,165.3 194.8,168.2 194.6,170.2 197,170.4
		198.2,172.4 200.4,172.6 205.3,169.7 205.3,176.9 206,177.6 209.1,176.9 212.9,183.6 211.8,185.6 211.8,192.8 210.5,193.9
		211.4,196.1 210.2,197.7 210.2,199.5 211.8,202.2 209.1,206 	"/>
	<polygon class="st0" points="267.5,120.5 265.5,118.3 263.9,114.5 262.3,114.1 260.1,110.9 261,107.6 263.2,107.1 265,103.3
		274.2,102.9 278.4,103.8 278.4,104.9 276.7,107.1 276.9,110 278.4,112.9 277.8,117.4 276.4,118.8 274.2,117.9 270.6,118.3
		269.9,120.8 	"/>
	<polygon class="st0" points="247.6,81.6 246.7,84.3 243.3,84.8 245.1,83.2 244.5,81.6 	"/>
	<polygon class="st0" points="262.1,267.9 265.7,267.4 268.6,269.9 269.1,271.9 271.1,271 273.1,273.3 278.9,276.8 279.8,279.1
		282,280.9 280.2,283.1 280.7,286.2 277.5,290.9 274.2,292.5 268.4,292 263.9,290 260.8,289.8 258.5,287.6 259.9,281.8 261,269.5
		"/>
	<polygon class="st0" points="201.7,76.5 199.3,77.4 196.2,80.7 192.8,88.6 195,88.6 197,92.8 197.3,96.2 199.1,97.5 201.5,98.2
		205.1,97.5 207.3,98.4 210.5,102.2 218.7,101.8 217,108.7 217.6,111.1 219.6,114.3 217.4,116.7 219.4,118.8 221.4,123.2
		223.7,125.5 227,125.5 232.8,122.3 234.2,120.5 237.1,119.4 237.1,118.5 233.3,118.3 232.8,115.4 233.1,112.9 231,111.6 230.8,110
		238.4,112 247.6,108.7 248.9,106.2 246.2,102 247.1,99.5 249.8,97.7 248.5,97.5 248.5,95.3 252.3,93.3 252.7,92.6 250.9,91
		249.4,91.9 247.6,91.7 248.5,90.6 247.6,87.7 244.2,85.9 241.5,85.9 240.4,83.9 238.9,83.2 242.9,81.9 233.7,81.9 233.1,82.1
		235.1,82.7 229.2,84.1 227,84.1 224.8,82.1 216.5,82.7 214.9,79.4 209.6,78.3 208,74.9 206.4,77.2 208.5,77.6 208.7,78.3 204,79.4
		201.3,81.4 201.3,83.2 202.9,85.9 203.1,87.7 200.6,89.2 199.1,86.3 199.1,84.8 200.6,81.6 199.5,77.6 	"/>
	<polygon class="st0" points="234.4,79.6 235.1,80.5 234.2,81 232.6,80.3 	"/>
	<polygon class="st0" points="172.7,96.6 173.6,95 174.2,95.3 175.8,93.7 174.7,91.7 174.9,90.8 177.4,93.7 177.4,90.8 182.5,87
		182.7,82.7 185.6,80.5 187.4,80.5 187.9,81.4 189.2,79.2 193.5,78.7 197.5,76.9 198.6,75.1 200.4,74 202.4,75.1 201.7,76.5
		199.3,77.4 196.2,80.7 192.8,88.6 195,88.6 197,92.8 197.3,96.2 199.1,97.5 201.5,98.2 205.1,97.5 207.3,98.4 210.5,102.2
		218.7,101.8 217,108.7 217.6,111.1 219.6,114.3 217.4,116.7 219.4,118.8 221.4,123.2 220.5,123.9 218.7,120.1 216.5,121
		215.4,120.1 214.9,121.2 208.2,121.2 208.5,124.1 210.5,124.3 211.4,126.4 207.3,126.6 207.3,129.7 209.3,131.3 210.2,134.4
		207.6,146.9 204.9,145.6 207.3,141.8 206.4,140.2 203.1,138.9 201.7,139.5 199.3,138.9 197.3,140 194.1,139.8 193.5,136.9
		191.9,136.6 191.2,134.2 189.4,133.5 186.3,129.9 184.1,129.5 180.7,127.5 180.1,127.9 175.6,127.9 173.8,125.7 168.4,123
		168,121.9 169.5,121 169.8,117.9 173.8,116.7 174.2,114.9 176.9,112 174.7,111.8 174.9,100.4 	"/>
	<polygon class="st0" points="245.3,55.5 244,56.1 244,57.7 246.2,56.4 	"/>
	<polygon class="st0" points="246.5,62.8 247.8,64.9 247.1,64.9 	"/>
	<polyline class="st0" points="138.5,75.4 141.1,77.4 142,79.6 138.5,78.7 137.6,75.4 138.5,75.4 	"/>
</svg>
